<?xml version="1.0" encoding="UTF-8" standalone="no"?>
<svg width="60px" height="61px" viewBox="0 0 60 61" version="1.1" xmlns="http://www.w3.org/2000/svg" xmlns:xlink="http://www.w3.org/1999/xlink">
    <!-- Generator: Sketch 43.2 (39069) - http://www.bohemiancoding.com/sketch -->
    <title>financial-document-circle</title>
    <desc>Created with Sketch.</desc>
    <defs></defs>
    <g id="Help-for-cand.-+-comm.-/-Reporting-examples" stroke="none" stroke-width="1" fill="none" fill-rule="evenodd">
        <g id="Day-to-day-expenditures" transform="translate(-373.000000, -540.000000)">
            <g id="Group-6-Copy-2" transform="translate(362.000000, 527.080000)">
                <g id="financial-document-circle" transform="translate(11.000000, 13.844444)">
                    <ellipse id="Oval-121-Copy-4" fill="#FFFFFF" cx="30" cy="29.6666667" rx="30" ry="29.6666667"></ellipse>
                    <path d="M16.5656113,12.1849725 C16.5656113,11.910824 16.7954155,11.6885827 17.0719566,11.6885827 C17.0719566,11.6885827 34.6562666,11.6885827 38.3153162,11.6885827 C40.0214929,13.4928813 43.6300897,16.2100114 45.4343883,18.0036277 C45.4343883,23.4238486 45.434389,47.2737812 45.434389,47.2737812 C45.434389,47.5503506 45.218615,47.7745543 44.9333173,47.7745543 L17.066683,47.7745543 C16.7899487,47.7745543 16.5656113,47.5441164 16.5656113,47.2781645 L16.5656113,12.1849725 Z M20.1742085,15.2971799 L20.1742085,44.1659572 L41.8257914,44.1659572 L41.8257914,19.8079263 L37.315045,19.8079263 L37.315045,15.2971799 L20.1742085,15.2971799 Z M23.9527278,35.5158869 C23.3606391,35.5158869 22.8806563,35.0288351 22.8806563,34.4280263 C22.8806563,33.8272175 23.3606391,33.3401657 23.9527278,33.3401657 L37.776628,33.3401657 C38.3687167,33.3401657 38.8486995,33.8272175 38.8486995,34.4280263 C38.8486995,35.0288351 38.3687167,35.5158869 37.776628,35.5158869 L23.9527278,35.5158869 Z M37.776628,40.9287826 L23.9527278,40.9287826 C23.3606391,40.9287826 22.8806563,40.4417308 22.8806563,39.840922 C22.8806563,39.2401132 23.3606391,38.7530614 23.9527278,38.7530614 L37.776628,38.7530614 C38.3687167,38.7530614 38.8486995,39.2401132 38.8486995,39.840922 C38.8486995,40.4417308 38.3687167,40.9287826 37.776628,40.9287826 Z M28.1552055,23.6454922 C28.7867131,23.8644149 29.2582318,24.1401691 29.5697756,24.4727631 C29.8813194,24.8053571 30.0370889,25.2453009 30.0370889,25.7926075 C30.0370889,26.3904348 29.7929096,26.9082633 29.3045437,27.3461086 C28.7656571,27.8092142 28.0120693,28.0744435 27.0437576,28.1418043 L27.0437576,29.2532522 L25.98283,29.2532522 L25.98283,28.1165441 C25.1071394,28.0323431 24.3956514,27.7713238 23.8483448,27.3334785 C23.2673577,26.8619528 22.9768686,26.2220346 22.9768686,25.4137048 L24.4545891,25.4137048 C24.4545891,25.8178697 24.5850987,26.1251988 24.8461219,26.3357014 C25.1071451,26.5462039 25.486044,26.6809236 25.98283,26.7398643 L25.98283,24.2896268 L25.3513255,24.0749153 C24.6440369,23.8391524 24.0967385,23.5549782 23.7094138,23.2223842 C23.3220891,22.8897901 23.1284296,22.4245865 23.1284296,21.8267592 C23.1284296,21.228932 23.3705039,20.7300484 23.8546598,20.3300936 C24.3388157,19.9301387 25.0481987,19.6964844 25.98283,19.6291236 L25.98283,18.6692367 L27.0437576,18.6692367 L27.0437576,19.6417536 C27.8605075,19.7259547 28.4835857,19.9785539 28.9130109,20.3995591 C29.3424361,20.8205642 29.6160853,21.3678626 29.7339667,22.0414708 L28.2562462,22.0414708 C28.2141457,21.7888677 28.089951,21.5636333 27.8836585,21.3657609 C27.677366,21.1678885 27.3974018,21.0310639 27.0437576,20.955283 L27.0437576,23.2539594 L28.1552055,23.6454922 Z M28.0415347,26.424112 C28.2520372,26.2388698 28.3572869,26.0199504 28.3572869,25.7673473 C28.3572869,25.2874015 28.0541678,24.9337625 27.4479204,24.7064198 L27.0437576,24.5548587 L27.0437576,26.7651244 C27.4984431,26.7230239 27.8310321,26.6093543 28.0415347,26.424112 Z M25.0671485,21.2584052 C24.860856,21.4352273 24.7577113,21.6415167 24.7577113,21.8772796 C24.7577113,22.1130425 24.8250711,22.3003869 24.9597927,22.4393186 C25.0945143,22.5782503 25.3092237,22.6982349 25.6039273,22.7992762 L25.98283,22.9508372 L25.98283,20.9173927 C25.5786651,20.9679134 25.273441,21.081583 25.0671485,21.2584052 Z" id="document-copy" fill="#F77B42"></path>
                </g>
            </g>
        </g>
    </g>
</svg>