<?xml version="1.0" encoding="UTF-8"?>
<svg width="61px" height="61px" viewBox="0 0 61 61" version="1.1" xmlns="http://www.w3.org/2000/svg" xmlns:xlink="http://www.w3.org/1999/xlink">
    <!-- Generator: Sketch 42 (36781) - http://www.bohemiancoding.com/sketch -->
    <title>i-calendar-circle</title>
    <desc>Created with Sketch.</desc>
    <defs></defs>
    <g id="Page-1" stroke="none" stroke-width="1" fill="none" fill-rule="evenodd">
        <g id="i-calendar-circle" fill-rule="nonzero">
            <circle id="Oval-37" fill="#F1F1F1" cx="30.5" cy="30.5" r="30.5"></circle>
            <g id="calendar" transform="translate(14.000000, 12.000000)" fill="#631010">
                <path d="M6.5175,5.7815 C6.85445755,5.7815 7.1776142,5.64764413 7.41587917,5.40937917 C7.65414413,5.1711142 7.788,4.84795755 7.788,4.511 L7.788,1.9205 C7.788,1.21882223 7.21917777,0.65 6.5175,0.65 C5.81582223,0.65 5.247,1.21882223 5.247,1.9205 L5.247,4.511 C5.247,5.21267777 5.81582223,5.7815 6.5175,5.7815 Z" id="Shape"></path>
                <path d="M26.07,5.7815 C26.7716778,5.7815 27.3405,5.21267777 27.3405,4.511 L27.3405,1.9205 C27.3405,1.20515318 26.7605968,0.62525 26.04525,0.62525 C25.3299032,0.62525 24.75,1.20515318 24.75,1.9205 L24.75,4.511 C24.7497375,4.85671197 24.8903668,5.18760275 25.1394478,5.42734321 C25.3885288,5.66708367 25.7245504,5.7949694 26.07,5.7815 Z" id="Shape"></path>
                <path d="M29.7,3.5045 L28.05,3.5045 L28.05,4.742 C28.05,5.65326984 27.3112698,6.392 26.4,6.392 L25.707,6.392 C24.7957302,6.392 24.057,5.65326984 24.057,4.742 L24.057,3.5045 L8.481,3.5045 L8.481,4.742 C8.481,5.65326984 7.74226984,6.392 6.831,6.392 L6.1875,6.392 C5.27623016,6.392 4.5375,5.65326984 4.5375,4.742 L4.5375,3.5045 L3.3,3.5045 C1.47746033,3.5045 2.23196738e-16,4.98196033 0,6.8045 L0,30.1685 C2.23196738e-16,31.9910397 1.47746033,33.4685 3.3,33.4685 L29.7,33.4685 C31.5225397,33.4685 33,31.9910397 33,30.1685 L33,6.8045 C33,4.98196033 31.5225397,3.5045 29.7,3.5045 Z M4.653,29.063 C3.659777,29.0720703 2.84725003,28.2742718 2.83815183,27.2810491 C2.82905363,26.2878263 3.62682935,25.475277 4.62005185,25.4661509 C5.61327434,25.4570248 6.42584607,26.2547778 6.435,27.248 C6.4393962,27.7249978 6.25411532,28.1842033 5.91992118,28.5245862 C5.58572704,28.8649692 5.12999819,29.0586439 4.653,29.063 Z M29.238,28.172 L8.91,28.172 C8.46082157,28.1630146 8.10141014,27.7962683 8.1015,27.347 C8.09706495,27.1297281 8.18028401,26.9198185 8.33239053,26.7646077 C8.48449706,26.609397 8.6926828,26.5219547 8.91,26.522 L29.238,26.522 C29.6871784,26.5309854 30.0465899,26.8977317 30.0465,27.347 C30.0465,27.7935222 29.6845222,28.1555 29.238,28.1555 L29.238,28.172 Z M31.746,23.519 L1.2705,23.519 L1.2705,22.5455 L31.7295,22.5455 L31.7295,23.5025 L31.746,23.519 Z M4.95,16.5065 C5.67888959,16.4998127 6.33973498,16.9337377 6.62331491,17.6052339 C6.90689483,18.2767302 6.75712228,19.0529877 6.24407849,19.5707819 C5.73103471,20.0885761 4.9561905,20.2454966 4.2821092,19.9681175 C3.60802791,19.6907384 3.16803068,19.0339203 3.168,18.305 C3.16795847,17.318124 3.96316554,16.5155539 4.95,16.5065 Z M3.1845,13.5365 C3.19365431,12.552391 3.99883844,11.7620261 4.98294766,11.7711523 C5.96705688,11.7802785 6.75744482,12.58544 6.74834676,13.5695495 C6.7392487,14.553659 5.93410974,15.3440699 4.95,15.335 C3.96962681,15.3170085 3.18433493,14.5170382 3.1845,13.5365 L3.1845,13.5365 Z M9.24,17.579 L29.5515,17.579 C30.0006784,17.5879854 30.3600899,17.9547317 30.36,18.404 C30.364435,18.6212719 30.281216,18.8311815 30.1291095,18.9863923 C29.9770029,19.141603 29.7688172,19.2290453 29.5515,19.229 L9.2235,19.229 C8.77432157,19.2200146 8.41491014,18.8532683 8.415,18.404 C8.41056495,18.1867281 8.49378401,17.9768185 8.64589053,17.8216077 C8.79799706,17.666397 9.0061828,17.5789547 9.2235,17.579 L9.24,17.579 Z M8.415,13.553 C8.41056495,13.3357281 8.49378401,13.1258185 8.64589053,12.9706077 C8.79799706,12.815397 9.0061828,12.7279547 9.2235,12.728 L29.5515,12.728 C30.0006784,12.7369854 30.3600899,13.1037317 30.36,13.553 C30.364435,13.7702719 30.281216,13.9801815 30.1291095,14.1353923 C29.9770029,14.290603 29.7688172,14.3780453 29.5515,14.378 L9.2235,14.378 C8.77432157,14.3690146 8.41491014,14.0022683 8.415,13.553 Z M31.7295,9.8405 L1.2705,9.8405 L1.2705,8.9 L31.7295,8.9 L31.7295,9.8405 Z" id="Shape"></path>
            </g>
        </g>
    </g>
</svg>