<?xml version="1.0" encoding="UTF-8" standalone="no"?>
<svg width="105px" height="105px" viewBox="0 0 105 105" version="1.1" xmlns="http://www.w3.org/2000/svg" xmlns:xlink="http://www.w3.org/1999/xlink">
    <!-- Generator: Sketch 3.8.3 (29802) - http://www.bohemiancoding.com/sketch -->
    <title>i-complex--data</title>
    <desc>Created with Sketch.</desc>
    <defs></defs>
    <g id="CMS-Pages" stroke="none" stroke-width="1" fill="none" fill-rule="evenodd">
        <g id="Beta-Home-2-Copy-11" transform="translate(-819.000000, -523.000000)">
            <g id="i-complex--data" transform="translate(819.000000, 523.000000)">
                <g id="Group-6-Copy">
                    <circle id="Mask" fill="#FFFFFF" cx="52.9041447" cy="52.0671562" r="52"></circle>
                    <g id="Group-3" transform="translate(17.564460, 20.000000)">
                        <polyline id="Fill-1" fill="#F77B42" points="10.451128 43.8583109 6.53155279 47.8937332 0.997183316 46.9405664 3.60996542 51.9291554 0.997183316 56.9169374 6.53155279 55.9645777 10.451128 60 11.2585251 54.4230464 16.2934986 51.9291554 11.2585251 49.4352645 10.451128 43.8583109"></polyline>
                        <polyline id="Fill-2" fill="#AEB0B5" points="22.7854059 16.4347923 25.74499 19.4818499 26.3546376 15.2708163 30.1564341 13.3877347 26.3546376 11.504653 25.74499 7.29361941 22.7854059 10.340677 18.6065265 9.62096202 20.5793802 13.3877347 18.6065265 17.1538979 22.7854059 16.4347923"></polyline>
                        <polyline id="Fill-3" fill="#AEB0B5" points="8.13564673 7.29361941 5.17606263 10.340677 0.997183316 9.62096202 2.97003698 13.3877347 0.997183316 17.1538979 5.17606263 16.4347923 8.13564673 19.4818499 8.74529434 15.2708163 12.5470908 13.3877347 8.74529434 11.504653 8.13564673 7.29361941"></polyline>
                        <polyline id="Fill-4" fill="#AEB0B5" points="8.13564673 25.5759651 5.17606263 28.6230228 0.997183316 27.9033078 2.97003698 31.6700804 0.997183316 35.4362436 5.17606263 34.717138 8.13564673 37.7641956 8.74529434 33.553162 12.5470908 31.6700804 8.74529434 29.7869988 8.13564673 25.5759651"></polyline>
                        <polyline id="Fill-5" fill="#AEB0B5" points="22.7854394 34.7184648 25.7450472 37.7659647 26.3546997 33.5543199 30.1565267 31.6709649 26.3546997 29.78761 25.7450472 25.5759651 22.7854394 28.623465 18.6065265 27.9036456 20.579396 31.6709649 18.6065265 35.4376748 22.7854394 34.7184648"></polyline>
                        <polygon id="Fill-6" fill="#AEB0B5" points="65.6586917 7.23450649 37.1194113 7.23450649 37.1194113 19.422737 65.6586917 19.422737 65.6586917 25.5168522 37.1194113 25.5168522 37.1194113 37.7050827 65.6586917 37.7050827 65.6586917 43.799198 18.2956306 43.799198 18.2956306 55.9874285 65.6586917 55.9874285 65.6586917 62.0815437 68.6947853 62.0815437 68.6947853 0.53097972 65.6586917 0.53097972"></polygon>
                    </g>
                    <path d="M36.9847666,77.0803315 C37.9762543,75.3936883 38.5551704,73.4331781 38.5551704,71.332429 C38.5551704,65.0740951 33.5061015,60 27.2775852,60 C21.0490689,60 16,65.0740951 16,71.332429 C16,77.5912352 21.0490689,82.6648581 27.2775852,82.6648581 C29.3681675,82.6648581 31.3191898,82.0831267 32.9976704,81.0868173 L40.2070777,88.3317569 C40.7173885,88.8445493 41.4222376,89.1613851 42.2008608,89.1613851 C42.6635713,89.1613851 43.1002281,89.04941 43.4854621,88.8509522 C44.3967286,88.3815027 45.0202571,87.4281368 45.0202571,86.3282779 C45.0202571,85.5458681 44.7044847,84.8375913 44.1946439,84.325271 L36.9847666,77.0803315 Z M27.2775852,79.8317508 C22.6063154,79.8317508 18.8193963,76.0264156 18.8193963,71.332429 C18.8193963,66.6384425 22.6063154,62.8331073 27.2775852,62.8331073 C31.9488549,62.8331073 35.7357741,66.6384425 35.7357741,71.332429 C35.7357741,76.0264156 31.9488549,79.8317508 27.2775852,79.8317508 L27.2775852,79.8317508 Z" id="Imported-Layers" fill="#022C53"></path>
                </g>
                <rect id="Rectangle-968" fill="#D6D7D9" x="83" y="20" width="4" height="62"></rect>
            </g>
        </g>
    </g>
</svg>