<?xml version="1.0" encoding="UTF-8" standalone="no"?>
<svg width="104px" height="104px" viewBox="0 0 104 104" version="1.1" xmlns="http://www.w3.org/2000/svg" xmlns:xlink="http://www.w3.org/1999/xlink">
    <!-- Generator: Sketch 3.8.3 (29802) - http://www.bohemiancoding.com/sketch -->
    <title>i-complex--regreport</title>
    <desc>Created with Sketch.</desc>
    <defs>
        <ellipse id="path-1" cx="51.8352652" cy="51.9546774" rx="51.1906381" ry="51.1906381"></ellipse>
    </defs>
    <g id="CMS-Pages" stroke="none" stroke-width="1" fill="none" fill-rule="evenodd">
        <g id="Beta-Home-2-Copy-11" transform="translate(-340.000000, -524.000000)">
            <g id="i-complex--regreport" transform="translate(340.000000, 524.000000)">
                <mask id="mask-2" fill="white">
                    <use xlink:href="#path-1"></use>
                </mask>
                <use id="Mask" fill="#FFFFFF" xlink:href="#path-1"></use>
                <g id="Group-5" mask="url(#mask-2)">
                    <g transform="translate(22.000000, 18.000000)">
                        <rect id="Rectangle-76-Copy-28" fill="#D6D7D9" x="0" y="0.410517102" width="59.4557124" height="90.5894829" rx="2"></rect>
                        <rect id="Rectangle-26" fill="#AEB0B5" x="21.4962349" y="9.10678823" width="29.6691214" height="3.01186536" rx="1"></rect>
                        <rect id="Rectangle-26-Copy" fill="#AEB0B5" x="21.4962349" y="16.6364516" width="29.6691214" height="3.01186536" rx="1"></rect>
                        <rect id="Rectangle-26-Copy-18" fill="#AEB0B5" x="21.4962349" y="28.1067882" width="29.6691214" height="3.01186536" rx="1"></rect>
                        <rect id="Rectangle-26-Copy-2" fill="#AEB0B5" x="21.4962349" y="35.6364516" width="29.6691214" height="3.01186536" rx="1"></rect>
                        <g id="Group-4" stroke-width="1" fill="none" transform="translate(7.000000, 8.000000)">
                            <ellipse id="Oval-34-Copy-9" fill="#112E51" cx="6" cy="6" rx="6" ry="6"></ellipse>
                            <path d="M5.45161905,8.97880821 C5.34838095,9.08460519 5.20552381,9.15019151 5.04761905,9.15019151 C4.88990476,9.15019151 4.74704762,9.08460519 4.64361905,8.97880821 L2.16742857,6.44124224 C2.064,6.33525006 2,6.18885202 2,6.02703339 C2,5.70359133 2.25580952,5.44144124 2.57142857,5.44144124 C2.72933333,5.44144124 2.872,5.50702756 2.97542857,5.61301974 L5.04761905,7.73657207 L9.02457143,3.66104592 C9.128,3.55505374 9.27085714,3.48946742 9.42857143,3.48946742 C9.74419048,3.48946742 10,3.7516175 10,4.07505957 C10,4.236683 9.936,4.38327623 9.8327619,4.48926841 L5.45161905,8.97880821 Z" id="Fill-3-Copy-3" stroke="#FFFFFF" fill="#FFFFFF"></path>
                        </g>
                        <g id="Group-4-Copy" stroke-width="1" fill="none" transform="translate(7.000000, 27.000000)">
                            <ellipse id="Oval-34-Copy-9" fill="#FFFFFF" cx="6" cy="6" rx="6" ry="6"></ellipse>
                            <path d="M9.8327619,4.48926841 L9.8327619,4.48926841 L5.45161905,8.97880821 C5.34838095,9.08460519 5.20552381,9.15019151 5.04761905,9.15019151 C4.88990476,9.15019151 4.74704762,9.08460519 4.64361905,8.97880821 L2.16742857,6.44124224 C2.064,6.33525006 2,6.18885202 2,6.02703339 C2,5.70359133 2.25580952,5.44144124 2.57142857,5.44144124 C2.72933333,5.44144124 2.872,5.50702756 2.97542857,5.61301974 L5.04761905,7.73657207 L9.02457143,3.66104592 C9.128,3.55505374 9.27085714,3.48946742 9.42857143,3.48946742 C9.74419048,3.48946742 10,3.7516175 10,4.07505957 C10,4.236683 9.936,4.38327623 9.8327619,4.48926841" id="Fill-3-Copy-3" stroke="#F77B42" fill="#F77B42"></path>
                        </g>
                        <rect id="Rectangle-26-Copy-19" fill="#AEB0B5" x="21.4962349" y="47.1067882" width="29.6691214" height="3.01186536" rx="1"></rect>
                        <rect id="Rectangle-26-Copy-3" fill="#AEB0B5" x="21.4962349" y="54.6364516" width="29.6691214" height="3.01186536" rx="1"></rect>
                        <g id="Group-4-Copy-2" stroke-width="1" fill="none" transform="translate(7.000000, 46.000000)">
                            <ellipse id="Oval-34-Copy-9" fill="#FFFFFF" cx="6" cy="6" rx="6" ry="6"></ellipse>
                            <path d="M9.8327619,4.48926841 L9.8327619,4.48926841 L5.45161905,8.97880821 C5.34838095,9.08460519 5.20552381,9.15019151 5.04761905,9.15019151 C4.88990476,9.15019151 4.74704762,9.08460519 4.64361905,8.97880821 L2.16742857,6.44124224 C2.064,6.33525006 2,6.18885202 2,6.02703339 C2,5.70359133 2.25580952,5.44144124 2.57142857,5.44144124 C2.72933333,5.44144124 2.872,5.50702756 2.97542857,5.61301974 L5.04761905,7.73657207 L9.02457143,3.66104592 C9.128,3.55505374 9.27085714,3.48946742 9.42857143,3.48946742 C9.74419048,3.48946742 10,3.7516175 10,4.07505957 C10,4.236683 9.936,4.38327623 9.8327619,4.48926841" id="Fill-3-Copy-3" stroke="#F77B42" fill="#F77B42"></path>
                        </g>
                        <rect id="Rectangle-26-Copy-20" fill="#AEB0B5" x="21.4962349" y="66.1067882" width="29.6691214" height="3.01186536" rx="1"></rect>
                        <rect id="Rectangle-26-Copy-4" fill="#AEB0B5" x="21.4962349" y="73.6364516" width="29.6691214" height="3.01186536" rx="1"></rect>
                        <g id="Group-4-Copy-3" stroke-width="1" fill="none" transform="translate(7.000000, 65.000000)">
                            <ellipse id="Oval-34-Copy-9" fill="#FFFFFF" cx="6" cy="6" rx="6" ry="6"></ellipse>
                            <path d="M9.8327619,4.48926841 L9.8327619,4.48926841 L5.45161905,8.97880821 C5.34838095,9.08460519 5.20552381,9.15019151 5.04761905,9.15019151 C4.88990476,9.15019151 4.74704762,9.08460519 4.64361905,8.97880821 L2.16742857,6.44124224 C2.064,6.33525006 2,6.18885202 2,6.02703339 C2,5.70359133 2.25580952,5.44144124 2.57142857,5.44144124 C2.72933333,5.44144124 2.872,5.50702756 2.97542857,5.61301974 L5.04761905,7.73657207 L9.02457143,3.66104592 C9.128,3.55505374 9.27085714,3.48946742 9.42857143,3.48946742 C9.74419048,3.48946742 10,3.7516175 10,4.07505957 C10,4.236683 9.936,4.38327623 9.8327619,4.48926841" id="Fill-3-Copy-3" stroke="#F77B42" fill="#F77B42"></path>
                        </g>
                    </g>
                </g>
            </g>
        </g>
    </g>
</svg>