<?xml version="1.0" encoding="UTF-8" standalone="no"?>
<svg width="104px" height="104px" viewBox="0 0 104 104" version="1.1" xmlns="http://www.w3.org/2000/svg" xmlns:xlink="http://www.w3.org/1999/xlink">
    <!-- Generator: Sketch 3.8.3 (29802) - http://www.bohemiancoding.com/sketch -->
    <title>i-complex--legal</title>
    <desc>Created with Sketch.</desc>
    <defs>
        <ellipse id="path-1" cx="52.1686969" cy="51.5810123" rx="51.2645523" ry="51.5138562"></ellipse>
    </defs>
    <g id="CMS-Pages" stroke="none" stroke-width="1" fill="none" fill-rule="evenodd">
        <g id="Beta-Home-2-Copy-11" transform="translate(-101.000000, -523.000000)">
            <g id="i-complex--legal" transform="translate(101.000000, 523.000000)">
                <g id="Group-Copy">
                    <mask id="mask-2" fill="white">
                        <use xlink:href="#path-1"></use>
                    </mask>
                    <use id="Mask" fill="#FFFFFF" xlink:href="#path-1"></use>
                    <g id="Group" mask="url(#mask-2)">
                        <g transform="translate(21.000000, 17.000000)">
                            <rect id="Rectangle-76-Copy-29" fill="#D6D7D9" x="0" y="0" width="83" height="90.5199966" rx="2"></rect>
                            <rect id="Rectangle-26-Copy-6" fill="#AEB0B5" x="33.0940563" y="20" width="63.8900344" height="3.01186536" rx="1"></rect>
                            <rect id="Rectangle-26-Copy-7" fill="#AEB0B5" x="33.0940563" y="28" width="16.6000969" height="3.01186536" rx="1"></rect>
                            <rect id="Rectangle-26-Copy-8" fill="#AEB0B5" x="33.0940563" y="12" width="63.8900344" height="3.01186536" rx="1"></rect>
                            <rect id="Rectangle-26-Copy-11" fill="#AEB0B5" x="11.2594127" y="46" width="77.8108998" height="3.01186536" rx="1"></rect>
                            <rect id="Rectangle-26-Copy-10" fill="#AEB0B5" x="11.2594127" y="54" width="38.9463168" height="3.01186536" rx="1"></rect>
                            <rect id="Rectangle-26-Copy-9" fill="#AEB0B5" x="11.2594127" y="38" width="77.8108998" height="3.01186536" rx="1"></rect>
                            <ellipse id="Oval-605" fill="#FFFFFF" cx="19" cy="21" rx="10" ry="10"></ellipse>
                            <path d="M15.56875,21.4569265 C15.56875,23.9769265 20.2793382,24.1416324 20.2793382,26.0522206 C20.2793382,26.7769265 19.7028676,27.0733971 19.0275735,27.0733971 C17.8252206,27.0733971 17.6934559,25.9533971 17.6934559,24.9816324 C16.8369853,24.9816324 16.0299265,25.1463382 16.0299265,25.9863382 C16.0299265,27.0239853 17.2158088,27.5839853 18.8628676,27.5839853 C20.3781618,27.5839853 21.7946324,26.7604559 21.7946324,25.0804559 C21.7946324,24.2569265 21.2181618,23.6475147 20.4769853,23.1533971 C21.8111029,22.7745735 22.56875,21.9839853 22.56875,20.8475147 C22.56875,18.3275147 17.8581618,18.1628088 17.8581618,16.2522206 C17.8581618,15.5275147 18.4346324,15.2310441 19.1099265,15.2310441 C20.3122794,15.2310441 20.4440441,16.3510441 20.4440441,17.3228088 C21.3005147,17.3228088 22.1075735,17.1581029 22.1075735,16.3181029 C22.1075735,15.2804559 20.9216912,14.7204559 19.2746324,14.7204559 C17.7593382,14.7204559 16.3428676,15.5439853 16.3428676,17.2239853 C16.3428676,18.0639853 16.9028676,18.6569265 17.6440441,19.1510441 C16.3263971,19.5298676 15.56875,20.3204559 15.56875,21.4569265 L15.56875,21.4569265 Z M20.9711029,21.6051618 C20.9711029,22.1651618 20.6581618,22.5604559 19.8675735,22.7910441 C18.5993382,22.0828088 17.1663971,21.5392794 17.1663971,20.6992794 C17.1663971,20.15575 17.4793382,19.7439853 18.2699265,19.5298676 C19.5381618,20.2381029 20.9711029,20.7651618 20.9711029,21.6051618 L20.9711029,21.6051618 Z" id="ยง-" fill="#F77B42"></path>
                        </g>
                    </g>
                </g>
                <rect id="Rectangle-926-Copy-2" fill="#AEB0B5" x="59" y="70" width="14" height="6" rx="1"></rect>
                <path d="M59,61.990778 C59,61.4435864 59.4538992,61 59.9981795,61 L75.9697266,61 L78,63.5 L78,66.0064025 C78,66.5551512 77.5490746,67 77.0052288,67 L59.9947712,67 C59.4453742,67 59,66.5490248 59,66.009222 L59,61.990778 Z" id="Rectangle-926-Copy-3" fill="#AEB0B5"></path>
                <path d="M77.9847666,74.0803315 C78.9762543,72.3936883 79.5551704,70.4331781 79.5551704,68.332429 C79.5551704,62.0740951 74.5061015,57 68.2775852,57 C62.0490689,57 57,62.0740951 57,68.332429 C57,74.5912352 62.0490689,79.6648581 68.2775852,79.6648581 C70.3681675,79.6648581 72.3191898,79.0831267 73.9976704,78.0868173 L81.2070777,85.3317569 C81.7173885,85.8445493 82.4222376,86.1613851 83.2008608,86.1613851 C83.6635713,86.1613851 84.1002281,86.04941 84.4854621,85.8509522 C85.3967286,85.3815027 86.0202571,84.4281368 86.0202571,83.3282779 C86.0202571,82.5458681 85.7044847,81.8375913 85.1946439,81.325271 L77.9847666,74.0803315 Z M68.2775852,76.8317508 C63.6063154,76.8317508 59.8193963,73.0264156 59.8193963,68.332429 C59.8193963,63.6384425 63.6063154,59.8331073 68.2775852,59.8331073 C72.9488549,59.8331073 76.7357741,63.6384425 76.7357741,68.332429 C76.7357741,73.0264156 72.9488549,76.8317508 68.2775852,76.8317508 L68.2775852,76.8317508 Z" id="Imported-Layers-Copy" fill="#022C53"></path>
            </g>
        </g>
    </g>
</svg>