<?xml version="1.0" encoding="UTF-8"?>
<svg width="61px" height="61px" viewBox="0 0 61 61" version="1.1" xmlns="http://www.w3.org/2000/svg" xmlns:xlink="http://www.w3.org/1999/xlink">
    <!-- Generator: Sketch 42 (36781) - http://www.bohemiancoding.com/sketch -->
    <title>i-document-circle</title>
    <desc>Created with Sketch.</desc>
    <defs></defs>
    <g id="Page-1" stroke="none" stroke-width="1" fill="none" fill-rule="evenodd">
        <g id="i-document-circle" fill-rule="nonzero">
            <circle id="Oval-37" fill="#F1F1F1" cx="30.5" cy="30.5" r="30.5"></circle>
            <g id="document" transform="translate(18.000000, 14.000000)" fill="#631010">
                <path d="M4.54747351e-14,0.791015616 C4.54746156e-14,0.354149754 0.367559906,1.08432063e-17 0.803480521,2.31930599e-17 C0.803480521,2.31930599e-17 16.0422718,4.91976965e-16 19.2870114,0 C20.7999997,1.59999998 23.9999994,4.00947261 25.5999994,5.59999993 C25.5999994,10.4064955 25.6,31.1985113 25.6,31.1985113 C25.6,31.641161 25.2381104,31.9999996 24.8057709,31.9999996 L0.794229128,31.9999996 C0.355588493,31.9999996 4.54831724e-14,31.6406246 4.54830544e-14,31.2089839 L4.54747351e-14,0.791015616 Z M3.19999996,3.19999996 L3.19999996,28.7999996 L22.3999997,28.7999996 L22.3999997,7.19999991 L18.3999998,7.19999991 L18.3999998,3.19999996 L3.19999996,3.19999996 Z M6.550682,16.3293667 L18.8093183,16.3293667 C19.3343655,16.3293667 19.7600004,15.8974632 19.7600004,15.3646832 C19.7600004,14.8319033 19.3343655,14.3999998 18.8093183,14.3999998 L6.550682,14.3999998 C6.02563479,14.3999998 5.59999993,14.8319033 5.59999993,15.3646832 C5.59999993,15.8974632 6.02563479,16.3293667 6.550682,16.3293667 Z M6.550682,21.1293666 L18.8093183,21.1293666 C19.3343655,21.1293666 19.7600004,20.6974631 19.7600004,20.1646831 C19.7600004,19.6319033 19.3343655,19.1999998 18.8093183,19.1999998 L6.550682,19.1999998 C6.02563479,19.1999998 5.59999993,19.6319033 5.59999993,20.1646831 C5.59999993,20.6974631 6.02563479,21.1293666 6.550682,21.1293666 Z M18.8093183,25.9293666 C19.3343655,25.9293666 19.7600004,25.497463 19.7600004,24.964683 C19.7600004,24.4319032 19.3343655,23.9999997 18.8093183,23.9999997 L6.550682,23.9999997 C6.02563479,23.9999997 5.59999993,24.4319032 5.59999993,24.964683 C5.59999993,25.497463 6.02563479,25.9293666 6.550682,25.9293666 L18.8093183,25.9293666 Z" id="Shape"></path>
            </g>
        </g>
    </g>
</svg>