<?xml version="1.0" encoding="UTF-8"?>
<svg width="60px" height="61px" viewBox="0 0 60 61" version="1.1" xmlns="http://www.w3.org/2000/svg" xmlns:xlink="http://www.w3.org/1999/xlink">
    <!-- Generator: Sketch 49.2 (51160) - http://www.bohemiancoding.com/sketch -->
    <title>i-document--secondary-contrast</title>
    <desc>Created with Sketch.</desc>
    <defs></defs>
    <g id="Cards" stroke="none" stroke-width="1" fill="none" fill-rule="evenodd">
        <g id="Horizontal-cards" transform="translate(-296.000000, -1036.000000)">
            <g id="i-document--secondary-contrast" transform="translate(296.000000, 1036.000000)">
                <circle id="Oval-37" fill="#FFFFFF" cx="30" cy="30.3897239" r="30"></circle>
                <path d="M15.9999998,13.3844949 C15.9999998,13.1112405 16.2228883,12.8897239 16.5099196,12.8897239 C16.5099196,12.8897239 33.5462345,12.8897239 37.0951686,12.8897239 C38.7499995,14.6397239 42.2499991,17.2750847 43.9999991,19.0147239 C43.9999991,24.2718286 43.9999998,47.3930941 43.9999998,47.3930941 C43.9999998,47.6673752 43.7746154,47.8897239 43.4901054,47.8897239 L16.5098942,47.8897239 C16.2282873,47.8897239 15.9999998,47.6662208 15.9999998,47.3949529 L15.9999998,13.3844949 Z M19.4999998,16.3897239 L19.4999998,44.3897239 L40.4999998,44.3897239 L40.4999998,20.7647239 L36.1249998,20.7647239 L36.1249998,16.3897239 L19.4999998,16.3897239 Z M23.1648083,30.7499689 C22.5905379,30.7499689 22.1249998,30.2775745 22.1249998,29.6948464 C22.1249998,29.1121184 22.5905379,28.6397239 23.1648083,28.6397239 L36.5726919,28.6397239 C37.1469623,28.6397239 37.6125005,29.1121184 37.6125005,29.6948464 C37.6125005,30.2775745 37.1469623,30.7499689 36.5726919,30.7499689 L23.1648083,30.7499689 Z M23.1648083,35.9999689 C22.5905379,35.9999689 22.1249998,35.5275745 22.1249998,34.9448464 C22.1249998,34.3621184 22.5905379,33.8897239 23.1648083,33.8897239 L36.5726919,33.8897239 C37.1469623,33.8897239 37.6125005,34.3621184 37.6125005,34.9448464 C37.6125005,35.5275745 37.1469623,35.9999689 36.5726919,35.9999689 L23.1648083,35.9999689 Z M36.5726919,41.2499689 L23.1648083,41.2499689 C22.5905379,41.2499689 22.1249998,40.7775745 22.1249998,40.1948464 C22.1249998,39.6121184 22.5905379,39.1397239 23.1648083,39.1397239 L36.5726919,39.1397239 C37.1469623,39.1397239 37.6125005,39.6121184 37.6125005,40.1948464 C37.6125005,40.7775745 37.1469623,41.2499689 36.5726919,41.2499689 Z" id="document" fill="#F77B42"></path>
            </g>
        </g>
    </g>
</svg>