<?xml version="1.0" encoding="UTF-8"?>
<svg width="60px" height="61px" viewBox="0 0 60 61" version="1.1" xmlns="http://www.w3.org/2000/svg" xmlns:xlink="http://www.w3.org/1999/xlink">
    <!-- Generator: Sketch 49.2 (51160) - http://www.bohemiancoding.com/sketch -->
    <title>i-elections--primary-contrast</title>
    <desc>Created with Sketch.</desc>
    <defs></defs>
    <g id="Cards" stroke="none" stroke-width="1" fill="none" fill-rule="evenodd">
        <g id="Horizontal-cards" transform="translate(-776.000000, -494.000000)">
            <g id="i-elections--primary-contrast" transform="translate(776.000000, 494.000000)">
                <g id="Group-7-Copy-4" transform="translate(0.000000, 0.299980)" fill="#FFFFFF">
                    <circle id="Oval-37" cx="30" cy="30" r="30"></circle>
                </g>
                <path d="M23.3446879,39.577262 C24.3858553,40.9553712 25.4682264,42.3063531 26.5505254,43.59674 C27.0436837,44.1847152 27.5020173,44.7183427 27.9140631,45.1881937 C28.1631651,45.4722418 28.3428605,45.6734103 28.4416591,45.7822178 L28.8058493,46.1833026 L15,46.1833026 L18.5294118,39.577262 L23.3446879,39.577262 Z M30.6141383,46.1833026 L30.9783285,45.7822178 C31.0771271,45.6734103 31.2568225,45.4722418 31.5059245,45.1881937 C31.9179703,44.7183427 32.3763039,44.1847152 32.8694622,43.59674 C33.9517612,42.3063531 35.0341323,40.9553712 36.0752997,39.577262 L41.4705882,39.577262 L45,46.1833026 L30.6141383,46.1833026 Z M29.7099938,43.7443648 C29.7099938,43.7443648 18.5811764,31.4881327 18.5811764,25.4145479 C18.5811764,19.3414213 23.5641044,14.4166578 29.7099938,14.4166578 C35.8558832,14.4166578 40.8388112,19.3414213 40.8388112,25.4145479 C40.8388112,31.4881327 29.7099938,43.7443648 29.7099938,43.7443648 Z M22.2907822,24.7554858 C22.2907822,28.8045424 25.6127342,32.0878708 29.7099938,32.0878708 C33.8072534,32.0878708 37.1292054,28.8045424 37.1292054,24.7554858 C37.1292054,20.7064292 33.8072534,17.423559 29.7099938,17.423559 C25.6127342,17.423559 22.2907822,20.7064292 22.2907822,24.7554858 Z M24.6955488,27.6398933 C25.0563531,26.916599 25.7634088,26.3968464 26.6003055,26.3020537 C27.4822129,27.0087237 28.6015123,27.4313946 29.8195319,27.4313946 C31.0415059,27.4313946 32.1641179,27.0059746 33.0473407,26.2951616 C33.80899,26.359336 34.4697659,26.7748093 34.8705831,27.37848 C33.9057975,29.2163233 31.9587243,30.4748522 29.7099938,30.4748522 C27.5695573,30.4748522 25.7024234,29.3346206 24.6955488,27.6398933 Z M32.0265119,23.0867671 C32.026095,24.2918174 30.9163403,25.3876922 29.6981948,25.3876922 C28.4787986,25.3876922 27.3698777,24.2918174 27.3698777,23.0867671 C27.3694608,21.8813048 28.4787986,20.7829581 29.6981948,20.7829581 C30.9180078,20.7829581 32.0294301,21.8804808 32.0265119,23.0867671 Z" id="Combined-Shape" fill="#36BDBB"></path>
            </g>
        </g>
    </g>
</svg>
