<?xml version="1.0" encoding="UTF-8" standalone="no"?>
<svg width="61px" height="61px" viewBox="0 0 61 61" version="1.1" xmlns="http://www.w3.org/2000/svg" xmlns:xlink="http://www.w3.org/1999/xlink">
    <!-- Generator: Sketch 3.8.3 (29802) - http://www.bohemiancoding.com/sketch -->
    <title>i-elections--neutral</title>
    <desc>Created with Sketch.</desc>
    <defs></defs>
    <g id="Page-1" stroke="none" stroke-width="1" fill="none" fill-rule="evenodd">
        <g id="Data-landing" transform="translate(-72.000000, -480.000000)">
            <g id="Group-18" transform="translate(42.000000, 453.000000)">
                <g id="i-elections--neutral" transform="translate(30.000000, 27.000000)">
                    <circle id="Oval-37" fill="#F1F1F1" cx="30.5" cy="30.5" r="30.5"></circle>
                    <g id="Group-10" transform="translate(15.000000, 12.000000)">
                        <path d="M21.0246497,13.8917359 C20.6022186,13.2555124 19.9058107,12.8176349 19.1030897,12.75 C18.1722395,13.4991433 16.9890912,13.9475038 15.7012227,13.9475038 C14.417522,13.9475038 13.2378648,13.5020406 12.3084009,12.7572637 C11.4263749,12.857168 10.6811916,13.4049481 10.300931,14.1672457 C11.3621009,15.9533605 13.3299192,17.1550786 15.5857778,17.1550786 C17.9557702,17.1550786 20.0078384,15.8286841 21.0246497,13.8917359 Z M18.0272132,9.36859414 C18.0267738,10.6386263 16.857176,11.7935957 15.5733425,11.7935957 C14.288191,11.7935957 13.1194719,10.6386263 13.1194719,9.36859414 C13.1190326,8.0981278 14.288191,6.9405532 15.5733425,6.9405532 C16.8589335,6.9405532 18.0302887,8.0972594 18.0272132,9.36859414 Z" id="Combined-Shape" fill="#35BDBB"></path>
                        <path d="M8.8772255,26.748332 L3.80228767,26.748332 L0.0825538692,33.7106005 L14.6328777,33.7106005 L14.2490488,33.2878874 L14.2490488,33.2878874 C14.1449225,33.1732125 13.9555371,32.961196 13.6930024,32.6618308 C13.2587372,32.1666433 12.7756881,31.6042402 12.2559364,30.9845586 C11.1152749,29.6245882 9.97453742,28.2007552 8.8772255,26.748332 Z M16.538678,33.7106005 L31.7002911,33.7106005 L27.9805573,26.748332 L22.2943302,26.748332 C21.1970183,28.2007552 20.0562807,29.6245882 18.9156193,30.9845586 C18.3958676,31.6042402 17.9128185,32.1666433 17.4785533,32.6618308 C17.2160186,32.961196 17.0266332,33.1732125 16.9225069,33.2878874 L16.538678,33.7106005 Z M15.5857778,31.1401441 C15.5857778,31.1401441 3.85684368,18.2229999 3.85684368,11.8218996 C3.85684368,5.4212822 9.10847395,0.230952858 15.5857778,0.230952858 C22.0630817,0.230952858 27.314712,5.4212822 27.314712,11.8218996 C27.314712,18.2229999 15.5857778,31.1401441 15.5857778,31.1401441 Z M7.7664884,11.1272978 C7.7664884,15.394698 11.2675752,18.8550786 15.5857778,18.8550786 C19.9039804,18.8550786 23.4050673,15.394698 23.4050673,11.1272978 C23.4050673,6.85989759 19.9039804,3.4 15.5857778,3.4 C11.2675752,3.4 7.7664884,6.85989759 7.7664884,11.1272978 Z" id="Combined-Shape" fill="#112E51"></path>
                    </g>
                </g>
            </g>
        </g>
    </g>
</svg>