<?xml version="1.0" encoding="UTF-8" standalone="no"?>
<svg width="20px" height="20px" viewBox="0 0 20 20" version="1.1" xmlns="http://www.w3.org/2000/svg" xmlns:xlink="http://www.w3.org/1999/xlink" xmlns:sketch="http://www.bohemiancoding.com/sketch/ns">
    <!-- Generator: Sketch 3.4.1 (15681) - http://www.bohemiancoding.com/sketch -->
    <title>i-email--inverse</title>
    <desc>Created with Sketch.</desc>
    <defs></defs>
    <g id="Navigation" stroke="none" stroke-width="1" fill="none" fill-rule="evenodd" sketch:type="MSPage">
        <g id="i-email--inverse" sketch:type="MSLayerGroup" fill="#FFFFFF">
            <path d="M10,19.7582857 C15.5228475,19.7582857 20,15.4090519 20,10.044 C20,4.67894814 15.5228475,0.329714286 10,0.329714286 C4.4771525,0.329714286 0,4.67894814 0,10.044 C0,15.4090519 4.4771525,19.7582857 10,19.7582857 Z M10.3248031,11.2532863 C10.8699825,11.64746 11.294227,11.70057 11.637416,11.70057 C12.2732154,11.70057 12.7062139,11.4137131 12.9072316,11.2427896 L13.8844368,10.4162156 L18.0275079,13.6563984 L18.0255626,13.8163552 L5.01047991,13.8163552 L5.00788613,13.6563984 L9.27124367,10.4060322 C9.83814589,10.868826 10.2268881,11.1826296 10.3248031,11.2532863 Z M4.96573727,12.7085643 L4.96573727,6.86598913 C5.17469837,7.03816595 5.42953688,7.24825613 5.70917838,7.47855633 C6.81315438,8.38800713 7.90951116,9.29056459 8.75897287,9.9871052 L4.96573727,12.7085643 Z M14.4219969,9.96219518 L18.0696568,6.87852247 L18.0696568,12.6900776 L14.4219969,9.96219518 Z M18.0698189,6.02061505 L12.3957713,10.6140857 C12.1509837,10.7962892 11.9032781,10.8846493 11.6387129,10.8846493 C11.3712297,10.8846493 11.0909398,10.7892392 10.8147026,10.6089157 C10.4938849,10.3761089 5.97568888,6.79282573 4.96573727,5.99116169 L18.0698189,5.97988168 L18.0698189,6.02061505 Z M3.75504401,7 L2.22340615,7 C1.94726378,7 1.72340615,7.22385763 1.72340615,7.5 C1.72340615,7.77614237 1.94726378,8 2.22340615,8 L3.75504401,8 C4.03118638,8 4.25504401,7.77614237 4.25504401,7.5 C4.25504401,7.22385763 4.03118638,7 3.75504401,7 Z M3.75504401,11 L2.22340615,11 C1.94726378,11 1.72340615,11.2238576 1.72340615,11.5 C1.72340615,11.7761424 1.94726378,12 2.22340615,12 L3.75504401,12 C4.03118638,12 4.25504401,11.7761424 4.25504401,11.5 C4.25504401,11.2238576 4.03118638,11 3.75504401,11 Z M3.94249467,9 L1.25,9 C0.973857625,9 0.75,9.22385763 0.75,9.5 C0.75,9.77614237 0.973857625,10 1.25,10 L3.94249467,10 C4.21863704,10 4.44249467,9.77614237 4.44249467,9.5 C4.44249467,9.22385763 4.21863704,9 3.94249467,9 Z" id="Oval-275-Copy-4" sketch:type="MSShapeGroup"></path>
        </g>
    </g>
</svg>