<?xml version="1.0" encoding="UTF-8" standalone="no"?>
<svg width="35px" height="35px" viewBox="0 0 35 35" version="1.1" xmlns="http://www.w3.org/2000/svg" xmlns:xlink="http://www.w3.org/1999/xlink" xmlns:sketch="http://www.bohemiancoding.com/sketch/ns">
    <!-- Generator: Sketch 3.3.3 (12081) - http://www.bohemiancoding.com/sketch -->
    <title>i-github--primary</title>
    <desc>Created with Sketch.</desc>
    <defs></defs>
    <g id="Alpha-Wireframes-Styled" stroke="none" stroke-width="1" fill="none" fill-rule="evenodd" sketch:type="MSPage">
        <g id="Contact-Copy-5" sketch:type="MSArtboardGroup" transform="translate(-41.000000, -1151.000000)" fill="#032C53">
            <path d="M41,1169.00776 C41,1176.70875 45.9939747,1183.24127 52.9204795,1185.54611 C53.7925792,1185.70662 54.1103873,1185.16839 54.1103873,1184.70614 C54.1103873,1184.29311 54.0954064,1183.19633 54.0868459,1181.74216 C49.2383996,1182.79507 48.2154213,1179.40522 48.2154213,1179.40522 C47.4225061,1177.39143 46.2796809,1176.85534 46.2796809,1176.85534 C44.6970607,1175.77462 46.3995278,1175.79602 46.3995278,1175.79602 C48.1490775,1175.91907 49.0693299,1177.59259 49.0693299,1177.59259 C50.6241286,1180.25589 53.1494725,1179.48654 54.1424891,1179.04034 C54.3008581,1177.91467 54.7513538,1177.14639 55.2489322,1176.71089 C51.3785216,1176.27111 47.3090796,1174.77521 47.3090796,1168.09609 C47.3090796,1166.19358 47.9885683,1164.63669 49.1035719,1163.419 C48.9238017,1162.97815 48.3256376,1161.20511 49.2747817,1158.80611 C49.2747817,1158.80611 50.737555,1158.33744 54.0675848,1160.59306 C55.4575941,1160.20571 56.9492591,1160.0131 58.4312936,1160.00561 C59.912258,1160.0131 61.402853,1160.20571 62.7950023,1160.59306 C66.122892,1158.33744 67.5835252,1158.80611 67.5835252,1158.80611 C68.5348095,1161.20511 67.9366454,1162.97815 67.7579452,1163.419 C68.8750889,1164.63669 69.5492273,1166.19358 69.5492273,1168.09609 C69.5492273,1174.79233 65.473365,1176.26576 61.5911837,1176.69698 C62.2160993,1177.2352 62.7736011,1178.29881 62.7736011,1179.92525 C62.7736011,1182.25471 62.7521999,1184.13474 62.7521999,1184.70614 C62.7521999,1185.17267 63.0667978,1185.71518 63.9506682,1185.54504 C70.8718227,1183.23485 75.8615171,1176.70661 75.8615171,1169.00776 C75.8615171,1159.38071 68.0564922,1151.577 58.4291535,1151.577 C48.8050249,1151.577 41,1159.38071 41,1169.00776 Z" id="i-github--primary" sketch:type="MSShapeGroup"></path>
        </g>
    </g>
</svg>