<?xml version="1.0" encoding="UTF-8" standalone="no"?>
<svg width="20px" height="20px" viewBox="0 0 20 20" version="1.1" xmlns="http://www.w3.org/2000/svg" xmlns:xlink="http://www.w3.org/1999/xlink" xmlns:sketch="http://www.bohemiancoding.com/sketch/ns">
    <!-- Generator: Sketch 3.4.1 (15681) - http://www.bohemiancoding.com/sketch -->
    <title>i-github--inverse</title>
    <desc>Created with Sketch.</desc>
    <defs></defs>
    <g id="Navigation" stroke="none" stroke-width="1" fill="none" fill-rule="evenodd" sketch:type="MSPage">
        <path d="M9.99907916,0 C4.47773105,0 0,4.47711716 0,10.0003069 C0,14.4184904 2.86503576,18.1663034 6.83876117,19.4886276 C7.33908346,19.5807115 7.5214095,19.2719236 7.5214095,19.0067221 C7.5214095,18.7691458 7.512815,18.14052 7.50790386,17.3062402 C4.72635747,17.9103103 4.13947635,15.9654992 4.13947635,15.9654992 C3.68458209,14.8101538 3.02894503,14.5025937 3.02894503,14.5025937 C2.12099819,13.8825624 3.09770097,13.8948402 3.09770097,13.8948402 C4.10141502,13.9654379 4.62936247,14.9255655 4.62936247,14.9255655 C5.52134811,16.4535437 6.97013414,16.0121551 7.53982627,15.7561619 C7.63068234,15.1103472 7.88913104,14.6695724 8.17459099,14.4197182 C5.95414224,14.1674085 3.6195095,13.3091869 3.6195095,9.47727063 C3.6195095,8.38576997 4.00933116,7.49255655 4.64900703,6.79394702 C4.54587311,6.54102336 4.20270727,5.52380368 4.74722981,4.14745695 C4.74722981,4.14745695 5.5864207,3.87857209 7.4968538,5.17265723 C8.29430001,4.95042819 9.15006599,4.83992756 10.0003069,4.83563031 C10.849934,4.83992756 11.7050861,4.95042819 12.5037601,5.17265723 C14.4129654,3.87857209 15.2509285,4.14745695 15.2509285,4.14745695 C15.7966788,5.52380368 15.453513,6.54102336 15.350993,6.79394702 C15.9918966,7.49255655 16.3786488,8.38576997 16.3786488,9.47727063 C16.3786488,13.3190092 14.0403327,14.164339 11.8131312,14.4117376 C12.1716443,14.7205255 12.4914822,15.3307345 12.4914822,16.2632371 C12.4914822,17.6002947 12.4792044,18.6789036 12.4792044,19.0067221 C12.4792044,19.2743792 12.6596888,19.5856226 13.1667639,19.4880138 C17.1374198,18.1626201 20,14.4172627 20,10.0003069 C20,4.47711716 15.5222689,0 9.99907916,0" id="i-github--inverse" fill="#FFFFFF" sketch:type="MSShapeGroup"></path>
    </g>
</svg>