<?xml version="1.0" encoding="UTF-8" standalone="no"?>
<svg width="34px" height="34px" viewBox="0 0 34 34" version="1.1" xmlns="http://www.w3.org/2000/svg" xmlns:xlink="http://www.w3.org/1999/xlink" xmlns:sketch="http://www.bohemiancoding.com/sketch/ns">
    <!-- Generator: Sketch 3.3.3 (12081) - http://www.bohemiancoding.com/sketch -->
    <title>i-mail--primary</title>
    <desc>Created with Sketch.</desc>
    <defs></defs>
    <g id="Alpha-Wireframes-Styled" stroke="none" stroke-width="1" fill="none" fill-rule="evenodd" sketch:type="MSPage">
        <g id="Contact-Copy-5" sketch:type="MSArtboardGroup" transform="translate(-41.000000, -964.000000)">
            <g id="i-mail--primary" sketch:type="MSLayerGroup" transform="translate(41.000000, 964.000000)">
                <circle id="Oval-275-Copy-3" fill="#022C53" sketch:type="MSShapeGroup" cx="17" cy="17" r="17"></circle>
                <path d="M28,26.0266873 L28,28 L25.8310254,28 C25.5002511,27.42819 24.8820092,27.0434783 24.173913,27.0434783 C23.4658169,27.0434783 22.8475749,27.42819 22.5168007,28 L22.5168007,28 L21.0484167,28 L21.0484167,28 C20.7176424,27.42819 20.0994005,27.0434783 19.3913043,27.0434783 C18.6832082,27.0434783 18.0649663,27.42819 17.734192,28 L16.265808,28 C15.9350337,27.42819 15.3167918,27.0434783 14.6086957,27.0434783 C13.9005995,27.0434783 13.2823576,27.42819 12.9515833,28 L12.9515833,28 L11.4831993,28 L11.4831993,28 C11.1524251,27.42819 10.5341831,27.0434783 9.82608696,27.0434783 C9.11799079,27.0434783 8.49974886,27.42819 8.16897463,28 L6,28 L6,26.0266873 C6.82510867,25.814319 7.43478261,25.0653145 7.43478261,24.173913 C7.43478261,23.2825116 6.82510867,22.5335071 6,22.3211388 L6,22.3211388 L6,21.2440786 L6,21.2440786 C6.82510867,21.0317103 7.43478261,20.2827058 7.43478261,19.3913043 C7.43478261,18.4999029 6.82510867,17.7508984 6,17.5385301 L6,16.4614699 C6.82510867,16.2491016 7.43478261,15.5000971 7.43478261,14.6086957 C7.43478261,13.7172942 6.82510867,12.9682897 6,12.7559214 L6,12.7559214 L6,11.6788612 L6,11.6788612 C6.82510867,11.4664929 7.43478261,10.7174884 7.43478261,9.82608696 C7.43478261,8.93468549 6.82510867,8.185681 6,7.97331271 L6,6 L8.16897463,6 L8.16897463,6 C8.49974886,6.57181001 9.11799079,6.95652174 9.82608696,6.95652174 C10.5341831,6.95652174 11.1524251,6.57181001 11.4831993,6 L12.9515833,6 C13.2823576,6.57181001 13.9005995,6.95652174 14.6086957,6.95652174 C15.3167918,6.95652174 15.9350337,6.57181001 16.265808,6 L16.265808,6 L17.734192,6 L17.734192,6 C18.0649663,6.57181001 18.6832082,6.95652174 19.3913043,6.95652174 C20.0994005,6.95652174 20.7176424,6.57181001 21.0484167,6 L22.5168007,6 C22.8475749,6.57181001 23.4658169,6.95652174 24.173913,6.95652174 C24.8820092,6.95652174 25.5002511,6.57181001 25.8310254,6 L25.8310254,6 L28,6 L28,7.97331271 L28,7.97331271 C27.1748913,8.185681 26.5652174,8.93468549 26.5652174,9.82608696 C26.5652174,10.7174884 27.1748913,11.4664929 28,11.6788612 L28,12.7559214 C27.1748913,12.9682897 26.5652174,13.7172942 26.5652174,14.6086957 C26.5652174,15.5000971 27.1748913,16.2491016 28,16.4614699 L28,16.4614699 L28,17.5385301 L28,17.5385301 C27.1748913,17.7508984 26.5652174,18.4999029 26.5652174,19.3913043 C26.5652174,20.2827058 27.1748913,21.0317103 28,21.2440786 L28,22.3211388 C27.1748913,22.5335071 26.5652174,23.2825116 26.5652174,24.173913 C26.5652174,25.0653145 27.1748913,25.814319 28,26.0266873 Z" id="Rectangle-572-Copy" fill="#FFFFF9" sketch:type="MSShapeGroup"></path>
                <path d="M8.91636446,11.1120513 L15.4034872,11.1120513 L15.4034872,17.2368613 L8.91636446,17.2368613 L8.91636446,11.1120513 L8.91636446,11.1120513 Z M16.6906885,11.1288439 L24.4752358,11.1288439 L24.4752358,12.3538059 L16.6906885,12.3538059 L16.6906885,11.1288439 L16.6906885,11.1288439 Z M16.6960288,13.5801988 L24.480576,13.5801988 L24.480576,14.8051608 L16.6960288,14.8051608 L16.6960288,13.5801988 L16.6960288,13.5801988 Z M16.701369,16.0315537 L24.4859162,16.0315537 L24.4859162,17.2565157 L16.701369,17.2565157 L16.701369,16.0315537 L16.701369,16.0315537 Z M8.9244156,18.4744978 L24.4935101,18.4744978 L24.4935101,19.6994598 L8.9244156,19.6994598 L8.9244156,18.4744978 L8.9244156,18.4744978 Z M8.92975581,20.9258527 L24.4988503,20.9258527 L24.4988503,22.1508147 L8.92975581,22.1508147 L8.92975581,20.9258527 L8.92975581,20.9258527 Z" id="Rectangle-156-Copy" fill="#022C53" sketch:type="MSShapeGroup"></path>
            </g>
        </g>
    </g>
</svg>