<?xml version="1.0" encoding="UTF-8" standalone="no"?>
<svg width="61px" height="61px" viewBox="0 0 61 61" version="1.1" xmlns="http://www.w3.org/2000/svg" xmlns:xlink="http://www.w3.org/1999/xlink">
    <!-- Generator: Sketch 3.8.3 (29802) - http://www.bohemiancoding.com/sketch -->
    <title>i-overviews--primary</title>
    <desc>Created with Sketch.</desc>
    <defs>
        <polygon id="path-1" points="0 34.9634146 38.3810618 34.9634146 38.3810618 0 0 0"></polygon>
    </defs>
    <g id="Page-1" stroke="none" stroke-width="1" fill="none" fill-rule="evenodd">
        <g id="Data-landing" transform="translate(-41.000000, -622.000000)">
            <g id="i-overviews--primary" transform="translate(41.000000, 622.000000)">
                <circle id="Oval-37" fill="#112E51" cx="30.5" cy="30.5" r="30.5"></circle>
                <g id="Group-6" transform="translate(10.414634, 12.646341)">
                    <polygon id="Fill-1" fill="#FFFFFF" points="9.87899782 31.5747328 37.5096598 31.5747328 37.5096598 24.6512844 9.87899782 24.6512844"></polygon>
                    <path d="M6.13497404,27.9202944 C6.305248,28.0044143 6.305248,28.1425371 6.13497404,28.226657 L4.59180157,28.9899672 C4.42152761,29.0744332 4.25988824,29.2973683 4.23260296,29.4856861 L3.98496315,31.1926623 C3.95767787,31.3809801 3.82677761,31.4235593 3.69415044,31.2871674 L2.49325279,30.0523703 C2.36062561,29.9159784 2.09882509,29.83082 1.91162735,29.863014 L0.215450087,30.1544912 C0.0282523519,30.1866852 -0.0525673345,30.0752177 0.035850784,29.9066317 L0.836449216,28.3800114 C0.924867334,28.2114254 0.924867334,27.935526 0.836449216,27.76694 L0.035850784,26.2403196 C-0.0525673345,26.0720798 0.0282523519,25.9602661 0.215450087,25.9924602 L1.91162735,26.2842835 C2.09882509,26.3161314 2.36062561,26.230973 2.49325279,26.094581 L3.69415044,24.859784 C3.82677761,24.7233921 3.95767787,24.7659713 3.98496315,24.9542891 L4.23260296,26.6612653 C4.25988824,26.8495831 4.42152761,27.0728643 4.59180157,27.1569842 L6.13497404,27.9202944 Z" id="Fill-2" fill="#FFFFFF"></path>
                    <mask id="mask-2" fill="white">
                        <use xlink:href="#path-1"></use>
                    </mask>
                    <g id="Clip-6"></g>
                    <polygon id="Fill-5" fill="#FFFFFF" mask="url(#mask-2)" points="20.2525845 10.8043875 37.5093145 10.8043875 37.5093145 3.88093902 20.2525845 3.88093902"></polygon>
                    <polygon id="Fill-7" fill="#FFFFFF" mask="url(#mask-2)" points="20.2525845 21.1500965 37.5093145 21.1500965 37.5093145 14.226648 20.2525845 14.226648"></polygon>
                    <path d="M16.151089,7.14994906 C16.321363,7.23406896 16.321363,7.37219175 16.151089,7.45631165 L14.6079166,8.21962184 C14.4376426,8.30408791 14.2760032,8.52702295 14.2487179,8.71534075 L14.0010781,10.422317 C13.9737929,10.6106348 13.8428926,10.653214 13.7102654,10.516822 L12.5093678,9.28202501 C12.3767406,9.14563307 12.1149401,9.06047466 11.9277423,9.09266869 L10.2315651,9.38414587 C10.0443673,9.41633991 9.96354765,9.30487239 10.0519658,9.13628642 L10.8525642,7.60966603 C10.9409823,7.44108007 10.9409823,7.16518064 10.8525642,6.99659468 L10.0519658,5.46997429 C9.96354765,5.3017345 10.0443673,5.1899208 10.2315651,5.22211484 L11.9277423,5.51393819 C12.1149401,5.54578605 12.3767406,5.46062764 12.5093678,5.3242357 L13.7102654,4.08943867 C13.8428926,3.95304674 13.9737929,3.99562595 14.0010781,4.18394375 L14.2487179,5.89091996 C14.2760032,6.07923776 14.4376426,6.30251897 14.6079166,6.38663887 L16.151089,7.14994906 Z" id="Fill-8" fill="#FFFFFF" mask="url(#mask-2)"></path>
                    <path d="M6.13497404,7.14994906 C6.305248,7.23406896 6.305248,7.37219175 6.13497404,7.45631165 L4.59180157,8.21962184 C4.42152761,8.30408791 4.25988824,8.52702295 4.23260296,8.71534075 L3.98496315,10.422317 C3.95767787,10.6106348 3.82677761,10.653214 3.69415044,10.516822 L2.49325279,9.28202501 C2.36062561,9.14563307 2.09882509,9.06047466 1.91162735,9.09266869 L0.215450087,9.38414587 C0.0282523519,9.41633991 -0.0525673345,9.30487239 0.035850784,9.13628642 L0.836449216,7.60966603 C0.924867334,7.44108007 0.924867334,7.16518064 0.836449216,6.99659468 L0.035850784,5.46997429 C-0.0525673345,5.3017345 0.0282523519,5.1899208 0.215450087,5.22211484 L1.91162735,5.51393819 C2.09882509,5.54578605 2.36062561,5.46062764 2.49325279,5.3242357 L3.69415044,4.08943867 C3.82677761,3.95304674 3.95767787,3.99562595 3.98496315,4.18394375 L4.23260296,5.89091996 C4.25988824,6.07923776 4.42152761,6.30251897 4.59180157,6.38663887 L6.13497404,7.14994906 Z" id="Fill-9" fill="#FFFFFF" mask="url(#mask-2)"></path>
                    <path d="M6.13497404,17.5351217 C6.305248,17.6192416 6.305248,17.7573644 6.13497404,17.8414843 L4.59180157,18.6047945 C4.42152761,18.6892606 4.25988824,18.9121956 4.23260296,19.1005134 L3.98496315,20.8074896 C3.95767787,20.9958074 3.82677761,21.0383866 3.69415044,20.9019947 L2.49325279,19.6671977 C2.36062561,19.5308057 2.09882509,19.4456473 1.91162735,19.4778414 L0.215450087,19.7693185 C0.0282523519,19.8015126 -0.0525673345,19.690045 0.035850784,19.5214591 L0.836449216,17.9948387 C0.924867334,17.8262527 0.924867334,17.5503533 0.836449216,17.3817673 L0.035850784,15.855147 C-0.0525673345,15.6869072 0.0282523519,15.5750935 0.215450087,15.6072875 L1.91162735,15.8991109 C2.09882509,15.9309587 2.36062561,15.8458003 2.49325279,15.7094084 L3.69415044,14.4746113 C3.82677761,14.3382194 3.95767787,14.3807986 3.98496315,14.5691164 L4.23260296,16.2760926 C4.25988824,16.4644104 4.42152761,16.6876916 4.59180157,16.7718115 L6.13497404,17.5351217 Z" id="Fill-10" fill="#FFFFFF" mask="url(#mask-2)"></path>
                    <path d="M16.151089,17.5351217 C16.321363,17.6192416 16.321363,17.7573644 16.151089,17.8414843 L14.6079166,18.6047945 C14.4376426,18.6892606 14.2760032,18.9121956 14.2487179,19.1005134 L14.0010781,20.8074896 C13.9737929,20.9958074 13.8428926,21.0383866 13.7102654,20.9019947 L12.5093678,19.6671977 C12.3767406,19.5308057 12.1149401,19.4456473 11.9277423,19.4778414 L10.2315651,19.7693185 C10.0443673,19.8015126 9.96354765,19.690045 10.0519658,19.5214591 L10.8525642,17.9948387 C10.9409823,17.8262527 10.9409823,17.5503533 10.8525642,17.3817673 L10.0519658,15.855147 C9.96354765,15.6869072 10.0443673,15.5750935 10.2315651,15.6072875 L11.9277423,15.8991109 C12.1149401,15.9309587 12.3767406,15.8458003 12.5093678,15.7094084 L13.7102654,14.4746113 C13.8428926,14.3382194 13.9737929,14.3807986 14.0010781,14.5691164 L14.2487179,16.2760926 C14.2760032,16.4644104 14.4376426,16.6876916 14.6079166,16.7718115 L16.151089,17.5351217 Z" id="Fill-11" fill="#FFFFFF" mask="url(#mask-2)"></path>
                    <polygon id="Fill-12" fill="#FFFFFF" mask="url(#mask-2)" points="36.6541455 34.9634146 38.3810618 34.9634146 38.3810618 0 36.6541455 0"></polygon>
                </g>
            </g>
        </g>
    </g>
</svg>