<?xml version="1.0" encoding="UTF-8" standalone="no"?>
<svg width="34px" height="34px" viewBox="0 0 34 34" version="1.1" xmlns="http://www.w3.org/2000/svg" xmlns:xlink="http://www.w3.org/1999/xlink" xmlns:sketch="http://www.bohemiancoding.com/sketch/ns">
    <!-- Generator: Sketch 3.3.3 (12081) - http://www.bohemiancoding.com/sketch -->
    <title>i-phone--primary</title>
    <desc>Created with Sketch.</desc>
    <defs></defs>
    <g id="Alpha-Wireframes-Styled" stroke="none" stroke-width="1" fill="none" fill-rule="evenodd" sketch:type="MSPage">
        <g id="Contact-Copy-5" sketch:type="MSArtboardGroup" transform="translate(-41.000000, -629.000000)">
            <g id="i-phone--primary" sketch:type="MSLayerGroup" transform="translate(41.000000, 629.000000)">
                <circle id="Oval-275-Copy-2" fill="#022C53" sketch:type="MSShapeGroup" cx="17" cy="17" r="17"></circle>
                <g id="Shape-+-Shape-+-Shape" transform="translate(15.000000, 18.000000) rotate(-15.000000) translate(-15.000000, -18.000000) translate(10.000000, 6.000000)" fill="#FFFFF9" sketch:type="MSShapeGroup">
                    <path d="M9.41897436,0.0948118812 L8.29589744,0 L7.57769231,6.44554455 L8.80435897,6.4460198 C9.20487179,6.46455446 9.40871795,6.10407921 9.44076923,5.84483168 L10,0.828831683 C9.99794872,0.545108911 9.76179487,0.21980198 9.41897436,0.0948118812 L9.41897436,0.0948118812 Z" id="Shape"></path>
                    <path d="M4.50666667,11.8797624 L4.51128205,11.8797624 C4.53461538,9.92792079 4.74461538,8.30471287 4.82589744,7.74439604 C4.98,6.88918812 5.16589744,6.79580198 5.71666667,6.65061386 C6.09589744,6.55128713 6.28589744,6.51706931 6.57051282,6.49710891 L7.29435897,0 C6.68589744,0.00879207921 5.76307692,0.138059406 4.87641026,0.373782178 C3.92538462,0.636118812 2.98615385,1.01108911 2.47846154,1.40031683 C1.46641026,3.55390099 0.141794872,7.83968317 0.141794872,11.8797624 L0.141794872,11.8823762 C0.141794872,15.9224554 1.46641026,20.2082376 2.47846154,22.3618218 C2.98589744,22.7512871 3.92538462,23.1262574 4.87641026,23.3883564 C5.76307692,23.6240792 6.68589744,23.7531089 7.29435897,23.7623762 L6.57051282,17.2647921 C6.28589744,17.2453069 6.09564103,17.2106139 5.71666667,17.1112871 C5.16615385,16.9663366 4.98,16.8727129 4.82589744,16.017505 C4.74487179,15.4571881 4.53461538,13.8339802 4.51128205,11.8821386 L4.50666667,11.8821386 L4.50666667,11.8797624 L4.50666667,11.8797624 Z" id="Shape"></path>
                    <path d="M9.44076923,17.9482066 C9.40871795,17.6889591 9.20461538,17.3282462 8.80435897,17.3472561 L7.57769231,17.3472561 L8.29589744,23.7928007 L9.41897436,23.6982264 C9.76179487,23.5732363 9.99794872,23.2476918 10,22.9642066 L9.44076923,17.9482066 L9.44076923,17.9482066 Z" id="Shape"></path>
                </g>
            </g>
        </g>
    </g>
</svg>