<?xml version="1.0" encoding="UTF-8" standalone="no"?>
<svg width="61px" height="61px" viewBox="0 0 61 61" version="1.1" xmlns="http://www.w3.org/2000/svg" xmlns:xlink="http://www.w3.org/1999/xlink">
    <!-- Generator: Sketch 3.8.3 (29802) - http://www.bohemiancoding.com/sketch -->
    <title>i-table--neutral</title>
    <desc>Created with Sketch.</desc>
    <defs></defs>
    <g id="Page-1" stroke="none" stroke-width="1" fill="none" fill-rule="evenodd">
        <g id="Data-landing" transform="translate(-552.000000, -481.000000)">
            <g id="Group-17" transform="translate(522.000000, 453.000000)">
                <g id="i-table--neutral" transform="translate(30.000000, 28.000000)">
                    <circle id="Oval-37" fill="#F1F1F1" cx="30.5" cy="30.5" r="30.5"></circle>
                    <path d="M25.4786585,22.5592134 L43.8902439,22.5592134 L43.8902439,17.5746951 L25.4786585,17.5746951 L25.4786585,22.5592134 Z M25.4786585,29.2543354 L43.8902439,29.2543354 L43.8902439,24.8087744 L25.4786585,24.8087744 L25.4786585,29.2543354 Z M25.4786585,35.9494573 L43.8902439,35.9494573 L43.8902439,31.5038963 L25.4786585,31.5038963 L25.4786585,35.9494573 Z M25.4786585,42.6814024 L43.8902439,42.6814024 L43.8902439,38.1990183 L25.4786585,38.1990183 L25.4786585,42.6814024 Z M17.1097561,22.5592134 L22.1310976,22.5592134 L22.1310976,17.5746951 L17.1097561,17.5746951 L17.1097561,22.5592134 Z M17.1097561,29.2543354 L22.1310976,29.2543354 L22.1310976,24.8087744 L17.1097561,24.8087744 L17.1097561,29.2543354 Z M17.1097561,35.9494573 L22.1310976,35.9494573 L22.1310976,31.5038963 L17.1097561,31.5038963 L17.1097561,35.9494573 Z M17.1097561,42.6814024 L22.1310976,42.6814024 L22.1310976,38.1990183 L17.1097561,38.1990183 L17.1097561,42.6814024 Z M43.9053079,14.2271341 L17.0946921,14.2271341 C15.26525,14.2271341 13.7621951,15.7234939 13.7621951,17.5696738 L13.7621951,42.6864238 C13.7621951,44.537625 15.2535335,46.0289634 17.0946921,46.0289634 L43.9053079,46.0289634 C45.73475,46.0289634 47.2378049,44.5326037 47.2378049,42.6864238 L47.2378049,17.5696738 C47.2378049,15.7184726 45.7464665,14.2271341 43.9053079,14.2271341 L43.9053079,14.2271341 Z" id="Page-1" fill="#112E51"></path>
                </g>
            </g>
        </g>
    </g>
</svg>