<?xml version="1.0" encoding="UTF-8"?>
<svg width="60px" height="61px" viewBox="0 0 60 61" version="1.1" xmlns="http://www.w3.org/2000/svg" xmlns:xlink="http://www.w3.org/1999/xlink">
    <!-- Generator: Sketch 49.2 (51160) - http://www.bohemiancoding.com/sketch -->
    <title>i-table--primary-contrast</title>
    <desc>Created with Sketch.</desc>
    <defs></defs>
    <g id="Cards" stroke="none" stroke-width="1" fill="none" fill-rule="evenodd">
        <g id="Horizontal-cards" transform="translate(-693.000000, -300.000000)">
            <g id="i-table--primary-contrast" transform="translate(693.000000, 300.000000)">
                <circle id="Oval-121-Copy-4" fill="#FFFFFF" cx="30" cy="30.3982351" r="30"></circle>
                <path d="M25.7955111,23.2920285 L41.5813142,23.2920285 L41.5813142,19.0183811 L25.7955111,19.0183811 L25.7955111,23.2920285 Z M25.7955111,29.0323206 L41.5813142,29.0323206 L41.5813142,25.2207667 L25.7955111,25.2207667 L25.7955111,29.0323206 Z M25.7955111,34.7726126 L41.5813142,34.7726126 L41.5813142,30.9610587 L25.7955111,30.9610587 L25.7955111,34.7726126 Z M25.7955111,40.5444763 L41.5813142,40.5444763 L41.5813142,36.7013507 L25.7955111,36.7013507 L25.7955111,40.5444763 Z M18.620146,23.2920285 L22.9253651,23.2920285 L22.9253651,19.0183811 L18.620146,19.0183811 L18.620146,23.2920285 Z M18.620146,29.0323206 L22.9253651,29.0323206 L22.9253651,25.2207667 L18.620146,25.2207667 L18.620146,29.0323206 Z M18.620146,34.7726126 L22.9253651,34.7726126 L22.9253651,30.9610587 L18.620146,30.9610587 L18.620146,34.7726126 Z M18.620146,40.5444763 L22.9253651,40.5444763 L22.9253651,36.7013507 L18.620146,36.7013507 L18.620146,40.5444763 Z M41.5942298,16.1482351 L18.6072304,16.1482351 C17.0386956,16.1482351 15.75,17.4311904 15.75,19.0140759 L15.75,40.5487815 C15.75,42.1359722 17.0286501,43.4146223 18.6072304,43.4146223 L41.5942298,43.4146223 C43.1627646,43.4146223 44.4514602,42.131667 44.4514602,40.5487815 L44.4514602,19.0140759 C44.4514602,17.4268851 43.1728102,16.1482351 41.5942298,16.1482351 L41.5942298,16.1482351 Z" id="Page-1-Copy-2" fill="#36BDBB"></path>
            </g>
        </g>
    </g>
</svg>