<?xml version="1.0" encoding="UTF-8" standalone="no"?>
<svg width="35px" height="35px" viewBox="0 0 35 35" version="1.1" xmlns="http://www.w3.org/2000/svg" xmlns:xlink="http://www.w3.org/1999/xlink">
    <!-- Generator: Sketch 41.2 (35397) - http://www.bohemiancoding.com/sketch -->
    <title>twitter-circle</title>
    <desc>Created with Sketch.</desc>
    <defs></defs>
    <g id="Flat-SVG-icons" stroke="none" stroke-width="1" fill="none" fill-rule="evenodd">
        <g id="twitter-circle" fill="#112E51">
            <path d="M17.5,35 C27.1649831,35 35,27.1649831 35,17.5 C35,7.83501688 27.1649831,0 17.5,0 C7.83501688,0 0,7.83501688 0,17.5 C0,27.1649831 7.83501688,35 17.5,35 Z M21.3975522,8.75101315 C23.0418625,8.72201726 23.9167158,9.31901046 24.7527729,10.0783806 C25.4624192,10.0178114 26.3844745,9.62250079 26.9276206,9.34800635 C27.1034965,9.25167555 27.2796957,9.15566693 27.4555716,9.05998049 C27.1455257,9.89538435 26.7249107,10.5490806 26.0783081,11.0455547 C25.9347624,11.1557391 25.7921865,11.3045847 25.612431,11.3748192 L25.612431,11.3851288 C26.5335163,11.3757857 27.2932744,10.9614666 28.0148828,10.7369096 L28.0148828,10.7472192 C27.6359737,11.3477563 27.1228946,11.9566701 26.5755455,12.3935415 C26.3544074,12.5684834 26.1335927,12.7431031 25.9127779,12.918045 C25.92474,13.8900517 25.8982293,14.8175981 25.7158874,15.6343157 C24.6557825,20.3828762 21.8466177,23.6062528 17.3999319,24.9871016 C15.8031469,25.4829314 13.2228794,25.6868692 11.3936408,25.2342111 C10.4864574,25.009654 9.66688864,24.7564232 8.8977549,24.4213596 C8.47067391,24.2351415 8.07495314,24.0337811 7.69636735,23.8040693 C7.57221966,23.7283578 7.44774866,23.6529684 7.32360097,23.5775791 C7.7361334,23.5898218 8.21914552,23.703228 8.68017314,23.6291274 C9.09755509,23.5617925 9.50685451,23.5795122 9.89190633,23.4954241 C10.8521111,23.285365 11.7049799,23.0076488 12.4395204,22.5794761 C12.7954751,22.3719944 13.3360349,22.1281067 13.5891798,21.8284825 C13.1119871,21.8371813 12.6797333,21.7266747 12.3257184,21.6019924 C10.9523345,21.1190497 10.1531338,20.2304867 9.63294201,18.8960313 C10.0490308,18.9414582 11.2478319,19.0493874 11.5281341,18.8138763 C11.004386,18.7848804 10.5006826,18.4826788 10.140525,18.2581217 C9.03580454,17.5693082 8.13508718,16.413983 8.14187651,14.6365348 C8.28671548,14.7051584 8.43187776,14.7734599 8.57671673,14.8420835 C8.85410923,14.9587114 9.13635124,15.0212137 9.46741175,15.0891929 C9.6070779,15.1178666 9.88673351,15.2000216 10.0474142,15.140419 L10.0263997,15.140419 C9.81269752,14.8926652 9.46450204,14.7273886 9.24982999,14.4615929 C8.54115359,13.5836618 7.87709276,12.2327754 8.29706112,10.6238256 C8.40375055,10.2156279 8.57251381,9.85511228 8.75291593,9.52262605 C8.75970525,9.52616999 8.76649458,9.52971394 8.77360721,9.5329357 C8.85604903,9.70530017 9.04000746,9.83159339 9.15671922,9.97560631 C9.51849335,10.4224652 9.96497242,10.8245416 10.4201806,11.179258 C11.9704103,12.3874202 13.3661019,13.129715 15.6085195,13.6796704 C16.1772065,13.8188507 16.834478,13.9254911 17.5140573,13.9264576 C17.3229862,13.3726361 17.3844135,12.4766631 17.5347486,11.9405612 C17.9123645,10.5928966 18.7332264,9.62153426 19.9372004,9.10089691 C20.2252618,8.97653676 20.5443602,8.88568296 20.8796236,8.81287106 C21.0522665,8.79225176 21.2249094,8.77163246 21.3975522,8.75101315 Z" id="Combined-Shape"></path>
        </g>
    </g>
</svg>