<?xml version="1.0" encoding="UTF-8" standalone="no"?>
<svg width="21px" height="21px" viewBox="0 0 21 21" version="1.1" xmlns="http://www.w3.org/2000/svg" xmlns:xlink="http://www.w3.org/1999/xlink">
    <!-- Generator: Sketch 3.8.3 (29802) - http://www.bohemiancoding.com/sketch -->
    <title>reaction-confusing</title>
    <desc>Created with Sketch.</desc>
    <defs></defs>
    <g id="Page-1" stroke="none" stroke-width="1" fill="none" fill-rule="evenodd">
        <g id="Data-landing" transform="translate(-812.000000, -984.000000)" stroke="#112E51">
            <g id="reaction-confusing" transform="translate(813.000000, 985.000000)">
                <circle id="Oval-183-Copy-2" cx="9.5" cy="9.5" r="9.5"></circle>
                <g id="Group-Copy-8" transform="translate(12.476190, 6.238095) rotate(-180.000000) translate(-12.476190, -6.238095) translate(10.476190, 5.238095)">
                    <path d="M8.52651283e-14,4.26325641e-14 C8.52651283e-14,0.999372404 0.810151405,1.80952381 1.80952381,1.80952381 L1.80952381,1.80952381 C2.80889621,1.80952381 3.61904762,0.999372404 3.61904762,4.26325641e-14" id="Oval-183-Copy-4"></path>
                </g>
                <g id="Group-Copy-10" transform="translate(6.142857, 6.238095) rotate(-180.000000) translate(-6.142857, -6.238095) translate(4.142857, 5.238095)">
                    <path d="M8.8817842e-14,4.26325641e-14 C8.8817842e-14,0.999372404 0.810151405,1.80952381 1.80952381,1.80952381 L1.80952381,1.80952381 C2.80889621,1.80952381 3.61904762,0.999372404 3.61904762,4.26325641e-14" id="Oval-183-Copy-4"></path>
                </g>
                <path d="M5.43145354,14.0653246 C6.38250379,14.8859107 7.62129736,15.3821267 8.97598839,15.3821267 C11.1604898,15.3821267 13.0436226,14.0918142 13.9048181,12.2317579 C14.2255697,11.5389815 14.4045598,10.767171 14.4045598,9.95355523" id="Oval-183-Copy-15" transform="translate(9.918007, 12.667841) rotate(-170.000000) translate(-9.918007, -12.667841) "></path>
            </g>
        </g>
    </g>
</svg>