<?xml version="1.0" encoding="UTF-8" standalone="no"?>
<svg width="21px" height="21px" viewBox="0 0 21 21" version="1.1" xmlns="http://www.w3.org/2000/svg" xmlns:xlink="http://www.w3.org/1999/xlink">
    <!-- Generator: Sketch 3.8.3 (29802) - http://www.bohemiancoding.com/sketch -->
    <title>reaction-informative</title>
    <desc>Created with Sketch.</desc>
    <defs></defs>
    <g id="Page-1" stroke="none" stroke-width="1" fill="none" fill-rule="evenodd">
        <g id="Data-landing" transform="translate(-812.000000, -947.000000)" stroke="#112E51">
            <g id="reaction-informative" transform="translate(813.000000, 948.000000)">
                <circle id="Oval-183-Copy-14" cx="9.5" cy="9.5" r="9.5"></circle>
                <path d="M4.89546963,12.0690162 C5.01674459,12.2497132 5.14858986,12.4227211 5.2901201,12.5871546 C6.28565981,13.7437984 7.76039911,14.4761905 9.40619775,14.4761905 C11.5906992,14.4761905 13.473832,13.185878 14.3350275,11.3258217 C14.6557791,10.6330453 14.8347692,9.86123485 14.8347692,9.04761905" id="Oval-183-Copy-15"></path>
                <g id="Group-Copy-9" transform="translate(9.476190, 6.238095) rotate(-180.000000) translate(-9.476190, -6.238095) translate(4.476190, 5.238095)">
                    <path d="M-2.13162821e-13,4.35207426e-14 C-2.13162821e-13,0.999372404 0.810151405,1.80952381 1.80952381,1.80952381 L1.80952381,1.80952381 C2.80889621,1.80952381 3.61904762,0.999372404 3.61904762,4.35207426e-14" id="Oval-183-Copy-4"></path>
                    <path d="M6.33333333,4.26325641e-14 C6.33333333,0.999372404 7.14348474,1.80952381 8.14285714,1.80952381 L8.14285714,1.80952381 C9.14222955,1.80952381 9.95238095,0.999372404 9.95238095,4.26325641e-14" id="Oval-183-Copy-5"></path>
                </g>
            </g>
        </g>
    </g>
</svg>