<svg xmlns="http://www.w3.org/2000/svg" width="147" height="95" viewBox="0 0 147 95"><style>.a{fill:#003D6E;}.b{fill:#D1393F;}</style><g fill="none"><path d="M49.6 10.7h-2.8c-.5.1-.9.1-1.3.1h-1c-.7.1-1.3.2-1.9.2-.7.1-1.4.1-2.2.2-.7.1-1.5.2-2.2.3-1 .1-1.9.2-2.8.4-1.8.3-3.5.6-5.2 1-1.5.3-3 .7-4.5 1.1-.6.2-1.2.3-1.9.5-1.5.5-3.1 1-4.6 1.5-.1.1-.3.2-.5.2-.3.2-.7.3-1 .4-2.2.9-4.3 1.8-6.4 2.7-.3.2-.5.3-.7.4-.2.1-.4.2-.6.2-.1.1-.3.2-.4.3-1 .4-2 .9-2.9 1.5-.5.3-1 .5-1.6.8-.9.5-1.7 1.1-2.6 1.6-.4.2-.7.4-1 .6-1.3.9-2.6 1.7-3.9 2.6-.8.5-1.5 1.2-2.3 1.8-1 .6-1.9 1.3-2.8 2.1-.7.6-1.5 1.2-2.2 1.9-.6.4-1.1.9-1.6 1.4-2 1.8-4 3.8-5.9 5.8-.4.5-.8.9-1.1 1.4l-.6.6c-.2.2-.4.5-.6.7l-.2.2c-.6.7-1.2 1.4-1.7 2.1-.5.6-.9 1.1-1.3 1.7-.3.3-.5.7-.8 1-.4.6-.8 1.1-1.2 1.7-.9 1.3-1.8 2.6-2.6 3.9-.1.1-.1.2-.2.3-.1.1-.1.2-.2.3l-.9 1.5c-.5.9-1 1.8-1.6 2.8-.6 1.1-1.1 2.2-1.7 3.4-.2.3-.3.6-.5 1s-.4.8-.5 1.1c-.4.9-.9 1.9-1.2 2.8-.3.7-.6 1.5-.9 2.2-.3.5-.4 1.1-.7 1.7-.6 1.6-1.1 3.2-1.6 4.9 0 .1-.1.3-.1.4-.2.7-.4 1.3-.6 1.9 0 .2-.1.4-.1.5-.3 1-.6 2-.8 3-.1.4-.1.7-.2 1-.2.6-.3 1.2-.4 1.9l-.3 1.5-.3 1.8c-.3 1.4-.4 2.8-.6 4.3 0 .2-.1.5-.1.7 0 .2 0 .4-.1.5v.5c0 .3 0 .6-.1 1-.2 2.5-.3 5.1-.3 7.7v3.1c0 .2 0 .5.1.7v1.7c.1.9.2 1.9.2 2.8.1 1.2.3 2.5.4 3.7.1.2.1.3.1.5.1 1.2.4 2.4.6 3.6.4 2.2.8 4.3 1.3 6.4.2.6.3 1.1.5 1.7l.6 2.4c.1.3.2.5.3.8l.3 1.2c.3.7.5 1.4.8 2.2.1.3.2.6.3.8.1.2.1.3.2.4 0 .2.1.3.1.5.1.3.3.6.4 1 .1.1.1.2.1.3.1.3.3.6.4.8.1.4.2.7.4 1.1.4.9.8 1.9 1.2 2.8.2.4.3.8.5 1.1 1.1 2.2 2.1 4.3 3.3 6.3 3 5 6.3 9.9 10.2 14.3 1.7 2 3.5 3.9 5.4 5.8.5.5 1 .9 1.5 1.4.4.4.9.7 1.3 1.1.6.6 1.2 1.1 1.8 1.6.7.6 1.4 1.2 2.2 1.8.2.2.4.3.7.5 1 .8 2 1.5 3 2.3.8.6 1.7 1.2 2.6 1.7.2.2.5.4.7.6.8.5 1.6.9 2.3 1.4 2.4 1.5 4.8 2.8 7.3 4l.6.3c.4.2.9.4 1.3.6.6.3 1.3.6 2 .9.1.1.2.1.4.2 1.1.5 2.3 1 3.4 1.4.4.1.8.3 1.1.4 2.7 1 5.4 1.9 8.3 2.6.6.2 1.3.4 1.9.5 4.9 1.2 10 2 15.3 2.4.5 0 1.1.1 1.7.1.4.1.7 0 1.1 0 1.1.1 2.2.1 3.4.1H54c.1-.1.4 0 .5 0 .2-.1.7-.1.9-.1h1.1c.1-.1.3 0 .4 0 .1-.1.3-.1.4-.1h.5c.1-.1.4 0 .5 0 .1-.1.2-.1.3-.1h.6c0-.1.2 0 .2 0 .1 0 .2-.1.2-.1h.7c.1-.1.2-.1.3-.1H61.2c.1-.1.2-.1.3-.1H62.1c.1 0 .2 0 .2-.1H62.9c.1 0 .1 0 .2-.1h.7c.1-.1.1-.1.2-.1h.4c.1-.1.1-.1.2-.1h.5c0-.1.1-.1.1-.1h.4c.1 0 .1-.1.2-.1h.5c0-.1.1-.1.2-.1h.2c.1-.1.2-.1.3-.1.1 0 .3-.1.5-.1h.2c.2-.1.5-.1.6-.1h.2c0-.1.1-.1.2-.1h.1c.1-.1.4-.1.6-.1 0-.1.1-.1.2-.1.2 0 .4-.1.6-.1.1 0 .3-.1.4-.1.4-.1.7-.2 1.1-.2.4-.1.7-.2 1-.3.2-.1.4-.2.7-.2h.1c.9-.2 1.7-.5 2.6-.7.8-.2 1.6-.5 2.4-.7.7-.3 1.5-.5 2.3-.8.9-.3 1.8-.6 2.6-1 .4-.1.7-.3 1.1-.4.5-.2 1.1-.4 1.6-.6 1.3-.5 2.6-1.2 3.8-1.7 2-.9 3.9-1.9 5.8-3 5-2.8 9.8-6.2 14.3-10 .3-.2.6-.5.9-.7.3-.2.5-.4.7-.6.5-.4.9-.9 1.4-1.3.3-.3.7-.7 1.1-1 1.8-1.8 3.6-3.7 5.3-5.6 1-1 1.9-2.2 2.8-3.3.3-.3.5-.7.8-1l.9-1.2c.1-.2.2-.3.4-.4.1-.3.2-.5.4-.7.1-.1.2-.3.3-.4.6-.9 1.2-1.7 1.8-2.5.4-.8.9-1.5 1.4-2.3l.9-1.5c.7-1.1 1.4-2.2 2-3.4.2-.4.4-.8.7-1.2.4-.8.8-1.6 1.1-2.4.3-.6.7-1.3 1-1.9.4-1 .8-2 1.3-3 .1-.3.1-.5.2-.7.3-.7.6-1.4.9-2.2 0-.1 0-.2.1-.3 0-.1.1-.2.1-.3l.3-.6c0-.3.1-.5.2-.8.1-.1.1-.2.1-.4.1-.1.1-.2.2-.4.1-.3.2-.6.3-1 .1-.2.1-.4.2-.6.1-.2.1-.4.2-.5.6-1.9 1.1-3.8 1.6-5.7.4-1.5.7-3 1-4.6.1-.4.2-.9.3-1.3.2-1.1.3-2.2.5-3.3.2-.9.3-1.9.4-2.8v-.8c.1-.1.1-.2.1-.3.1-.7.1-1.4.2-2.1 0-.4.1-.8.1-1.1v-1.1c.1-.7.1-1.3.1-1.9v-.9c.1-1.9.1-3.8 0-5.6 0-1-.1-2-.2-2.9 0-.5 0-1-.1-1.5v-.6-.4c-.1-.2-.1-.5-.2-.8v-.5c0-.2 0-.4-.1-.6v-.7c-.1-.6-.2-1.3-.3-2-.4-2.4-.9-4.8-1.4-7.1-2.5-10.7-6.8-20.4-12.6-29.4-1.2-1.9-2.5-3.7-3.9-5.5-1.1-1.4-2.2-2.8-3.4-4.1-.4-.5-.8-1-1.3-1.6-.6-.6-1.2-1.3-1.8-1.9-.9-1-1.9-1.9-2.8-2.8-.2-.2-.5-.5-.8-.7-.3-.4-.7-.7-1-1-1-.9-1.9-1.7-2.9-2.5l-2.1-1.8c-.2-.1-.5-.3-.7-.5-.2-.1-.4-.3-.6-.5-.8-.5-1.6-1.1-2.3-1.7l-4.5-3c-2.9-1.7-5.7-3.4-8.7-4.8-3.9-1.9-7.9-3.4-12-4.8-2.1-.7-4.3-1.2-6.4-1.8-.8-.2-1.7-.4-2.6-.6-1-.2-2.1-.4-3.1-.6-.5-.1-.9-.2-1.3-.2-.4-.1-.7-.1-1.1-.2-.3 0-.7-.1-1.1-.1-1.1-.2-2.3-.4-3.4-.5-3.2-.3-6.6-.4-10-.4zm-1.2-2.6h3.8c3 .1 5.9.3 8.8.6.3.1.7.1 1 .2 1.2.1 2.3.3 3.4.4 1.3.2 2.7.5 4 .8 2.6.5 5.2 1.1 7.7 1.9 1 .3 1.9.6 2.8.9 1.4.4 2.8.9 4.1 1.4 2.1.8 4.1 1.7 6 2.6.8.3 1.5.7 2.3 1 2.7 1.4 5.4 2.8 8 4.5 1.8 1.1 3.6 2.3 5.3 3.5 1.3.9 2.4 1.9 3.7 2.8.6.5 1.3 1 1.9 1.6 6.1 5.1 11.8 11.3 16.3 17.6.8 1.2 1.7 2.4 2.5 3.7 1.3 1.9 2.4 3.9 3.5 5.9 1.2 2.2 2.3 4.3 3.3 6.6 1.1 2.5 2.2 5.1 3 7.8.2.6.5 1.2.7 1.9.4 1.4.9 2.9 1.3 4.4.3 1.2.6 2.4.8 3.6.2.9.5 1.8.6 2.8.4 2 .7 4.1 1 6.1.7 5.3.8 11 .6 16.6l-.3 3.9c-.1.9-.2 1.9-.3 2.8-.1.4-.1.7-.1 1-.1.7-.2 1.3-.3 1.9l-.3 1.5c-.2 1.3-.5 2.7-.8 4-.5 2.7-1.2 5.2-2 7.8-.8 2.7-1.7 5.3-2.8 7.9-.6 1.6-1.2 3.2-2 4.8l-.9 1.8c-.8 1.7-1.7 3.3-2.6 4.9l-1.2 2.1c-3.8 6.1-8.1 11.8-13.4 17.1-.2.2-.3.4-.5.6-.4.3-.7.7-1.1 1-.3.3-.5.6-.8.8l-1.2 1.2-1.8 1.5-.4.4c-.6.4-1.1.9-1.7 1.3l-.5.5c-.6.5-1.2.9-1.7 1.4l-1.2.9c-.9.6-1.7 1.2-2.5 1.8-.9.6-1.8 1.2-2.8 1.8-.2.1-.4.3-.7.5-.8.4-1.6.9-2.3 1.4-2.1 1.2-4.2 2.3-6.3 3.4l-1.5.6c-.1.1-.3.2-.5.3-.6.3-1.3.6-2 .9-1.5.7-3.1 1.3-4.6 1.9-1.6.6-3.2 1-4.8 1.6-.3.1-.5.1-.8.2-.8.2-1.5.5-2.3.7-.5.1-1 .2-1.5.4-.5.1-1 .2-1.6.4-.7.2-1.4.3-2.2.5-.7.1-1.5.3-2.3.4-.8.1-1.5.3-2.2.4-.4.1-.7.1-1 .2-.3 0-.7.1-1 .1-.2 0-.3.1-.5.1-.5 0-1.1.1-1.6.2-.4.1-.8.1-1.2.1-.6.1-1.2.2-1.7.2-.3 0-.5 0-.7.1-1.1 0-2.2.1-3.4.1-.2.1-.3.1-.5.1-.9 0-1.7 0-2.6.1-.7 0-1.5-.1-2.2-.1h-2c-.6 0-1.1-.1-1.7-.1-1.4-.1-2.9-.2-4.3-.3-.6-.1-1.2-.1-1.9-.2-2-.3-4-.6-6.1-.9-.5-.1-1-.2-1.6-.3-.5-.1-1.1-.2-1.6-.4-.7-.1-1.3-.3-1.9-.4-1-.2-1.9-.5-2.9-.7-.7-.2-1.4-.4-2-.6-.4-.1-.8-.2-1.2-.4-2.4-.8-4.7-1.5-7-2.4-.3-.2-.6-.3-.9-.4-.7-.3-1.5-.6-2.2-1-1.7-.7-3.4-1.5-5.1-2.3l-2.1-1.2c-.6-.3-1.1-.6-1.7-.9-.3-.2-.5-.3-.8-.5l-1.5-.9c-.3-.2-.6-.3-.9-.5-.6-.4-1.3-.9-1.9-1.3-1-.6-1.9-1.3-2.8-1.9-.7-.5-1.4-1.1-2.1-1.6-.9-.6-1.8-1.4-2.7-2.1-.2-.2-.5-.4-.7-.6-2-1.5-3.9-3.3-5.8-5.2-.6-.6-1.2-1.2-1.9-1.8-.6-.6-1.2-1.4-1.8-2-4.1-4.5-7.6-9.3-10.7-14.3-.5-.8-.9-1.6-1.4-2.4-.8-1.4-1.6-2.8-2.3-4.3-.1-.1-.1-.3-.2-.5s-.3-.4-.4-.7c-.2-.3-.3-.7-.5-1.1-.2-.3-.3-.6-.5-1 0-.1-.1-.3-.2-.5-.7-1.6-1.4-3.3-2-4.9-.7-1.7-1.3-3.4-1.8-5.2-.1-.2-.2-.5-.3-.8 0-.1 0-.2-.1-.3-.7-2.6-1.4-5.3-2-8.1-.5-2.4-.9-4.9-1.3-7.4 0-.6-.1-1.1-.1-1.7-.2-1.7-.4-3.3-.4-5.1-.1-1-.2-2.1-.2-3.1v-3.8-1.4c0-.3 0-.5.1-.8v-.6c.1-.3.1-.6.1-.8 0-1.1.1-2.1.2-3.1.1-.8.2-1.7.3-2.5.1-.8.2-1.6.3-2.3.1-.6.1-1.2.2-1.8l.6-3.3c.9-4.3 2-8.4 3.4-12.4.4-1.4 1-2.7 1.4-4 .3-.6.5-1.2.8-1.8.1-.3.2-.6.3-.8.3-.8.7-1.5 1-2.2.5-1.1 1-2.2 1.6-3.3.2-.4.5-.9.7-1.3.4-.7.7-1.4 1.1-2 .2-.5.5-.9.7-1.3.2-.4.4-.7.6-1l1.8-3c.3-.4.6-.8.9-1.3.6-.9 1.3-1.9 2-2.7.1-.2.2-.3.3-.5.3-.4.5-.8.8-1.1 1-1.3 2-2.5 3-3.7.6-.8 1.2-1.4 1.8-2.1.4-.5.8-.9 1.1-1.3 1.3-1.3 2.5-2.6 3.8-3.8.6-.6 1.3-1.2 1.9-1.8.7-.7 1.4-1.3 2.1-1.9.8-.7 1.6-1.3 2.4-2 1.3-1 2.6-2 3.9-2.9 2.1-1.6 4.4-3 6.6-4.4 3.2-1.9 6.4-3.6 9.7-5.1 1.5-.7 3-1.3 4.5-1.9.5-.2.9-.3 1.3-.5.2 0 .3-.1.4-.1.5-.2 1-.4 1.5-.5.9-.4 1.8-.6 2.7-.9.7-.3 1.5-.5 2.2-.7.6-.2 1.3-.4 1.9-.5.8-.2 1.6-.5 2.4-.6l1.2-.3c.2 0 .4-.1.6-.1.1 0 .2-.1.3-.1.2 0 .4-.1.7-.1.2-.1.4-.2.6-.2h.5c.1-.1.4-.2.6-.2h.4l.1-.1h.3c.1-.1.2-.1.3-.1h.4c.1 0 .1 0 .2-.1h.4c.1 0 .1 0 .2-.1.1 0 .3-.1.5-.1h.7c0-.1.1-.1.2-.1h.5c0-.1.1-.1.1-.1H37.9c.1 0 .1-.1.2-.1H38.7c0-.1.1-.1.2-.1H39.5c.1 0 .1-.1.2-.1H40.3c.1-.1.2-.1.3-.1h.8s.1 0 .2-.1h.8c.1-.1.2 0 .2 0 .1-.1.3-.1.4-.1h1.1c.1-.1.2-.1.4-.1h.7c.1-.1.3 0 .5 0 .1-.1.3-.1.4-.1h.6c.2-.1.6 0 .7 0 .3-.1.8 0 1-.1z" class="a"/><path d="M49.8 28.6h-1.6c-1.6.1-3.1.2-4.6.3-3.7.4-7.3.9-10.7 1.8-1 .3-2 .5-3 .8-.7.2-1.5.5-2.3.7-.9.3-1.9.6-2.8 1-.4.1-.8.3-1.2.4-1.6.6-3.1 1.3-4.6 2-1.4.6-2.7 1.3-4 2-.8.5-1.7.9-2.5 1.4-1.2.8-2.4 1.6-3.6 2.3-.5.4-1 .8-1.5 1.1-1.7 1.1-3.3 2.4-4.8 3.7-.3.3-.5.5-.8.7-.3.2-.6.5-.9.8-1.2 1.1-2.5 2.3-3.7 3.6-.9 1-1.9 2-2.8 3.1-.4.5-.9 1-1.3 1.5-.1.1-.2.3-.3.4-1.3 1.6-2.4 3.2-3.5 4.8-1.1 1.7-2.2 3.4-3.2 5.2l-.9 1.5c-2.1 4.3-4 8.7-5.4 13.3-.8 2.6-1.5 5.3-2 8-.5 3-.9 6-1.1 9v1.1c-.1.9-.1 1.7-.1 2.6v1.3c0 1.4 0 2.8.1 4.1.1.8.1 1.7.2 2.6 0 .2.1.4.1.6 0 .2.1.4.1.7v.6c.1 1 .3 2 .5 2.9.2 1.4.4 2.8.8 4.1.1.4.2.9.3 1.3.4 1.5.8 3.1 1.3 4.5.3 1.1.6 2.1 1 3.1.2.5.4 1 .5 1.4.6 1.4 1.2 2.7 1.7 4.1.5 1.1 1.1 2.1 1.6 3.2 1.2 2.3 2.6 4.6 4.1 6.9 0 .1.1.2.2.3.3.4.5.7.7 1 .2.4.5.7.7 1.1.7.8 1.3 1.7 2 2.6.5.6 1 1.1 1.4 1.7.3.4.7.7 1 1.1.3.3.6.7.9 1l.3.3c.2.3.5.6.7.8 1.2 1.2 2.3 2.4 3.5 3.4l.8.8c.7.6 1.4 1.2 2 1.7l.3.3c.2.1.3.2.5.4.3.2.6.5.9.7.8.6 1.6 1.2 2.3 1.8 1.2.8 2.3 1.5 3.5 2.3.4.3.9.6 1.3.9.2 0 .3.1.4.1.1.1.3.2.5.4.5.3 1.1.6 1.6.9 2 1.1 4 2.1 6 3 6 2.7 12.3 4.6 19.2 5.6 1.9.3 3.9.6 6 .7.5 0 1.1.1 1.6.1 1.6 0 3.1.1 4.7.1.1-.1.2 0 .3 0h.8c.2-.1.7-.1.9-.1h.4c.1-.1.4 0 .6 0 .1-.1.2-.1.3-.1h.8c.2-.1.4 0 .5 0h.2c.1-.1.2-.1.3-.1h.8c0-.1.1-.1.2-.1H58.6c.1-.1.3-.1.4-.1H59.6c.1 0 .1-.1.2-.1H60.4s.1 0 .1-.1H61.1s.1 0 .1-.1h.7c0-.1 0-.1.1-.1H62.3c.1 0 .1 0 .2-.1H63.1c.1-.1.5-.2.7-.2h.4c0-.1.1-.1.1-.1.1 0 .4-.1.6-.1h.3s.1 0 .1-.1c.3 0 .5-.1.7-.1l1.5-.3c.5-.2 1.1-.3 1.6-.4.9-.2 1.7-.5 2.6-.7.2-.1.5-.2.7-.3.7-.2 1.4-.4 2-.6 2.8-1 5.6-2.1 8.3-3.3 2.5-1.2 4.9-2.5 7.2-4 .6-.4 1.1-.7 1.7-1.1 1.1-.7 2.2-1.5 3.3-2.4.9-.6 1.8-1.3 2.6-2l.3-.3c.1 0 .2-.1.3-.2.1 0 .2-.1.3-.2.2-.2.4-.3.5-.5.6-.4 1.1-.9 1.6-1.4.6-.5 1.2-1.1 1.8-1.6.2-.3.4-.5.6-.7 1.8-1.8 3.4-3.5 4.9-5.4.5-.6 1-1.1 1.4-1.7 1.1-1.5 2.2-3.1 3.2-4.6.4-.7.8-1.3 1.2-1.9.2-.3.3-.5.4-.7.4-.6.8-1.3 1.1-1.9.8-1.4 1.6-2.8 2.2-4.3.9-1.9 1.7-3.8 2.4-5.7.3-.7.6-1.5.8-2.2.5-1.7 1.1-3.4 1.5-5.2.7-2.5 1.2-5.2 1.7-7.9v-.7c.1-.2.1-.4.1-.6.1-.6.2-1.2.2-1.8 0-.1.1-.2.1-.4v-.9c.1-.7.2-1.5.2-2.2 0-.7.1-1.3.1-2 0-1.5 0-3-.1-4.4v-1.3c0-.5-.1-1-.1-1.5-.1-1-.1-2-.3-2.9 0-.5-.1-1-.1-1.4-.2-.8-.3-1.6-.4-2.4-.4-2.5-1-4.9-1.6-7.2-.4-1.5-.8-3-1.3-4.4-.3-1-.7-2-1.1-3-.3-.8-.6-1.7-1-2.5-.1-.3-.2-.5-.3-.7-.2-.5-.4-1-.7-1.5-.5-1.1-1-2.2-1.6-3.3-.9-1.7-1.9-3.4-2.9-5-.3-.5-.7-1-1-1.5-.5-.6-.9-1.3-1.4-2-.5-.8-1.1-1.6-1.7-2.4l-.3-.3c-.3-.4-.6-.7-.9-1.1-.5-.5-.9-1.1-1.4-1.6-.4-.6-.9-1.1-1.4-1.6-1.1-1.2-2.2-2.3-3.4-3.4-.7-.7-1.4-1.5-2.2-2.1-.2-.2-.4-.3-.6-.5-.6-.5-1.2-1-1.9-1.6-1.3-1-2.6-2-4-3-1.6-1.1-3.2-2.1-4.9-3.1-1.7-1-3.5-2-5.3-2.9-.4-.2-.9-.3-1.3-.5-.1-.1-.3-.1-.4-.2-.3-.1-.6-.3-.9-.5-1.1-.4-2.1-.8-3.1-1.2-2-.8-3.9-1.4-6-2-.4-.2-.9-.3-1.4-.4-.7-.2-1.3-.3-2-.5-.8-.2-1.5-.3-2.2-.5-.5-.1-1.1-.2-1.6-.3-.3 0-.6-.1-.8-.1-.7-.1-1.4-.3-2.2-.4-.6 0-1.2-.1-1.7-.2-.7-.1-1.4-.1-2-.2-.9-.1-1.7-.1-2.6-.2h-.5c-.5 0-.9 0-1.4-.1h-2.6zm-.9-2.4H52.6c1.3.1 2.6.1 3.9.2 4.9.4 9.5 1.3 13.9 2.5 1.6.4 3.1.9 4.7 1.4 2.5.9 5 1.9 7.4 3 1.3.6 2.5 1.2 3.7 1.8 1.6.9 3.2 1.8 4.8 2.8 1.3.8 2.6 1.7 3.9 2.6.7.5 1.4 1.1 2.2 1.6.7.5 1.3 1.1 2 1.6 1.3 1.1 2.5 2.2 3.8 3.4.5.5 1 .9 1.5 1.4 1 1 2 2.1 3 3.2.4.6.9 1.1 1.4 1.7.5.5 1 1.1 1.4 1.7.7.8 1.3 1.6 1.9 2.5 1.1 1.6 2.2 3.2 3.3 4.9.4.7.9 1.5 1.3 2.3.3.4.5.9.8 1.3l.6 1.2c.3.6.6 1.1.9 1.7.5.9.9 1.9 1.3 2.9.3.7.7 1.4 1 2.1.3 1 .7 1.9 1 2.8.4 1 .7 1.9 1 2.9.2.7.4 1.3.6 2 .8 2.7 1.3 5.4 1.8 8.3.3 1.1.4 2.3.5 3.5.1.5.2 1 .2 1.6.2 1.3.3 2.8.3 4.2 0 .8.1 1.7.1 2.5 0 1.8 0 3.5-.1 5.3-.9 14-5.3 26.3-12.3 37.2-.4.7-.8 1.3-1.3 2-1 1.3-2 2.7-3.1 4.1-.3.4-.6.7-.9 1.1-.3.4-.7.8-1 1.2-.6.6-1.1 1.3-1.7 1.9-.2.1-.3.3-.4.4-.3.2-.5.5-.7.7-.4.4-.8.9-1.2 1.2l-1.3 1.3c-1 .9-2.1 1.8-3.1 2.7-1.2 1-2.4 2-3.7 2.9-1.1.8-2.2 1.5-3.2 2.3-.6.3-1.2.7-1.7 1.1-.3.1-.6.3-.8.5-1.2.7-2.5 1.4-3.7 2-.9.5-1.8 1-2.8 1.4-1.5.8-3.1 1.4-4.6 2.1-.4.1-.7.3-1.1.4-1.6.6-3.3 1.2-4.9 1.7l-1.2.3c-.1 0-.3.1-.5.1-.1.1-.2.1-.4.2-.2 0-.4.1-.7.2-1.2.3-2.5.6-3.8.9-.3 0-.6.1-.9.2-1.1.2-2.1.4-3.2.5l-2.1.3c-.7.1-1.3.2-2 .3h-.8c-.3.1-.7.1-1.1.1-.2 0-.4.1-.6.1-.8 0-1.6.1-2.5.1h-5.7c-2.2-.1-4.3-.3-6.4-.5-.2-.1-.4-.1-.7-.1-1.4-.2-2.7-.4-4.1-.7-1.1-.2-2.1-.4-3.2-.7-2.2-.4-4.4-1.1-6.5-1.8-1.3-.4-2.7-.9-4-1.4-1.7-.7-3.4-1.4-5-2.2-.7-.3-1.3-.6-1.9-.9-1.5-.8-3.1-1.6-4.5-2.5-2.5-1.4-4.8-3.1-7.1-4.8-.5-.3-1-.7-1.5-1.1-1.4-1.1-2.8-2.4-4.2-3.7-.7-.6-1.5-1.3-2.1-2l-1.3-1.3c-1.2-1.3-2.3-2.6-3.5-3.9-.3-.4-.7-.9-1.1-1.3-.5-.8-1.1-1.4-1.6-2.2-.5-.6-.9-1.2-1.4-1.9-.7-1-1.4-2-2-3.1-.4-.7-.8-1.4-1.3-2.1-.9-1.5-1.7-3-2.4-4.6-1.2-2.3-2.3-4.8-3.1-7.3-.2-.4-.3-.8-.5-1.2-.2-.4-.3-.9-.4-1.4-.2-.3-.3-.6-.4-.9-.4-1.6-.9-3.2-1.3-4.8-.4-1.7-.8-3.5-1-5.3-.2-1.4-.5-2.9-.6-4.3-.3-3.3-.5-6.6-.5-10.1.1-.2.1-.4.1-.6 0-1.1.1-2.1.1-3.2.1-.9.2-1.7.3-2.6.2-1.7.4-3.3.7-5 .5-2.5 1.1-5 1.8-7.4l.6-2.1c.1-.3.2-.5.2-.8.6-1.7 1.2-3.5 1.9-5.1.4-1 .9-2 1.3-3 .1-.2.2-.5.3-.7.2-.4.4-.8.6-1.3.5-.8.9-1.7 1.4-2.5 1-2 2.2-4 3.5-5.9 1.2-1.9 2.6-3.7 4-5.5.6-.9 1.3-1.6 2-2.4.6-.7 1.1-1.3 1.7-2l1.5-1.5C-3 47.9-2 47-1 46.1c1.5-1.4 3-2.7 4.6-3.9 1.3-1 2.6-2 4-2.9.8-.5 1.6-1.1 2.5-1.6.5-.3 1-.7 1.6-1 1-.6 2-1.2 3.1-1.7l2.4-1.2c3.5-1.7 7-3.1 10.7-4.2 1.7-.5 3.3-1 5-1.4.4-.1.9-.2 1.4-.3.2 0 .4-.1.6-.1.1-.1.4-.1.5-.1.2-.1.5-.1.7-.1l.1-.1c.1 0 .4-.1.5-.1h.4c.1-.1.2-.1.3-.1h.4c.1-.1.3-.1.4-.1h.2c0-.1.1-.1.1-.1h.5c.1 0 .1-.1.2-.1h.5c.1 0 .1-.1.2-.1h.4c.1-.1.2-.1.3-.1h.5c.1 0 .2 0 .2-.1h.6c.1-.1.2-.1.3-.1h.4c.1-.1.3 0 .4 0 .1 0 .1 0 .2-.1h.7c.1-.1.2 0 .3 0 .1-.1.2-.1.4-.1h.6c.1-.1.6-.1.8-.1h.5c.1-.1.5 0 .6 0 .1-.1.3 0 .4 0 .1-.1.6-.1.8-.1h.6z" class="a"/><path d="M-8.2 108.8c-.1.1-.1.2-.1.3 0 .4.2.8.3 1.2.2.8.4 1.5.6 2.3 0 .2.2.6.1.9-.1.3-1 .6-1.3.8-.6.4-1.2.7-1.8 1.1-.1.1-1 .5-.9.7.1.1.2.1.2.1.2.1.3 0 .5.1.3 0 .7.1 1 .1.4 0 .8.1 1.2.2h.4c.3 0 .6.1 1 .1.1 0 .3 0 .5.2s.3 1 .3 1.3c.2.5.3 1.1.5 1.6l.3 1.2c0 .1.1.2.2.2.3 0 .5-.8.6-1 .2-.6.4-1.1.6-1.6.1-.3.3-.6.4-.9.1-.3.1-.5.3-.7.3-.2.8 0 1.1 0h.5c.2 0 .5.1.8.1.4 0 .7 0 1.1.1.4 0 .8.1 1.3.1 0-.1.2-.1.1-.3 0-.1-.1-.2-.2-.3-.5-.5-1.1-.8-1.6-1.3l-1-1c-.3-.2-.6-.4-.6-.7-.1-.2.1-.5.2-.7.3-.8.7-1.6 1.1-2.4.1-.3.2-.5.3-.8.1-.1.1-.2 0-.2-.1-.4-.8.1-1 .2-.3.1-.6.3-.9.5-.4.3-.9.6-1.3.8-.3.2-.8.6-1.1.5-.3 0-.6-.3-.8-.5-.5-.4-.9-.8-1.4-1.2-.2-.2-.4-.4-.6-.5-.3-.3-.6-.6-.9-.6zM3 95.7c-.3.1 0 .9 0 1.2l.3.9c0 .2.1.4.1.6.1.4.2.7.3 1.1.1.2.2.6.2.8-.1.3-.7.6-.9.7-.6.4-1.2.7-1.8 1.1-.3.1-.7.3-1 .5-.1.1-.2.1-.3.2 0 .1-.1.1-.1.1 0 .3.9.4 1.2.4.2 0 .4 0 .7.1.4 0 .8 0 1.3.1.2 0 .5 0 .7.1.3 0 .7-.1.9.1.2.2.2.7.3 1l.6 2.4c.1.2.1.5.2.8l.2.2c.3 0 .5-.8.6-1 .2-.6.5-1.2.7-1.8.2-.4.4-1.1.7-1.4.3-.2 1.2.1 1.6.1h.7c.1 0 .3.1.4.1h.8c.2.1.3.1.5.1h.3c.2 0 .3.1.5.1.1 0 .1-.1.1-.1.1-.2 0-.3-.1-.4-.6-.5-1.1-.9-1.7-1.4-.2-.2-.4-.4-.7-.6-.2-.3-.9-.7-1-1.1 0-.3.2-.7.3-.9.3-.8.7-1.5 1.1-2.3l.3-.9c.1-.1.1-.2.1-.3-.2-.3-.6.1-.8.2-.1 0-.2.1-.3.2-.4.2-.7.4-1.1.6-.4.3-.9.6-1.3.8-.3.2-.6.5-.9.5-.3 0-.9-.6-1.1-.9-.3-.3-.7-.6-1.1-.9-.3-.2-.6-.4-.8-.7-.3-.2-.4-.4-.7-.4zm-14.8-1.2c-.1.1-.2.1-.2.3 0 .1.1.3.1.4.1.3.2.7.3 1 .1.3.1.7.2 1 .1.4.3.8.4 1.2 0 .2.2.5.1.8-.1.2-.6.5-.8.6-.3.2-.5.4-.8.6-.3.1-.6.3-.9.5-.2.1-.3.2-.5.3-.1.1-1 .4-.8.7.1.2 2.8.4 3.3.4.3.1 1.1 0 1.3.2.2.2.2.4.3.6 0 .2.1.5.1.7.2.9.4 1.8.7 2.6.1.1.2.4.3.4.1 0 .1 0 .2-.1.2-.2.2-.6.4-.8.1-.5.3-1 .5-1.5l.3-.9c.1-.3.2-.6.4-.8.1 0 .1-.1.2-.1h.4c.4 0 .8 0 1.1.1.6 0 1.2.1 1.9.1.3 0 .6.1.9.1h.4c0-.1.1-.2.1-.2-.1-.3-.4-.4-.6-.6-.4-.4-.9-.7-1.3-1.1-.3-.2-.6-.5-.8-.7-.3-.2-.6-.4-.8-.7-.1-.1-.1-.2-.1-.3.1-.2.1-.3.2-.4.1-.3.2-.5.3-.8.3-.6.5-1.2.8-1.8.1-.3.6-1.1.5-1.3-.2-.3-.9.3-1.1.4-.3.2-.7.4-1 .6-.5.4-1 .7-1.5 1-.2.1-.5.4-.8.4-.3-.1-.5-.4-.7-.5-.1-.1-.2-.2-.3-.2-.5-.4-1-.8-1.5-1.3l-1.2-.9zM14 82.8v.1c-.2.1.1.9.1 1.1l.6 2.1v.3c.1.3.3.9.3 1.1-.1.2-.4.4-.6.5-.6.4-1.2.7-1.8 1.1-.3.1-.5.3-.8.4-.1.1-.8.4-.8.6-.1.3.5.2.7.3h.3c.2 0 .5.1.7.1.7.1 1.4.1 2.1.2.2 0 .6 0 .8.1.3.2.3.6.3.9.1.4.2.7.3 1.1 0 .1.1.3.1.5.1.3.2.7.3 1 .1.2.1.5.2.7 0 .1.1.2.2.2.3 0 .5-.8.6-.9.1-.4.2-.7.3-1 .2-.3.3-.6.4-1 .2-.3.4-1 .7-1.2.2-.2.8 0 1.1 0 .4 0 .7.1 1.1.1.3 0 .6 0 .9.1.3 0 .7 0 1 .1h.6c.1 0 .2-.2.2-.2-.1-.2-.3-.4-.5-.5-.2-.2-.4-.4-.7-.6-.2-.3-.5-.5-.8-.7-.3-.3-.6-.6-1-.9-.1-.2-.4-.3-.5-.6 0-.2.1-.4.2-.6 0-.1.1-.3.1-.4.4-.8.7-1.5 1-2.3.1-.1.6-.9.3-1-.2-.1-.6.2-.7.3-.2.1-.4.2-.5.3-.7.3-1.3.7-1.9 1.1-.3.1-.6.4-.9.5h-.3c-.2-.1-.3-.2-.5-.4-.1-.1-.3-.3-.5-.4-.5-.5-1.1-1-1.6-1.4-.3-.2-.7-.7-1.1-.8zM-.9 81.6c-.1.1-.1.4 0 .6.2.9.4 1.9.7 2.9.1.2.1.4.2.6 0 .2.1.3.1.5-.1.3-.5.4-.7.6-.2.1-.4.3-.7.5-.2.1-.5.2-.7.3-.2.2-.4.3-.6.4-.3.2-1.3.6-1.3.9 0 .1 0 .1.1.2h.3c.2.1.5.1.7.1.4 0 .8.1 1.1.2h.9c.3 0 .6 0 .8.1.3 0 .7 0 .8.1.3.2.3.7.4 1l.3 1.5c.1.4.2.7.3 1.1.1.2.1.3.2.5 0 .1.1.3.3.3l.2-.2c.2-.3.3-.7.4-1.1.3-.6.5-1.3.8-2 .1-.3.2-.6.4-.8.3-.3 1.5-.1 1.9 0h.8c.2 0 .5.1.7.1.5 0 .9.1 1.4.1 0-.1.2-.2.2-.2-.1-.3-.7-.7-1-1-.2-.2-.5-.3-.7-.5-.1-.1-.2-.3-.4-.4-.2-.2-.4-.4-.7-.6-.2-.2-.7-.5-.8-.8 0-.3.2-.7.3-1 .1-.2.2-.4.2-.5.3-.7.6-1.4.9-2 .1-.1.6-1.1.2-1.1-.4.1-.6.4-.9.5-.7.5-1.4.8-2 1.3-.3.2-1 .7-1.4.7-.3-.1-.7-.5-.9-.8-.3-.2-.6-.4-.9-.7-.4-.3-.8-.6-1.2-1-.2-.1-.4-.3-.7-.4zm26-11.8c-.3.2.1 1 .1 1.2l.6 2.1c.1.2.2.5.2.8.1.2.2.4.1.6 0 .1-.1.2-.2.3-.2.2-.4.3-.7.4-.8.5-1.6 1-2.4 1.4-.1.1-.6.3-.6.5-.1.2.8.3 1 .3.3 0 .6.1.9.1h.5c.2.1.5.1.7.1.4 0 1.3 0 1.6.3.2.1.3 1 .4 1.3 0 .2.1.5.2.7.1.4.1.8.3 1.2 0 .3.1.6.2.8 0 .1.1.3.2.3.3 0 .6-.8.6-1 .2-.4.3-.7.4-1.1.1-.2.2-.5.3-.7.2-.4.3-.7.5-1.1 0-.1.1-.2.2-.3.3-.2.6 0 .9 0 .7 0 1.3.1 2 .2h.9c.3 0 .5.1.8.1l.1-.1c.1 0 .1-.1.2-.1-.1-.2-.4-.4-.6-.6-.5-.5-1.1-.9-1.7-1.4-.2-.1-.4-.4-.5-.5-.3-.2-.7-.4-.7-.8-.1-.3.1-.5.2-.8.3-.9.8-1.7 1.1-2.6.1-.2.6-1 .2-1.1-.2-.1-.6.3-.8.4-.1.1-.2.1-.4.2l-1.2.9c-.2.1-.5.2-.7.4-.3.1-.8.5-1.2.4-.3 0-.5-.3-.7-.5-.5-.4-1-.8-1.4-1.1l-.3-.3c-.2-.1-.4-.3-.6-.5-.2-.2-.4-.4-.7-.4zm-15-1.4c0 .1-.1.1-.1.2 0 .3.1.6.2.9.2.9.5 1.8.7 2.7.1.3.2.6.2.8-.1.3-.6.5-.9.7-.4.2-.9.5-1.3.8-.4.2-.8.4-1.2.7-.1.1-.5.2-.6.4-.1.4.9.4 1.1.4h.9c.2.1.4.1.6.1.3.1.6.1.9.1.3 0 1 0 1.2.2.3.2.3.6.4.9.1.6.2 1.2.4 1.8 0 .2.1.4.2.6 0 .3.1.6.2.8.1.1.1.2.2.2.2.1.5-.8.6-.9.2-.5.3-.9.5-1.4.1-.2.2-.5.3-.8.1-.3.2-.7.4-.9.1-.1.3-.2.4-.2.2-.1 1 0 1.3 0 .1.1.2.1.3.1.5 0 .9.1 1.3.1h.9c.2 0 .5.1.7.1.3-.2.2-.3-.1-.5-.4-.4-.8-.7-1.2-1-.5-.4-.9-.8-1.4-1.2-.2-.2-.7-.5-.7-.8-.1-.3.3-1 .4-1.2.3-.6.5-1.1.8-1.7 0-.1.1-.3.2-.4.1-.3.2-.6.3-.8V69c-.2-.3-.9.3-1.1.4-.6.4-1.2.8-1.8 1.1-.2.2-.4.3-.6.4-.1.1-.3.1-.4.2-.1.1-.3.1-.4.1-.3 0-.7-.4-1-.6-.5-.5-1.1-1-1.7-1.5-.3-.2-.7-.6-1.1-.7zm-14.8-1.9v.1c-.3.1 0 .9.1 1.1 0 .3.1.6.2.9.1.6.2 1.2.4 1.8 0 .3.2.6.1.9-.1.3-.4.4-.6.5-.2.2-.5.3-.8.5-.1.1-.3.2-.4.3-.4.2-2.4 1.3-2.5 1.5 0 .1 0 .2.1.2.1.1.2.1.3.1.2 0 .5.1.7.1 1.1 0 2.1.1 3.1.2.3.1.6 0 .8.2.3.3.3.8.4 1.2.1.4.1.8.2 1.2.1.4.2.9.3 1.3.1.3.2 1.1.4 1.2.1 0 .2 0 .2-.1.1 0 .1-.1.1-.2.1-.3.3-.5.4-.8.2-.6.5-1.2.8-1.8 0-.1.1-.3.2-.4.1-.3.2-.5.3-.8.1-.2.1-.4.3-.5.2-.2 1.7 0 2.1 0 .2 0 .4 0 .6.1.8 0 1.5.1 2.3.1.1 0 .2 0 .2-.2s-.3-.4-.5-.5c-.2-.3-.5-.5-.8-.7-.2-.3-.5-.5-.8-.7-.4-.3-.6-.5-.9-.8-.3-.2-.8-.5-.8-.8 0-.3.2-.5.3-.8.2-.4.3-.8.5-1.2.1-.2.2-.4.3-.5.1-.4.2-.7.4-1.1.1-.2.2-.4.2-.6.1 0 .1-.1 0-.2-.1-.3-.9.3-1 .4-.5.3-1.1.5-1.5.9-.4.2-.8.5-1.2.7-.2.1-.4.2-.6.2-.3 0-.6-.3-.8-.5-.6-.5-1.2-.9-1.7-1.4-.3-.2-.5-.5-.8-.7-.2-.1-.3-.3-.6-.4zM36 56.9v.1c-.1 0-.1.1-.1.3 0 .2 0 .3.1.5 0 .2.1.4.2.6.1.7.3 1.3.5 2 .1.2.3.9.2 1.2-.1.3-.6.6-.9.8l-.6.3c-.4.3-.9.5-1.4.8-.1.1-.9.6-.9.7 0 .3.8.3 1 .3.7.1 1.4.2 2.1.2.4.1 1.2.1 1.5.3.3.2.3.9.4 1.2.1.5.2.9.3 1.3.1.3.2.6.3 1 0 .2.1.7.3.8.3.1.5-.7.6-.9.2-.6.5-1.1.7-1.7.1-.4.5-1.4.8-1.6.2-.1.5 0 .7 0 .4 0 .8.1 1.2.1.3 0 .6.1 1 .1.3.1.6 0 .9.1.2 0 .8.1.9-.1.1 0 .1-.1 0-.2l-.3-.3c-.1-.1-.3-.2-.4-.4-.3-.3-.6-.5-1-.7-.3-.3-.6-.7-1-1-.2-.2-.6-.4-.7-.8-.1-.2.1-.4.2-.6.1-.3.2-.5.3-.7.2-.5.4-.9.6-1.4.1-.2.7-1.4.6-1.6-.1-.4-.9.2-1.1.3-.5.3-.9.7-1.4 1-.3.1-.6.3-.8.4-.3.2-.7.5-1.1.5-.3 0-.6-.4-.8-.6-.6-.5-1.3-1.1-2-1.6-.2-.2-.5-.6-.9-.7zm-14.7-1.5c-.3.2 0 .9.1 1.2.2.6.3 1.3.5 1.9l.3.9c0 .2.1.4.1.6-.1.2-.3.3-.5.5-.4.3-.9.5-1.3.8-.3.2-.6.3-.9.5-.2.2-.5.3-.8.5-.1.1-.3.2-.4.3v.1c-.1.2.8.2 1 .3.6 0 1.2.1 1.8.2h1.3c.1.1.4.1.5.2.3.2.3.7.4 1.1 0 .2.1.4.1.6.1.3.2.7.2 1 .1.2.2.4.2.5.1.3.1.7.3.9 0 .1.1.2.2.2.2.1.5-.8.6-1 .2-.6.4-1.1.6-1.7.2-.4.3-1.1.7-1.4.1-.1.2-.1.4-.1.3 0 .7 0 1.1.1.5.1 1 0 1.6.1.5 0 1.1.1 1.6.1.1 0 .2-.1.2-.2-.1-.3-.5-.6-.8-.8-.6-.5-1.2-1-1.9-1.6-.2-.2-.7-.5-.8-.8-.1-.1-.1-.2 0-.3.1-.4.3-.9.5-1.3.3-.7.7-1.4 1-2.1.1-.2.3-.6.2-.8-.1-.4-.9.3-1.1.4-.2.2-.5.3-.7.4-.4.2-.7.5-1.1.7-.3.2-.6.5-1 .7-.1 0-.3.1-.4.1-.4 0-.8-.4-1.1-.7-.4-.3-.8-.7-1.2-1-.2-.2-.5-.4-.7-.5-.3-.3-.5-.6-.8-.6zM6 53.4c0 .1-.1.1-.1.2 0 .2.1.8.2 1 0 .3.1.5.1.8.1.2.1.3.1.5.1.1.1.2.1.3.1.1.1.2.1.3 0 .3.1.6.1.8.1.3.2.7.1.9-.1.2-.7.6-.9.7-.8.4-1.5.9-2.3 1.4-.2.1-1 .5-1 .7 0 .2.8.3 1 .3.4.1.8.1 1.2.1.2 0 .5.1.7.1.4 0 .8 0 1.2.1.3 0 .6 0 .8.2.2.2.3.7.4 1 0 .5.2.9.3 1.4 0 .2 0 .4.1.6 0 .2.1.3.1.5.1.4.1.8.3 1.1 0 .1 0 .1.1.2.2.1.4-.5.5-.6 0-.1.1-.3.2-.4.2-.4.3-.9.5-1.3.1-.2.2-.4.3-.5 0-.2.1-.3.2-.5 0-.1.1-.2.2-.4s.2-.7.5-.9c.3-.1 1 0 1.3.1.6 0 1.2 0 1.8.1.3 0 1.9.3 2 .1.3-.2-.5-.8-.7-1-.7-.5-1.3-1.1-2-1.6l-.4-.4c-.2-.1-.5-.3-.6-.6-.1-.3.2-.9.3-1.1l.3-.6c.1-.2.2-.3.3-.5 0-.1 0-.3.1-.4.1-.1.2-.3.2-.5.1-.1.2-.3.2-.4.1-.2.2-.5.4-.7v-.3c-.1-.3-.9.3-1.1.4-.4.2-.7.4-1.1.6-.1.1-.3.2-.5.3-.4.3-.8.5-1.2.7-.2.1-.3.3-.6.2-.3 0-.7-.5-1-.7-.2-.2-.5-.4-.7-.6-.3-.2-.5-.5-.8-.7-.2-.1-.4-.3-.6-.5-.2-.2-.4-.4-.7-.5zm42.3-10.3c-.1.1-.1.2-.2.3 0 .3.2.7.2 1.1.1.2.1.4.2.7 0 .2.1.4.1.6.1.4.2.7.3 1.1.1.3.2.8.1 1.1-.1.3-.8.6-1.1.8-.7.4-1.5.9-2.2 1.3-.2.1-1 .5-.9.7.1.2.6.2.8.2.2 0 .4.1.5.1h.6c.2 0 .3.1.4.1h1.3c.2.1.5.1.7.1.2.1.5.1.6.2.2.2.2.5.3.8.2.7.3 1.5.5 2.3 0 .2.1.4.1.7.1.2.1 1.2.4 1.2.2-.1.6-.9.6-1.1l.3-.6c.1-.3.2-.6.4-.9.1-.3.3-.7.4-1.1.2-.2.3-.9.6-1 .2-.1.5 0 .7 0 .6 0 1.1.1 1.7.1.5.1 1 .1 1.5.1.2.1 1.2.2 1.3 0v-.2c-.1-.1-.2-.2-.3-.2l-.5-.5-2.1-1.8c-.2-.1-.8-.6-.8-.8-.1-.2.1-.7.2-.9.3-.6.6-1.3.8-1.9.1-.1.2-.3.2-.4.1-.2.1-.3.2-.5 0-.1.1-.3.2-.4 0-.1 0-.2-.1-.2-.1-.3-.8.2-1 .3-.3.2-.6.3-.9.5-.2.1-.4.3-.7.4-.2.1-.4.3-.7.4-.3.2-.5.5-.9.4-.4 0-.9-.6-1.2-.9-.3-.2-.6-.5-1-.8-.3-.2-.6-.5-.9-.8-.2-.2-.5-.4-.7-.6zm-15.9-.9c-.3.1.1.9.2 1.2 0 .2 0 .4.1.6.1.5.3 1 .4 1.6.1.3.4.9.3 1.2-.1.4-1.5 1.1-1.9 1.3-.4.3-.9.6-1.3.8-.2.1-.6.4-.7.5-.1.3.9.3 1.1.3.5 0 .9.1 1.4.2h.4c.3 0 .6 0 .8.1.4 0 .7 0 .9.1.3.2.2.6.3.8.1.2.1.3.1.4.2.6.2 1.1.4 1.7 0 .1.1.2.1.4.1.3.1.6.3.9 0 .1.1.2.2.2.2.1.5-.8.5-1 .2-.5.5-1.1.7-1.6.1-.4.2-.7.4-1 0-.2.1-.4.3-.6.2-.2.8 0 1.1 0 .1 0 .3 0 .5.1h1.2c.7.1 1.3.2 2 .2.1 0 .2-.1.2-.2-.1-.2-1.7-1.5-2-1.7-.3-.3-.6-.5-.9-.8-.2-.2-.7-.5-.7-.7-.1-.4.2-.8.3-1.1.1-.1.2-.3.2-.4l.3-.6c.1-.2.2-.5.3-.8.1-.2.2-.3.2-.4.2-.3.3-.5.4-.7 0-.1.1-.2 0-.4-.1-.3-.9.3-1 .4-.4.2-.7.4-1.1.6-.4.3-.8.5-1.2.8-.3.1-.7.5-1 .4-.3 0-.5-.2-.7-.4-.2-.1-.3-.3-.5-.5l-1.2-.9c-.2-.1-.4-.3-.6-.5-.2-.2-.5-.5-.8-.5zm-15.7-1.5c-.1.1-.1.2-.1.3 0 .2.1.3.1.5.1.2.1.4.2.7.1.4.2.9.4 1.4 0 .2.1.4.1.6.1.2.4 1 .3 1.3-.1.3-.6.4-.8.6-.7.5-1.5.9-2.3 1.4-.1.1-.3.2-.4.3-.2 0-.3.1-.4.2v.2c.1.2.4.1.6.1.1 0 .2.1.4.1s.5 0 .8.1h.5c.6 0 1.2.1 1.7.2.3 0 .6-.1.7.1.3.2.3.7.4 1 .2 1 .4 2 .7 2.9.1.1.2.4.3.4.1 0 .2-.1.2-.2.2-.2.2-.5.3-.7.2-.6.5-1.1.7-1.7.1-.4.3-1.4.8-1.6.1-.1.4-.1.6 0h.9c.4.1.8 0 1.2.1.3 0 1.9.2 2.1 0v-.2l-.3-.3c-.2-.1-.3-.2-.5-.3L24.4 47c-.2-.2-.4-.4-.5-.6-.3-.2-.7-.4-.8-.7 0-.3.3-.9.4-1.1.1-.2.2-.5.3-.7.2-.4.3-.8.5-1.2.2-.4.4-.8.5-1.2 0-.1.1-.2 0-.2-.1-.3-.9.3-1.1.4-.6.4-1.2.8-1.8 1.1-.4.3-1.1.8-1.5.8-.2 0-.7-.5-.9-.7l-1.8-1.5c-.3-.2-.6-.6-1-.7zm35.5-10c.7 0 1.4 0 2.1.1h.7c.4.1.8.1 1.2.1.5.1 1.1.1 1.7.2h.5c.3.1 1.2.1 1.5.2 0 .1.1.2.1.3.2.5.3 1.1.4 1.6.1.3.2.6.2.9 0 .2-.1.3-.2.4-.3.3-.6.4-.9.6-.6.4-1.2.8-1.9 1.2-.1.1-1 .5-.9.7 0 .1.1.1.1.1.3.1.7.1 1.1.2.6 0 1.3.1 2 .1.4.1 1.3 0 1.6.3.1.1.2.3.2.5.2.4.2.7.3 1.1.1.4.2.8.4 1.2 0 .2.1.5.2.7 0 .2 0 .3.1.4 0 .3 0 .7.3.7.1 0 .2-.1.2-.2.2-.4.3-.7.5-1.1.3-.7.6-1.4.8-2 .1-.3.3-.9.6-1.1h.5c.5 0 1 0 1.5.1h.4c.4.1.9.1 1.4.1.2.1 1.1.2 1.2 0 .1-.1 0-.1 0-.2l-.3-.3c-.2-.1-.3-.3-.5-.4-.2-.2-.4-.3-.6-.5-.1 0-.1-.1-.2-.2-.4-.3-.7-.6-1-.8-.3-.3-.6-.5-.8-.8-.1-.1-.2-.2-.2-.4 0-.3.2-.6.4-.9 0-.2.1-.4.2-.7.1 0 .1-.1.2-.1.2-.1.4 0 .6 0 .4.1.9.2 1.3.3.9.3 1.9.5 2.8.8.4.1.9.3 1.4.4.4.2.9.3 1.3.4.1.1.3.2.3.2-.1.2-.3.4-.5.6-.3.4-.7.7-1 1.1-.5.7-1 1.3-1.5 1.9-.6.6-1.1 1.2-1.6 1.8-.1.2-.3.3-.4.5-.2.3-.5.5-.7.8l-.7.7c-.3.4-.5.7-.8 1.1-.1.1-.2.1-.2.2l-.4.4c-.4.5-.8.9-1.1 1.3-.2.2-.4.4-.5.6-.2.2-.4.5-.6.7-.2.2-.4.4-.5.6-.1.1-.2.3-.3.4-.8.9-1.6 1.8-2.3 2.7-1.6 1.7-3.1 3.5-4.6 5.3-.5.6-1.1 1.3-1.7 2l-.4.4c-.2.2-.4.4-.6.7-.2.2-.4.5-.6.7-.2.2-.4.4-.5.6l-.5.5c-.1.2-.3.4-.4.6l-.3.3c-1.6 1.8-3.1 3.7-4.8 5.5-.2.3-.5.7-.8 1-.1.2-.3.3-.5.5-.5.7-1.1 1.4-1.7 2.1l-.4.4c-.1.1-.2.1-.3.2-.1.2-.2.3-.3.5-.2.2-.4.5-.6.7-.1.1-.2.2-.3.4-.4.5-.9 1-1.3 1.5-.5.5-.9 1-1.3 1.5-.3.4-.7.7-1 1.1-.1.2-.3.4-.5.6-.2.3-.4.5-.7.8-.3.4-.7.9-1.1 1.3-.2.2-.3.5-.5.7l-.3.3c-.2.2-.3.3-.4.5l-.3.3c-.1.2-.2.3-.3.4l-.8.8c-.1.1-.2.3-.3.4-.7.8-1.3 1.6-2 2.4-.2.2-.5.4-.7.7-.2.2-.4.5-.6.8-.2.2-.4.3-.5.5-.1.1-.2.2-.2.3l-.6.6c-.1.1-.2.3-.3.4l-.3.3c-.2.1-.3.3-.4.5-.1.1-.2.3-.4.5l-.4.4c-.3.3-.5.7-.8 1-.4.4-.7.8-1 1.1-.3.4-.6.7-.9 1.1-.9 1-1.7 2-2.6 3.1-1.3 1.4-2.5 2.9-3.8 4.3-.1.2-.3.4-.5.6-.4.4-.7.8-1 1.2-.9 1-1.7 1.9-2.5 2.9l-.3.3c-.1.2-.3.3-.4.5-.2.2-.4.4-.6.7l-.4.4c-.1.1-.2.3-.4.5-.9 1.1-1.8 2.2-2.8 3.3-.5.5-.9 1.1-1.4 1.6-.4.4-.7.8-1.1 1.3-.5.6-1.1 1.2-1.7 1.9L4 117.6l-.5.5c-.2.3-.4.5-.6.7l-.3.3c-.1.2-.2.3-.3.4l-1.5 1.8c-.5.5-.9 1-1.4 1.5-.2.3-.4.6-.7.8-.2.4-.5.7-.8 1-.2.2-.3.4-.5.6-.2.2-.4.4-.5.6-1.4 1.5-2.6 3.1-4 4.6-1.3 1.5-2.6 3-3.8 4.5-.2.2-1.2 1.5-1.4 1.5-.3 0-.6-.9-.7-1l-.3-.6-.3-.6c-.3-.5-.5-1-.7-1.5-.2-.4-.5-.7-.6-1.2 0-.1 0-.2.1-.3.1-.2.2-.3.4-.4.1 0 .3.1.4.1h.9c.9.1 1.7.2 2.6.3.2 0 .7.1.8 0 .3-.3-.5-.8-.6-1-.3-.2-.6-.5-.9-.7l-.5-.5c-.3-.2-.6-.5-.9-.8-.1-.1-.4-.3-.4-.5-.1-.4.3-.9.4-1.2 0-.1.1-.3.1-.4.1-.1.2-.2.2-.4.1-.1.1-.3.2-.4l.3-.6c.1-.3.2-.5.3-.8.1-.2.3-.5.2-.8l-.1-.1c-.2.1-.5.2-.6.3-.1 0-.3.1-.4.2-.5.2-.9.5-1.4.8-.3.2-.6.3-.9.5-.2.2-.7.5-1 .6-.4 0-1-.7-1.2-.9-.3-.3-.6-.5-.8-.7-.3-.3-.3-.8-.4-1.2-.1-.2-.2-.3-.2-.5-.1-.2-.1-.5-.2-.7-.2-.7-.4-1.4-.5-2-.1-.3-.1-.5-.2-.7 0-.2-.1-.3-.1-.4 0-.4.2-.7.3-.9.1-.2.2-.4.2-.6.1-.2.2-.5.3-.7.1-.1.2-.3.3-.4.3-.1 1.1 0 1.5.1.5 0 1.1 0 1.7.1.4 0 .8.1 1.2.1h.4l.1-.1c-.1-.2-.2-.4-.4-.5-.3-.3-.7-.6-1-.9-.5-.4-1-.8-1.5-1.3-.2-.1-.6-.4-.6-.7-.1-.2.1-.5.2-.7.1-.4.3-.7.4-1.1.1-.1.2-.3.3-.5.1-.2.2-.4.3-.7 0-.1.1-.2.2-.3.1-.2.3-.8.3-1 0-.1 0-.2-.1-.2-.2-.1-1.1.6-1.4.7-.5.3-1 .7-1.5 1-.3.1-1.1.7-1.4.7-.3 0-.6-.4-.8-.6-.2-.1-.4-.3-.4-.5-.1-.2-.1-.3-.1-.5 0-.4-.1-.8-.1-1.2-.1-1.3-.2-2.6-.2-4v-1.3-.6s0-.1.1-.2c.2-.1 1.1.1 1.4.1.4 0 .9 0 1.3.1.5 0 1 .1 1.5.1.1-.1.2-.1.2-.3 0-.2-.4-.5-.6-.6-.2-.2-.5-.4-.7-.6-.5-.4-.9-.8-1.4-1.2-.3-.2-.6-.5-.8-.7-.1-.1-.2-.2-.2-.3 0-.3.2-.5.3-.8 0-.1 0-.2.1-.3 0-.1.1-.3.1-.4.2-.3.3-.6.4-.9l.6-1.2c.1-.2.3-.5.3-.8 0-.1-.2-.1-.3-.1-.2.1-.3.2-.5.3-.1.1-.3.1-.5.2s-.4.3-.6.4h-.2c-.2-.2.1-1.4.1-1.7.1-.5.2-1 .2-1.5.2-.9.3-1.7.5-2.6 0-.2.1-.4.1-.6 0-.2.1-.5.2-.6 0-.1.1-.1.1-.1.3-.1.6 0 .9.1h1c.7.1 1.4.1 2.1.2.3 0 .7 0 1 .2.1 0 .1.1.2.2.2.3.2.8.3 1.2.2.7.2 1.5.5 2.2 0 .1.1.3.2.4.1.2.1.5.3.5.2 0 .3-.1.3-.2.1-.1.2-.2.2-.4.1-.1.2-.3.2-.5.1-.1.1-.2.2-.4.2-.4.4-.8.5-1.3.2-.2.3-.5.4-.8.1-.2.2-.5.4-.6.2-.2.6-.1.8-.1.6 0 1.1.1 1.6.1.3.1.5.1.7.1.6 0 1.2.1 1.8.1.1 0 .3 0 .3-.2 0-.1-.2-.3-.2-.4-.3-.2-.6-.4-.8-.6-.7-.6-1.4-1.1-2.1-1.7-.2-.2-.7-.5-.7-.8 0-.1 0-.2.1-.3.1-.5.3-.9.5-1.3.1-.2.1-.3.2-.5s.3-.5.4-.8c0-.1.1-.3.1-.4.1-.2.3-.5.2-.7-.1-.1-.2-.3-.4-.3s-.4.2-.6.3l-1.5.9-.3.3c-.2.1-.5.2-.7.3-.2.2-.4.3-.7.3-.3 0-.5-.3-.7-.5-.9-.8-1.8-1.5-2.8-2.3 0-.1-.1-.1-.2-.1-.4 0-.1.9 0 1.1 0 .3.1.6.2.9.1.6.2 1.1.3 1.6.1.3.2.8.2 1.1-.1.3-1.2.9-1.5 1-.6.4-1.2.8-1.8 1.1-.2.1-.4.2-.5.3-.2.1-.3.2-.4.3-.1 0-.1 0-.2-.1s.7-2.9.8-3.3c0-.4.2-.7.3-1.1.1-.5.2-.9.4-1.4.6-1.9 1.2-3.7 1.9-5.5.3-.6.6-1.3.9-1.9.1-.2.1-.6.4-.8.1-.1.3 0 .5 0 .5 0 1 0 1.5.1h.5c.5 0 1.1.1 1.7.1.1-.2.1-.3-.1-.4-.3-.3-.6-.6-.9-.8-.3-.3-.7-.6-1-.9-.2-.2-.8-.7-.9-.9 0-.2.2-.4.2-.6.3-.5.5-1 .8-1.5l.9-1.5c.1-.2.2-.4.4-.6.2-.4.3-.7.5-1 .5-.7.9-1.5 1.4-2.2.3-.5.6-.9.9-1.4.2-.2.3-.4.4-.5.1-.1.1-.1.2-.1s.2.2.2.3c.1.3.2.7.2 1 .1.4.2.8.3 1.1.1.4.1.8.2 1.1.1.1.2.2.3.2 0-.1.1-.1.1-.2.2-.3.3-.7.5-1 .2-.6.5-1.2.7-1.7.1-.3.2-.5.3-.7.1-.3.2-.7.5-.8.3-.2.7-.1 1 0 .8 0 1.6.1 2.4.1.4 0 .8.1 1.3.1 0 0 .1-.1.1-.2-.1-.2-.5-.5-.6-.6l-.3-.3c-.2-.1-.3-.3-.5-.4-.4-.4-.9-.8-1.3-1.2-.2-.2-.6-.4-.7-.7-.1-.2 0-.4 0-.5.1-.3.2-.6.4-.9.1-.2.1-.3.2-.5 0-.1.1-.3.2-.5s.2-.5.3-.8c.1-.1.2-.3.3-.5.2-.3.5-.6.8-.9l.9-.9c.8-.7 1.5-1.4 2.3-2.2.2-.1 1.2-1.1 1.4-1 .1 0 .1.1.1.1.1.2.1.5.2.7 0 .2.1.5.1.7.1.1.1.3.2.5 0 .3.1.6.2.9 0 .1.1.2.2.2.2-.1.3-.5.4-.7.3-.8.7-1.7 1.1-2.5.1-.3.2-.5.3-.8 0-.1.1-.2.2-.3 0-.1.1-.1.2-.2h.5c.3.1.5.1.8.1.7.1 1.6.1 2.3.2.2 0 1 .1 1.1 0 .2-.1.1-.2 0-.3-.2-.3-.6-.5-.9-.8l-.6-.6c-.4-.4-.8-.7-1.2-1-.1-.2-.1-.3 0-.4.1-.2.3-.3.5-.4.2-.1.4-.2.6-.4 1.1-.7 2.1-1.3 3.2-2 1.5-1 3.1-1.9 4.8-2.7.7-.3 1.4-.7 2.2-1 .3-.2.7-.4 1.1-.5.3-.2.6-.3 1-.5.3-.1.6-.2.9-.4.6-.2 1.1-.4 1.7-.6.3-.1.6-.3.9-.3.3-.1.6 0 .9 0 .4 0 .7 0 1.1.1.3 0 .7 0 1.1.1.3 0 .7 0 1 .1l.3.3c.1.4.2.8.3 1.3l.3 1.5c0 .3.1.5.1.8.1.2.2 1.1.5 1.1 0 .1.1 0 .1 0 .1-.1.1-.3.2-.4.1-.2.2-.4.3-.7.1-.2.1-.3.2-.5.1-.1.1-.2.1-.3.2-.4.4-.7.5-1.1.1-.3.3-.6.4-.9.1-.2.2-.6.4-.7.2-.2.5-.1.8-.1.5 0 .9.1 1.4.1.5 0 .9.1 1.4.1.5.1 1 .1 1.5.1.1 0 .2 0 .2-.1.1-.2-.6-.8-.8-.9-.2-.1-.4-.3-.6-.4-.4-.4-.8-.8-1.3-1.1l-.6-.6-.3-.3c-.1 0-.1-.1-.1-.1 0-.1 0-.2.1-.2.1-.1.4-.1.5-.1.2-.1.4-.1.6-.1.1-.1.1-.1.2-.1.2 0 .4-.1.6-.1.1 0 .2-.1.3-.1h.5c.1-.1.2-.1.4-.1h.2c.1-.1.3-.1.5-.1h.1c.1 0 .1-.1.2-.1h.4c.1 0 .2-.1.2-.1H40.7l.1-.1h.5c.1 0 .1 0 .2-.1h.7s.1 0 .1-.1h.7s.1 0 .1-.1H44c0-.1.2 0 .2 0 .2-.1.3 0 .4.1.1.2.2.5.2.8.1.2.1.4.2.7 0 .1.1.2.1.3 0 .1-.1.2-.1.2-.2.3-.8.6-1.1.8-.5.3-.9.5-1.4.8-.1.1-.3.2-.5.3-.2.1-1 .5-1 .8 0 .2 1 .2 1.2.2.5 0 1 .1 1.4.2.4 0 .8 0 1.1.1.4 0 .9-.1 1.2.1.2.3.3 1 .4 1.4.2.7.4 1.4.5 2.1.1.2.2 1.1.5 1.1.1 0 .2-.1.3-.2 0-.2.1-.3.2-.5 0-.1.1-.3.2-.4 0-.2.1-.3.1-.5.1-.1.2-.2.2-.3.1-.2.1-.3.2-.5l.3-.6c.1-.3.4-1.1.7-1.2.2-.1.6-.1.9 0 .5 0 .9 0 1.4.1h.4c.4 0 .7.1 1.1.1.2 0 1.2.2 1.3-.1 0-.2-1.2-1.1-1.5-1.3-.2-.2-.4-.4-.7-.6-.1-.2-.3-.3-.4-.4-.2-.1-.4-.3-.6-.5-.2-.2-.5-.4-.5-.7 0-.3.3-.7.4-.9.1-.3.2-.5.3-.7 0-.1.1-.2.1-.3.1-.3.2-.6.5-.8z" class="a"/><path d="M76.5 35.6c.1.1.3.1.3.3-.1.1-.2.3-.3.4-.2.3-.4.5-.5.8-.4.5-.7 1-1 1.5-.4.6-.7 1.2-1 1.8-.2.3-.4.5-.5.8-.1.2-.2.4-.2.6-.1.2-.2.4-.4.6-.1.3-.1.6-.2.9l-.3.6c0 .2-.1.4-.1.5-1 3.2-1.6 6.7-1.6 10.4 0 1.5.1 2.9.3 4.2.1.8.2 1.6.4 2.3.1.6.2 1.1.3 1.6.2.7.3 1.5.5 2.2.1.3.2.7.3 1.1l.9 3c.4 1.1.7 2.2 1 3.3.2.6.4 1.2.6 1.9.5 1.4.9 2.8 1.4 4.2.3 1 .5 2.1.8 3.1.4 1.7.8 3.5 1.1 5.2.2 1.3.5 2.6.6 4 .2 1.6.3 3.2.2 4.8 0 2.2-.3 4.3-.8 6.2-.2.6-.3 1.2-.5 1.8-.4 1.1-.9 2.2-1.4 3.2-.2.2-.3.5-.4.7-.1.1-.2.2-.3.4-.2.3-.4.7-.6 1.1-.3.5-.6 1.1-1 1.6l-.3.3c-.2.3-.4.5-.6.7-.9 1-1.8 2.1-2.7 3.1-1.1 1.2-2.1 2.5-3.1 3.7-.3.4-.6.7-.9 1-.4.4-.8.8-1.1 1.3-.4.5-.9 1-1.3 1.5-.2.3-2 2.4-2.2 2.4 0-.3.3-.6.4-.9.2-.3.3-.5.5-.8.1-.2.2-.5.3-.7l.3-.9c.1-.2.2-.4.3-.7.1-.2.2-.5.3-.8.1-.2.2-.3.3-.5.2-.5.3-1 .4-1.5.1-.3.2-.7.3-1.1.1-.6.2-1.2.3-1.7.1-.8.2-1.6.3-2.3.1-.5.1-1 .1-1.4v-.7-.7c0-.6 0-1.3-.1-1.9v-.9c-.1-.2-.1-.4-.1-.7 0-.3-.1-.6-.1-.9-.2-2-.7-4-1.2-5.9-.2-.9-.4-1.7-.6-2.6-.2-.8-.4-1.5-.6-2.3-.1-.5-.3-.9-.4-1.4-.4-1.1-.7-2.3-1.1-3.4-.1-.5-.3-.9-.4-1.4-.3-.8-.6-1.7-.8-2.6-.2-.5-.4-.9-.5-1.4-.1-.4-.2-.8-.4-1.2l-.3-1.2c-.1-.1-.1-.2-.2-.4 0-.1-.1-.2-.1-.3-.1-.2-.1-.4-.2-.6-.2-.7-.3-1.3-.5-2-.3-1.3-.6-2.6-.8-3.9-.3-2-.4-4.1-.3-6.2.1-.3 0-.7.1-1 0-.6.1-1.2.2-1.7 0-.5 0-.9.1-1.3.1-.6.2-1.1.3-1.6v-.3-.2c.1-.1.1-.2.2-.3 0-.1.1-.2.1-.3l.6-2.1c.3-1 .7-2 1.2-3 .4-.8.8-1.7 1.2-2.5.8-1.2 1.7-2.5 2.6-3.7.3-.4.7-.9 1-1.4.6-.6 1.2-1.3 1.8-1.9.3-.4.6-.8 1-1.2.4-.5.8-1 1.3-1.5.9-1.1 1.8-2.2 2.8-3.3 0-.1.1-.2.2-.2.1-.1.1-.2.2-.2.2-.2.2-.4.4-.5.6-.8 1.3-1.5 1.9-2.3.5-.6.9-1.1 1.4-1.6.3-.4.6-.8.9-1.1M84.3 39.2c.3.1.5.2.7.4.6.3 1.3.7 1.9 1.1 2.2 1.2 4.4 2.7 6.4 4.2.9.6 1.7 1.3 2.5 1.9.8.7 1.7 1.4 2.5 2.2 1.1.9 2.1 1.9 3.1 2.9.8.8 1.5 1.6 2.3 2.4.2.2.4.5.6.7l.3.3c.1.3.2.9.3 1.2.1 1 .3 2 .4 2.9.1.4.1.9.1 1.3.5 4.6 0 9.3-1.5 13.2-.3.8-.7 1.5-1.1 2.2-.2.5-.4 1-.7 1.4-.4.6-.7 1.1-1.1 1.7-.1.2-.3.4-.4.6-.4.4-.8.9-1.1 1.3-.9 1-1.7 1.9-2.5 2.9-.4.4-.7.8-1.1 1.3-.3.4-.7.8-1.1 1.2-.2.3-.4.6-.6.8-.7.8-1.3 1.6-2 2.3-.3.4-.6.7-.9 1.1-.6.7-1.2 1.4-1.8 2-.1.2-.3.4-.4.6l-.4.4h-.1c0-.2.2-.4.3-.6l.3-.6c.1-.2.2-.4.4-.6.1-.2.1-.4.2-.6.1-.2.2-.3.3-.5.3-.4.4-.8.6-1.2.4-1.2.8-2.5 1-3.8.2-.8.4-1.6.5-2.4.1-.8.1-1.5.2-2.3V80v-1.5c0-2.9-.5-5.7-1.1-8.3-.5-2.5-1.1-5.1-1.8-7.5-.8-2.5-1.6-5.1-2.3-7.6-.3-.9-.6-1.7-.8-2.6-.3-1-.6-2-.8-3-.3-1.2-.6-2.4-.8-3.7-.1-.6-.2-1.1-.3-1.7-.1-.4-.1-.7-.2-1.1v-.3c0-.5-.1-1-.1-1.5v-.4c0-.4-.1-.9 0-1.4 0 0 .1-.1.1-.2M113.2 67.8c.1 0 .2 0 .2.1.1.1.2.3.3.5.1.2.3.5.4.8.3.5.6 1 .8 1.5.2.3.3.5.5.8.1.2.2.4.2.6.1.2 0 .5 0 .7 0 .2 0 .5-.1.7v.9c0 .6-.1 1.3-.1 2 .1 2.6.3 5.1.8 7.4.6 2.6 1.4 5.1 2.1 7.6.6 1.6 1.1 3.2 1.6 4.8.7 2.1 1.5 4.2 2 6.4 0 .1 0 .2.1.3 0 .2.1.4.2.6 0 .3.1.6.2.8v1c-.1.3-.1.7-.1 1 0 .8-.1 1.7-.1 2.5-.1.4-.1.8-.2 1.2 0 .3 0 .7-.1 1-.1.9-.2 1.7-.3 2.6-.1.5-.2 1-.2 1.5-.1.4-.2.9-.3 1.4-.1.6-.3 1.2-.4 1.8-.1.4-.2.8-.3 1.1l-.6 2.4c-.1.4-.2.7-.3 1.1-.3.9-.6 1.9-.9 2.8-.2.7-.5 1.5-.8 2.2-.9 2.5-2 5-3.2 7.3-.4.8-.8 1.5-1.1 2.2l-.9 1.5c-.9 1.6-1.9 3.1-3 4.7-.3.5-.7 1.1-1.1 1.6 0 0-.2.1-.2 0-.1-.1.3-.9.4-1 .5-1.2.8-2.3 1.1-3.6.2-.9.3-1.8.5-2.8 0-.5.1-1.1.1-1.6V135c0-.1.1-.3.1-.4 0-.5 0-1.1-.1-1.6v-1.6c-.1-1.7-.4-3.3-.6-4.9-.1-.6-.3-1.1-.4-1.7-.2-.8-.4-1.7-.6-2.5l-.3-1.2c-.2-1-.5-2-.8-3.1-.8-2.7-1.8-5.4-2.6-8.2-.1-.1-.1-.4-.2-.6 0-.1-.1-.2-.1-.3 0-.1-.1-.2-.1-.3-.1-.2-.2-.4-.2-.6-.2-.3-.2-.7-.3-1.1-.1-.2-.1-.3-.2-.5s-.2-.4-.3-.7c-.1-.5-.3-1-.4-1.6l-.6-2.1c-.1-.7-.3-1.4-.5-2.1 0-.4-.1-.8-.2-1.2-.1-1.1-.3-2.1-.3-3.2-.2-1.8-.2-3.7 0-5.5.1-.2.1-.4.1-.6 0-.5.1-1 .1-1.5.1-.8.3-1.6.5-2.4.1-.5.3-1 .4-1.5.2-.6.4-1.3.6-1.9.2-.5.4-1 .6-1.6.2-.3.4-.6.5-.9.2-.5.4-.9.6-1.3.3-.4.5-.9.8-1.3.4-.7.9-1.3 1.3-2l.6-.9c.4-.6.9-1.1 1.4-1.7.7-.8 1.4-1.7 2.2-2.5.4-.5.8-1 1.3-1.6.1-.1.3-.4.5-.5M48.4 68.3c.2.2-.4.9-.5 1-.6 1.1-1.2 2.3-1.8 3.4-.5 1.1-.9 2.2-1.2 3.3-.3 1-.6 2-.8 3.1-.2.8-.3 1.7-.4 2.5 0 .5-.1 1-.1 1.5-.1.7-.1 1.4-.1 2-.1.7 0 1.3 0 2 0 1 .1 2.1.3 3.1.2 2 .7 4 1.2 5.9.1.5.3 1.1.4 1.7.1.2.2.4.2.6.1.4.3.8.4 1.2.3 1.1.6 2.1 1 3.1 0 .3.1.6.2 1 .4 1.1.8 2.4 1.2 3.5.1.5.3 1 .4 1.4.3.9.6 1.9.9 2.8.4 1.4.7 2.8 1 4.2.2 1 .5 2 .6 3 .1.6.3 1.3.4 2 0 .3.1.6.1.9.1.8.2 1.6.2 2.4.1 1.9.1 3.9-.1 5.8-.1.3-.1.6-.2.9 0 .6-.1 1.2-.3 1.8-.1.9-.4 1.8-.7 2.7-.6 1.8-1.5 3.5-2.5 5.1-.2.4-.4.8-.7 1.3-.2.3-.5.6-.7.8-.6.6-1.2 1.3-1.7 1.9-.3.5-.7.9-1.1 1.3-.7.9-1.4 1.8-2.2 2.6l-2.1 2.4c-.3.4-.6.8-.9 1.1-.3.3-.6.7-.9 1-.2.3-.5.6-.7.9-.4.4-.7.8-1.1 1.2-.1.2-.3.4-.4.6l-.5.5c-.1.1-.2.3-.3.4h-.2c.2-.6.6-1.1.8-1.6.4-.7.7-1.3 1.1-2.1.1-.2.2-.5.3-.8.6-1.5.9-3 1.2-4.6.2-1 .3-2.1.4-3.1v-.6-1.3c0-.7-.1-1.5-.1-2.2-.1-1.4-.2-2.8-.4-4.2-.2-.5-.3-1.1-.4-1.6-.1-.7-.2-1.3-.3-2l-.3-1.2c-.1-.3-.2-.7-.2-1.1-.2-.6-.3-1.1-.5-1.7-.1-.6-.3-1.2-.5-1.8-.2-1-.6-2-.9-3-.2-.5-.3-.9-.4-1.4l-.6-1.8c0-.1 0-.3-.1-.4-.3-.9-.5-1.7-.7-2.5-.3-.9-.6-1.9-.9-2.9l-.3-.9c-.4-1.5-.8-3-1.1-4.5-.3-1.4-.6-2.8-.7-4.2-.1-1-.1-1.9-.1-2.9 0-1.4 0-2.8.2-4 0-.5.1-.9.1-1.4.3-1.8.7-3.6 1.3-5.2.2-.7.5-1.3.7-1.9.2-.5.5-1 .7-1.6.2-.3.4-.7.6-1 .2-.4.5-.9.7-1.3.7-1.2 1.5-2.3 2.4-3.4.4-.6.9-1.1 1.4-1.7.6-.7 1.3-1.5 2-2.3.3-.4.6-.7.9-1.1.9-1.1 1.9-2.2 2.8-3.3.9-.9 1.7-1.9 2.5-2.9.5-.5.9-1 1.4-1.6.2-.2.4-.5.7-.8M95 89c.1.1-.5.9-.6 1.1-.8 1.1-1.3 2.3-2 3.4-.1.3-.2.6-.4.9-.3.7-.6 1.4-.9 2.2-.6 1.8-1 3.6-1.4 5.5-.1.5-.1 1.1-.2 1.7 0 .3 0 .7-.1 1-.1 1-.1 2-.1 3 0 1.7.2 3.4.4 5 .1.6.2 1.1.3 1.7.2.4.3.9.4 1.4 0 .2.1.4.1.7.7 2.7 1.6 5.4 2.4 8 .4 1.1.7 2.1 1 3.1.5 1.4 1 2.9 1.5 4.3.3 1.3.7 2.6 1 3.9.4 1.6.8 3.2 1.1 4.9.1.3.1.7.2 1.1.4 2.5.6 5.2.5 8 0 .8 0 1.6-.2 2.4v.6c-.3 1.2-.5 2.4-.8 3.6-.1.3-.2.7-.4 1-.1.2-.3.4-.5.5-.3.2-.5.4-.7.6l-.9.6c-.8.6-1.5 1.2-2.4 1.8-1 .7-1.9 1.4-2.9 2-1.2.7-2.3 1.5-3.5 2.1l-.6.3c-.1.1-.2.2-.4.2-.1 0-.1 0-.2-.1v-.5c0-.3 0-.7.1-1-.1-.3-.1-.5-.1-.8 0-.9-.1-1.7-.1-2.6-.1-.7-.2-1.3-.3-2-.2-.9-.3-1.8-.5-2.7-.2-.8-.4-1.6-.5-2.3-.2-.9-.5-1.7-.7-2.5 0-.3-.1-.5-.1-.7l-.6-2.1c-.6-1.7-1.1-3.3-1.6-5-.3-.7-.5-1.4-.8-2.2-.1-.3-.2-.7-.3-1.1-.4-1.1-.8-2.2-1.1-3.4-.1-.3-.2-.7-.3-1.1-.6-1.8-1.1-3.7-1.4-5.6-.2-.8-.3-1.7-.5-2.6-.1-.9-.1-1.9-.1-2.9 0-.3-.1-.6-.1-1v-1.2c.1-.1.1-.2.1-.3v-.8c.1-.4.1-.9.2-1.4 0-.6.1-1.2.2-1.8.1-1.1.4-2.1.7-3.2.2-.7.4-1.5.6-2.2.6-1.7 1.4-3.3 2.3-4.8.8-1.2 1.6-2.4 2.5-3.6.2-.2.3-.5.4-.7.4-.5.8-1 1.2-1.4.4-.5.8-.9 1.1-1.3.5-.6 1-1.1 1.5-1.7.8-1 1.7-2.1 2.6-3.1.6-.6 1-1.2 1.6-1.8.5-.7 1.1-1.3 1.6-2 .1-.1.2-.3.3-.4.6-.6 1.1-1.3 1.6-1.9.2-.1.3-.3.5-.5l.3-.3" class="b"/><path d="M42.6 13.6c.2 0 .3 0 .4.1.1.2 0 .5 0 .7.1.5.1 1 .1 1.4.1.4 0 .7.1 1 .1.8.2 1.5.2 2.3.1.8.3 1.7.4 2.5 0 .3 0 .5.1.8 0 .2.2.7 0 .9 0 .1-.1.1-.2.1-.3.1-.7.1-1 .1-.2 0-.4 0-.6.1h-.4c-.1 0-.2 0-.3-.1-.1-.2 0-.6 0-.9-.1-.5-.1-1-.1-1.4-.2-1.8-.4-3.5-.6-5.2 0-.5-.1-.9-.2-1.3 0-.2-.1-.6 0-.8.1-.2.6-.1.8-.1.1-.1.3 0 .4 0 .1-.1.2-.1.3-.1.2 0 .4-.1.6-.1M58.5 13.7c.2 0 .5.1.7.1.2 0 .5 0 .6.1.2.1.2.3.3.5.2.2.4.5.5.7.2.3.5.7.7 1 .6 1 1.2 1.9 1.9 2.9l.6.9c.1.1.4.8.6.8.1 0 .1 0 .2-.1.1-.2.1-.4.1-.7.1-.3.1-.6.2-1 .1-.9.2-1.8.3-2.8 0-.2 0-.4.1-.6v-.6c.1-.1.1-.1.1-.2.2-.1.6 0 .8.1h.4c.1 0 .2.1.2.2 0 .3-.1.5-.1.7-.1.4-.2.9-.3 1.3-.1.4-.1.8-.2 1.2-.2 1.1-.3 2.2-.5 3.4-.1.3-.1.7-.2 1.1 0 .4-.1.8-.1 1.2-.1.2-.1.4-.1.5 0 .1-.1.1-.1.2-.2 0-.4 0-.6-.1-.2 0-.5 0-.7-.1-.2-.1-.3-.4-.4-.6l-.3-.6c-.4-.5-.8-1.1-1.1-1.7-.4-.6-.8-1.1-1.2-1.7-.2-.4-.4-.7-.6-1-.2-.2-.9-1.4-1-1.4-.1-.1-.2 0-.2 0-.1.1-.1.3-.1.5-.1.4-.1.8-.2 1.3-.1.6-.2 1.1-.2 1.7 0 .3-.1.5-.1.7 0 .5-.1.9-.1 1.3 0 .2 0 .3-.1.5 0 0 0 .1-.1.1-.1.2-.6 0-.8 0h-.3l-.3-.3c0-.2.1-.4.2-.6.1-.4.2-.9.2-1.4.2-.6.3-1.3.4-1.9.1-1 .3-2 .4-2.9 0-.2 0-.3.1-.5 0-.4.1-.8.1-1.3.1-.2.1-.5.1-.7.1-.1.1-.2.2-.2M50.5 13.8H50c-.3.1-.6.2-.9.5-1 .9-1.3 2.3-1.2 3.8 0 1.7.5 3.6 2.3 4 .2.1.5.1.8.1.1 0 .1 0 .2-.1h.2c.1-.1.3-.1.5-.1.5-.3.9-.8 1.2-1.3.2-.4.3-.8.4-1.3.4-1.7.1-4-1.2-5.1-.5-.4-1.1-.5-1.8-.5zm0-1c1.6 0 3.1.3 4.2 1.3.9.9 1.4 2 1.5 3.3 0 .4 0 .9-.1 1.3-.3 2.4-1.9 4-4.2 4.4-2.4.4-4.9-.3-6-2.5-.2-.3-.3-.7-.4-1.1-.1-.4-.1-.8-.1-1.2-.1-.3-.1-.6-.1-.8.1-1.3.6-2.5 1.5-3.4.3-.3.7-.5 1-.7.4-.2.8-.3 1.1-.4.2-.1.4-.1.6-.1h.1c.1-.1.1-.1.2-.1h.7zM38.2 14c.1 0 .2 0 .3.1.1.2.1.6.1.8.1.1.1.1.1.3 0 0 0 .1-.1.1-.1.1-.4.1-.6.1-.3 0-.5.1-.7.1-.3 0-.8 0-1 .1-.1.1-.1.2-.1.3 0 .6.1 1.1.2 1.6.1.6.2 1.2.3 1.7.2 1 .4 1.9.5 2.8.1.5.2.9.4 1.4 0 .2.1.3.1.5 0 .1 0 .1-.1.2 0 .1-.1.1-.2.1-.3.1-.7.1-1.1.2-.3 0-.6.1-.9.1-.1 0-.2 0-.2-.1-.1-.1-.1-.3-.1-.4 0-.4-.1-.9-.2-1.3-.2-1.5-.4-3-.7-4.5-.1-.4-.2-.9-.2-1.3-.1-.2-.1-.4-.2-.6 0-.1-.1-.2-.2-.2h-.4c-.5.1-1 .3-1.5.4-.1 0-.3.2-.5.1 0 0-.1-.1-.1-.2-.1-.1 0-.2-.1-.3 0-.2-.1-.6-.1-.7.1-.2.2-.2.4-.2h.1c.1-.1.1-.1.2-.1h.5c0-.1 0-.1.1-.1h.5c.1 0 .2-.1.2-.1h.4c.1 0 .2-.1.2-.1h.5c.1 0 .2-.1.3-.1h.1c.1 0 .4-.1.5-.1h.4s.1 0 .1-.1H36c0-.1.1-.1.1-.1h.2c.1-.1.3-.1.4-.1h.2c.1-.1.2-.1.3-.1.2-.1.4-.1.6-.1.1-.1.3-.1.4-.1M28.2 15.7h.7c.2 0 .4 0 .6.1 0 0 .1.1.1.2.1.1.1.3.1.4 0 .2 0 .4.1.7v.3c0 .1-.1.1-.1.2h-.2c-.2-.1-.3-.2-.5-.3-.2-.2-.5-.3-.8-.3-1.1-.3-2.3.3-2.9 1.1-1 1.3-.8 3-.2 4.5.2.4.4.8.8 1.2 0 .1.1.3.2.4.7.6 1.4.8 2.4.8h.1c.2 0 .5-.1.7-.1.5-.2 1-.5 1.4-1l.3-.3c.2-.2.3-.6.6-.6.1 0 .2.1.2.1.1.2.1.5.1.8 0 .2.1.4 0 .6-.1.4-1.1.9-1.3 1.1-.5.2-1.1.4-1.6.5-.5.1-1 .3-1.5.3-1 .1-2.2-.2-3-.7-.2-.2-.4-.3-.6-.5-.8-.7-1.3-1.7-1.5-2.7-.1-.6-.3-1.1-.3-1.7.1-2.1 1.6-3.8 3.5-4.5.4-.1.9-.3 1.4-.4.2-.1.3-.1.5-.1h.2s.1-.1.2-.1h.3M77.6 17.9h1c.3 0 .4.1.6.1 1 .2 1.9.5 2.8 1 .2.2 1.1.7 1 1.1-.1.2-.2.4-.4.6-.1.2-.1.4-.2.5-.1.1-.2.1-.2.1-.1 0-.2 0-.2-.1-.1-.1-.2-.3-.2-.5-.2-.3-.4-.5-.6-.8-.7-.6-1.8-.9-2.8-.7-.4.1-.7.3-1 .6-.8.6-1.3 1.4-1.6 2.2-.9 2.7 0 5.3 3.1 5.3H79.2c.3-.1.5-.1.7-.2.2 0 .4-.2.6-.2.1 0 .2 0 .2.1.1 0 .1.1.1.2 0 .2-.2.4-.3.5-.2.3-.3.5-.5.7-.2.2-.8.1-1.1.1-.7 0-1.3-.1-1.9-.3-.2-.1-.3-.1-.4-.2-1-.4-2-.9-2.7-1.8-1-1.5-1.1-3.1-.5-4.9.2-.5.4-1.1.7-1.5.4-.4.7-.7 1.1-1 .5-.4 1.3-.8 1.9-.8H77.4c.1-.1.2-.1.2-.1M19.3 18.8c.1 0 .1.1.2.1.1.1.1.3.1.4.1.2.3.4.3.6 0 0-.1.1-.1.2-.2.1-.8.3-1 .3-.4.2-.8.3-1.2.4-.1.1-.3.2-.5.3-.1 0-.1.1-.1.1-.1.3.2.9.3 1.1.1.2.1.3.2.5s.2.6.4.8c0 .1.1.2.2.2.2 0 .4-.2.6-.3l1.5-.6c.1-.1.3-.3.5-.3.1 0 .2 0 .3.1 0 .2.1.3.1.5.1.1.1.2.2.4v.2c-.1.1-.4.2-.5.2-.5.2-1 .3-1.5.5-.2.1-.5.2-.7.3-.1.1-.1.2-.1.3 0 .1.1.3.1.4.2.3.3.6.4.9.2.4.3.7.4 1 .1.2.1.3.3.5l.1.1c.2 0 .4-.1.6-.2.4-.2.9-.4 1.3-.6.2-.2.5-.3.7-.4h.2c.1 0 .1 0 .1.1.1.1.1.3.2.4.1.1.1.3.2.5v.2c-.2.2-.4.2-.6.3-.2 0-.3.1-.5.1-.5.2-.9.4-1.4.6-.4.1-.8.3-1.2.5-.3.1-.6.2-.9.4-.1 0-.3.2-.5.1 0 0-.1 0-.2-.1-.1-.2-.1-.4-.2-.6-.1-.4-.3-.9-.4-1.3-.4-.9-.8-1.8-1.1-2.7-.4-.8-.7-1.6-1.1-2.5-.1-.2-.8-1.6-.7-1.8.1-.2 1-.4 1.3-.5 1.2-.6 2.5-1.1 3.7-1.7M88.7 22.9h-.5c-.2.1-.5.2-.7.3-.3.2-.6.4-.8.6-.6.6-.9 1.1-1.2 1.8-.3.5-.5 1-.6 1.5-.1.4-.2.9-.2 1.4.1 1.3.9 2.1 2.1 2.4.2.1.4.1.7.1 0-.1.1-.1.1-.1.2 0 .3-.1.4-.1.3-.1.6-.2.8-.4.4-.2.7-.5.9-.9.7-.8 1.2-1.8 1.5-2.9.2-.7.2-1.6-.1-2.2-.4-.9-1.4-1.5-2.4-1.5zm-1.5-1.3h1.4c1.6.4 3.1 1.2 4.1 2.6.3.3.5.7.6 1.1.8 2.1-.4 4.8-2 6-.6.4-1.2.7-2 .9-1.1.2-2.3 0-3.3-.5-.7-.2-1.3-.6-1.9-1.1-1.2-1.1-1.9-2.7-1.5-4.5.2-1.2.9-2.4 1.7-3.2.4-.4.9-.7 1.3-.9.3-.2.8-.3 1.1-.4h.5zM9.4 23.3c.1 0 .1.1.2.1.2.2.3.6.4.8.1.3.3.7.4 1 .6 1.3 1.3 2.5 1.9 3.7.1.4.3.7.5 1 .1.3.3.7.5.9 0 .1.1.2.2.2.2-.1.4-.2.5-.3.6-.2 1.1-.6 1.6-.9.2-.1.4-.3.6-.3.1 0 .1.1.2.1 0 .1.1.2.1.3.1.2.3.5.3.7.1.1 0 .1 0 .2-.2.2-.6.3-.8.4-.3.1-.5.2-.7.3-.8.3-1.6.8-2.4 1.1-.2.1-.4.2-.5.3-.2.1-.3.2-.4.3h-.2l-.2-.2c-.1-.1-.2-.4-.2-.6l-.6-1.2c-.8-1.7-1.6-3.4-2.5-5-.2-.3-.3-.6-.5-1-.1-.1-.4-.5-.4-.8.1 0 .1-.1.2-.1.2-.2.5-.3.8-.4.4-.1.7-.4 1-.6M4.9 25.8c.4 0 .4.4.6.6.1.1.2.3.2.5-.1.2-.8.4-1 .5-.5.3-.9.6-1.4.9-.1 0-.2.1-.2.1v.2c0 .3.2.5.3.7.2.2.3.5.5.7.1.2.3.5.5.7 0 .1.1.2.2.2.2-.1.3-.2.4-.3.4-.3.9-.6 1.3-.9.2-.1.6-.5.8-.5.2.1.3.4.3.5.1.2.4.3.3.5v.2c-.2.2-.5.3-.7.4-.4.2-.8.4-1.1.6-.3.1-.5.2-.7.4v.3c.1.2.2.3.2.4l.6.9c.1.2.3.4.4.7.1.1.2.4.4.5.1.1.2.1.3.1.1-.1.2-.2.4-.3.4-.3.9-.6 1.3-.9.2-.1.5-.5.7-.5.1.1.1.1.2.1.1.1.1.3.2.4.1.1.3.3.3.5.1.2-.8.6-1 .8-.9.5-1.9 1.1-2.8 1.7-.2.1-.6.5-.8.5-.1 0-.2 0-.2-.1-.2-.1-.2-.3-.3-.4-.2-.4-.4-.8-.7-1.2-.2-.3-.4-.6-.5-1-.5-.7-.9-1.4-1.4-2.2-.4-.5-.8-1.1-1.1-1.7-.4-.5-.7-1-1-1.4v-.2c0-.2 1-.7 1.2-.8 1.2-.7 2.2-1.5 3.3-2.2M97.5 26.9h.2c.1 0 .2.1.3.2.2.1.4.2.5.4.1 0 .1.1.1.2.1.1 0 .3 0 .5-.1.5-.2.9-.2 1.4-.2 1.1-.3 2.1-.5 3.2 0 .4-.1.8-.2 1.1v.6c0 .2.1.2.1.3.5-.2 1-.5 1.4-.7.8-.4 1.5-.8 2.3-1.3.5-.2.9-.5 1.4-.8l.6-.3c.1-.1.5-.4.7-.4.2.1.3.2.5.3.1.1.4.2.5.4v.2c0 .2-.1.3-.2.5-.2.3-.4.7-.6 1-.2.5-.4.9-.7 1.4-.5.9-1 1.9-1.5 2.9 0 .1-.1.2-.1.3-.1.2-.2.4-.4.7-.3.6-.5 1.1-.8 1.7-.1.1-.1.1-.2.1-.2 0-.6-.4-.8-.5-.2-.1-1.1-.6-1.1-.8-.1-.1 0-.2 0-.3l.6-.9c.5-.8 1-1.7 1.4-2.5.2-.4.3-.7.5-1 .1-.2.2-.3.2-.5v-.1c-.1-.1-1.2.5-1.4.6-.9.5-1.8 1.1-2.8 1.6-.2.1-.4.3-.6.4-.3.1-.9.7-1.2.5-.2-.1-.4-.2-.5-.4 0-.2.1-.3.1-.5.1-.3.1-.6.2-.9.2-1.1.3-2.4.5-3.6 0-.2.2-1.4.1-1.5 0-.1-.1 0-.1 0-.2.1-.3.3-.4.4-.3.3-.5.5-.7.8-.4.4-.7.8-1 1.2-.2.3-.5.5-.7.8-.1.2-.3.4-.4.5-.2.2-.4.7-.6.7-.1.1-.2 0-.2 0-.2 0-.3-.2-.4-.3-.2-.1-.4-.2-.5-.3-.1-.1-.1-.2-.1-.3.2-.2.5-.5.7-.6.3-.3.6-.7.9-1l5.1-5.4M48 30.7c.2 0 .9-.1.9.1l-.2.2c-.1.1-.3.2-.4.2-.2 0-.5-.1-.5-.3v-.1c.1-.1.1-.1.2-.1M63.2 31.8c.2 0 1.1.1 1 .4l-.1.1c-.1.1-.2.1-.3.1-.2 0-.6-.3-.6-.5v-.1M109.9 36.1h.2c.2.1.4.3.5.5.1.1.2.1.3.3.1 0 .1.1.1.2-.1.1-.1.2-.2.4-.1.3-.2.6-.3 1-.1.3-.2.5-.3.8-.4 1-.7 2-1 2.9l-.3.9c-.1.2-.1.4-.2.6 0 .1 0 .1.1.2h.1l1.8-.6c.3 0 .6-.1.8-.2 1-.3 1.9-.6 2.8-1 .3-.1.6-.2.8-.3.2 0 .4-.1.5-.1.3 0 .4.2.6.4.1.1.3.2.4.4v.2c0 .1-.1.2-.2.3-.3.3-.6.7-.9 1l-3.6 4.8c-.2.3-.5.6-.7.9-.1.2-.3.4-.5.6 0 0-.1.1-.2.1-.1-.1-.2-.2-.3-.4-.2-.1-.4-.3-.6-.5-.1-.2-.7-.6-.7-.8v-.1c0-.1.2-.3.3-.4.4-.4.7-.8 1.1-1.1.5-.7 1-1.4 1.6-2.1.1-.1.7-.8.7-1h-.2c-.2 0-.4.1-.5.1-.2.1-.4.2-.6.2-.5.2-.9.3-1.3.4l-2.4.9c-.3.1-.5.2-.8.3-.1 0-.3.1-.5.2-.1 0-.2-.1-.3-.1-.1-.2-.3-.3-.3-.5s.1-.3.2-.4l.3-.9c.4-1.1.8-2.3 1.1-3.4l.3-.9c.1-.2.2-.4.2-.6v-.1c-.2-.1-1.1.7-1.2.8-.9.7-1.8 1.5-2.7 2.2-.2.2-.5.6-.7.7h-.2c-.2-.1-.8-.7-.9-.8 0-.1 0-.2.1-.3.2-.2.4-.4.7-.5.3-.3.7-.5 1-.7.6-.4 1.1-.8 1.6-1.2.9-.6 1.7-1.2 2.5-1.9.7-.4 1.3-1 1.9-1.4M119.1 45.7c.2 0 .2.1.3.1.1.2.2.3.3.4.2.2.3.4.5.6.1.2.4.4.6.7 0 0 0 .1-.1.2-.1.2-.4.3-.5.4-.4.3-.7.6-1.1.8-.7.6-1.4 1.1-2.1 1.7-.1.1-.3.2-.4.3-.5.4-1 .9-1.5 1.3s-.9.7-1.3 1.1c-.1.1-.3.3-.5.4-.1.1-.2 0-.2 0-.3-.2-.4-.6-.6-.8-.2-.1-.3-.3-.4-.4-.1-.2-.3-.3-.4-.4 0-.1-.1-.2 0-.3 0-.2.8-.7 1-.8.3-.2.6-.5.9-.7l1.2-.9c.7-.6 1.5-1.2 2.3-1.9.4-.3.9-.7 1.3-1.1l.7-.7M121.4 50.3c1.2 0 2.1.6 2.8 1.5.3.4.5.7.7 1.1.1.4.5 1.3.2 1.7-.1.1-1.3.5-1.5.5-.1 0-.2-.1-.2-.2-.1-.2.1-.5.2-.7.1-.4 0-.9-.1-1.2-.3-.9-1.3-1.3-2-.6-.5.5-.3 1.5-.2 2.2.1.3.1.6.1.9.3 1.6-.4 2.6-1.6 3.2-.4.2-.9.3-1.4.3h-.7c-.8-.2-1.6-.9-2.2-1.6-.1-.2-.3-.5-.5-.8-.2-.3-.8-1.6-.6-1.9.1-.1.1-.2.2-.2.2-.1.3-.1.5-.2l.6-.3c.2-.1.3-.2.5-.2.1 0 .2.1.3.2.1.2-.1.5-.2.7-.1.1-.1.2-.1.4-.2.9.3 1.9 1.1 2.2h.8c.2-.1.3-.2.4-.4.6-.6.3-1.4.2-2.1 0-.6-.1-1.4 0-2 .1-1 1-1.9 1.9-2.3.3-.1.5-.1.8-.2M125.8 57.4c1.1 0 1.8.4 2.5 1.2.1.1.3.3.4.5.1.1.1.2.1.3.2.2.3.4.4.6 0 .1.1.3.1.4.1.2.1.3.1.5.1.3.2.8 0 1-.1.1-1.4.4-1.6.4-.1 0-.2-.1-.2-.2-.1-.2.2-.5.3-.7 0-.1 0-.3.1-.5.1-.8-.5-1.8-1.4-1.8-.2 0-.5.1-.6.3-.8.7-.4 2.1-.4 3.1v.7c-.2 1.2-1 2-2.1 2.4-2.3.7-3.9-1.2-4.6-3.1-.1-.3-.4-1.1-.2-1.4 0-.1.1-.2.2-.2.2-.1.3-.1.5-.2.3-.1.5-.2.7-.2.2-.1.3-.2.4-.2.2 0 .3.3.3.4-.1.2-.2.3-.3.5-.1.2-.3.6-.2.9 0 .8.4 1.6 1.1 1.8.2.1.4.1.6.1.1 0 .2-.1.2-.1.3-.1.6-.4.7-.7.2-.5.1-1.2.1-1.8-.1-1.1 0-2.1.6-2.8.2-.3.5-.5.7-.7.4-.2.9-.5 1.3-.5h.2M130.7 63.9c.1 0 .2.1.2.1.2.3.3.6.4.8.1.2.1.4.2.6.2.2.3.4.3.6.1.1 0 .2 0 .3-.2.1-.6.2-.9.3-.4.2-.9.4-1.4.6-.6.2-1.2.5-1.8.7-.9.5-1.9.9-2.8 1.3-.4.2-.8.4-1.1.6-.3.1-.5.3-.8.3-.1 0-.2 0-.2-.1-.2-.2-.3-.6-.4-.9-.2-.3-.3-.7-.5-1v-.2c.1-.2.8-.4 1-.5.2-.1.4-.1.7-.2.3-.1.5-.3.8-.4 1.1-.4 2.2-.9 3.3-1.4.7-.4 1.5-.7 2.2-1.1.2-.1.5-.2.8-.4M130.9 71.1c-.2 0-.4.1-.6.1-.2 0-.4.1-.7.2-.3.1-.7.2-1 .4-.8.3-1.5.7-2.1 1.4-1 1.2-.7 3 .6 3.8.5.3 1.3.5 2 .5 0-.1.1-.1.2-.1h.4c.1 0 .1-.1.2-.1.3 0 .6-.1.8-.2 1.1-.4 2.1-.9 2.9-1.8.6-.8.7-1.7.3-2.7-.1-.3-.3-.5-.5-.8-.3-.2-.6-.4-1-.5-.4-.2-1-.2-1.5-.2zm-1-2.3c.9 0 1.8.1 2.6.6.6.4 1.2.9 1.6 1.6 1 1.3 1.7 3.6 1 5.4-.7 2.1-3 3.3-5.2 3.3-1.6.1-3.1-.9-4-2.1-.3-.4-.5-.8-.6-1.2-.3-.6-.6-1.3-.7-2.1 0-.6.1-1.2.2-1.8.3-1.2 1.4-2.3 2.5-2.9.6-.3 1.1-.5 1.7-.6.2-.1.4-.1.6-.1 0 0 0-.1.1-.1h.2zM136.6 79.7c.1 0 .2 0 .3.1 0 .1 0 .3.1.4 0 .3.1.5.1.8 0 .1 0 .2-.1.3-.8 1.2-1.7 2.3-2.6 3.5-.3.5-.6 1-1 1.4-.1.3-1.1 1.4-1 1.6 0 .1.2.1.3.1h.3c.1-.1.2-.1.2-.1.2 0 .3 0 .4-.1l1.2-.3c.9-.2 1.8-.5 2.8-.7.2 0 .5-.2.7-.1.1 0 .1 0 .2.1 0 .2.1.4.1.5 0 .2.1.4.1.6 0 .1-.1.2-.2.2-.6.1-1.3.2-1.9.3-1.2.3-2.3.5-3.3.7-.8.2-1.6.3-2.3.5-.3.1-1.7.5-1.9.4l-.1-.1c-.1-.2-.1-.4-.1-.6-.1-.1-.1-.3-.1-.5 0-.1 0-.2.1-.3.1 0 .1-.1.2-.2.2-.2.3-.4.5-.6 1-1.3 1.9-2.7 2.9-4 .2-.4.5-.7.7-1 .2-.2.3-.4.5-.6v-.1c0-.1 0-.2-.1-.2h-.4c-.3.1-.7.2-1 .3-.6.1-1.2.2-1.8.4-.5.1-1 .2-1.5.4-.3 0-.6.1-.9.2-.1 0-.2.1-.3.1-.1 0-.2 0-.2-.1-.1-.1-.3-1-.3-1.2.1-.1.2-.2.3-.2h.5c.1-.1.2-.1.3-.1h.2c.1-.1.6-.1.7-.1.1-.1.1-.1.2-.1h.1c.1-.1.6-.1.7-.1.1-.1.1-.1.2-.1s.3 0 .4-.1c.3 0 .6-.1.9-.2.6-.1 1.1-.2 1.6-.3.3-.1.7-.2 1.1-.2.2-.1.4-.2.6-.2.6-.1 1.1-.3 1.6-.4" class="a"/></g></svg>