<svg xmlns="http://www.w3.org/2000/svg" width="189" height="189" viewBox="0 0 189 189"><style>.a{fill:#003D6E;}.b{fill:#D1393F;}</style><g fill="none"><path d="M92.4.1h3.8c3 .1 5.9.3 8.8.6.3.1.7.1 1 .2 1.2.1 2.3.3 3.4.4 1.3.2 2.7.5 4 .8 2.6.5 5.2 1.1 7.7 1.9 1 .3 1.9.6 2.8.9 1.4.4 2.8.9 4.1 1.4 2.1.8 4.1 1.7 6 2.6.8.3 1.5.7 2.3 1 2.7 1.4 5.4 2.8 8 4.5 1.8 1.1 3.6 2.3 5.3 3.5 1.3.9 2.4 1.9 3.7 2.8.6.5 1.3 1 1.9 1.6 6.1 5.1 11.8 11.3 16.3 17.6.8 1.2 1.7 2.4 2.5 3.7 1.3 1.9 2.4 3.9 3.5 5.9 1.2 2.2 2.3 4.3 3.3 6.6 1.1 2.5 2.2 5.1 3 7.8.2.6.5 1.2.7 1.9.4 1.4.9 2.9 1.3 4.4.3 1.2.6 2.4.8 3.6.2.9.5 1.8.6 2.8.4 2 .7 4.1 1 6.1.7 5.3.8 11 .6 16.6l-.3 3.9c-.1.9-.2 1.9-.3 2.8-.1.4-.1.7-.1 1-.1.7-.2 1.3-.3 1.9l-.3 1.5c-.2 1.3-.5 2.7-.8 4-.5 2.7-1.2 5.2-2 7.8-.8 2.7-1.7 5.3-2.8 7.9-.6 1.6-1.2 3.2-2 4.8l-.9 1.8c-.8 1.7-1.7 3.3-2.6 4.9l-1.2 2.1c-3.8 6.1-8.1 11.8-13.4 17.1-.2.2-.3.4-.5.6-.4.3-.7.7-1.1 1-.3.3-.5.6-.8.8l-1.2 1.2-1.8 1.5-.4.4c-.6.4-1.1.9-1.7 1.3l-.5.5c-.6.5-1.2.9-1.7 1.4l-1.2.9c-.9.6-1.7 1.2-2.5 1.8-.9.6-1.8 1.2-2.8 1.8-.2.1-.4.3-.7.5-.8.4-1.6.9-2.3 1.4-2.1 1.2-4.2 2.3-6.3 3.4l-1.5.6c-.1.1-.3.2-.5.3-.6.3-1.3.6-2 .9-1.5.7-3.1 1.3-4.6 1.9-1.6.6-3.2 1-4.8 1.6-.3.1-.5.1-.8.2-.8.2-1.5.5-2.3.7-.5.1-1 .2-1.5.4-.5.1-1 .2-1.6.4-.7.2-1.4.3-2.2.5-.7.1-1.5.3-2.3.4-.8.1-1.5.3-2.2.4-.4.1-.7.1-1 .2-.3 0-.7.1-1 .1-.2 0-.3.1-.5.1-.5 0-1.1.1-1.6.2-.4.1-.8.1-1.2.1-.6.1-1.2.2-1.7.2-.3 0-.5 0-.7.1-1.1 0-2.2.1-3.4.1-.2.1-.3.1-.5.1-.9 0-1.7 0-2.6.1-.7 0-1.5-.1-2.2-.1h-2c-.6 0-1.1-.1-1.7-.1-1.4-.1-2.9-.2-4.3-.3-.6-.1-1.2-.1-1.9-.2-2-.3-4-.6-6.1-.9-.5-.1-1-.2-1.6-.3-.5-.1-1.1-.2-1.6-.4-.7-.1-1.3-.3-1.9-.4-1-.2-1.9-.5-2.9-.7-.7-.2-1.4-.4-2-.6-.4-.1-.8-.2-1.2-.4-2.4-.8-4.7-1.5-7-2.4-.3-.2-.6-.3-.9-.4-.7-.3-1.5-.6-2.2-1-1.7-.7-3.4-1.5-5.1-2.3l-2.1-1.2c-.6-.3-1.1-.6-1.7-.9-.3-.2-.5-.3-.8-.5l-1.5-.9c-.3-.2-.6-.3-.9-.5-.6-.4-1.3-.9-1.9-1.3-1-.6-1.9-1.3-2.8-1.9-.7-.5-1.4-1.1-2.1-1.6-.9-.6-1.8-1.4-2.7-2.1-.2-.2-.5-.4-.7-.6-2-1.5-3.9-3.3-5.8-5.2-.6-.6-1.2-1.2-1.9-1.8-.6-.6-1.2-1.4-1.8-2-4.1-4.5-7.6-9.3-10.7-14.3-.5-.8-.9-1.6-1.4-2.4-.8-1.4-1.6-2.8-2.3-4.3-.1-.1-.1-.3-.2-.5s-.3-.4-.4-.7c-.2-.3-.3-.7-.5-1.1-.2-.3-.3-.6-.5-1 0-.1-.1-.3-.2-.5-.7-1.6-1.4-3.3-2-4.9-.7-1.7-1.3-3.4-1.8-5.2-.1-.2-.2-.5-.3-.8 0-.1 0-.2-.1-.3-.7-2.6-1.4-5.3-2-8.1-.5-2.4-.9-4.9-1.3-7.4 0-.6-.1-1.1-.1-1.7-.2-1.7-.4-3.3-.4-5.1-.1-1-.2-2.1-.2-3.1v-3.8-1.4c0-.3 0-.5.1-.8v-.6c.1-.3.1-.6.1-.8 0-1.1.1-2.1.2-3.1.1-.8.2-1.7.3-2.5.1-.8.2-1.6.3-2.3.1-.6.1-1.2.2-1.8l.6-3.3c.9-4.3 2-8.4 3.4-12.4.4-1.4 1-2.7 1.4-4 .3-.6.5-1.2.8-1.8.1-.3.2-.6.3-.8.3-.8.7-1.5 1-2.2.5-1.1 1-2.2 1.6-3.3.2-.4.5-.9.7-1.3.4-.7.7-1.4 1.1-2 .2-.5.5-.9.7-1.3.2-.4.4-.7.6-1l1.8-3c.3-.4.6-.8.9-1.3.6-.9 1.3-1.9 2-2.7.1-.2.2-.3.3-.5.3-.4.5-.8.8-1.1 1-1.3 2-2.5 3-3.7.6-.8 1.2-1.4 1.8-2.1.4-.5.8-.9 1.1-1.3 1.3-1.3 2.5-2.6 3.8-3.8.6-.6 1.3-1.2 1.9-1.8.7-.7 1.4-1.3 2.1-1.9.8-.7 1.6-1.3 2.4-2 1.3-1 2.6-2 3.9-2.9 2.1-1.6 4.4-3 6.6-4.4 3.2-1.9 6.4-3.6 9.7-5.1 1.5-.7 3-1.3 4.5-1.9.5-.2.9-.3 1.3-.5.2 0 .3-.1.4-.1.5-.2 1-.4 1.5-.5.9-.4 1.8-.6 2.7-.9.7-.3 1.5-.5 2.2-.7.6-.2 1.3-.4 1.9-.5.8-.2 1.6-.5 2.4-.6l1.2-.3c.2 0 .4-.1.6-.1.1 0 .2-.1.3-.1.2 0 .4-.1.7-.1.2-.1.4-.2.6-.2h.5c.1-.1.4-.2.6-.2h.4l.1-.1h.3c.1-.1.2-.1.3-.1h.4c.1 0 .1 0 .2-.1h.4c.1 0 .1 0 .2-.1.1 0 .3-.1.5-.1h.7c0-.1.1-.1.2-.1h.5c0-.1.1-.1.1-.1H81.9c.1 0 .1-.1.2-.1H82.7c0-.1.1-.1.2-.1H83.5c.1 0 .1-.1.2-.1H84.3c.1-.1.2-.1.3-.1h.8s.1 0 .2-.1h.8c.1-.1.2 0 .2 0 .1-.1.3-.1.4-.1h1.1c.1-.1.2-.1.4-.1h.7c.1-.1.3 0 .5 0 .1-.1.3-.1.4-.1h.6c.2-.1.6 0 .7 0 .3-.1.8 0 1-.1z" fill="#FFF"/><path d="M93.6 2.7h-2.8c-.5.1-.9.1-1.3.1h-1c-.7.1-1.3.2-1.9.2-.7.1-1.4.1-2.2.2-.7.1-1.5.2-2.2.3-1 .1-1.9.2-2.8.4-1.8.3-3.5.6-5.2 1-1.5.3-3 .7-4.5 1.1-.6.2-1.2.3-1.9.5-1.5.5-3.1 1-4.6 1.5-.1.1-.3.2-.5.2-.3.2-.7.3-1 .4-2.2.9-4.3 1.8-6.4 2.7-.3.2-.5.3-.7.4-.2.1-.4.2-.5.2-.2.1-.4.2-.5.3-1 .4-2 .9-2.9 1.5-.5.3-1 .5-1.6.8-.9.5-1.7 1.1-2.6 1.6-.4.2-.7.4-1 .6-1.3.9-2.6 1.7-3.9 2.6-.8.5-1.5 1.2-2.3 1.8-1 .6-1.9 1.3-2.8 2.1-.7.6-1.5 1.2-2.2 1.9-.6.4-1.1.9-1.6 1.4-2 1.8-4 3.8-5.9 5.8-.4.5-.8.9-1.1 1.4l-.6.6c-.2.2-.4.5-.6.7l-.2.2c-.6.7-1.2 1.4-1.7 2.1-.5.6-.9 1.1-1.3 1.7-.3.3-.5.7-.8 1-.4.6-.8 1.1-1.2 1.7-.9 1.3-1.8 2.6-2.6 3.9-.1.1-.1.2-.2.3-.1.1-.1.2-.2.3l-.9 1.5c-.5.9-1 1.8-1.6 2.8-.6 1.1-1.1 2.2-1.7 3.4-.2.3-.3.6-.5 1s-.4.8-.5 1.1c-.4.9-.9 1.9-1.2 2.8-.3.7-.6 1.5-.9 2.2-.3.5-.4 1.1-.7 1.7-.6 1.6-1.1 3.2-1.6 4.9 0 .1-.1.3-.1.4-.2.7-.4 1.3-.6 1.9 0 .2-.1.4-.1.5-.3 1-.6 2-.8 3-.1.4-.1.7-.2 1-.2.6-.3 1.2-.4 1.9l-.3 1.5-.3 1.8c-.3 1.4-.4 2.8-.6 4.3 0 .2-.1.5-.1.7 0 .2 0 .4-.1.5v.5c0 .3 0 .6-.1 1-.2 2.5-.3 5.1-.3 7.7v3.1c0 .2 0 .5.1.7v1.7c.1.9.2 1.9.2 2.8.1 1.2.3 2.5.4 3.7.1.2.1.3.1.5.1 1.2.4 2.4.6 3.6.4 2.2.8 4.3 1.3 6.4.2.6.3 1.1.5 1.7l.6 2.4c.1.3.2.5.3.8l.3 1.2c.3.7.5 1.4.8 2.2.1.3.2.6.3.8.1.2.1.3.2.4 0 .2.1.3.1.5.1.3.3.6.4 1 .1.1.1.2.1.3.1.3.3.6.4.8.1.4.2.7.4 1.1.4.9.8 1.9 1.2 2.8.2.4.3.8.5 1.1 1.1 2.2 2.1 4.3 3.3 6.3 3 5 6.3 9.9 10.2 14.3 1.7 2 3.5 3.9 5.4 5.8.5.5 1 .9 1.5 1.4.4.4.9.7 1.3 1.1.6.6 1.2 1.1 1.8 1.6.7.6 1.4 1.2 2.2 1.8.2.2.4.3.7.5 1 .8 2 1.5 3 2.3.8.6 1.7 1.2 2.6 1.7.2.2.5.4.7.6.8.5 1.6.9 2.3 1.4 2.4 1.5 4.8 2.8 7.3 4l.6.3c.4.2.9.4 1.3.6.6.3 1.3.6 2 .9.1.1.2.1.4.2 1.1.5 2.3 1 3.4 1.4.4.1.8.3 1.1.4 2.7 1 5.4 1.9 8.3 2.6.6.2 1.3.4 1.9.5 4.9 1.2 10 2 15.3 2.4.5 0 1.1.1 1.7.1.4.1.7 0 1.1 0 1.1.1 2.2.1 3.4.1H98c.1-.1.4 0 .5 0 .2-.1.7-.1.9-.1h1.1c.1-.1.3 0 .4 0 .1-.1.3-.1.4-.1h.5c.1-.1.4 0 .5 0 .1-.1.2-.1.3-.1h.6c0-.1.2 0 .2 0 .1 0 .2-.1.2-.1h.7c.1-.1.2-.1.3-.1H105.2c.1-.1.2-.1.3-.1H106.1c.1 0 .2 0 .2-.1H106.9c.1 0 .1 0 .2-.1h.7c.1-.1.1-.1.2-.1h.4c.1-.1.1-.1.2-.1h.5c0-.1.1-.1.1-.1h.4c.1 0 .1-.1.2-.1h.5c0-.1.1-.1.2-.1h.2c.1-.1.2-.1.3-.1.1 0 .3-.1.5-.1h.2c.2-.1.5-.1.6-.1h.2c0-.1.1-.1.2-.1h.1c.1-.1.4-.1.6-.1 0-.1.1-.1.2-.1.2 0 .4-.1.6-.1.1 0 .3-.1.4-.1.4-.1.7-.2 1.1-.2.4-.1.7-.2 1-.3.2-.1.4-.2.7-.2h.1c.9-.2 1.7-.5 2.6-.7.8-.2 1.6-.5 2.4-.7.7-.3 1.5-.5 2.3-.8.9-.3 1.8-.6 2.6-1 .4-.1.7-.3 1.1-.4.5-.2 1.1-.4 1.6-.6 1.3-.5 2.6-1.2 3.8-1.7 2-.9 3.9-1.9 5.8-3 5-2.8 9.8-6.2 14.3-10 .3-.2.6-.5.9-.7.3-.2.5-.4.7-.6.5-.4.9-.9 1.4-1.3.3-.3.7-.7 1.1-1 1.8-1.8 3.6-3.7 5.3-5.6 1-1 1.9-2.2 2.8-3.3.3-.3.5-.7.8-1l.9-1.2c.1-.2.2-.3.4-.4.1-.3.2-.5.4-.7.1-.1.2-.3.3-.4.6-.9 1.2-1.7 1.8-2.5.4-.8.9-1.5 1.4-2.3l.9-1.5c.7-1.1 1.4-2.2 2-3.4.2-.4.4-.8.7-1.2.4-.8.8-1.6 1.1-2.4.3-.6.7-1.3 1-1.9.4-1 .8-2 1.3-3 .1-.3.1-.5.2-.7.3-.7.6-1.4.9-2.2 0-.1 0-.2.1-.3 0-.1.1-.2.1-.3l.3-.6c0-.3.1-.5.2-.8.1-.1.1-.2.1-.4.1-.1.1-.2.2-.4.1-.3.2-.6.3-1 .1-.2.1-.4.2-.6.1-.2.1-.4.2-.5.6-1.9 1.1-3.8 1.6-5.7.4-1.5.7-3 1-4.6.1-.4.2-.9.3-1.3.2-1.1.3-2.2.5-3.3.2-.9.3-1.9.4-2.8v-.8c.1-.1.1-.2.1-.3.1-.7.1-1.4.2-2.1 0-.4.1-.8.1-1.1v-1.1c.1-.7.1-1.3.1-1.9v-.9c.1-1.9.1-3.8 0-5.6 0-1-.1-2-.2-2.9 0-.5 0-1-.1-1.5v-.6-.4c-.1-.2-.1-.5-.2-.8v-.5c0-.2 0-.4-.1-.6v-.7c-.1-.6-.2-1.3-.3-2-.4-2.4-.9-4.8-1.4-7.1-2.5-10.7-6.8-20.4-12.6-29.4-1.2-1.9-2.5-3.7-3.9-5.5-1.1-1.4-2.2-2.8-3.4-4.1-.4-.5-.8-1-1.3-1.6-.6-.6-1.2-1.3-1.8-1.9-.9-1-1.9-1.9-2.8-2.8-.2-.2-.5-.5-.8-.7-.3-.4-.7-.7-1-1-1-.9-1.9-1.7-2.9-2.5l-2.1-1.8c-.2-.1-.5-.3-.7-.5-.2-.1-.4-.3-.6-.5-.8-.5-1.6-1.1-2.3-1.7l-4.5-3c-2.9-1.7-5.7-3.4-8.7-4.8-3.9-1.9-7.9-3.4-12-4.8-2.1-.7-4.3-1.2-6.4-1.8-.8-.2-1.7-.4-2.6-.6-1-.2-2.1-.4-3.1-.6-.5-.1-.9-.2-1.3-.2-.4-.1-.7-.1-1.1-.2-.3 0-.7-.1-1.1-.1-1.1-.2-2.3-.4-3.4-.5-3.2-.3-6.6-.4-10-.4zM92.4.1h3.8c3 .1 5.9.3 8.8.6.3.1.7.1 1 .2 1.2.1 2.3.3 3.4.4 1.3.2 2.7.5 4 .8 2.6.5 5.2 1.1 7.7 1.9 1 .3 1.9.6 2.8.9 1.4.4 2.8.9 4.1 1.4 2.1.8 4.1 1.7 6 2.6.8.3 1.5.7 2.3 1 2.7 1.4 5.4 2.8 8 4.5 1.8 1.1 3.6 2.3 5.3 3.5 1.3.9 2.4 1.9 3.7 2.8.6.5 1.3 1 1.9 1.6 6.1 5.1 11.8 11.3 16.3 17.6.8 1.2 1.7 2.4 2.5 3.7 1.3 1.9 2.4 3.9 3.5 5.9 1.2 2.2 2.3 4.3 3.3 6.6 1.1 2.5 2.2 5.1 3 7.8.2.6.5 1.2.7 1.9.4 1.4.9 2.9 1.3 4.4.3 1.2.6 2.4.8 3.6.2.9.5 1.8.6 2.8.4 2 .7 4.1 1 6.1.7 5.3.8 11 .6 16.6l-.3 3.9c-.1.9-.2 1.9-.3 2.8-.1.4-.1.7-.1 1-.1.7-.2 1.3-.3 1.9l-.3 1.5c-.2 1.3-.5 2.7-.8 4-.5 2.7-1.2 5.2-2 7.8-.8 2.7-1.7 5.3-2.8 7.9-.6 1.6-1.2 3.2-2 4.8l-.9 1.8c-.8 1.7-1.7 3.3-2.6 4.9l-1.2 2.1c-3.8 6.1-8.1 11.8-13.4 17.1-.2.2-.3.4-.5.6-.4.3-.7.7-1.1 1-.3.3-.5.6-.8.8l-1.2 1.2-1.8 1.5-.4.4c-.6.4-1.1.9-1.7 1.3l-.5.5c-.6.5-1.2.9-1.7 1.4l-1.2.9c-.9.6-1.7 1.2-2.5 1.8-.9.6-1.8 1.2-2.8 1.8-.2.1-.4.3-.7.5-.8.4-1.6.9-2.3 1.4-2.1 1.2-4.2 2.3-6.3 3.4l-1.5.6c-.1.1-.3.2-.5.3-.6.3-1.3.6-2 .9-1.5.7-3.1 1.3-4.6 1.9-1.6.6-3.2 1-4.8 1.6-.3.1-.5.1-.8.2-.8.2-1.5.5-2.3.7-.5.1-1 .2-1.5.4-.5.1-1 .2-1.6.4-.7.2-1.4.3-2.2.5-.7.1-1.5.3-2.3.4-.8.1-1.5.3-2.2.4-.4.1-.7.1-1 .2-.3 0-.7.1-1 .1-.2 0-.3.1-.5.1-.5 0-1.1.1-1.6.2-.4.1-.8.1-1.2.1-.6.1-1.2.2-1.7.2-.3 0-.5 0-.7.1-1.1 0-2.2.1-3.4.1-.2.1-.3.1-.5.1-.9 0-1.7 0-2.6.1-.7 0-1.5-.1-2.2-.1h-2c-.6 0-1.1-.1-1.7-.1-1.4-.1-2.9-.2-4.3-.3-.6-.1-1.2-.1-1.9-.2-2-.3-4-.6-6.1-.9-.5-.1-1-.2-1.6-.3-.5-.1-1.1-.2-1.6-.4-.7-.1-1.3-.3-1.9-.4-1-.2-1.9-.5-2.9-.7-.7-.2-1.4-.4-2-.6-.4-.1-.8-.2-1.2-.4-2.4-.8-4.7-1.5-7-2.4-.3-.2-.6-.3-.9-.4-.7-.3-1.5-.6-2.2-1-1.7-.7-3.4-1.5-5.1-2.3l-2.1-1.2c-.6-.3-1.1-.6-1.7-.9-.3-.2-.5-.3-.8-.5l-1.5-.9c-.3-.2-.6-.3-.9-.5-.6-.4-1.3-.9-1.9-1.3-1-.6-1.9-1.3-2.8-1.9-.7-.5-1.4-1.1-2.1-1.6-.9-.6-1.8-1.4-2.7-2.1-.2-.2-.5-.4-.7-.6-2-1.5-3.9-3.3-5.8-5.2-.6-.6-1.2-1.2-1.9-1.8-.6-.6-1.2-1.4-1.8-2-4.1-4.5-7.6-9.3-10.7-14.3-.5-.8-.9-1.6-1.4-2.4-.8-1.4-1.6-2.8-2.3-4.3-.1-.1-.1-.3-.2-.5s-.3-.4-.4-.7c-.2-.3-.3-.7-.5-1.1-.2-.3-.3-.6-.5-1 0-.1-.1-.3-.2-.5-.7-1.6-1.4-3.3-2-4.9-.7-1.7-1.3-3.4-1.8-5.2-.1-.2-.2-.5-.3-.8 0-.1 0-.2-.1-.3-.7-2.6-1.4-5.3-2-8.1-.5-2.4-.9-4.9-1.3-7.4 0-.6-.1-1.1-.1-1.7-.2-1.7-.4-3.3-.4-5.1-.1-1-.2-2.1-.2-3.1v-3.8-1.4c0-.3 0-.5.1-.8v-.6c.1-.3.1-.6.1-.8 0-1.1.1-2.1.2-3.1.1-.8.2-1.7.3-2.5.1-.8.2-1.6.3-2.3.1-.6.1-1.2.2-1.8l.6-3.3c.9-4.3 2-8.4 3.4-12.4.4-1.4 1-2.7 1.4-4 .3-.6.5-1.2.8-1.8.1-.3.2-.6.3-.8.3-.8.7-1.5 1-2.2.5-1.1 1-2.2 1.6-3.3.2-.4.5-.9.7-1.3.4-.7.7-1.4 1.1-2 .2-.5.5-.9.7-1.3.2-.4.4-.7.6-1l1.8-3c.3-.4.6-.8.9-1.3.6-.9 1.3-1.9 2-2.7.1-.2.2-.3.3-.5.3-.4.5-.8.8-1.1 1-1.3 2-2.5 3-3.7.6-.8 1.2-1.4 1.8-2.1.4-.5.8-.9 1.1-1.3 1.3-1.3 2.5-2.6 3.8-3.8.6-.6 1.3-1.2 1.9-1.8.7-.7 1.4-1.3 2.1-1.9.8-.7 1.6-1.3 2.4-2 1.3-1 2.6-2 3.9-2.9 2.1-1.6 4.4-3 6.6-4.4 3.2-1.9 6.4-3.6 9.7-5.1 1.5-.7 3-1.3 4.5-1.9.5-.2.9-.3 1.3-.5.2 0 .3-.1.4-.1.5-.2 1-.4 1.5-.5.9-.4 1.8-.6 2.7-.9.7-.3 1.5-.5 2.2-.7.6-.2 1.3-.4 1.9-.5.8-.2 1.6-.5 2.4-.6l1.2-.3c.2 0 .4-.1.6-.1.1 0 .2-.1.3-.1.2 0 .4-.1.7-.1.2-.1.4-.2.6-.2h.5c.1-.1.4-.2.6-.2h.4l.1-.1h.3c.1-.1.2-.1.3-.1h.4c.1 0 .1 0 .2-.1h.4c.1 0 .1 0 .2-.1.1 0 .3-.1.5-.1h.7c0-.1.1-.1.2-.1h.5c0-.1.1-.1.1-.1H81.9c.1 0 .1-.1.2-.1H82.7c0-.1.1-.1.2-.1H83.5c.1 0 .1-.1.2-.1H84.3c.1-.1.2-.1.3-.1h.8s.1 0 .2-.1h.8c.1-.1.2 0 .2 0 .1-.1.3-.1.4-.1h1.1c.1-.1.2-.1.4-.1h.7c.1-.1.3 0 .5 0 .1-.1.3-.1.4-.1h.6c.2-.1.6 0 .7 0 .3-.1.8 0 1-.1z" class="a"/><path d="M93.8 20.6h-1.6c-1.6.1-3.1.2-4.6.3-3.7.4-7.3.9-10.7 1.8-1 .3-2 .5-3 .8-.7.2-1.5.5-2.3.7-.9.3-1.9.6-2.8 1-.4.1-.8.3-1.2.4-1.6.6-3.1 1.3-4.6 2-1.4.6-2.7 1.3-4 2-.8.5-1.7.9-2.5 1.4-1.2.8-2.4 1.6-3.6 2.3-.5.4-1 .8-1.5 1.1-1.7 1.1-3.3 2.4-4.8 3.7-.3.3-.5.5-.8.7-.3.2-.6.5-.9.8-1.2 1.1-2.5 2.3-3.7 3.6-.9 1-1.9 2-2.8 3.1-.4.5-.9 1-1.3 1.5-.1.1-.2.3-.3.4-1.3 1.6-2.4 3.2-3.5 4.8-1.1 1.7-2.2 3.4-3.2 5.2l-.9 1.5c-2.1 4.3-4 8.7-5.4 13.3-.8 2.6-1.5 5.3-2 8-.5 3-.9 6-1.1 9v1.1c-.1.9-.1 1.7-.1 2.6V95c0 1.4 0 2.8.1 4.1.1.8.1 1.7.2 2.6 0 .2.1.4.1.6 0 .2.1.4.1.7v.6c.1 1 .3 2 .5 2.9.2 1.4.4 2.8.8 4.1.1.4.2.9.3 1.3.4 1.5.8 3.1 1.3 4.5.3 1.1.6 2.1 1 3.1.2.5.4 1 .5 1.4.6 1.4 1.2 2.7 1.7 4.1.5 1.1 1.1 2.1 1.6 3.2 1.2 2.3 2.6 4.6 4.1 6.9 0 .1.1.2.2.3.3.4.5.7.7 1 .2.4.5.7.7 1.1.7.8 1.3 1.7 2 2.6.5.6 1 1.1 1.4 1.7.3.4.7.7 1 1.1.3.3.6.7.9 1l.3.3c.2.3.5.6.7.8 1.2 1.2 2.3 2.4 3.5 3.4l.8.8c.7.6 1.4 1.2 2 1.7l.3.3c.2.1.3.2.5.4.3.2.6.5.9.7.8.6 1.6 1.2 2.3 1.8 1.2.8 2.3 1.5 3.5 2.3.4.3.9.6 1.3.9.2 0 .3.1.4.1.1.1.3.2.5.4.5.3 1.1.6 1.6.9 2 1.1 4 2.1 6 3 6 2.7 12.3 4.6 19.2 5.6 1.9.3 3.9.6 6 .7.5 0 1.1.1 1.6.1 1.6 0 3.1.1 4.7.1.1-.1.2 0 .3 0h.8c.2-.1.7-.1.9-.1h.4c.1-.1.4 0 .6 0 .1-.1.2-.1.3-.1h.8c.2-.1.4 0 .5 0h.2c.1-.1.2-.1.3-.1h.8c0-.1.1-.1.2-.1H102.6c.1-.1.3-.1.4-.1H103.6c.1 0 .1-.1.2-.1H104.4s.1 0 .1-.1H105.1s.1 0 .1-.1h.7c0-.1 0-.1.1-.1H106.3c.1 0 .1 0 .2-.1H107.1c.1-.1.5-.2.7-.2h.4c0-.1.1-.1.1-.1.1 0 .4-.1.6-.1h.3s.1 0 .1-.1c.3 0 .5-.1.7-.1l1.5-.3c.5-.2 1.1-.3 1.6-.4.9-.2 1.7-.5 2.6-.7.2-.1.5-.2.7-.3.7-.2 1.4-.4 2-.6 2.8-1 5.6-2.1 8.3-3.3 2.5-1.2 4.9-2.5 7.2-4 .6-.4 1.1-.7 1.7-1.1 1.1-.7 2.2-1.5 3.3-2.4.9-.6 1.8-1.3 2.6-2l.3-.3c.1 0 .2-.1.3-.2.1 0 .2-.1.3-.2.2-.2.4-.3.5-.5.6-.4 1.1-.9 1.6-1.4.6-.5 1.2-1.1 1.8-1.6.2-.3.4-.5.6-.7 1.8-1.8 3.4-3.5 4.9-5.4.5-.6 1-1.1 1.4-1.7 1.1-1.5 2.2-3.1 3.2-4.6.4-.7.8-1.3 1.2-1.9.2-.3.3-.5.4-.7.4-.6.8-1.3 1.1-1.9.8-1.4 1.6-2.8 2.2-4.3.9-1.9 1.7-3.8 2.4-5.7.3-.7.6-1.5.8-2.2.5-1.7 1.1-3.4 1.5-5.2.7-2.5 1.2-5.2 1.7-7.9v-.7c.1-.2.1-.4.1-.6.1-.6.2-1.2.2-1.8 0-.1.1-.2.1-.4v-.9c.1-.7.2-1.5.2-2.2 0-.7.1-1.3.1-2 0-1.5 0-3-.1-4.4v-1.3c0-.5-.1-1-.1-1.5-.1-1-.1-2-.3-2.9 0-.5-.1-1-.1-1.4-.2-.8-.3-1.6-.4-2.4-.4-2.5-1-4.9-1.6-7.2-.4-1.5-.8-3-1.3-4.4-.3-1-.7-2-1.1-3-.3-.8-.6-1.7-1-2.5-.1-.3-.2-.5-.3-.7-.2-.5-.4-1-.7-1.5-.5-1.1-1-2.2-1.6-3.3-.9-1.7-1.9-3.4-2.9-5-.3-.5-.7-1-1-1.5-.5-.6-.9-1.3-1.4-2-.5-.8-1.1-1.6-1.7-2.4l-.3-.3c-.3-.4-.6-.7-.9-1.1-.5-.5-.9-1.1-1.4-1.6-.4-.6-.9-1.1-1.4-1.6-1.1-1.2-2.2-2.3-3.4-3.4-.7-.7-1.4-1.5-2.2-2.1-.2-.2-.4-.3-.6-.5-.6-.5-1.2-1-1.9-1.6-1.3-1-2.6-2-4-3-1.6-1.1-3.2-2.1-4.9-3.1-1.7-1-3.5-2-5.3-2.9-.4-.2-.9-.3-1.3-.5-.1-.1-.3-.1-.4-.2-.3-.1-.6-.3-.9-.5-1.1-.4-2.1-.8-3.1-1.2-2-.8-3.9-1.4-6-2-.4-.2-.9-.3-1.4-.4-.7-.2-1.3-.3-2-.5-.8-.2-1.5-.3-2.2-.5-.5-.1-1.1-.2-1.6-.3-.3 0-.6-.1-.8-.1-.7-.1-1.4-.3-2.2-.4-.6 0-1.2-.1-1.7-.2-.7-.1-1.4-.1-2-.2-.9-.1-1.7-.1-2.6-.2h-.5c-.5 0-.9 0-1.4-.1h-2.6zm-.9-2.4H96.6c1.3.1 2.6.1 3.9.2 4.9.4 9.5 1.3 13.9 2.5 1.6.4 3.1.9 4.7 1.4 2.5.9 5 1.9 7.4 3 1.3.6 2.5 1.2 3.7 1.8 1.6.9 3.2 1.8 4.8 2.8 1.3.8 2.6 1.7 3.9 2.6.7.5 1.4 1.1 2.2 1.6.7.5 1.3 1.1 2 1.6 1.3 1.1 2.5 2.2 3.8 3.4.5.5 1 .9 1.5 1.4 1 1 2 2.1 3 3.2.4.6.9 1.1 1.4 1.7.5.5 1 1.1 1.4 1.7.7.8 1.3 1.6 1.9 2.5 1.1 1.6 2.2 3.2 3.3 4.9.4.7.9 1.5 1.3 2.3.3.4.5.9.8 1.3l.6 1.2c.3.6.6 1.1.9 1.7.5.9.9 1.9 1.3 2.9.3.7.7 1.4 1 2.1.3 1 .7 1.9 1 2.8.4 1 .7 1.9 1 2.9.2.7.4 1.3.6 2 .8 2.7 1.3 5.4 1.8 8.3.3 1.1.4 2.3.5 3.5.1.5.2 1 .2 1.6.2 1.3.3 2.8.3 4.2 0 .8.1 1.7.1 2.5 0 1.8 0 3.5-.1 5.3-.9 14-5.3 26.3-12.3 37.2-.4.7-.8 1.3-1.3 2-1 1.3-2 2.7-3.1 4.1-.3.4-.6.7-.9 1.1-.3.4-.7.8-1 1.2-.6.6-1.1 1.3-1.7 1.9-.2.1-.3.3-.4.4-.3.2-.5.5-.7.7-.4.4-.8.9-1.2 1.2l-1.3 1.3c-1 .9-2.1 1.8-3.1 2.7-1.2 1-2.4 2-3.7 2.9-1.1.8-2.2 1.5-3.2 2.3-.6.3-1.2.7-1.7 1.1-.3.1-.6.3-.8.5-1.2.7-2.5 1.4-3.7 2-.9.5-1.8 1-2.8 1.4-1.5.8-3.1 1.4-4.6 2.1-.4.1-.7.3-1.1.4-1.6.6-3.3 1.2-4.9 1.7l-1.2.3c-.1 0-.3.1-.5.1-.1.1-.2.1-.4.2-.2 0-.4.1-.7.2-1.2.3-2.5.6-3.8.9-.3 0-.6.1-.9.2-1.1.2-2.1.4-3.2.5l-2.1.3c-.7.1-1.3.2-2 .3h-.8c-.3.1-.7.1-1.1.1-.2 0-.4.1-.6.1-.8 0-1.6.1-2.5.1h-5.7c-2.2-.1-4.3-.3-6.4-.5-.2-.1-.4-.1-.7-.1-1.4-.2-2.7-.4-4.1-.7-1.1-.2-2.1-.4-3.2-.7-2.2-.4-4.4-1.1-6.5-1.8-1.3-.4-2.7-.9-4-1.4-1.7-.7-3.4-1.4-5-2.2-.7-.3-1.3-.6-1.9-.9-1.5-.8-3.1-1.6-4.5-2.5-2.5-1.4-4.8-3.1-7.1-4.8-.5-.3-1-.7-1.5-1.1-1.4-1.1-2.8-2.4-4.2-3.7-.7-.6-1.5-1.3-2.1-2l-1.3-1.3c-1.2-1.3-2.3-2.6-3.5-3.9-.3-.4-.7-.9-1.1-1.3-.5-.8-1.1-1.4-1.6-2.2-.5-.6-.9-1.2-1.4-1.9-.7-1-1.4-2-2-3.1-.4-.7-.8-1.4-1.3-2.1-.9-1.5-1.7-3-2.4-4.6-1.2-2.3-2.3-4.8-3.1-7.3-.2-.4-.3-.8-.5-1.2-.2-.4-.3-.9-.4-1.4-.2-.3-.3-.6-.4-.9-.4-1.6-.9-3.2-1.3-4.8-.4-1.7-.8-3.5-1-5.3-.2-1.4-.5-2.9-.6-4.3-.3-3.3-.5-6.6-.5-10.1.1-.2.1-.4.1-.6 0-1.1.1-2.1.1-3.2.1-.9.2-1.7.3-2.6.2-1.7.4-3.3.7-5 .5-2.5 1.1-5 1.8-7.4l.6-2.1c.1-.3.2-.5.2-.8.6-1.7 1.2-3.5 1.9-5.1.4-1 .9-2 1.3-3 .1-.2.2-.5.3-.7.2-.4.4-.8.6-1.3.5-.8.9-1.7 1.4-2.5 1-2 2.2-4 3.5-5.9 1.3-1.9 2.6-3.7 4-5.5.6-.9 1.3-1.6 2-2.4.6-.7 1.1-1.3 1.7-2l1.5-1.5c.9-1 1.9-1.9 2.9-2.8 1.5-1.4 3-2.7 4.6-3.9 1.3-1 2.6-2 4-2.9.8-.5 1.6-1.1 2.5-1.6.5-.3 1.1-.7 1.6-1 1-.6 2-1.2 3.1-1.7l2.4-1.2c3.5-1.7 7-3.1 10.7-4.2 1.7-.5 3.3-1 5-1.4.4-.1.9-.2 1.4-.3.2 0 .4-.1.6-.1.1-.1.4-.1.5-.1.2-.1.5-.1.7-.1l.1-.1c.1 0 .4-.1.5-.1h.4c.1-.1.2-.1.3-.1h.4c.1-.1.3-.1.4-.1h.2c0-.1.1-.1.1-.1h.5c.1 0 .1-.1.2-.1h.5c.1 0 .1-.1.2-.1h.4c.1-.1.2-.1.3-.1h.5c.1 0 .2 0 .2-.1h.6c.1-.1.2-.1.3-.1h.4c.1-.1.3 0 .4 0 .1 0 .1 0 .2-.1h.7c.1-.1.2 0 .3 0 .1-.1.2-.1.4-.1h.6c.1-.1.6-.1.8-.1h.5c.1-.1.5 0 .6 0 .1-.1.3 0 .4 0 .1-.1.6-.1.8-.1h.6z" class="a"/><path d="M35.8 100.8c-.1.1-.1.2-.1.3 0 .4.2.8.3 1.2.2.8.4 1.5.6 2.3 0 .2.2.6.1.9-.1.3-1 .6-1.3.8-.6.4-1.2.7-1.8 1.1-.1.1-1 .5-.9.7.1.1.2.1.2.1.2.1.3 0 .5.1.3 0 .7.1 1 .1.4 0 .8.1 1.2.2h.4c.3 0 .6.1 1 .1.1 0 .3 0 .5.2s.3 1 .3 1.3c.2.5.3 1.1.5 1.6l.3 1.2c0 .1.1.2.2.2.3 0 .5-.8.6-1 .2-.6.4-1.1.6-1.6.1-.3.3-.6.4-.9.1-.3.1-.5.3-.7.3-.2.8 0 1.1 0h.5c.2 0 .5.1.8.1.4 0 .7 0 1.1.1.4 0 .8.1 1.3.1 0-.1.2-.1.1-.3 0-.1-.1-.2-.2-.3-.5-.5-1.1-.8-1.6-1.3l-1-1c-.3-.2-.6-.4-.6-.7-.1-.2.1-.5.2-.7.3-.8.7-1.6 1.1-2.4.1-.3.2-.5.3-.8.1-.1.1-.2 0-.2-.1-.4-.8.1-1 .2-.3.1-.6.3-.9.5-.4.3-.9.6-1.3.8-.3.2-.8.6-1.1.5-.3 0-.6-.3-.8-.5-.5-.4-.9-.8-1.4-1.2-.2-.2-.4-.4-.6-.5-.3-.3-.6-.6-.9-.6zM47 87.7c-.3.1 0 .9 0 1.2l.3.9c0 .2.1.4.1.6.1.4.2.7.3 1.1.1.2.2.6.2.8-.1.3-.7.6-.9.7-.6.4-1.2.7-1.8 1.1-.3.1-.7.3-1 .5-.1.1-.2.1-.3.2 0 .1-.1.1-.1.1 0 .3.9.4 1.2.4.2 0 .4 0 .7.1.4 0 .8 0 1.3.1.2 0 .5 0 .7.1.3 0 .7-.1.9.1.2.2.2.7.3 1l.6 2.4c.1.2.1.5.2.8l.2.2c.3 0 .5-.8.6-1 .2-.6.5-1.2.7-1.8.2-.4.4-1.1.7-1.4.3-.2 1.2.1 1.6.1h.7c.1 0 .3.1.4.1h.8c.2.1.3.1.5.1h.3c.2 0 .3.1.5.1.1 0 .1-.1.1-.1.1-.2 0-.3-.1-.4-.6-.5-1.1-.9-1.7-1.4-.2-.2-.4-.4-.7-.6-.2-.3-.9-.7-1-1.1 0-.3.2-.7.3-.9.3-.8.7-1.5 1.1-2.3l.3-.9c.1-.1.1-.2.1-.3-.2-.3-.6.1-.8.2-.1 0-.2.1-.3.2-.4.2-.7.4-1.1.6-.4.3-.9.6-1.3.8-.3.2-.6.5-.9.5-.3 0-.9-.6-1.1-.9-.3-.3-.7-.6-1.1-.9-.3-.2-.6-.4-.8-.7-.3-.2-.4-.4-.7-.4zm-14.8-1.2c-.1.1-.2.1-.2.3 0 .1.1.3.1.4.1.3.2.7.3 1 .1.3.1.7.2 1 .1.4.3.8.4 1.2 0 .2.2.5.1.8-.1.2-.6.5-.8.6-.3.2-.5.4-.8.6-.3.1-.6.3-.9.5-.2.1-.3.2-.5.3-.1.1-1 .4-.8.7.1.2 2.8.4 3.3.4.3.1 1.1 0 1.3.2.2.2.2.4.3.6 0 .2.1.5.1.7.2.9.4 1.8.7 2.6.1.1.2.4.3.4.1 0 .1 0 .2-.1.2-.2.2-.6.4-.8.1-.5.3-1 .5-1.5l.3-.9c.1-.3.2-.6.4-.8.1 0 .1-.1.2-.1h.4c.4 0 .8 0 1.1.1.6 0 1.2.1 1.9.1.3 0 .6.1.9.1h.4c0-.1.1-.2.1-.2-.1-.3-.4-.4-.6-.6-.4-.4-.9-.7-1.3-1.1-.3-.2-.6-.5-.8-.7-.3-.2-.6-.4-.8-.7-.1-.1-.1-.2-.1-.3.1-.2.1-.3.2-.4.1-.3.2-.5.3-.8.3-.6.5-1.2.8-1.8.1-.3.6-1.1.5-1.3-.2-.3-.9.3-1.1.4-.3.2-.7.4-1 .6-.5.4-1 .7-1.5 1-.2.1-.5.4-.8.4-.3-.1-.5-.4-.7-.5-.1-.1-.2-.2-.3-.2-.5-.4-1-.8-1.5-1.3l-1.2-.9zM58 74.8v.1c-.2.1.1.9.1 1.1l.6 2.1v.3c.1.3.3.9.3 1.1-.1.2-.4.4-.6.5-.6.4-1.2.7-1.8 1.1-.3.1-.5.3-.8.4-.1.1-.8.4-.8.6-.1.3.5.2.7.3h.3c.2 0 .5.1.7.1.7.1 1.4.1 2.1.2.2 0 .6 0 .8.1.3.2.3.6.3.9.1.4.2.7.3 1.1 0 .1.1.3.1.5.1.3.2.7.3 1 .1.2.1.5.2.7 0 .1.1.2.2.2.3 0 .5-.8.6-.9.1-.4.2-.7.3-1 .2-.3.3-.6.4-1 .2-.3.4-1 .7-1.2.2-.2.8 0 1.1 0 .4 0 .7.1 1.1.1.3 0 .6 0 .9.1.3 0 .7 0 1 .1h.6c.1 0 .2-.2.2-.2-.1-.2-.3-.4-.5-.5-.2-.2-.4-.4-.7-.6-.2-.3-.5-.5-.8-.7-.3-.3-.6-.6-1-.9-.1-.2-.4-.3-.5-.6 0-.2.1-.4.2-.6 0-.1.1-.3.1-.4.4-.8.7-1.5 1-2.3.1-.1.6-.9.3-1-.2-.1-.6.2-.7.3-.2.1-.4.2-.5.3-.7.3-1.3.7-1.9 1.1-.3.1-.6.4-.9.5h-.3c-.2-.1-.3-.2-.5-.4-.1-.1-.3-.3-.5-.4-.5-.5-1.1-1-1.6-1.4-.3-.2-.7-.7-1.1-.8zm-14.9-1.2c-.1.1-.1.4 0 .6.2.9.5 1.9.7 2.9.1.2.1.4.2.6 0 .2.1.3.1.5-.1.3-.5.4-.7.6-.2.1-.4.3-.7.5-.2.1-.5.2-.7.3-.2.2-.4.3-.6.4-.3.2-1.3.6-1.3.9 0 .1 0 .1.1.2h.3c.2.1.5.1.7.1.4 0 .8.1 1.1.2h.9c.3 0 .6 0 .8.1.3 0 .7 0 .8.1.3.2.3.7.4 1l.3 1.5c.1.4.2.7.3 1.1.1.2.1.3.2.5 0 .1.1.3.3.3l.2-.2c.2-.3.3-.7.4-1.1.3-.6.5-1.3.8-2 .1-.3.2-.6.4-.8.3-.3 1.5-.1 1.9 0h.8c.2 0 .5.1.7.1.5 0 .9.1 1.4.1 0-.1.2-.2.2-.2-.1-.3-.7-.7-1-1-.2-.2-.5-.3-.7-.5-.1-.1-.2-.3-.4-.4-.2-.2-.4-.4-.7-.6-.2-.2-.7-.5-.8-.8 0-.3.2-.7.3-1 .1-.2.2-.4.2-.5.3-.7.6-1.4.9-2 .1-.1.6-1.1.2-1.1-.4.1-.6.4-.9.5-.7.5-1.4.8-2 1.3-.3.2-1 .7-1.4.7-.3-.1-.7-.5-.9-.8-.3-.2-.6-.4-.9-.7-.4-.3-.8-.6-1.2-1-.2-.1-.4-.3-.7-.4zm26-11.8c-.3.2.1 1 .1 1.2l.6 2.1c.1.2.2.5.2.8.1.2.2.4.1.6 0 .1-.1.2-.2.3-.2.2-.4.3-.7.4-.8.5-1.6 1-2.4 1.4-.1.1-.6.3-.6.5-.1.2.8.3 1 .3.3 0 .6.1.9.1h.5c.2.1.5.1.7.1.4 0 1.3 0 1.6.3.2.1.3 1 .4 1.3 0 .2.1.5.2.7.1.4.1.8.3 1.2 0 .3.1.6.2.8 0 .1.1.3.2.3.3 0 .6-.8.6-1 .2-.4.3-.7.4-1.1.1-.2.2-.5.3-.7.2-.4.3-.7.5-1.1 0-.1.1-.2.2-.3.3-.2.6 0 .9 0 .7 0 1.3.1 2 .2h.9c.3 0 .5.1.8.1l.1-.1c.1 0 .1-.1.2-.1-.1-.2-.4-.4-.6-.6-.5-.5-1.1-.9-1.7-1.4-.2-.1-.4-.4-.5-.5-.3-.2-.7-.4-.7-.8-.1-.3.1-.5.2-.8.3-.9.8-1.7 1.1-2.6.1-.2.6-1 .2-1.1-.2-.1-.6.3-.8.4-.1.1-.2.1-.4.2l-1.2.9c-.2.1-.5.2-.7.4-.3.1-.8.5-1.2.4-.3 0-.5-.3-.7-.5-.5-.4-1-.8-1.4-1.1l-.3-.3c-.2-.1-.4-.3-.6-.5-.2-.2-.4-.4-.7-.4zm-15-1.4c0 .1-.1.1-.1.2 0 .3.1.6.2.9.2.9.5 1.8.7 2.7.1.3.2.6.2.8-.1.3-.6.5-.9.7-.4.2-.9.5-1.3.8-.4.2-.8.4-1.2.7-.1.1-.5.2-.6.4-.1.4.9.4 1.1.4h.9c.2.1.4.1.6.1.3.1.6.1.9.1.3 0 1 0 1.2.2.3.2.3.6.4.9.1.6.2 1.2.4 1.8 0 .2.1.4.2.6 0 .3.1.6.2.8.1.1.1.2.2.2.2.1.5-.8.6-.9.2-.5.3-.9.5-1.4.1-.2.2-.5.3-.8.1-.3.2-.7.4-.9.1-.1.3-.2.4-.2.2-.1 1 0 1.3 0 .1.1.2.1.3.1.5 0 .9.1 1.3.1h.9c.2 0 .5.1.7.1.3-.2.2-.3-.1-.5-.4-.4-.8-.7-1.2-1-.5-.4-.9-.8-1.4-1.2-.2-.2-.7-.5-.7-.8-.1-.3.3-1 .4-1.2.3-.6.5-1.1.8-1.7 0-.1.1-.3.2-.4.1-.3.2-.6.3-.8V61c-.2-.3-.9.3-1.1.4-.6.4-1.2.8-1.8 1.1-.2.2-.4.3-.6.4-.1.1-.3.1-.4.2-.1.1-.3.1-.4.1-.3 0-.7-.4-1-.6-.5-.5-1.1-1-1.7-1.5-.3-.2-.7-.6-1.1-.7zm-14.8-1.9v.1c-.3.1 0 .9.1 1.1 0 .3.1.6.2.9.1.6.2 1.2.4 1.8 0 .3.2.6.1.9-.1.3-.4.4-.6.5-.2.2-.5.3-.8.5-.1.1-.3.2-.4.3-.4.2-2.4 1.3-2.5 1.5 0 .1 0 .2.1.2.1.1.2.1.3.1.2 0 .5.1.7.1 1.1 0 2.1.1 3.1.2.3.1.6 0 .8.2.3.3.3.8.4 1.2.1.4.1.8.2 1.2.1.4.2.9.3 1.3.1.3.2 1.1.4 1.2.1 0 .2 0 .2-.1.1 0 .1-.1.1-.2.1-.3.3-.5.4-.8.2-.6.5-1.2.8-1.8 0-.1.1-.3.2-.4.1-.3.2-.5.3-.8.1-.2.1-.4.3-.5.2-.2 1.7 0 2.1 0 .2 0 .4 0 .6.1.8 0 1.5.1 2.3.1.1 0 .2 0 .2-.2s-.3-.4-.5-.5c-.2-.3-.5-.5-.8-.7-.2-.3-.5-.5-.8-.7-.4-.3-.6-.5-.9-.8-.3-.2-.8-.5-.8-.8 0-.3.2-.5.3-.8.2-.4.3-.8.5-1.2.1-.2.2-.4.3-.5.1-.4.3-.7.4-1.1.1-.2.2-.4.2-.6.1 0 .1-.1.1-.2-.2-.3-1 .3-1.1.4-.5.3-1.1.5-1.5.9-.4.2-.8.5-1.2.7-.2.1-.4.2-.6.2-.3 0-.6-.3-.8-.5-.6-.5-1.2-.9-1.7-1.4-.3-.2-.5-.5-.8-.7-.2-.1-.3-.3-.6-.4zM80 48.9v.1c-.1 0-.1.1-.1.3 0 .2 0 .3.1.5 0 .2.1.4.2.6.1.7.3 1.3.5 2 .1.2.3.9.2 1.2-.1.3-.6.6-.9.8l-.6.3c-.4.3-.9.5-1.4.8-.1.1-.9.6-.9.7 0 .3.8.3 1 .3.7.1 1.4.2 2.1.2.4.1 1.2.1 1.5.3.3.2.3.9.4 1.2.1.5.2.9.3 1.3.1.3.2.6.3 1 0 .2.1.7.3.8.3.1.5-.7.6-.9.2-.6.5-1.1.7-1.7.1-.4.5-1.4.8-1.6.2-.1.5 0 .7 0 .4 0 .8.1 1.2.1.3 0 .6.1 1 .1.3.1.6 0 .9.1.2 0 .8.1.9-.1.1 0 .1-.1 0-.2l-.3-.3c-.1-.1-.3-.2-.4-.4-.3-.3-.6-.5-1-.7-.3-.3-.6-.7-1-1-.2-.2-.6-.4-.7-.8-.1-.2.1-.4.2-.6.1-.3.2-.5.3-.7.2-.5.4-.9.6-1.4.1-.2.7-1.4.6-1.6-.1-.4-.9.2-1.1.3-.5.3-.9.7-1.4 1-.3.1-.6.3-.8.4-.3.2-.7.5-1.1.5-.3 0-.6-.4-.8-.6-.6-.5-1.3-1.1-2-1.6-.2-.2-.5-.6-.9-.7zm-14.7-1.5c-.3.2 0 .9.1 1.2.2.6.3 1.3.5 1.9l.3.9c0 .2.1.4.1.6-.1.2-.3.3-.5.5-.4.3-.9.5-1.3.8-.3.2-.6.3-.9.5-.2.2-.5.3-.8.5-.1.1-.3.2-.4.3v.1c-.1.2.8.2 1 .3.6 0 1.2.1 1.8.2h1.3c.1.1.4.1.5.2.3.2.3.7.4 1.1 0 .2.1.4.1.6.1.3.2.7.2 1 .1.2.2.4.2.5.1.3.1.7.3.9 0 .1.1.2.2.2.2.1.5-.8.6-1 .2-.6.4-1.1.6-1.7.2-.4.3-1.1.7-1.4.1-.1.2-.1.4-.1.3 0 .7 0 1.1.1.5.1 1 0 1.6.1.5 0 1.1.1 1.6.1.1 0 .2-.1.2-.2-.1-.3-.5-.6-.8-.8-.6-.5-1.2-1-1.9-1.6-.2-.2-.7-.5-.8-.8-.1-.1-.1-.2 0-.3.1-.4.3-.9.5-1.3.3-.7.7-1.4 1-2.1.1-.2.3-.6.2-.8-.1-.4-.9.3-1.1.4-.2.2-.5.3-.7.4-.4.2-.7.5-1.1.7-.3.2-.6.5-1 .7-.1 0-.3.1-.4.1-.4 0-.8-.4-1.1-.7-.4-.3-.8-.7-1.2-1-.2-.2-.5-.4-.7-.5-.3-.3-.5-.6-.8-.6zm-15.3-2c0 .1-.1.1-.1.2 0 .2.1.8.2 1 0 .3.1.5.1.8.1.2.1.3.1.5.1.1.1.2.1.3.1.1.1.2.1.3 0 .3.1.6.1.8.1.3.2.7.1.9-.1.2-.7.6-.9.7-.8.4-1.5.9-2.3 1.4-.2.1-1 .5-1 .7 0 .2.8.3 1 .3.4.1.8.1 1.2.1.2 0 .5.1.7.1.4 0 .8 0 1.2.1.3 0 .6 0 .8.2.2.2.3.7.4 1 0 .5.2.9.3 1.4 0 .2 0 .4.1.6 0 .2.1.3.1.5.1.4.1.8.3 1.1 0 .1 0 .1.1.2.2.1.4-.5.5-.6 0-.1.1-.3.2-.4.2-.4.3-.9.5-1.3.1-.2.2-.4.3-.5 0-.2.1-.3.2-.5 0-.1.1-.2.2-.4s.2-.7.5-.9c.3-.1 1 0 1.3.1.6 0 1.2 0 1.8.1.3 0 1.9.3 2 .1.3-.2-.5-.8-.7-1-.7-.5-1.3-1.1-2-1.6l-.4-.4c-.2-.1-.5-.3-.6-.6-.1-.3.2-.9.3-1.1l.3-.6c.1-.2.2-.3.3-.5 0-.1 0-.3.1-.4.1-.1.2-.3.2-.5.1-.1.2-.3.2-.4.1-.2.2-.5.4-.7v-.3c-.1-.3-.9.3-1.1.4-.4.2-.7.4-1.1.6-.1.1-.3.2-.5.3-.4.3-.8.5-1.2.7-.2.1-.3.3-.6.2-.3 0-.7-.5-1-.7-.2-.2-.5-.4-.7-.6-.3-.2-.5-.5-.8-.7-.2-.1-.4-.3-.6-.5-.2-.2-.4-.4-.7-.5zm42.3-10.3c-.1.1-.1.2-.2.3 0 .3.2.7.2 1.1.1.2.1.4.2.7 0 .2.1.4.1.6.1.4.2.7.3 1.1.1.3.2.8.1 1.1-.1.3-.8.6-1.1.8-.7.4-1.5.9-2.2 1.3-.2.1-1 .5-.9.7.1.2.6.2.8.2.2 0 .4.1.5.1h.6c.2 0 .3.1.4.1h1.3c.2.1.5.1.7.1.2.1.5.1.6.2.2.2.2.5.3.8.2.7.3 1.5.5 2.3 0 .2.1.4.1.7.1.2.1 1.2.4 1.2.2-.1.6-.9.6-1.1l.3-.6c.1-.3.2-.6.4-.9.1-.3.3-.7.4-1.1.2-.2.3-.9.6-1 .2-.1.5 0 .7 0 .6 0 1.1.1 1.7.1.5.1 1 .1 1.5.1.2.1 1.2.2 1.3 0v-.2c-.1-.1-.2-.2-.3-.2l-.5-.5-2.1-1.8c-.2-.1-.8-.6-.8-.8-.1-.2.1-.7.2-.9.3-.6.6-1.3.8-1.9.1-.1.2-.3.2-.4.1-.2.1-.3.2-.5 0-.1.1-.3.2-.4 0-.1 0-.2-.1-.2-.1-.3-.8.2-1 .3-.3.2-.6.3-.9.5-.2.1-.4.3-.7.4-.2.1-.4.3-.7.4-.3.2-.5.5-.9.4-.4 0-.9-.6-1.2-.9-.3-.2-.6-.5-1-.8-.3-.2-.6-.5-.9-.8-.2-.2-.5-.4-.7-.6zm-15.9-.9c-.3.1.1.9.2 1.2 0 .2 0 .4.1.6.1.5.3 1 .4 1.6.1.3.4.9.3 1.2-.1.4-1.5 1.1-1.9 1.3-.4.3-.9.6-1.3.8-.2.1-.6.4-.7.5-.1.3.9.3 1.1.3.5 0 .9.1 1.4.2h.4c.3 0 .6 0 .8.1.4 0 .7 0 .9.1.3.2.2.6.3.8.1.2.1.3.1.4.2.6.2 1.1.4 1.7 0 .1.1.2.1.4.1.3.1.6.3.9 0 .1.1.2.2.2.2.1.5-.8.5-1 .2-.5.5-1.1.7-1.6.1-.4.2-.7.4-1 0-.2.1-.4.3-.6.2-.2.8 0 1.1 0 .1 0 .3 0 .5.1h1.2c.7.1 1.3.2 2 .2.1 0 .2-.1.2-.2-.1-.2-1.7-1.5-2-1.7-.3-.3-.6-.5-.9-.8-.2-.2-.7-.5-.7-.7-.1-.4.2-.8.3-1.1.1-.1.2-.3.2-.4l.3-.6c.1-.2.2-.5.3-.8.1-.2.2-.3.2-.4.2-.3.3-.5.4-.7 0-.1.1-.2 0-.4-.1-.3-.9.3-1 .4-.4.2-.7.4-1.1.6-.4.3-.8.5-1.2.8-.3.1-.7.5-1 .4-.3 0-.5-.2-.7-.4-.2-.1-.3-.3-.5-.5l-1.2-.9c-.2-.1-.4-.3-.6-.5-.2-.2-.5-.5-.8-.5zm-15.7-1.5c-.1.1-.1.2-.1.3 0 .2.1.3.1.5.1.2.1.4.2.7.1.4.2.9.4 1.4 0 .2.1.4.1.6.1.2.4 1 .3 1.3-.1.3-.6.4-.8.6-.7.5-1.5.9-2.3 1.4-.1.1-.3.2-.4.3-.2 0-.3.1-.4.2v.2c.1.2.4.1.6.1.1 0 .2.1.4.1s.5 0 .8.1h.5c.6 0 1.2.1 1.7.2.3 0 .6-.1.7.1.3.2.3.7.4 1 .2 1 .4 2 .7 2.9.1.1.2.4.3.4.1 0 .2-.1.2-.2.2-.2.2-.5.3-.7.2-.6.5-1.1.7-1.7.1-.4.3-1.4.8-1.6.1-.1.4-.1.6 0h.9c.4.1.8 0 1.2.1.3 0 1.9.2 2.1 0v-.2l-.3-.3c-.2-.1-.3-.2-.5-.3L68.4 39c-.2-.2-.4-.4-.5-.6-.3-.2-.7-.4-.8-.7 0-.3.3-.9.4-1.1.1-.2.2-.5.3-.7.2-.4.3-.8.5-1.2.2-.4.4-.8.5-1.2 0-.1.1-.2 0-.2-.1-.3-.9.3-1.1.4-.6.4-1.2.8-1.8 1.1-.4.3-1.1.8-1.5.8-.2 0-.7-.5-.9-.7l-1.8-1.5c-.3-.2-.6-.6-1-.7zm35.5-10c.7 0 1.4 0 2.1.1h.7c.4.1.8.1 1.2.1.5.1 1.1.1 1.7.2h.5c.3.1 1.2.1 1.5.2 0 .1.1.2.1.3.2.5.3 1.1.4 1.6.1.3.2.6.2.9 0 .2-.1.3-.2.4-.3.3-.6.4-.9.6-.6.4-1.2.8-1.9 1.2-.1.1-1 .5-.9.7 0 .1.1.1.1.1.3.1.7.1 1.1.2.6 0 1.3.1 2 .1.4.1 1.3 0 1.6.3.1.1.2.3.2.5.2.4.2.7.3 1.1.1.4.2.8.4 1.2 0 .2.1.5.2.7 0 .2 0 .3.1.4 0 .3 0 .7.3.7.1 0 .2-.1.2-.2.2-.4.3-.7.5-1.1.3-.7.6-1.4.8-2 .1-.3.3-.9.6-1.1h.5c.5 0 1 0 1.5.1h.4c.4.1.9.1 1.4.1.2.1 1.1.2 1.2 0 .1-.1 0-.1 0-.2l-.3-.3c-.2-.1-.3-.3-.5-.4-.2-.2-.4-.3-.6-.5-.1 0-.1-.1-.2-.2-.4-.3-.7-.6-1-.8-.3-.3-.6-.5-.8-.8-.1-.1-.2-.2-.2-.4 0-.3.2-.6.4-.9 0-.2.1-.4.2-.7.1 0 .1-.1.2-.1.2-.1.4 0 .6 0 .4.1.9.2 1.3.3.9.3 1.9.5 2.8.8.4.1.9.3 1.4.4.4.2.9.3 1.3.4.1.1.3.2.3.2-.1.2-.3.4-.5.6-.3.4-.7.7-1 1.1-.5.7-1 1.3-1.5 1.9-.6.6-1.1 1.2-1.6 1.8-.1.2-.3.3-.4.5-.2.3-.5.5-.7.8l-.7.7c-.3.4-.5.7-.8 1.1-.1.1-.2.1-.2.2l-.4.4c-.4.5-.8.9-1.1 1.3-.2.2-.4.4-.5.6-.2.2-.4.5-.6.7-.2.2-.4.4-.5.6-.1.1-.2.3-.3.4-.8.9-1.6 1.8-2.3 2.7-1.6 1.7-3.1 3.5-4.6 5.3-.5.6-1.1 1.3-1.7 2l-.4.4c-.2.2-.4.4-.6.7-.2.2-.4.5-.6.7-.2.2-.4.4-.5.6l-.5.5c-.1.2-.3.4-.4.6l-.3.3c-1.6 1.8-3.1 3.7-4.8 5.5-.2.3-.5.7-.8 1-.1.2-.3.3-.5.5-.5.7-1.1 1.4-1.7 2.1l-.4.4c-.1.1-.2.1-.3.2-.1.2-.2.3-.3.5-.2.2-.4.5-.6.7-.1.1-.2.2-.3.4-.4.5-.9 1-1.3 1.5-.5.5-.9 1-1.3 1.5-.3.4-.7.7-1 1.1-.1.2-.3.4-.5.6-.2.3-.4.5-.7.8-.3.4-.7.9-1.1 1.3-.2.2-.3.5-.5.7l-.3.3c-.2.2-.3.3-.4.5l-.3.3c-.1.2-.2.3-.3.4l-.8.8c-.1.1-.2.3-.3.4-.7.8-1.3 1.6-2 2.4-.2.2-.5.4-.7.7-.2.2-.4.5-.6.8-.2.2-.4.3-.5.5-.1.1-.2.2-.2.3l-.6.6c-.1.1-.2.3-.3.4l-.3.3c-.2.1-.3.3-.4.5-.1.1-.2.3-.4.5l-.4.4c-.3.3-.5.7-.8 1-.4.4-.7.8-1 1.1-.3.4-.6.7-.9 1.1-.9 1-1.7 2-2.6 3.1-1.3 1.4-2.5 2.9-3.8 4.3-.1.2-.3.4-.5.6-.4.4-.7.8-1 1.2-.9 1-1.7 1.9-2.5 2.9l-.3.3c-.1.2-.3.3-.4.5-.2.2-.4.4-.6.7l-.4.4c-.1.1-.2.3-.4.5-.9 1.1-1.8 2.2-2.8 3.3-.5.5-.9 1.1-1.4 1.6-.4.4-.7.8-1.1 1.3-.5.6-1.1 1.2-1.7 1.9l-1.2 1.5-.5.5c-.2.3-.4.5-.6.7l-.3.3c-.1.2-.2.3-.3.4l-1.5 1.8c-.5.5-.9 1-1.4 1.5-.2.3-.4.6-.7.8-.2.4-.5.7-.8 1-.2.2-.3.4-.5.6-.2.2-.4.4-.5.6-1.4 1.5-2.6 3.1-4 4.6-1.3 1.5-2.6 3-3.8 4.5-.2.2-1.2 1.5-1.4 1.5-.3 0-.6-.9-.7-1l-.3-.6-.3-.6c-.3-.5-.5-1-.7-1.5-.2-.4-.5-.7-.6-1.2 0-.1 0-.2.1-.3.1-.2.2-.3.4-.4.1 0 .3.1.4.1h.9c.9.1 1.7.2 2.6.3.2 0 .7.1.8 0 .3-.3-.5-.8-.6-1-.3-.2-.6-.5-.9-.7l-.5-.5c-.3-.2-.6-.5-.9-.8-.1-.1-.4-.3-.4-.5-.1-.4.3-.9.4-1.2 0-.1.1-.3.1-.4.1-.1.2-.2.2-.4.1-.1.1-.3.2-.4l.3-.6c.1-.3.2-.5.3-.8.1-.2.3-.5.2-.8l-.1-.1c-.2.1-.5.2-.6.3-.1 0-.3.1-.4.2-.5.2-.9.5-1.4.8-.3.2-.6.3-.9.5-.2.2-.7.5-1 .6-.4 0-1-.7-1.2-.9-.3-.3-.6-.5-.8-.7-.3-.3-.3-.8-.4-1.2-.1-.2-.2-.3-.2-.5-.1-.2-.1-.5-.2-.7-.2-.7-.4-1.4-.5-2-.1-.3-.1-.5-.2-.7 0-.2-.1-.3-.1-.4 0-.4.2-.7.3-.9.1-.2.2-.4.2-.6.1-.2.2-.5.3-.7.1-.1.2-.3.3-.4.3-.1 1.1 0 1.5.1.5 0 1.1 0 1.7.1.4 0 .8.1 1.2.1h.4l.1-.1c-.1-.2-.2-.4-.4-.5-.3-.3-.7-.6-1-.9-.5-.4-1-.8-1.5-1.3-.2-.1-.6-.4-.6-.7-.1-.2.1-.5.2-.7.1-.4.3-.7.4-1.1.1-.1.2-.3.3-.5.1-.2.2-.4.3-.7 0-.1.1-.2.2-.3.1-.2.3-.8.3-1 0-.1 0-.2-.1-.2-.2-.1-1.1.6-1.4.7-.5.3-1 .7-1.5 1-.3.1-1.1.7-1.4.7-.3 0-.6-.4-.8-.6-.2-.1-.4-.3-.4-.5-.1-.2-.1-.3-.1-.5 0-.4-.1-.8-.1-1.2-.1-1.3-.2-2.6-.2-4v-1.3-.6s0-.1.1-.2c.2-.1 1.1.1 1.4.1.4 0 .9 0 1.3.1.5 0 1 .1 1.5.1.1-.1.2-.1.2-.3 0-.2-.4-.5-.6-.6-.2-.2-.5-.4-.7-.6-.5-.4-.9-.8-1.4-1.2-.3-.2-.6-.5-.8-.7-.1-.1-.2-.2-.2-.3 0-.3.2-.5.3-.8 0-.1 0-.2.1-.3 0-.1.1-.3.1-.4.2-.3.3-.6.4-.9l.6-1.2c.1-.2.3-.5.3-.8 0-.1-.2-.1-.3-.1-.2.1-.3.2-.5.3-.1.1-.3.1-.5.2s-.4.3-.6.4h-.2c-.2-.2.1-1.4.1-1.7.1-.5.2-1 .2-1.5.2-.9.3-1.7.5-2.6 0-.2.1-.4.1-.6 0-.2.1-.5.2-.6 0-.1.1-.1.1-.1.3-.1.6 0 .9.1h1c.7.1 1.4.1 2.1.2.3 0 .7 0 1 .2.1 0 .1.1.2.2.2.3.2.8.3 1.2.2.7.2 1.5.5 2.2 0 .1.1.3.2.4.1.2.1.5.3.5.2 0 .3-.1.3-.2.1-.1.2-.2.2-.4.1-.1.2-.3.2-.5.1-.1.1-.2.2-.4.2-.4.4-.8.5-1.3.2-.2.3-.5.4-.8.1-.2.2-.5.4-.6.2-.2.6-.1.8-.1.6 0 1.1.1 1.6.1.3.1.5.1.7.1.6 0 1.2.1 1.8.1.1 0 .3 0 .3-.2 0-.1-.2-.3-.2-.4-.3-.2-.6-.4-.8-.6-.7-.6-1.4-1.1-2.1-1.7-.2-.2-.7-.5-.7-.8 0-.1 0-.2.1-.3.1-.5.3-.9.5-1.3.1-.2.1-.3.2-.5s.3-.5.4-.8c0-.1.1-.3.1-.4.1-.2.3-.5.2-.7-.1-.1-.2-.3-.4-.3s-.4.2-.6.3l-1.5.9-.3.3c-.2.1-.5.2-.7.3-.2.2-.4.3-.7.3-.3 0-.5-.3-.7-.5-.9-.8-1.8-1.5-2.8-2.3 0-.1-.1-.1-.2-.1-.4 0-.1.9 0 1.1 0 .3.1.6.2.9.1.6.2 1.1.3 1.6.1.3.2.8.2 1.1-.1.3-1.2.9-1.5 1-.6.4-1.2.8-1.8 1.1-.2.1-.4.2-.5.3-.2.1-.3.2-.4.3-.1 0-.1 0-.2-.1s.7-2.9.8-3.3c0-.4.2-.7.3-1.1.1-.5.2-.9.4-1.4.6-1.9 1.2-3.7 1.9-5.5.3-.6.6-1.3.9-1.9.1-.2.1-.6.4-.8.1-.1.3 0 .5 0 .5 0 1 0 1.5.1h.5c.5 0 1.1.1 1.7.1.1-.2.1-.3-.1-.4-.3-.3-.6-.6-.9-.8-.3-.3-.7-.6-1-.9-.2-.2-.8-.7-.9-.9 0-.2.2-.4.2-.6.3-.5.5-1 .8-1.5l.9-1.5c.1-.2.2-.4.4-.6.2-.4.3-.7.5-1 .5-.7.9-1.5 1.4-2.2.3-.5.6-.9.9-1.4.2-.2.3-.4.4-.5.1-.1.1-.1.2-.1s.2.2.2.3c.1.3.2.7.2 1 .1.4.2.8.3 1.1.1.4.1.8.2 1.1.1.1.2.2.3.2 0-.1.1-.1.1-.2.2-.3.3-.7.5-1 .2-.6.5-1.2.7-1.7.1-.3.2-.5.3-.7.1-.3.2-.7.5-.8.3-.2.7-.1 1 0 .8 0 1.6.1 2.4.1.4 0 .8.1 1.3.1 0 0 .1-.1.1-.2-.1-.2-.5-.5-.6-.6l-.3-.3c-.2-.1-.3-.3-.5-.4-.4-.4-.9-.8-1.3-1.2-.2-.2-.6-.4-.7-.7-.1-.2 0-.4 0-.5.1-.3.2-.6.4-.9.1-.2.1-.3.2-.5 0-.1.1-.3.2-.5s.2-.5.3-.8c.1-.1.2-.3.3-.5.2-.3.5-.6.8-.9l.9-.9c.8-.7 1.5-1.4 2.3-2.2.2-.1 1.2-1.1 1.4-1 .1 0 .1.1.1.1.1.2.1.5.2.7 0 .2.1.5.1.7.1.1.1.3.2.5 0 .3.1.6.2.9 0 .1.1.2.2.2.2-.1.3-.5.4-.7.4-.8.7-1.7 1.1-2.5.1-.3.2-.5.3-.8 0-.1.1-.2.2-.3 0-.1.1-.1.2-.2h.5c.3.1.5.1.8.1.7.1 1.6.1 2.3.2.2 0 1 .1 1.1 0 .2-.1.1-.2 0-.3-.2-.3-.6-.5-.9-.8l-.6-.6c-.4-.4-.8-.7-1.2-1-.1-.2-.1-.3 0-.4.1-.2.3-.3.5-.4.2-.1.4-.2.6-.4 1.1-.7 2.1-1.3 3.2-2 1.5-1 3.1-1.9 4.8-2.7.7-.3 1.4-.7 2.2-1 .3-.2.7-.4 1.1-.5.3-.2.6-.3 1-.5.3-.1.6-.2.9-.4.6-.2 1.1-.4 1.7-.6.3-.1.6-.3.9-.3.3-.1.6 0 .9 0 .4 0 .7 0 1.1.1.3 0 .7 0 1.1.1.3 0 .7 0 1 .1l.3.3c.1.4.2.8.3 1.3l.3 1.5c0 .3.1.5.1.8.1.2.2 1.1.5 1.1 0 .1.1 0 .1 0 .1-.1.1-.3.2-.4.1-.2.2-.4.3-.7.1-.2.1-.3.2-.5.1-.1.1-.2.1-.3.2-.4.4-.7.5-1.1.1-.3.3-.6.4-.9.1-.2.2-.6.4-.7.2-.2.5-.1.8-.1.5 0 .9.1 1.4.1.5 0 .9.1 1.4.1.5.1 1 .1 1.5.1.1 0 .2 0 .2-.1.1-.2-.6-.8-.8-.9-.2-.1-.4-.3-.6-.4-.4-.4-.8-.8-1.3-1.1l-.6-.6-.3-.3c-.1 0-.1-.1-.1-.1 0-.1 0-.2.1-.2.1-.1.4-.1.5-.1.2-.1.4-.1.6-.1.1-.1.1-.1.2-.1.2 0 .4-.1.6-.1.1 0 .2-.1.3-.1h.5c.1-.1.2-.1.4-.1h.2c.1-.1.3-.1.5-.1h.1c.1 0 .1-.1.2-.1h.4c.1 0 .2-.1.2-.1H84.7l.1-.1h.5c.1 0 .1 0 .2-.1h.7s.1 0 .1-.1h.7s.1 0 .1-.1H88c0-.1.2 0 .2 0 .2-.1.3 0 .4.1.1.2.2.5.2.8.1.2.1.4.2.7 0 .1.1.2.1.3 0 .1-.1.2-.1.2-.2.3-.8.6-1.1.8-.5.3-.9.5-1.4.8-.1.1-.3.2-.5.3-.2.1-1 .5-1 .8 0 .2 1 .2 1.2.2.5 0 1 .1 1.4.2.4 0 .8 0 1.1.1.4 0 .9-.1 1.2.1.2.3.3 1 .4 1.4.2.7.4 1.4.5 2.1.1.2.2 1.1.5 1.1.1 0 .2-.1.3-.2 0-.2.1-.3.2-.5 0-.1.1-.3.2-.4 0-.2.1-.3.1-.5.1-.1.2-.2.2-.3.1-.2.1-.3.2-.5l.3-.6c.1-.3.4-1.1.7-1.2.2-.1.6-.1.9 0 .5 0 .9 0 1.4.1h.4c.4 0 .7.1 1.1.1.2 0 1.2.2 1.3-.1 0-.2-1.2-1.1-1.5-1.3-.2-.2-.4-.4-.7-.6-.1-.2-.3-.3-.4-.4-.2-.1-.4-.3-.6-.5-.2-.2-.5-.4-.5-.7 0-.3.3-.7.4-.9.1-.3.2-.5.3-.7 0-.1.1-.2.1-.3.1-.3.2-.6.5-.8z" class="a"/><path d="M120.5 27.6c.1.1.3.1.3.3-.1.1-.2.3-.3.4-.2.3-.4.5-.5.8-.4.5-.7 1-1 1.5-.4.6-.7 1.2-1 1.8-.2.3-.4.5-.5.8-.1.2-.2.4-.2.6-.1.2-.2.4-.4.6-.1.3-.1.6-.2.9l-.3.6c0 .2-.1.4-.1.5-1 3.2-1.6 6.7-1.6 10.4 0 1.5.1 2.9.3 4.2.1.8.2 1.6.4 2.3.1.6.2 1.1.3 1.6.2.7.3 1.5.5 2.2.1.3.2.7.3 1.1l.9 3c.4 1.1.7 2.2 1 3.3.2.6.4 1.2.6 1.9.5 1.4.9 2.8 1.4 4.2.3 1 .5 2.1.8 3.1.4 1.7.8 3.5 1.1 5.2.2 1.3.5 2.6.6 4 .2 1.6.3 3.2.2 4.8 0 2.2-.3 4.3-.8 6.2-.2.6-.3 1.2-.5 1.8-.4 1.1-.9 2.2-1.4 3.2-.2.2-.3.5-.4.7-.1.1-.2.2-.3.4-.2.3-.4.7-.6 1.1-.3.5-.6 1.1-1 1.6l-.3.3c-.2.3-.4.5-.6.7-.9 1-1.8 2.1-2.7 3.1-1.1 1.2-2.1 2.5-3.1 3.7-.3.4-.6.7-.9 1-.4.4-.8.8-1.1 1.3-.4.5-.9 1-1.3 1.5-.2.3-2 2.4-2.2 2.4 0-.3.3-.6.4-.9.2-.3.3-.5.5-.8.1-.2.2-.5.3-.7l.3-.9c.1-.2.2-.4.3-.7.1-.2.2-.5.3-.8.1-.2.2-.3.3-.5.2-.5.3-1 .4-1.5.1-.3.2-.7.3-1.1.1-.6.2-1.2.3-1.7.1-.8.2-1.6.3-2.3.1-.5.1-1 .1-1.4v-.7-.7c0-.6 0-1.3-.1-1.9v-.9c-.1-.2-.1-.4-.1-.7 0-.3-.1-.6-.1-.9-.2-2-.7-4-1.2-5.9-.2-.9-.4-1.7-.6-2.6-.2-.8-.4-1.5-.6-2.3-.1-.5-.3-.9-.4-1.4-.4-1.1-.7-2.3-1.1-3.4-.1-.5-.3-.9-.4-1.4-.3-.8-.6-1.7-.8-2.6-.2-.5-.4-.9-.5-1.4-.1-.4-.2-.8-.4-1.2l-.3-1.2c-.1-.1-.1-.2-.2-.4 0-.1-.1-.2-.1-.3-.1-.2-.1-.4-.2-.6-.2-.7-.3-1.3-.5-2-.3-1.3-.6-2.6-.8-3.9-.3-2-.4-4.1-.3-6.2.1-.3 0-.7.1-1 0-.6.1-1.2.2-1.7 0-.5 0-.9.1-1.3.1-.6.2-1.1.3-1.6v-.3-.2c.1-.1.1-.2.2-.3 0-.1.1-.2.1-.3l.6-2.1c.3-1 .7-2 1.2-3 .4-.8.8-1.7 1.2-2.5.8-1.2 1.7-2.5 2.6-3.7.3-.4.7-.9 1-1.4.6-.6 1.2-1.3 1.8-1.9.3-.4.6-.8 1-1.2.4-.5.8-1 1.3-1.5.9-1.1 1.8-2.2 2.8-3.3 0-.1.1-.2.2-.2.1-.1.1-.2.2-.2.2-.2.2-.4.4-.5.6-.8 1.3-1.5 1.9-2.3.5-.6.9-1.1 1.4-1.6.3-.4.6-.8.9-1.1M128.3 31.2c.3.1.5.2.7.4.6.3 1.3.7 1.9 1.1 2.2 1.2 4.4 2.7 6.4 4.2.9.6 1.7 1.3 2.5 1.9.8.7 1.7 1.4 2.5 2.2 1.1.9 2.1 1.9 3.1 2.9.8.8 1.5 1.6 2.3 2.4.2.2.4.5.6.7l.3.3c.1.3.2.9.3 1.2.1 1 .3 2 .4 2.9.1.4.1.9.1 1.3.5 4.6 0 9.3-1.5 13.2-.3.8-.7 1.5-1.1 2.2-.2.5-.4 1-.7 1.4-.4.6-.7 1.1-1.1 1.7-.1.2-.3.4-.4.6-.4.4-.8.9-1.1 1.3-.9 1-1.7 1.9-2.5 2.9-.4.4-.7.8-1.1 1.3-.3.4-.7.8-1.1 1.2-.2.3-.4.6-.6.8-.7.8-1.3 1.6-2 2.3-.3.4-.6.7-.9 1.1-.6.7-1.2 1.4-1.8 2-.1.2-.3.4-.4.6l-.4.4h-.1c0-.2.2-.4.3-.6l.3-.6c.1-.2.2-.4.4-.6.1-.2.1-.4.2-.6.1-.2.2-.3.3-.5.3-.4.4-.8.6-1.2.4-1.2.8-2.5 1-3.8.2-.8.4-1.6.5-2.4.1-.8.1-1.5.2-2.3V72v-1.5c0-2.9-.5-5.7-1.1-8.3-.5-2.5-1.1-5.1-1.8-7.5-.8-2.5-1.6-5.1-2.3-7.6-.3-.9-.6-1.7-.8-2.6-.3-1-.6-2-.8-3-.3-1.2-.6-2.4-.8-3.7-.1-.6-.2-1.1-.3-1.7-.1-.4-.1-.7-.2-1.1v-.3c0-.5-.1-1-.1-1.5v-.4c0-.4-.1-.9 0-1.4 0 0 .1-.1.1-.2M157.2 59.8c.1 0 .2 0 .2.1.1.1.2.3.3.5.1.2.3.5.4.8.3.5.6 1 .8 1.5.2.3.3.5.5.8.1.2.2.4.2.6.1.2 0 .5 0 .7 0 .2 0 .5-.1.7v.9c0 .6-.1 1.3-.1 2 .1 2.6.3 5.1.8 7.4.6 2.6 1.4 5.1 2.1 7.6.6 1.6 1.1 3.2 1.6 4.8.7 2.1 1.5 4.2 2 6.4 0 .1 0 .2.1.3 0 .2.1.4.2.6 0 .3.1.6.2.8v1c-.1.3-.1.7-.1 1 0 .8-.1 1.7-.1 2.5-.1.4-.1.8-.2 1.2 0 .3 0 .7-.1 1-.1.9-.2 1.7-.3 2.6-.1.5-.2 1-.2 1.5-.1.4-.2.9-.3 1.4-.1.6-.3 1.2-.4 1.8-.1.4-.2.8-.3 1.1l-.6 2.4c-.1.4-.2.7-.3 1.1-.3.9-.6 1.9-.9 2.8-.2.7-.5 1.5-.8 2.2-.9 2.5-2 5-3.2 7.3-.4.8-.8 1.5-1.1 2.2l-.9 1.5c-.9 1.6-1.9 3.1-3 4.7-.3.5-.7 1.1-1.1 1.6 0 0-.2.1-.2 0-.1-.1.3-.9.4-1 .5-1.2.8-2.3 1.1-3.6.2-.9.3-1.8.5-2.8 0-.5.1-1.1.1-1.6V127c0-.1.1-.3.1-.4 0-.5 0-1.1-.1-1.6v-1.6c-.1-1.7-.4-3.3-.6-4.9-.1-.6-.3-1.1-.4-1.7-.2-.8-.4-1.7-.6-2.5l-.3-1.2c-.2-1-.5-2-.8-3.1-.8-2.7-1.8-5.4-2.6-8.2-.1-.1-.1-.4-.2-.6 0-.1-.1-.2-.1-.3 0-.1-.1-.2-.1-.3-.1-.2-.2-.4-.2-.6-.2-.3-.2-.7-.3-1.1-.1-.2-.1-.3-.2-.5s-.2-.4-.3-.7c-.1-.5-.3-1-.4-1.6l-.6-2.1c-.1-.7-.3-1.4-.5-2.1 0-.4-.1-.8-.2-1.2-.1-1.1-.3-2.1-.3-3.2-.2-1.8-.2-3.7 0-5.5.1-.2.1-.4.1-.6 0-.5.1-1 .1-1.5.1-.8.3-1.6.5-2.4.1-.5.3-1 .4-1.5.2-.6.4-1.3.6-1.9.2-.5.4-1 .6-1.6.2-.3.4-.6.5-.9.2-.5.4-.9.6-1.3.3-.4.5-.9.8-1.3.4-.7.9-1.3 1.3-2l.6-.9c.4-.6.9-1.1 1.4-1.7.7-.8 1.4-1.7 2.2-2.5.4-.5.8-1 1.3-1.6.1-.1.3-.4.5-.5M92.4 60.3c.2.2-.4.9-.5 1-.6 1.1-1.2 2.3-1.8 3.4-.5 1.1-.9 2.2-1.2 3.3-.3 1-.6 2-.8 3.1-.2.8-.3 1.7-.4 2.5 0 .5-.1 1-.1 1.5-.1.7-.1 1.4-.1 2-.1.7 0 1.3 0 2 0 1 .1 2.1.3 3.1.2 2 .7 4 1.2 5.9.1.5.3 1.1.4 1.7.1.2.2.4.2.6.1.4.3.8.4 1.2.3 1.1.6 2.1 1 3.1 0 .3.1.6.2 1 .4 1.1.8 2.4 1.2 3.5.1.5.3 1 .4 1.4.3.9.6 1.9.9 2.8.4 1.4.7 2.8 1 4.2.2 1 .5 2 .6 3 .1.6.3 1.3.4 2 0 .3.1.6.1.9.1.8.2 1.6.2 2.4.1 1.9.1 3.9-.1 5.8-.1.3-.1.6-.2.9 0 .6-.1 1.2-.3 1.8-.1.9-.4 1.8-.7 2.7-.6 1.8-1.5 3.5-2.5 5.1-.2.4-.4.8-.7 1.3-.2.3-.5.6-.7.8-.6.6-1.2 1.3-1.7 1.9-.3.5-.7.9-1.1 1.3-.7.9-1.4 1.8-2.2 2.6l-2.1 2.4c-.3.4-.6.8-.9 1.1-.3.3-.6.7-.9 1-.2.3-.5.6-.7.9-.4.4-.7.8-1.1 1.2-.1.2-.3.4-.4.6l-.5.5c-.1.1-.2.3-.3.4h-.2c.2-.6.6-1.1.8-1.6.4-.7.7-1.3 1.1-2.1.1-.2.2-.5.3-.8.6-1.5.9-3 1.2-4.6.2-1 .3-2.1.4-3.1v-.6-1.3c0-.7-.1-1.5-.1-2.2-.1-1.4-.2-2.8-.4-4.2-.2-.5-.3-1.1-.4-1.6-.1-.7-.2-1.3-.3-2l-.3-1.2c-.1-.3-.1-.7-.2-1.1-.2-.6-.3-1.1-.5-1.7-.1-.6-.3-1.2-.5-1.8-.2-1-.6-2-.9-3-.2-.5-.3-.9-.4-1.4l-.6-1.8c0-.1 0-.3-.1-.4-.3-.9-.5-1.7-.7-2.5-.3-.9-.6-1.9-.9-2.9l-.3-.9c-.4-1.5-.8-3-1.1-4.5-.3-1.4-.6-2.8-.7-4.2-.1-1-.1-1.9-.1-2.9 0-1.4 0-2.8.2-4 0-.5.1-.9.1-1.4.3-1.8.7-3.6 1.3-5.2.2-.7.5-1.3.7-1.9.2-.5.5-1 .7-1.6.2-.3.4-.7.6-1 .2-.4.5-.9.7-1.3.7-1.2 1.5-2.3 2.4-3.4.4-.6.9-1.1 1.4-1.7.6-.7 1.3-1.5 2-2.3.3-.4.6-.7.9-1.1.9-1.1 1.9-2.2 2.8-3.3.9-.9 1.7-1.9 2.5-2.9.5-.5.9-1 1.4-1.6.2-.2.4-.5.7-.8M139 81c.1.1-.5.9-.6 1.1-.8 1.1-1.3 2.3-2 3.4-.1.3-.2.6-.4.9-.3.7-.6 1.4-.9 2.2-.6 1.8-1 3.6-1.4 5.5-.1.5-.1 1.1-.2 1.7 0 .3 0 .7-.1 1-.1 1-.1 2-.1 3 0 1.7.2 3.4.4 5 .1.6.2 1.1.3 1.7.2.4.3.9.4 1.4 0 .2.1.4.1.7.7 2.7 1.6 5.4 2.4 8 .4 1.1.7 2.1 1 3.1.5 1.4 1 2.9 1.5 4.3.3 1.3.7 2.6 1 3.9.4 1.6.8 3.2 1.1 4.9.1.3.1.7.2 1.1.4 2.5.6 5.2.5 8 0 .8 0 1.6-.2 2.4v.6c-.3 1.2-.5 2.4-.8 3.6-.1.3-.2.7-.4 1-.1.2-.3.4-.5.5-.3.2-.5.4-.7.6l-.9.6c-.8.6-1.5 1.2-2.4 1.8-1 .7-1.9 1.4-2.9 2-1.2.7-2.3 1.5-3.5 2.1l-.6.3c-.1.1-.2.2-.4.2-.1 0-.1 0-.2-.1v-.5c0-.3 0-.7.1-1-.1-.3-.1-.5-.1-.8 0-.9-.1-1.7-.1-2.6-.1-.7-.2-1.3-.3-2-.2-.9-.3-1.8-.5-2.7-.2-.8-.4-1.6-.5-2.3-.2-.9-.5-1.7-.7-2.5 0-.3-.1-.5-.1-.7l-.6-2.1c-.6-1.7-1.1-3.3-1.6-5-.3-.7-.5-1.4-.8-2.2-.1-.3-.2-.7-.3-1.1-.4-1.1-.8-2.2-1.1-3.4-.1-.3-.2-.7-.3-1.1-.6-1.8-1.1-3.7-1.4-5.6-.2-.8-.3-1.7-.5-2.6-.1-.9-.1-1.9-.1-2.9 0-.3-.1-.6-.1-1v-1.2c.1-.1.1-.2.1-.3v-.8c.1-.4.1-.9.2-1.4 0-.6.1-1.2.2-1.8.1-1.1.4-2.1.7-3.2.2-.7.4-1.5.6-2.2.6-1.7 1.4-3.3 2.3-4.8.8-1.2 1.6-2.4 2.5-3.6.2-.2.3-.5.4-.7.4-.5.8-1 1.2-1.4.4-.5.8-.9 1.1-1.3.5-.6 1-1.1 1.5-1.7.8-1 1.7-2.1 2.6-3.1.6-.6 1-1.2 1.6-1.8.5-.7 1.1-1.3 1.6-2 .1-.1.2-.3.3-.4.6-.6 1.1-1.3 1.6-1.9.2-.1.3-.3.5-.5l.3-.3M66 90.9c.2.1-.4 1-.5 1.2L64 94.5c-.2.4-.4.9-.6 1.3-.1.1-.1.2-.1.4-.1.1-.2.3-.2.5-.3.7-.6 1.4-.8 2.1-.2.8-.4 1.5-.6 2.3-.1.1-.1.3-.2.4 0 .2 0 .5-.1.7-.2.9-.3 1.8-.3 2.7-.1.2-.1.4-.1.6-.1.3-.1.6-.1 1-.1 1.5-.1 3.2 0 4.7.1 2.1.5 4.2 1 6.1.4 1.8.8 3.4 1.3 5.1.5 1.8 1.1 3.5 1.6 5.2.4 1.2.8 2.4 1.1 3.5l.9 2.7c.1.6.3 1.2.4 1.9.3 1 .6 2.2.8 3.3.1.5.2.9.4 1.4.2 1.2.4 2.5.6 3.8.1.6.2 1.3.2 1.9.1 1.1.1 2.3.1 3.4 0 2.8-.4 5.4-1.1 7.8-.2.5-1 3.1-1.4 3.3-.2 0-.7-.3-.9-.4-.3-.1-.7-.2-1-.4-1.7-.8-3.5-1.7-5.2-2.6-1.3-.7-2.6-1.5-3.9-2.3-.2-.2-.5-.3-.7-.5-.1-.1-.3-.2-.4-.3-.1-.3-.2-.9-.2-1.2l-.3-1.2c-.1-.5-.2-.9-.3-1.4-.1-.7-.3-1.3-.4-1.9-.2-.8-.4-1.6-.6-2.3-.2-.7-.5-1.4-.7-2.1-.2-.5-.3-1-.5-1.6l-.6-1.8c-.3-1.3-.7-2.5-1.1-3.8-.1-.4-.3-.9-.4-1.4-.2-.7-.4-1.3-.5-2-.4-1.4-.7-2.9-.9-4.4-.3-1.4-.4-2.8-.4-4.3v-1.8c0-1.6.2-3.2.4-4.7.1-.6.2-1.1.3-1.6.4-1.4.7-2.7 1.2-3.9.4-1.2.9-2.3 1.5-3.4.3-.5.5-.9.8-1.4.3-.5.6-1 1-1.4.3-.6.7-1.1 1.1-1.6.1-.2.2-.3.3-.5.5-.6 1-1.2 1.6-1.8.6-.8 1.3-1.6 2-2.4.4-.6 1-1.1 1.5-1.6.6-.7 1.2-1.4 1.8-2.2.5-.6 1.1-1.2 1.6-1.8.8-1 1.6-1.9 2.4-2.8.2-.3.5-.6.7-.9M113.4 110.8c.1.1-.5.9-.6 1.1-.2.4-.5.8-.7 1.2-.1.2-.3.4-.4.7-.3.4-.6.9-.9 1.4-1.3 2.8-2.3 5.8-2.8 9 0 .5 0 1.1-.1 1.7 0 .2-.1.5-.1.8v1c0 .6-.1 1.1-.1 1.7.1 1.7.2 3.3.4 4.9.1.5.2 1.1.3 1.6.2 1 .4 1.9.7 2.9.1.5.3 1 .4 1.5.1.6.3 1.2.5 1.8.2.7.5 1.5.7 2.2.1.4.3.8.4 1.1.4 1.4.9 2.7 1.3 4.1.1.3.3.6.4.9.1.5.3 1 .5 1.5.2.8.5 1.6.7 2.4.1.2.2.4.2.6.1.3.2.7.3 1 .1.4.2.8.3 1.1.1.7.3 1.3.4 1.9.1.2.2.4.2.7l.3 1.2c.1.3.5 1.9.4 2.1-.2.2-.4.2-.6.3-.8.3-1.7.5-2.6.7-.6.1-1.2.3-1.7.4-2 .5-4.1.9-6.2 1.2-.5.1-1.1.1-1.6.2-.4.1-.8.1-1.1.1-.2 0-.4.1-.6.1-.6 0-1.2.1-1.8.1-.2 0-.5.1-.7 0-.2-.2-.3-.6-.4-.9-.3-.9-.6-1.9-.9-2.8-.2-.6-.4-1.1-.6-1.6-.6-1.7-1.1-3.4-1.6-5 0-.3-.1-.6-.2-.9-.4-1.3-.6-2.7-.9-4-.3-1.7-.4-3.3-.5-5.1 0-1.3 0-2.8.2-4v-.6c0-.6.1-1.3.2-1.9.4-2.3 1-4.4 1.8-6.5l.9-1.8c.3-.5.5-1.1.8-1.6.3-.4.6-.8.8-1.2.3-.4.5-.7.7-1.1.7-1 1.6-1.9 2.4-2.9 1.1-1.2 2.1-2.4 3.1-3.6 1.4-1.6 2.8-3.2 4.1-4.7 1.5-1.7 2.8-3.4 4.3-5M41.2 119.9s-.1.1-.1.2c-.5.8-1.1 1.6-1.6 2.4-.9 1.4-1.6 2.8-2.2 4.3-.6 1.3-1 2.7-1.4 4.1-.2.8-.3 1.6-.5 2.4 0 .5 0 .9-.1 1.4 0 0 0 .1-.1.1 0 0 0 .1-.1.1-.5-.8-1.1-1.6-1.5-2.4-.3-.4-.5-.7-.7-1.1-.2-.3-.3-.5-.5-.8 0-.1-.2-.3-.1-.4 0-.2.2-.4.3-.5.4-.5.7-.9 1.1-1.4.3-.2.5-.5.8-.8.2-.3.5-.7.8-1 .8-1 1.7-1.9 2.5-2.9.3-.4.7-.8 1-1.2.8-.8 1.5-1.8 2.4-2.5M85 143.8v.1c-.4.7-.8 1.3-1.1 1.9-.4.6-.7 1.3-1 1.9-.2.3-.3.7-.4 1-.5 1-.9 2-1.2 3.1-.8 2.7-1.3 5.5-1.5 8.5V164.1c0 .1.1.3 0 .4 0 .1-.1.1-.1.1-.2 0-.4 0-.6-.1-.6-.1-1.1-.2-1.7-.4-.3 0-.6-.1-.9-.2-.6-.2-1.2-.3-1.9-.5-1.2-.4-2.4-.7-3.6-1.2-.3-.1-.6-.2-.8-.3-.2 0-.3 0-.4-.1-.1-.1-.1-.1-.1-.2.1-.2.2-.3.4-.5.1-.1.2-.3.4-.4.9-1.1 1.8-2.2 2.7-3.2l3.3-3.9c.6-.6 1.1-1.2 1.6-1.8.2-.3.5-.6.8-.9.3-.4.7-.8 1-1.2l1.5-1.8c.4-.4.7-.8 1.1-1.3.4-.4.8-.9 1.3-1.4.2-.3.3-.5.5-.7.2-.3.4-.5.7-.7" class="b"/><path d="M86.6 5.6c.2 0 .3 0 .4.1.1.2 0 .5 0 .7.1.5.1 1 .1 1.4.1.4 0 .7.1 1 .1.8.2 1.5.2 2.3.1.8.3 1.7.4 2.5 0 .3 0 .5.1.8 0 .2.2.7 0 .9 0 .1-.1.1-.2.1-.3.1-.7.1-1 .1-.2 0-.4 0-.6.1h-.4c-.1 0-.2 0-.3-.1-.1-.2 0-.6 0-.9-.1-.5-.1-1-.1-1.4-.2-1.8-.4-3.5-.6-5.2 0-.5-.1-.9-.2-1.3 0-.2-.1-.6 0-.8.1-.2.6-.1.8-.1.1-.1.3 0 .4 0 .1-.1.2-.1.3-.1.2 0 .4-.1.6-.1M102.5 5.7c.2 0 .5.1.7.1.2 0 .5 0 .6.1.2.1.2.3.3.5.2.2.4.5.5.7.2.3.5.7.7 1 .6 1 1.2 1.9 1.9 2.9l.6.9c.1.1.4.8.6.8.1 0 .1 0 .2-.1.1-.2.1-.4.1-.7.1-.3.1-.6.2-1 .1-.9.2-1.8.3-2.8 0-.2 0-.4.1-.6v-.6c.1-.1.1-.1.1-.2.2-.1.6 0 .8.1h.4c.1 0 .2.1.2.2 0 .3-.1.5-.1.7-.1.4-.2.9-.3 1.3-.1.4-.1.8-.2 1.2-.2 1.1-.3 2.2-.5 3.4-.1.3-.1.7-.2 1.1 0 .4-.1.8-.1 1.2-.1.2-.1.4-.1.5 0 .1-.1.1-.1.2-.2 0-.4 0-.6-.1-.2 0-.5 0-.7-.1-.2-.1-.3-.4-.4-.6l-.3-.6c-.4-.5-.8-1.1-1.1-1.7-.4-.6-.8-1.1-1.2-1.7-.2-.4-.4-.7-.6-1-.2-.2-.9-1.4-1-1.4-.1-.1-.2 0-.2 0-.1.1-.1.3-.1.5-.1.4-.1.8-.2 1.3-.1.6-.2 1.1-.2 1.7 0 .3-.1.5-.1.7 0 .5-.1.9-.1 1.3 0 .2 0 .3-.1.5 0 0 0 .1-.1.1-.1.2-.6 0-.8 0h-.3l-.3-.3c0-.2.1-.4.2-.6.1-.4.2-.9.2-1.4.2-.6.3-1.3.4-1.9.1-1 .3-2 .4-2.9 0-.2 0-.3.1-.5 0-.4.1-.8.1-1.3.1-.2.1-.5.1-.7.1-.1.1-.2.2-.2M94.5 5.8H94c-.3.1-.6.2-.9.5-1 .9-1.3 2.3-1.2 3.8 0 1.7.5 3.6 2.3 4 .2.1.5.1.8.1.1 0 .1 0 .2-.1h.2c.1-.1.3-.1.5-.1.5-.3.9-.8 1.2-1.3.2-.4.3-.8.4-1.3.4-1.7.1-4-1.2-5.1-.5-.4-1.1-.5-1.8-.5zm0-1c1.6 0 3.1.3 4.2 1.3.9.9 1.4 2 1.5 3.3 0 .4 0 .9-.1 1.3-.3 2.4-1.9 4-4.2 4.4-2.4.4-4.9-.3-6-2.5-.2-.3-.3-.7-.4-1.1-.1-.4-.1-.8-.1-1.2-.1-.3-.1-.6-.1-.8.1-1.3.6-2.5 1.5-3.4.3-.3.7-.5 1-.7.4-.2.8-.3 1.1-.4.2-.1.4-.1.6-.1h.1c.1-.1.1-.1.2-.1h.7zM82.2 6c.1 0 .2 0 .3.1.1.2.1.6.1.8.1.1.1.1.1.3 0 0 0 .1-.1.1-.1.1-.4.1-.6.1-.3 0-.5.1-.7.1-.3 0-.8 0-1 .1-.1.1-.1.2-.1.3 0 .6.1 1.1.2 1.6.1.6.2 1.2.3 1.7.2 1 .4 1.9.5 2.8.1.5.2.9.4 1.4 0 .2.1.3.1.5 0 .1 0 .1-.1.2 0 .1-.1.1-.2.1-.3.1-.7.1-1.1.2-.3 0-.6.1-.9.1-.1 0-.2 0-.2-.1-.1-.1-.1-.3-.1-.4 0-.4-.1-.9-.2-1.3-.2-1.5-.4-3-.7-4.5-.1-.4-.2-.9-.2-1.3-.1-.2-.1-.4-.2-.6 0-.1-.1-.2-.2-.2h-.4c-.5.1-1 .3-1.5.4-.1 0-.3.2-.5.1 0 0-.1-.1-.1-.2-.1-.1 0-.2-.1-.3 0-.2-.1-.6-.1-.7.1-.2.2-.2.4-.2h.1c.1-.1.1-.1.2-.1h.5c0-.1 0-.1.1-.1h.5c.1 0 .2-.1.2-.1h.4c.1 0 .2-.1.2-.1h.5c.1 0 .2-.1.3-.1h.1c.1 0 .4-.1.5-.1h.4s.1 0 .1-.1H80c0-.1.1-.1.1-.1h.2c.1-.1.3-.1.4-.1h.2c.1-.1.2-.1.3-.1.2-.1.4-.1.6-.1.1-.1.3-.1.4-.1M72.2 7.7h.7c.2 0 .4 0 .6.1 0 0 .1.1.1.2.1.1.1.3.1.4 0 .2 0 .4.1.7v.3c0 .1-.1.1-.1.2h-.2c-.2-.1-.3-.2-.5-.3-.2-.2-.5-.3-.8-.3-1.1-.3-2.3.3-2.9 1.1-1 1.3-.8 3-.2 4.5.2.4.4.8.8 1.2 0 .1.1.3.2.4.7.6 1.4.8 2.4.8h.1c.2 0 .5-.1.7-.1.5-.2 1-.5 1.4-1l.3-.3c.2-.2.3-.6.6-.6.1 0 .2.1.2.1.1.2.1.5.1.8 0 .2.1.4 0 .6-.1.4-1 .9-1.3 1.1-.5.2-1.1.4-1.6.5-.5.1-1 .3-1.5.3-1 .1-2.2-.2-3-.7-.2-.2-.4-.3-.6-.5-.8-.7-1.3-1.7-1.5-2.7-.1-.6-.3-1.1-.3-1.7.1-2.1 1.6-3.8 3.5-4.5.4-.1.9-.3 1.4-.4.2-.1.3-.1.5-.1h.2s.1-.1.2-.1h.3M121.6 9.9h1c.3 0 .4.1.6.1 1 .2 1.9.5 2.8 1 .2.2 1.1.7 1 1.1-.1.2-.2.4-.4.6-.1.2-.1.4-.2.5-.1.1-.2.1-.2.1-.1 0-.2 0-.2-.1-.1-.1-.2-.3-.2-.5-.2-.3-.4-.5-.6-.8-.7-.6-1.8-.9-2.8-.7-.4.1-.7.3-1 .6-.8.6-1.3 1.4-1.6 2.2-.9 2.7 0 5.3 3.1 5.3H123.2c.3-.1.5-.1.7-.2.2 0 .4-.2.6-.2.1 0 .2 0 .2.1.1 0 .1.1.1.2 0 .2-.2.4-.3.5-.2.3-.3.5-.5.7-.2.2-.8.1-1.1.1-.7 0-1.3-.1-1.9-.3-.2-.1-.3-.1-.4-.2-1-.4-2-.9-2.7-1.8-1-1.5-1.1-3.1-.5-4.9.2-.5.4-1.1.7-1.5.4-.4.7-.7 1.1-1 .5-.4 1.3-.8 1.9-.8H121.4c.1-.1.2-.1.2-.1M63.3 10.8c.1 0 .1.1.2.1.1.1.1.3.1.4.1.2.3.4.3.6 0 0-.1.1-.1.2-.2.1-.8.3-1 .3-.4.2-.8.3-1.2.4-.1.1-.3.2-.5.3-.1 0-.1.1-.1.1-.1.3.2.9.3 1.1.1.2.1.3.2.5s.2.6.4.8c0 .1.1.2.2.2.2 0 .4-.2.6-.3l1.5-.6c.1-.1.3-.3.5-.3.1 0 .2 0 .3.1 0 .2.1.3.1.5.1.1.1.2.2.4v.2c-.1.1-.4.2-.5.2-.5.2-1 .3-1.5.5-.2.1-.5.2-.7.3-.1.1-.1.2-.1.3.1.1.1.3.1.4.2.3.3.6.4.9.2.4.3.7.4 1 .1.2.2.3.3.5l.1.1c.2 0 .4-.1.6-.2.4-.2.9-.4 1.3-.6.2-.2.5-.3.7-.4h.2c.1 0 .1 0 .1.1.1.1.1.3.2.4.1.1.1.3.2.5v.2c-.2.2-.4.2-.6.3-.2 0-.3.1-.5.1-.5.2-.9.4-1.4.6-.4.1-.8.3-1.2.5-.3.1-.6.2-.9.4-.1 0-.3.2-.5.1 0 0-.1 0-.2-.1-.1-.2-.1-.4-.2-.6-.1-.4-.3-.9-.4-1.3-.4-.9-.8-1.8-1.1-2.7-.4-.8-.7-1.6-1.1-2.5-.1-.2-.8-1.6-.7-1.8.1-.2 1-.4 1.3-.5 1.2-.6 2.5-1.1 3.7-1.7M132.7 14.9h-.5c-.2.1-.5.2-.7.3-.3.2-.6.4-.8.6-.6.6-.9 1.1-1.2 1.8-.3.5-.5 1-.6 1.5-.1.4-.2.9-.2 1.4.1 1.3.9 2.1 2.1 2.4.2.1.4.1.7.1 0-.1.1-.1.1-.1.2 0 .3-.1.4-.1.3-.1.6-.2.8-.4.4-.2.7-.5.9-.9.7-.8 1.2-1.8 1.5-2.9.2-.7.2-1.6-.1-2.2-.4-.9-1.4-1.5-2.4-1.5zm-1.5-1.3h1.4c1.6.4 3.1 1.2 4.1 2.6.3.3.5.7.6 1.1.8 2.1-.4 4.8-2 6-.6.4-1.2.7-2 .9-1.1.2-2.3 0-3.3-.5-.7-.2-1.3-.6-1.9-1.1-1.2-1.1-1.9-2.7-1.5-4.5.2-1.2.9-2.4 1.7-3.2.4-.4.9-.7 1.3-.9.3-.2.8-.3 1.1-.4h.5zM53.4 15.3c.1 0 .1.1.2.1.2.2.3.6.4.8.1.3.3.7.4 1 .6 1.3 1.3 2.5 1.9 3.7.1.4.3.7.5 1 .1.3.3.7.5.9 0 .1.1.2.2.2.2-.1.4-.2.5-.3.6-.2 1.1-.6 1.6-.9.2-.1.4-.3.6-.3.1 0 .1.1.2.1 0 .1.1.2.1.3.1.2.3.5.3.7.1.1 0 .1 0 .2-.2.2-.6.3-.8.4-.3.1-.5.2-.7.3-.8.3-1.6.8-2.4 1.1-.2.1-.4.2-.5.3-.2.1-.3.2-.4.3h-.2l-.2-.2c-.1-.1-.2-.4-.2-.6l-.6-1.2c-.8-1.7-1.6-3.4-2.5-5-.2-.3-.3-.6-.5-1-.1-.1-.4-.5-.4-.8.1 0 .1-.1.2-.1.2-.2.6-.3.8-.4.4-.1.7-.4 1-.6M48.9 17.8c.4 0 .4.4.6.6.1.1.2.3.2.5-.1.2-.8.4-1 .5-.5.3-.9.6-1.4.9-.1 0-.2.1-.2.1v.2c0 .3.2.5.3.7.2.2.3.5.5.7.1.2.3.5.5.7 0 .1.1.2.2.2.2-.1.3-.2.4-.3.4-.3.9-.6 1.3-.9.2-.1.6-.5.8-.5.2.1.3.4.3.5.1.2.4.3.3.5v.2c-.2.2-.5.3-.7.4-.4.2-.8.4-1.1.6-.3.1-.5.2-.7.4v.3c.1.2.2.3.2.4l.6.9c.1.2.3.4.4.7.1.1.2.4.4.5.1.1.2.1.3.1.1-.1.2-.2.4-.3.4-.3.9-.6 1.3-.9.2-.1.5-.5.7-.5.1.1.1.1.2.1.1.1.1.3.2.4.1.1.3.3.3.5.1.2-.8.6-1 .8-.9.5-1.9 1.1-2.8 1.7-.2.1-.6.5-.8.5-.1 0-.2 0-.2-.1-.2-.1-.2-.3-.3-.4-.2-.4-.4-.8-.7-1.2-.2-.3-.3-.6-.5-1-.5-.7-.9-1.4-1.4-2.2-.4-.5-.8-1.1-1.1-1.7-.4-.5-.7-1-1-1.4v-.2c0-.2 1-.7 1.2-.8 1.2-.7 2.2-1.5 3.3-2.2M141.5 18.9h.2c.1 0 .2.1.3.2.2.1.4.2.5.4.1 0 .1.1.1.2.1.1 0 .3 0 .5-.1.5-.2.9-.2 1.4-.2 1.1-.3 2.1-.5 3.2 0 .4-.1.8-.2 1.1v.6c0 .2.1.2.1.3.5-.2 1-.5 1.4-.7.8-.4 1.5-.8 2.3-1.3.5-.2.9-.5 1.4-.8l.6-.3c.1-.1.5-.4.7-.4.2.1.3.2.5.3.1.1.4.2.5.4v.2c0 .2-.1.3-.2.5-.2.3-.4.7-.6 1-.2.5-.4.9-.7 1.4-.5.9-1 1.9-1.5 2.9 0 .1-.1.2-.1.3-.1.2-.2.4-.4.7-.3.6-.5 1.1-.8 1.7-.1.1-.1.1-.2.1-.2 0-.6-.4-.8-.5-.2-.1-1.1-.6-1.1-.8-.1-.1 0-.2 0-.3l.6-.9c.5-.8 1-1.7 1.4-2.5.2-.4.3-.7.5-1 .1-.2.2-.3.2-.5v-.1c-.1-.1-1.2.5-1.4.6-.9.5-1.8 1.1-2.8 1.6-.2.1-.4.3-.6.4-.3.1-.9.7-1.2.5-.2-.1-.4-.2-.5-.4 0-.2.1-.3.1-.5.1-.3.1-.6.2-.9.2-1.1.3-2.4.5-3.6 0-.2.2-1.4.1-1.5 0-.1-.1 0-.1 0-.2.1-.3.3-.4.4-.3.3-.5.5-.7.8-.4.4-.7.8-1 1.2-.2.3-.5.5-.7.8-.1.2-.3.4-.4.5-.2.2-.4.7-.6.7-.1.1-.2 0-.2 0-.2 0-.3-.2-.4-.3-.2-.1-.4-.2-.5-.3-.1-.1-.1-.2-.1-.3.2-.2.5-.5.7-.6.3-.3.6-.7.9-1l5.1-5.4M92 22.7c.2 0 .9-.1.9.1l-.2.2c-.1.1-.3.2-.4.2-.2 0-.5-.1-.5-.3v-.1c.1-.1.1-.1.2-.1M107.2 23.8c.2 0 1.1.1 1 .4l-.1.1c-.1.1-.2.1-.3.1-.2 0-.6-.3-.6-.5v-.1M153.9 28.1h.2c.2.1.4.3.5.5.1.1.2.1.3.3.1 0 .1.1.1.2-.1.1-.1.2-.2.4-.1.3-.2.6-.3 1-.1.3-.2.5-.3.8-.4 1-.7 2-1 2.9l-.3.9c-.1.2-.1.4-.2.6 0 .1 0 .1.1.2h.1l1.8-.6c.3 0 .6-.1.8-.2 1-.3 1.9-.6 2.8-1 .3-.1.6-.2.8-.3.2 0 .4-.1.5-.1.3 0 .4.2.6.4.1.1.3.2.4.4v.2c0 .1-.1.2-.2.3-.3.3-.6.7-.9 1l-3.6 4.8c-.2.3-.5.6-.7.9-.1.2-.3.4-.5.6 0 0-.1.1-.2.1-.1-.1-.2-.2-.3-.4-.2-.1-.4-.3-.6-.5-.1-.2-.7-.6-.7-.8v-.1c0-.1.2-.3.3-.4.4-.4.7-.8 1.1-1.1.5-.7 1-1.4 1.6-2.1.1-.1.7-.8.7-1h-.2c-.2 0-.4.1-.5.1-.2.1-.4.2-.6.2-.5.2-.9.3-1.3.4l-2.4.9c-.3.1-.5.2-.8.3-.1 0-.3.1-.5.2-.1 0-.2-.1-.3-.1-.1-.2-.3-.3-.3-.5s.1-.3.2-.4l.3-.9c.4-1.1.8-2.3 1.1-3.4l.3-.9c.1-.2.2-.4.2-.6v-.1c-.2-.1-1.1.7-1.2.8-.9.7-1.8 1.5-2.7 2.2-.2.2-.5.6-.7.7h-.2c-.2-.1-.8-.7-.9-.8 0-.1 0-.2.1-.3.2-.2.4-.4.7-.5.3-.3.7-.5 1-.7.6-.4 1.1-.8 1.6-1.2.9-.6 1.7-1.2 2.5-1.9.7-.4 1.3-1 1.9-1.4M34.5 28.7c.1 0 .2 0 .3.1.1.1.3.3.4.5.3.3.5.6.8 1 .4.4.8.9 1.2 1.4.5.6 1.1 1.2 1.6 1.9.3.2.6.5.8.8.2.2.3.4.5.5.1.1.2.1.3.1l.3-.3c.5-.4.9-.8 1.4-1.3.1-.1.2-.4.4-.4.1-.1.1-.1.2 0 .1 0 .2.2.4.3.1.2.2.3.3.5v.2c-.1.2-.6.5-.8.7-.3.2-.5.4-.8.7-.5.4-1.1.9-1.6 1.4-.2.2-.8.8-1 .8-.2-.1-.3-.4-.4-.5-.2-.2-.3-.4-.5-.5l-.9-1.2c-.6-.6-1.1-1.2-1.6-1.8-.8-.9-1.6-1.7-2.3-2.6-.2-.2-.6-.5-.6-.7 0-.1 0-.2.1-.2.2-.2.5-.4.7-.6l.8-.8M29.6 37.6v.2c.1.3.2.6.4.8l.6 1.2.3.6c.1 0 .2.1.3 0 .1 0 .2-.2.3-.3.3-.2.5-.4.7-.7.1-.1.2-.2.3-.4v-.2c0-.1-.1-.1-.2-.1-.3-.2-.6-.3-.9-.4-.4-.2-.7-.3-1.1-.5-.2-.1-.4-.2-.7-.2zm-1.2-3c.3 0 .6.2.8.3l1.5.6c.9.4 1.8.7 2.6 1.1.9.3 1.8.6 2.6 1 .5.1 1 .3 1.5.5.2.1.4.1.6.3.1 0 .2.1.1.2 0 .1-.2.3-.4.4 0 .1-.1.2-.2.3-.2.2-.3.3-.4.5-.2.2-.3.5-.6.6-.2.1-.6-.2-.8-.3-.3-.1-.5-.2-.8-.3-.3-.2-.8-.5-1.1-.5-.1 0-.2.1-.2.1-.3.2-.5.5-.6.7-.3.3-.5.6-.8.9-.1.1-.5.5-.5.7 0 .2.2.4.2.5.3.4.5.9.8 1.3.1.2.4.6.4.8 0 .2-.2.4-.4.6-.1.1-.2.4-.4.4-.1.1-.2 0-.3-.1-.4-.9-.8-1.8-1.3-2.7l-1.5-3c-.3-.5-.6-1.1-.9-1.7-.2-.3-.3-.6-.5-.9-.1-.2-.5-.7-.5-1 0-.1 0-.1.1-.2l.2-.2c.1-.1.2-.2.2-.3l.6-.6zM163.1 37.7c.2 0 .2.1.3.1.1.2.2.3.3.4.2.2.3.4.5.6.1.2.4.4.6.7 0 0 0 .1-.1.2-.1.2-.4.3-.5.4-.4.3-.7.6-1.1.8-.7.6-1.4 1.1-2.1 1.7-.1.1-.3.2-.4.3-.5.4-1 .9-1.5 1.3s-.9.7-1.3 1.1c-.1.1-.3.3-.5.4-.1.1-.2 0-.2 0-.3-.2-.4-.6-.6-.8-.2-.1-.3-.3-.4-.4-.1-.2-.3-.3-.4-.4 0-.1-.1-.2 0-.3 0-.2.8-.7 1-.8.3-.2.6-.5.9-.7l1.2-.9c.7-.6 1.5-1.2 2.3-1.9.4-.3.9-.7 1.3-1.1l.7-.7M165.4 42.3c1.2 0 2.1.6 2.8 1.5.3.4.5.7.7 1.1.1.4.5 1.3.2 1.7-.1.1-1.3.5-1.5.5-.1 0-.2-.1-.2-.2-.1-.2.1-.5.2-.7.1-.4 0-.9-.1-1.2-.3-.9-1.3-1.3-2-.6-.5.5-.3 1.5-.2 2.2.1.3.1.6.1.9.3 1.6-.4 2.6-1.6 3.2-.4.2-.9.3-1.4.3h-.7c-.8-.2-1.6-.9-2.2-1.6-.1-.2-.3-.5-.5-.8-.2-.3-.8-1.6-.6-1.9.1-.1.1-.2.2-.2.2-.1.3-.1.5-.2l.6-.3c.2-.1.3-.2.5-.2.1 0 .2.1.3.2.1.2-.1.5-.2.7-.1.1-.1.2-.1.4-.2.9.3 1.9 1.1 2.2h.8c.2-.1.3-.2.4-.4.6-.6.3-1.4.2-2.1 0-.6-.1-1.4 0-2 .1-1 1-1.9 1.9-2.3.3-.1.5-.1.8-.2M22.3 44.7c-.2.1-.4.1-.5.2-.3.1-.9.7-.7 1 0 .1.4.3.6.5.3.2.7.4 1 .6.3.2.6.4 1 .6 0 .1.2.2.3.2.2-.1.3-.4.3-.7.1-.1.2-.3.2-.5 0-1.1-1.3-1.9-2.2-1.9zm1-2.3c1 .1 2.1.8 2.4 1.8.1.3.1.7.1 1.2 0 .1-.1.3-.1.5 0 .1 0 .1.1.2s.6 0 .7 0h2.2c.2-.1.5 0 .6 0H31c.1 0 .3 0 .3.2s-.4.6-.5.8c-.1.2-.2.3-.4.5-.1.2-.2.5-.4.7 0 .1-.1.1-.2.2-.2.1-.8 0-1.1 0-.1 0-.2 0-.4-.1h-1c-.4 0-.8-.1-1.1-.1-.2 0-1.2-.1-1.3 0 0 .2.2.3.2.3.8.5 1.6.9 2.3 1.4.3.1.8.4 1 .6v.3l-.3.3c-.1.2-.3.5-.4.7-.2.2-.2.5-.4.6-.1.1-.2.1-.3.1-.1 0-.2-.1-.3-.2-.5-.3-1-.7-1.4-1-.7-.5-1.4-.9-2.1-1.3-.1-.1-.3-.2-.5-.3-.3-.3-.7-.5-1-.7-.2-.2-.5-.3-.7-.5-.3-.2-.6-.3-.9-.5l-.6-.3c-.2-.1-.5-.2-.6-.4v-.3c.1-.2.2-.3.4-.5.1-.3.3-.6.5-.8.2-.3.4-.7.6-1 .5-.9 1.4-2.3 2.7-2.3 0 0 .1-.1.2-.1zM169.8 49.4c1.1 0 1.8.4 2.5 1.2.1.1.3.3.4.5.1.1.1.2.1.3.2.2.3.4.4.6 0 .1.1.3.1.4.1.2.1.3.1.5.1.3.2.8 0 1-.1.1-1.4.4-1.6.4-.1 0-.2-.1-.2-.2-.1-.2.2-.5.3-.7 0-.1 0-.3.1-.5.1-.8-.5-1.8-1.4-1.8-.2 0-.5.1-.6.3-.8.7-.4 2.1-.4 3.1v.7c-.2 1.2-1 2-2.1 2.4-2.3.7-3.9-1.2-4.6-3.1-.1-.3-.4-1.1-.2-1.4 0-.1.1-.2.2-.2.2-.1.3-.1.5-.2.3-.1.5-.2.7-.2.2-.1.3-.2.4-.2.2 0 .3.3.3.4-.1.2-.2.3-.3.5-.1.2-.3.6-.2.9 0 .8.4 1.6 1.1 1.8.2.1.4.1.6.1.1 0 .2-.1.2-.1.3-.1.6-.4.7-.7.2-.5.1-1.2.1-1.8-.1-1.1 0-2.1.6-2.8.2-.3.5-.5.7-.7.4-.2.9-.5 1.3-.5h.2M17.7 49.4c.2.1.4.2.5.3.2.1.5.2.5.3.1.3-.3.7-.4.9-.3.5-.6.9-.8 1.4-.1.1-.2.3-.2.4 0 .1.1.2.1.2.3.3.8.4 1.1.6.3.2.7.4 1 .6.1 0 .2 0 .3-.1.2-.1.3-.4.3-.5l.6-1.2c.1-.2.2-.5.3-.7.1-.1.1-.2.2-.2s.8.3.9.4c.1 0 .2.1.2.3-.1.1-.2.3-.3.4-.2.5-.5.9-.8 1.3-.1.2-.3.5-.3.8 0 .1.1.2.1.2.3.2.5.3.7.4.4.2.8.4 1.3.6.2.2.5.4.8.4 0-.1.1-.1.1-.2.2-.1.2-.3.3-.5l.6-1.2c0-.2.2-.8.4-.9.2 0 .4.1.6.2.1.1.4.2.5.4.1.2-.4.9-.5 1.1-.4.8-.9 1.6-1.3 2.5-.2.3-.4.7-.6 1.1 0 .1-.1.2-.2.2-.2 0-.9-.4-1.1-.5-.6-.4-1.3-.8-2-1.1-.1-.1-.3-.2-.5-.3-1.2-.7-2.5-1.3-3.7-1.9-.3-.1-.5-.2-.7-.3-.2-.1-.4-.2-.5-.3-.1-.1-.1-.1-.1-.2.1-.2.2-.3.3-.4l.3-.6c.5-.9.9-1.9 1.4-2.8.1-.3.3-.8.6-1.1M174.7 55.9c.1 0 .2.1.2.1.2.3.3.6.4.8.1.2.1.4.2.6.2.2.3.4.3.6.1.1 0 .2 0 .3-.2.1-.6.2-.9.3-.4.2-.9.4-1.4.6-.6.2-1.2.5-1.8.7-.9.5-1.9.9-2.8 1.3-.4.2-.8.4-1.1.6-.3.1-.5.3-.8.3-.1 0-.2 0-.2-.1-.2-.2-.3-.6-.4-.9-.2-.3-.3-.7-.5-1v-.2c.1-.2.8-.4 1-.5.2-.1.4-.1.7-.2.3-.1.5-.3.8-.4 1.1-.4 2.2-.9 3.3-1.4.7-.4 1.5-.7 2.2-1.1.2-.1.5-.2.8-.4M15.5 59.7c-.2.1-.6 0-.8.1-.8.4-1.4 1-1.7 1.8-.1.1-.1.3-.2.4-.1.3-.3.6-.1.9.1.1.6.3.8.4l3.3 1.2c.3.2.7.3 1.1.5.2 0 .3.1.5.1.2.1.5.2.8.3.1 0 .3.1.5.1h.2c0-.1.1-.2.1-.3.2-.4.3-.7.4-1.1.5-2.3-1.4-3.7-3.1-4.2-.6-.2-1.1-.2-1.8-.2zm.9-2.4c2 0 3.8 1 4.8 2.7.1.2.2.4.3.7.1.4.2.9.3 1.4 0 1.1-.4 2.3-.8 3.3-.3.6-.6 1.2-.8 1.9-.1.2-.1.5-.2.7 0 .1-.1.1-.2.1-.2.1-.4-.1-.5-.1-.5-.2-1-.5-1.4-.7-.2-.1-.5-.1-.7-.2-.1 0-.3-.1-.5-.2-1.3-.5-2.6-1-3.8-1.4-.4-.2-.8-.3-1.2-.4-.2-.1-.5-.1-.7-.3 0 0-.1 0-.1-.1v-.3l.3-.6c.2-.4.4-.9.5-1.3.4-1.2.9-2.6 1.6-3.7.5-.5 1-.9 1.6-1.1.4-.2.8-.3 1.2-.4h.3zM174.9 63.1c-.2 0-.4.1-.6.1-.2 0-.4.1-.7.2-.3.1-.7.2-1 .4-.8.3-1.5.7-2.1 1.4-1 1.2-.7 3 .6 3.8.5.3 1.3.5 2 .5 0-.1.1-.1.2-.1h.4c.1 0 .1-.1.2-.1.3 0 .6-.1.8-.2 1.1-.4 2.1-.9 2.9-1.8.6-.8.7-1.7.3-2.7-.1-.3-.3-.5-.5-.8-.3-.2-.6-.4-1-.5-.4-.2-1-.2-1.5-.2zm-1-2.3c.9 0 1.8.1 2.6.6.6.4 1.2.9 1.6 1.6 1 1.3 1.7 3.6 1 5.4-.7 2.1-3 3.3-5.2 3.3-1.6.1-3.1-.9-4-2.1-.3-.4-.5-.8-.6-1.2-.3-.6-.6-1.3-.7-2.1 0-.6.1-1.2.2-1.8.3-1.2 1.4-2.3 2.5-2.9.6-.3 1.1-.5 1.7-.6.2-.1.4-.1.6-.1 0 0 0-.1.1-.1h.2zM10.1 66.8c.2 0 .4.1.5.1.2.1.3.1.5.2 0 0 .1 0 .1.1v.2c-.1.3-.2.7-.4 1-.1.4-.2.7-.4 1.1 0 .2-.1.4-.1.6 0 .1.1.2.2.2.5.1.9.3 1.3.4.3.1.7.3 1 .3.1 0 .2-.1.3-.1.1-.3.2-.7.2-1 .1-.3.2-.7.3-1.1.1-.2.1-.4.2-.6 0-.1.1-.2.2-.2.2.1.3.1.4.2.2 0 .3.1.5.1l.1.1c.1.2-.1.6-.2.8-.2.5-.3.9-.5 1.3 0 .2-.2.5-.1.7 0 .1.1.2.2.3.1 0 .3.1.5.1.3.2.7.3 1.1.4.4.1.7.2 1.1.3.1 0 .2 0 .3-.1.1-.1.2-.4.2-.6.1-.4.2-.7.3-1 0-.3.1-1.1.3-1.3h.2c.3.1.6.2.9.2.1.1.1.2.1.2 0 .2-.1.4-.1.6-.1.1-.1.3-.2.5-.3 1-.7 2-.9 3-.1.2-.2.9-.4 1.1-.1.1-.2.1-.4 0-.3 0-.6-.2-.9-.3-.2-.1-.3-.1-.5-.2-.3-.1-.7-.2-1.1-.3-.3-.2-.7-.2-1.1-.4-1.3-.4-2.6-.7-3.9-1.1-.3-.1-.6-.1-.8-.2-.2-.1-.4-.1-.5-.2-.1 0-.1-.1-.1-.2s.1-.3.1-.4c.1-.2.2-.4.2-.6.4-1 .6-2.1.9-3.1.1-.3.1-.9.4-1.1M180.6 71.7c.1 0 .2 0 .3.1 0 .1 0 .3.1.4 0 .3.1.5.1.8 0 .1 0 .2-.1.3-.8 1.2-1.7 2.3-2.6 3.5-.3.5-.6 1-1 1.4-.1.3-1.1 1.4-1 1.6 0 .1.2.1.3.1h.3c.1-.1.2-.1.2-.1.2 0 .3 0 .4-.1l1.2-.3c.9-.2 1.8-.5 2.8-.7.2 0 .5-.2.7-.1.1 0 .1 0 .2.1 0 .2.1.4.1.5 0 .2.1.4.1.6 0 .1-.1.2-.2.2-.6.1-1.3.2-1.9.3-1.2.3-2.3.5-3.3.7-.8.2-1.6.3-2.3.5-.3.1-1.7.5-1.9.4l-.1-.1c-.1-.2-.1-.4-.1-.6-.1-.1-.1-.3-.1-.5 0-.1 0-.2.1-.3.1 0 .1-.1.2-.2.2-.2.3-.4.5-.6 1-1.3 1.9-2.7 2.9-4 .2-.4.5-.7.7-1 .2-.2.3-.4.5-.6v-.1c0-.1 0-.2-.1-.2h-.4c-.3.1-.7.2-1 .3-.6.1-1.2.2-1.8.4-.5.1-1 .2-1.5.4-.3 0-.6.1-.9.2-.1 0-.2.1-.3.1-.1 0-.2 0-.2-.1-.1-.1-.3-1-.3-1.2.1-.1.2-.2.3-.2h.5c.1-.1.2-.1.3-.1h.2c.1-.1.6-.1.7-.1.1-.1.1-.1.2-.1h.1c.1-.1.6-.1.7-.1.1-.1.1-.1.2-.1s.3 0 .4-.1c.3 0 .6-.1.9-.2.6-.1 1.1-.2 1.6-.3.3-.1.7-.2 1.1-.2.2-.1.4-.2.6-.2.6-.1 1.1-.3 1.6-.4M8 74.3c.2 0 .3 0 .5.1.2 0 .4 0 .5.1.1 0 .1 0 .2.1.1.2-.2.8-.2 1-.2.4-.3.9-.4 1.4 0 .1-.1.3-.1.5 0 0 .1.1.1.2.3.1.8.1 1 .2.5.1.9.2 1.4.3.1 0 .2 0 .2-.1.2-.1.2-.4.2-.6.1-.4.2-.9.3-1.3 0-.3 0-.6.1-.8 0-.1.1-.2.1-.2.2 0 .3 0 .5.1.1 0 .4 0 .6.1 0 .1.1.1.1.2 0 .2-.1.4-.2.6l-.3 1.5c-.1.2-.2.5-.1.7.2.2.8.3 1.1.3.2 0 .4.1.7.1.4.1.8.2 1.3.2.4.1.7.1 1.1.2.1 0 .2.1.2.2.1.1-.2.9-.2 1.1-.1.3-.1 1-.3 1.2-.3.1-.8-.1-1-.2l-2.7-.6-3-.6c-.5-.1-.9-.2-1.4-.2-.3-.1-1.3-.2-1.4-.4-.1-.2.2-.9.2-1.1.2-.6.3-1.2.4-1.8.1-.5.1-1 .2-1.5.1-.3.1-.6.2-.8 0-.1.1-.1.1-.2M10.6 101.8c.2.1.3.3.4.4l.8.8c.2.1.3.3.5.4 0 .1.1.1.2.1l.6-.3.6-.3c.2-.1.3-.1.4-.2.2 0 .2 0 .3-.1.1 0 .2 0 .2.1.1.1-.1.3-.1.4-.2.3-.3.6-.5.9-.1.2-.4.5-.3.8.1.3.6.8.9 1 .1.2.4.4.5.6v.1l-.1.1c-.3 0-.6-.1-.9-.1-.3-.1-.5-.1-.8-.2h-.5c-.2.1-.2.3-.3.4-.1.1-.2.3-.3.4-.1.2-.4 1-.6 1.1-.1 0-.2-.1-.2-.2 0-.3-.1-.7-.2-1 0-.3 0-.8-.2-1-.1-.1-.4-.1-.6-.2-.3 0-.7-.1-1.1-.2-.1 0-.3 0-.4-.1-.1-.1 0-.2.1-.2.2-.2.5-.4.8-.5.3-.1.8-.2.9-.6.1-.1 0-.4 0-.5v-.5c-.1-.2-.1-.4-.1-.7-.1-.2-.1-.4 0-.7M178 102.6c-.3.3-1 1.2-1.3 1.2-.2 0-.4-.1-.5-.1-.4-.2-.7-.4-1.1-.6-.1 0-.2-.1-.4-.1l-.1.1c0 .2.1.3.1.4.2.3.3.5.4.8.2.2.4.5.3.8 0 .3-.3.5-.5.6-.1.2-.2.3-.3.4-.1.2-.7.6-.6.8.2.3 1.9-.4 2.3-.2.3.1.5.6.7.9.1.1.2.3.2.4.1.2.2.6.4.6.1 0 .2-.1.2-.1.1-.3.1-.6.1-.9.1-.2.1-.3.1-.5s0-.6.2-.8c.1-.1.3-.1.5-.1.1-.1.3-.1.4-.1.3-.1 1-.1 1.2-.4h-.1c0-.2-.2-.3-.4-.3-.4-.2-.9-.4-1.3-.7-.1 0-.2-.1-.2-.3 0-.1.1-.3.1-.4v-.5c0-.3.1-.5.1-.8v-.2c0-.1-.1-.1-.2-.1s-.2.1-.3.2M21.5 126.5c.1 0 .2 0 .2.1.1.1.1.2.2.3l.3.6c.2.3.4.6.5.9v.3c-.2.1-.5.2-.7.3-.3.1-.7.3-1 .5-.8.4-1.6.8-2.4 1.3-.8.4-1.8.9-2.4 1.7-.9 1-.3 2.7.8 3.3.4.2.8.2 1.3.2h.2c.1 0 .2 0 .3-.1.3 0 .6-.1.8-.2 1.1-.6 2.2-1.1 3.2-1.7l1.5-.9c.1-.1.4-.3.6-.3 0 0 .1.1.2.1.1.1.1.3.2.4.1.2.3.5.4.7 0 .1-.1.2-.1.3-.2.1-.3.1-.4.2l-.6.3c-.1 0-.3.1-.5.1-.1.1-.2.2-.3.2-.1.1-.3.2-.4.2-.7.4-1.4.8-2.1 1.1-1.6.8-3.2 1.6-5 .5-.6-.4-1.1-1.1-1.5-1.7-.9-1.7-1.1-3.7.4-5.1.4-.4 1-.7 1.5-1 .5-.2 1-.5 1.5-.7 1.1-.6 2.2-1.3 3.3-1.9M166.6 133.5c0 .1-.1.1-.1.1v.1c.1.2.3.3.4.5l.9.9c.2.3.4.5.6.7.1.1.2.2.3.2.1-.1.1-.2.2-.2.1-.3.9-1.5.8-1.8-.1 0-.1-.1-.2-.1-.3 0-.5-.1-.8-.1-.2 0-.5-.1-.8-.1-.4-.1-.8-.2-1.3-.2zm-1.9-2.7c.4 0 .7.1 1 .2.4.1.8.1 1.2.2 1.7.2 3.3.5 5 .7h.7c.4.1.8.1 1.2.2.4 0 .8 0 1.1.1.1 0 .2.1.2.2s-.4.7-.5.9c-.1.1-.1.3-.2.4-.1.3-.3.8-.5.9-.2 0-.4 0-.6-.1-.5-.1-1-.2-1.6-.3-.2 0-.5-.1-.7 0-.2.1-.3.3-.4.5-.3.5-.5 1.1-.8 1.6-.1.2-.2.4-.2.6v.2c.1.2.3.3.5.5.3.3.7.7 1 1.1.2.1.4.3.5.5v.2c-.1.1-.2.2-.2.4l-.3.6h-.2c-.2 0-.5-.5-.6-.6-.4-.5-.7-.9-1.1-1.3l-3.6-4.2c-.5-.4-.9-.8-1.3-1.3-.1-.1-.3-.3-.4-.5v-.2c0-.2.2-.3.3-.5.1-.3.2-.5.3-.8.1 0 .1-.1.2-.2zM26.3 135.3c.1 0 .2 0 .2.1.2.1.2.3.3.5.2.2.4.4.4.6 0 .2-.1.3-.1.5-.1.2-.1.3-.2.5-.2.8-.4 1.7-.6 2.5-.2.7-.4 1.3-.6 2-.1.5-.2 1-.4 1.4-.1.3-.2.6-.2.9 0 .2.1.2.1.3.2-.1.4-.2.6-.4.3-.1.5-.3.8-.5.7-.5 1.4-.9 2.1-1.4.2-.2.4-.3.6-.5.3-.1.7-.5.9-.5h.2c.1.1.2.3.3.4.1.1.3.4.3.6v.2c-.2.1-.4.2-.5.3-.4.2-.7.4-1 .6-.6.3-1.2.7-1.8 1-.6.4-1.3.8-1.9 1.2-.4.3-.9.6-1.3.9-.4.2-.8.5-1.1.7-.2.1-.3.3-.5.3h-.3c-.1-.1-.6-.9-.6-1 0-.3.1-.6.2-.8.1-.2.2-.5.3-.8.3-1.2.7-2.3 1-3.5l.3-1.2c.1-.4.2-.7.3-1.1 0-.2.2-.6.1-.7 0-.1-.1-.1-.2-.1-.2.1-.3.1-.4.2-.3.2-.6.5-1 .7-.7.5-1.5 1-2.3 1.5-.3.3-.6.5-.9.7-.1.1-.2.2-.4.3h-.1c-.1 0-.1-.1-.2-.2 0-.1-.1-.2-.2-.4-.1-.1-.2-.2-.3-.4v-.2c.2-.2.6-.4.8-.5.4-.2.7-.4 1-.6.4-.3.9-.5 1.3-.8.4-.2.9-.6 1.3-.8.5-.3.9-.6 1.3-.9.8-.5 1.6-1 2.4-1.6M162.2 136.4h.2c.3.2.4.4.7.6l.4.4v.2c-.1.2-.5.2-.7.2-.2.1-.3.1-.5.1-.6.2-1.1.8-1.4 1.4-.7 1.2-.3 2.8.6 3.7.5.6 1.1 1 1.7 1.3.2.1.3.1.4.2.5.2 1.2.4 1.8.4h.5c.1-.1.2-.1.3-.1.2-.1.3-.1.5-.2.6-.3 1.1-.9 1.4-1.5.2-.5.4-1 .4-1.6 0-.3-.2-.6-.1-.9.1-.2.3-.2.4-.1.2.1.3.3.4.4.1.2.5.4.5.6.1.2 0 .5-.1.7-.1.6-.3 1.1-.6 1.7-1.2 2-2.9 3.6-5.6 3.2-.9-.2-1.8-.7-2.5-1.3-.8-.6-1.3-1.2-1.7-2-.9-2.2.2-4.7 1.6-6.2.4-.5.9-.9 1.4-1.2M31.9 143.4c0 .1.1.1.2.2.2.2.4.6.6.8.2.3.5.5.7.8v.2c-.1.2-.3.3-.5.4-.4.3-.7.5-1.1.8-1.4 1-2.8 2-4.1 3.2-.5.3-.9.7-1.4 1.1-.2.1-.3.3-.5.4h-.2c-.2-.2-.2-.3-.3-.4-.1-.2-.2-.3-.3-.4-.2-.3-.5-.5-.7-.8-.1-.1-.1-.2-.1-.3 0 0 .1-.1.1-.2l1.8-1.2c.5-.4 1-.8 1.5-1.1.6-.5 1.2-1 1.9-1.5.1-.1.2-.2.4-.3.5-.4.9-.9 1.5-1.3.1-.1.3-.3.5-.4M156.3 143.8c.3 0 .7.5.9.7.3.2.5.5.8.7.4.3.7.6 1 .9.2.1.4.3.5.4l2.1 1.8c.2.1.4.3.6.4.3.3.6.5 1 .8.1.1.5.3.6.6v.1c-.1.2-.2.3-.3.4l-.5.5c-.1.2-.2.3-.3.5l-.3.3c-.1.1-.2.1-.3 0l-.7-.7c-.5-.5-1-.9-1.5-1.3-1.2-1.1-2.4-2.1-3.7-3.1-.2-.2-.5-.3-.7-.5-.2-.1-.4-.3-.5-.4-.1 0-.1-.1-.2-.2 0 0 0-.1.1-.2.2-.3.5-.5.7-.8.3-.3.5-.7.7-.9M34.2 146.3c.3.1.4.3.6.5.2.2.4.4.6.7.6.6 1.1 1.3 1.7 1.9.4.4.8.9 1.2 1.2.2.2.4.5.6.7.1.1.4.3.4.5.1.1.1.1 0 .2-.1.2-.3.3-.4.5-.1.1-.3.3-.5.2-.2 0-.3-.3-.4-.4-.2-.3-.5-.6-.7-.8-.1-.2-.2-.4-.4-.5-.1-.1-.2-.1-.3 0-.2.1-.3.3-.5.4-.2.2-.3.4-.5.5-.4.4-.8.7-1.2 1.1-.6.6-1.2 1.2-1.9 1.8-.2.2-.4.3-.6.5-.2.3-.4.5-.6.7-.2.1-.3.3-.4.4l-.3.3c-.1 0-.1.1-.2 0-.3 0-.6-.6-.8-.8-.2-.3-.5-.5-.7-.7 0-.1-.1-.2 0-.3 0-.2.2-.2.3-.3.5-.4.9-.8 1.3-1.2 1-.9 2.1-1.8 3.1-2.8.3-.3.7-.6 1-1 .1-.1.3-.2.4-.4 0 0 .1-.1 0-.2 0-.2-.2-.3-.3-.4l-.7-.7c-.2-.1-.7-.5-.7-.7 0-.2.3-.3.4-.4.1-.2.3-.5.5-.5M152.8 149.8c-.1.1-.2.1-.3.2-.2 0-.8.4-.8.7 0 0 .1.1.1.2l.5.5c.1.1.2.2.3.4l.6.6c.3.2.6.5.8.7.1.1.1.1.2.1.4-.3.7-.7.7-1.2.1-.5-.2-.9-.4-1.3-.1 0-.1-.1-.2-.2 0 0-.1-.1-.2-.1-.4-.3-.7-.6-1.3-.6zm1.1-2c.4 0 .8.1 1.2.2.8.3 1.5 1.2 1.5 2.2.1.4 0 .8-.2 1.1 0 .2-.1.3-.1.5 0 .1 0 .2.1.2.1.1.2.1.4.1.2.1.5.1.7.2.3.1.6.1 1 .2.6.1 1.2.3 1.9.4.2.1 1.3.2 1.3.5-.1 0-.1.1-.1.2-.3.2-.6.5-.9.7l-.6.6-.3.3h-.2c-.2 0-.3-.1-.5-.1-.3-.1-.7-.2-1-.3-.4-.1-.7-.2-1.1-.3-.4-.1-.8-.2-1.1-.3-.3-.1-.6-.2-.8-.2-.1-.1-.2 0-.2.1l.5.5 1 1c.4.3.7.6 1.1.9.1.2.3.3.3.5.1 0 .1.1 0 .1-.1.3-.4.5-.7.7-.2.2-.5.5-.7.8h-.2c-.2 0-.4-.3-.5-.4-.4-.4-.7-.8-1.1-1.2-.4-.5-.9-.9-1.4-1.4-1-1.1-2-2.1-3.1-3.1-.1-.1-.8-.6-.8-.8 0-.1 0-.1.1-.2.1-.2.3-.3.4-.4l.6-.6c.8-.8 1.6-1.9 2.6-2.4l.9-.3zM40.3 152.6c.1 0 .2.1.3.1l1.1 1.1c.3.2.6.5.9.8.4.3.8.6 1.1.9.2.1.3.2.4.3.2.1.6.4.4.7l-.3.3-.3.3c0 .1-.1.1-.1.1-.1 0-.2 0-.2-.1-.1 0-.2-.1-.3-.2-.2-.3-.4-.5-.6-.7-.3-.2-.5-.4-.7-.6-.2-.2-.4-.4-.5-.4-.1 0-.2 0-.3.1-.2.1-.4.4-.7.7-.2.3-.5.5-.7.8-.1.1-.3.3-.2.4 0 .2.4.4.5.5.4.3.7.6 1 .9.2.1.5.2.6.4.1.1.1.2.1.2 0 .2-.2.4-.3.5-.1.2-.2.3-.4.4 0 .1-.1.1-.2.1-.2-.1-.3-.3-.5-.5l-.8-.8-.5-.5c-.1-.1-.2-.2-.4-.2-.1 0-.1 0-.2.1-.3.3-.6.6-.8.9-.3.3-.5.6-.8.8-.1.2-.2.3-.3.5-.1 0-.1.2 0 .2.1.2.4.4.5.5l1.2.9c.2.2.4.3.5.5.1.1.1.1 0 .2 0 .2-.3.3-.4.5l-.3.3H38c-.3 0-.7-.6-1-.8-.5-.5-1.1-1.1-1.7-1.6-.2-.1-.4-.3-.6-.5-.2-.1-.9-.6-.8-.8 0-.2.3-.5.5-.6.3-.4.7-.8 1.1-1.2.4-.5.9-.9 1.3-1.4.6-.6 1.1-1.3 1.7-1.9.3-.5.7-.9 1-1.3.3-.3.5-.6.8-.9M148.4 152.6c.2.1.3.3.5.5.1.2.3.3.3.5 0 .1-.1.2-.2.3-.2.1-.4.2-.5.3-.5.3-.8.6-1.3.9l-.4.4c0 .1 0 .2.1.3 0 .1.2.2.3.4.1.2.3.5.5.7.2.3.4.5.7.8h.2c.1 0 .1 0 .2-.1.3-.2.6-.5.9-.8l.9-.9c.1 0 .2-.1.3-.1.2 0 .3.3.4.5.1.1.4.3.4.5 0 .1-.1.1-.1.2l-.6.3c-.4.3-.7.6-1.1.9-.2.2-.4.3-.5.4-.1.1-.1.2 0 .3.1.2.2.3.3.4.3.4.6.8.9 1.1.2.3.4.6.7.8h.2c.3-.1.5-.3.7-.5.3-.3.6-.6.9-.8.2-.2.5-.6.7-.6.2 0 .3.3.4.5.1.1.3.2.4.4 0 .1 0 .1-.1.2 0 .1-.1.1-.2.2-.2.2-.4.3-.6.5-.6.4-1.2.9-1.9 1.4-.3.3-.6.6-1 .9-.1.1-.3.3-.4.3h-.2c-.3-.2-.4-.5-.5-.7-.3-.3-.5-.6-.7-.9-.2-.2-.4-.5-.6-.8-.3-.3-.6-.7-1-1.1-.2-.3-.4-.5-.6-.8-.4-.5-.9-1.1-1.4-1.6-.2-.3-.5-.6-.8-.9-.1-.2-.3-.3-.4-.5v-.2c0-.2.4-.4.6-.6.1-.1.2-.2.4-.3.7-.5 1.3-1.1 2-1.6.4-.4.7-.8 1.2-1.1M142.8 157.3h.2c.2.2.3.4.5.6.2.3.4.6.7.9.8.9 1.5 1.8 2.3 2.7.5.5.9 1.1 1.4 1.6.3.3.6.6.8 1 .2.2.5.4.5.6.1.1.1.2 0 .2-.4.2-.7.5-1.1.7-.2.1-.4.3-.6.4-.1.1-.1.1-.2.1-.2-.1-.8-.9-.9-1.1-.5-.6-1-1.2-1.4-1.8-.5-.5-.9-1.1-1.4-1.6-.1-.1-.1-.1-.2-.1 0 .1-.1.1-.1.2.1.4.1.9.2 1.4 0 .2 0 .4.1.6 0 .4 0 .8.1 1.2.1.6.1 1.1.2 1.7.1.3.1.6.2 1 0 .1.1.3 0 .5 0 .2-.3.4-.4.4h-.2c-.6-.3-1.2-.7-1.8-1-.8-.5-1.7-1-2.5-1.5-.2-.1-1.3-.8-1.4-.7-.1 0-.1.1-.1.1.1.1.2.3.2.4.2.3.3.6.4.8.4.8.9 1.6 1.3 2.4.2.4.4.7.5 1 .1.2.3.3.3.5v.2c-.2.2-.4.3-.6.4-.1.1-.2.1-.3.2 0 0-.1.1-.2 0-.1 0-.2-.1-.2-.2l-.3-.6c-.2-.5-.4-.9-.6-1.4l-.6-1.5c-.5-1.1-1-2.1-1.5-3.2-.2-.4-.4-.7-.6-1.1-.1-.2-.4-.6-.3-.8 0-.3.3-.4.5-.5.1-.1.2-.1.3-.2.1-.1.2-.1.3-.1.1 0 .2.1.4.2s.4.2.6.4c1.2.7 2.5 1.4 3.7 2.2.3.2.6.3.9.5.2.1.3.2.5.3 0 0 .1 0 .1-.1.2-.1 0-1.7-.1-2-.1-1.2-.3-2.4-.4-3.7-.1-.3-.1-.6-.2-.9 0-.2-.1-.4 0-.5 0-.3.4-.4.6-.5.1-.1.2-.2.4-.3M47.2 159.4c-.3.2-.5.5-.7.8l-.4.4c-.1.2-.3.4-.4.6-.8 1-1.5 1.9-2.2 2.9-.2.3-1 1.3-.9 1.5 0 .2 1 .9 1.3 1l.6.3c.3 0 .6.1.9.1.1-.1.2-.1.3-.1h.1c.2-.1.5-.1.7-.2.5-.2.9-.5 1.3-.9 1.2-1.2 2.3-3.1 1.4-4.7-.2-.3-.5-.7-.8-.9-.4-.3-.7-.6-1.2-.8zm-1.4-2.3c.2 0 .4.3.6.4l.4.4c.4.2.7.5 1.1.7.9.7 2 1.4 2.8 2.4.8 1 1.1 2.4.8 3.7-.1.3-.3.6-.4.9-.3.5-.6 1-1 1.4-.3.3-.6.5-.9.7-.2.2-.5.3-.8.5-1.4.5-3.1.5-4.4-.3-.3-.1-.5-.3-.7-.4-.2-.1-.3-.3-.5-.4-.1 0-.1 0-.2.1h-.1c-.1-.1 0-.3-.2-.4-.4-.4-.8-.8-1.3-1.1-.2-.1-.9-.5-1-.7 0-.1 0-.2.1-.3.1-.2.4-.5.6-.7.2-.3.5-.6.7-.9.5-.6.9-1.2 1.4-1.8.2-.3.5-.7.7-1 .4-.5.7-1 1.1-1.5.2-.4.5-.7.7-1.1.2-.2.3-.4.5-.6zM59.5 166.1h.8c1 .1 2.4.8 3.1 1.7.1.1.3.3.2.6 0 .2-.3.4-.4.5-.2.2-.4.5-.6.6h-.3c-.2-.2-.2-.6-.2-.8-.1-.3-.3-.6-.5-.8-.6-.7-1.8-.8-2.2.2-.2.7.4 1.5.8 1.9.8 1 1.9 2.3 1.3 3.8-.2.5-.4 1-.9 1.3-1.5 1.3-3.4.9-4.9-.1-.3-.2-1.3-.9-1.3-1.3 0-.1 1-1.5 1.1-1.6.1 0 .3 0 .3.1.2.1.2.5.2.8.3 1 1.1 1.6 2.2 1.6.2-.1.4-.1.5-.2 1.4-1.2-.7-2.9-1.2-3.8-.3-.4-.5-.7-.5-1.2-.2-1.2.5-2.5 1.5-3 .3-.2.7-.2 1-.3M65.2 168.1c.3.1.5.2.8.3.4.2.9.3 1.3.5 1.1.4 2.3.8 3.4 1.2l.9.3c.2 0 .4 0 .6.2.1 0 .1.1.1.3-.1.1-.1.2-.2.3 0 .2-.1.5-.2.6-.4.3-2.2-1.1-2.5-.7-.1.2-.2.5-.2.7-.2.3-.3.6-.4 1-.1.1-.1.3-.2.4-.4 1.3-.9 2.6-1.3 4-.1.4-.3.9-.4 1.3-.1.2-.1.3-.1.4-.1.1-.2.2-.3.2-.2 0-.4-.2-.6-.2l-.6-.3c-.3-.1-.6-.1-.8-.2-.1 0-.1-.1-.1-.2-.1-.1 0-.3.1-.5.2-.5.5-1.1.7-1.6.3-.8.5-1.6.8-2.4.2-.6.4-1.2.7-1.8.1-.5.3-1 .4-1.5v-.2c-.1-.1-.3-.2-.5-.2-.2-.1-.5-.2-.8-.3-.3 0-.9-.1-1.1-.3v-.1c0-.2.1-.5.2-.6 0-.1 0-.3.1-.4 0-.1.1-.1.2-.1v-.1M130.1 168.3c-.1 0-.1.1-.1.2 0 .2 0 .4.1.5 0 .4.1.7.1 1.1.1.4.1.8.2 1.2 0 .1.1.2.2.2.2.1 1.4-.6 1.7-.8l.2-.2c0-.1-.1-.2-.1-.2-.4-.4-.8-.7-1.1-1-.2-.3-.4-.5-.7-.7-.1-.1-.3-.2-.5-.3zm-.1-3.2h.2c.2.1.3.3.5.4.4.4.7.8 1.1 1.1.9.9 1.7 1.6 2.6 2.4.6.5 1.2 1.1 1.8 1.6.5.5 1.1.9 1.6 1.4 0 0 .1.1.1.2-.1.2-.7.4-1 .5-.1.1-.3.2-.5.3-.2.1-.5.5-.8.4l-.5-.5-.5-.5c-.2-.2-.5-.4-.7-.7-.1-.1-.3-.3-.4-.3-.2-.1-.6.1-.8.2-.2.2-.5.3-.8.5-.4.2-.8.4-1.1.6l-.2.2c0 .2.1.5.1.6.1.5.1.9.2 1.3.1.3.2.6.2.9 0 0 0 .1-.1.2s-.3.2-.5.3c-.1 0-.4.3-.6.3-.1-.1-.2-.1-.2-.2v-.8c-.1-.2-.1-.5-.1-.7-.1-.6-.1-1-.2-1.5 0-.7-.1-1.3-.1-1.9-.2-1.1-.3-2.2-.4-3.3l-.3-1.5c0-.2-.1-.5 0-.7.1-.2.5-.3.7-.4.2-.1.4-.3.7-.4zM121.6 168.8c.2.1.2.1.3.2.1.1.1.3.2.5 0 .1.1.3.1.5 0 .1 0 .1-.1.2-.2.1-.5.1-.7.2-.4 0-2 .3-2.1.6-.1.2.4 2.2.6 2.5.1.1.2.1.3.1.1 0 .2-.1.3-.1.2 0 .3-.1.5-.2.6-.2 1.1-.4 1.6-.5.1-.1.2-.1.2 0 .1 0 .1 0 .2.1v.3c.1.2.2.4.2.6 0 .1 0 .2-.1.3-.2.1-.5.1-.8.1-.4.1-.7.2-1.1.3-.2.1-.5.1-.7.3-.1 0-.2.1-.2.2 0 .2.2.5.2.7l.6 1.8c.1.3.2.5.3.8 0 .2.3.6.2.8 0 .1-.1.1-.1.2-.2.1-.6.1-.8.2-.2 0-.3 0-.5.1s-.7.3-.8.2h-.1c-.1 0-.1-.1-.2-.2-.1-.5-.2-1.1-.4-1.6-.2-.9-.5-1.7-.7-2.7-.1-.1-.1-.2-.1-.3-.1-.2-.2-.5-.3-.7 0-.2-.1-.4-.1-.6-.2-.7-.4-1.3-.6-2-.1-.2-.4-.9-.4-1.2.1-.2 1-.4 1.2-.4 1.1-.3 2.1-.6 3.1-.9.2-.1.4-.2.6-.2 0-.1.1-.1.2-.1v-.1M78.2 172c.4 0 .7.2 1.1.2l1.5.3c.6.2 1.2.3 1.8.4.4.1.8.1 1.3.2.3.1.7.1 1.1.2.1 0 .3 0 .4.1.1 0 .2.1.2.2 0 .2-.1.3-.1.4-.1.2-.1.4-.1.6l-.1.1c-.2.1-.5 0-.6-.1-.4-.1-.9-.2-1.3-.3-.2 0-.3-.1-.4-.1-.1 0-.2.1-.2.2-.1.3-.2.5-.2.8-.1.5-.2 1-.3 1.4-.2 1.1-.4 2.2-.6 3.4 0 .2-.1.4-.1.6-.1.7-.2 1.3-.3 1.9 0 .1-.1.1-.2.2-.2 0-.5-.1-.7-.2-.2 0-.3-.1-.5-.1-.3 0-.6 0-.9-.1 0 0-.1-.1-.1-.2-.1-.2 0-.4.1-.6l.3-1.5c.2-.9.4-1.8.5-2.7l.3-1.2c.1-.5.1-.9.2-1.4.1-.2.1-.5.1-.7 0-.1 0-.2-.1-.3-.1 0-.3 0-.4-.1-.5 0-1-.1-1.5-.1-.2-.1-.4 0-.5-.2-.1-.2 0-.5 0-.7.1-.2 0-.4.3-.6M110.9 172.7c-.1 0-.1 0-.2.1h-.4c-.6.2-1.2.7-1.5 1.3-.3.4-.5 1.1-.5 1.7 0 .6.1 1.2.2 1.7.2 1.1.6 2.4 1.6 3.1.5.3 1 .5 1.6.5h.2s.1-.1.2-.1.3-.1.5-.1c.4-.2.8-.5 1-.9.3-.4.5-.9.6-1.5.1-.2.1-.4.1-.7v-.3c0-.6-.1-1.1-.2-1.6-.3-1.1-.8-2.2-1.8-2.9-.4-.2-.9-.3-1.4-.3zm.7-1.1c2.9 0 4.8 1.8 5.1 4.6.1.9.1 1.8-.2 2.6-.5 1.3-1.7 2.4-3 2.9-.4.2-.9.3-1.4.4-.3.1-.7.1-1.1.1-1.3 0-2.5-.4-3.4-1.2-.7-.6-1.2-1.4-1.4-2.3-.8-2.6-.1-5 2.2-6.3.4-.2.7-.3 1.1-.4.2-.1.5-.2.8-.2h.2c0-.1.2-.1.3-.1h.4c.1-.1.3-.1.4-.1zM97.1 173.4c.9 0 1.7 0 2.4.3.2.1.5.2.5.4s-.1.5-.2.7c0 .2-.1.6-.2.8-.1.1-.2.2-.3.1-.2-.1-.3-.4-.5-.5-.5-.6-1.6-.9-2.3-.3-.3.2-.4.6-.3 1 .1.8 1.2 1.2 1.9 1.4 1.2.6 2.3 1.1 2.6 2.7 0 .3 0 .7-.1 1.1-.1.5-.3.9-.6 1.3-.9 1.3-3.3 1.6-4.9 1.1-.2-.1-.7-.1-.8-.4 0-.2.1-.4.1-.6.1-.3.1-1 .2-1.3.1-.1.2-.1.3-.1.2 0 .4.5.5.6.5.6 1.1.8 1.8.8.1 0 .2 0 .2-.1h.2c.3-.1.5-.2.6-.3.2-.2.4-.5.4-.8 0-1.1-1.4-1.6-2.2-1.9-.3-.2-.7-.4-1.1-.6-.4-.3-.7-.7-1-1.2-.1-.3-.2-.5-.2-.8-.2-1.4.6-2.5 1.7-3.1.2-.1.5-.2.8-.2.2 0 .4-.1.5-.1M87.4 173.4c.2.1.3.1.5.1.3 0 .7.1 1.1.1.9 0 1.7.1 2.6.1.4 0 1.3-.1 1.4.3-.1.1-.1.2-.1.3 0 .2 0 .6-.1.7-.1 0-.1.1-.2.1-.4-.1-.8-.1-1.3-.2-.3 0-.6 0-.9-.1-.2 0-.6-.1-.7.1-.2.2-.2 1.3-.2 1.6 0 .3-.1.6-.1.9.1.1.1.2.1.2.2.1.8.1 1.1.1h1.7c.4.1.3.4.3.7 0 .2 0 .6-.2.7H92c-.4-.1-2.4-.5-2.6-.2-.1.1-.1.3-.1.4-.1.5 0 1-.1 1.5v1.1c0 .1 0 .2.1.3.2.1.9.1 1.2.1H92c.1-.1.2 0 .3 0 .2.1.1.4.1.7 0 .1 0 .4-.1.5 0 0 0 .1-.1.1-.1.1-.9 0-1.1-.1-1-.1-2-.1-3.1-.2-.2 0-1 .1-1.2 0 0-.1-.1-.1-.1-.2v-.6c.1-.5.1-.9.2-1.3.1-.8.1-1.6.1-2.3.1-1.1.2-2.2.2-3.3v-1.2-.7c.1-.1.1-.2.2-.3M73.8 173.9v.1c-.2 0-.4.4-.5.5-.3.5-.6.9-.9 1.4-.1.1-.2.3-.3.4 0 .1-.1.2-.1.3l.1.1c.2.1.3.1.5.2.2 0 .5.1.7.1.2.1.5.2.7.2.2-.1.2-.1.2-.3.1-.4 0-.8-.1-1.2 0-.3 0-.6-.1-.9 0-.2 0-.5-.1-.7 0-.1-.1-.1-.1-.2zm.5-2.8c.4 0 .6.1.9.2.3 0 .6 0 .8.2.2.2.1.9.2 1.1v1.1c.1.3.1.7.1 1 .1 1.4.4 2.8.5 4.2l.3 1.8c0 .3.1.7.1 1 0 .1 0 .3-.2.3s-.5-.2-.7-.2c-.3-.1-.6-.1-.8-.2-.3-.1-.5 0-.7-.1-.1-.1-.2-.2-.2-.3v-.6c0-.5-.1-1-.1-1.4-.1-.3 0-.5-.1-.7-.1-.1-.2-.2-.3-.2-.6-.2-1.2-.3-1.8-.4-.2-.1-.8-.3-1.1-.2-.2.1-.4.6-.5.8-.2.4-.5.8-.7 1.2-.1.1-.2.4-.4.5-.2.1-.5 0-.6-.1-.2 0-.6 0-.7-.2-.1 0-.1-.1-.1-.2.1-.2.3-.4.5-.6l.9-1.2c.3-.4.5-.8.8-1.1.8-1.1 1.6-2.3 2.3-3.4.3-.5.6-.9.9-1.4.2-.3.4-.7.7-.9z" class="a"/></g></svg>