<svg xmlns="http://www.w3.org/2000/svg" width="189" height="189" viewBox="0 0 189 189"><g fill="#FFF"><path d="M84.5 145.5c-.6.8-1.3 1.5-2 2.3-.6.7-1.1 1.4-1.7 2.1-.6.6-1.1 1.3-1.7 2-.5.6-1.1 1.3-1.7 1.9-.5.7-1.1 1.3-1.6 2-1.1 1.2-2.2 2.4-3.2 3.7l-2.7 3.3-.3.3c-.1.1-.5.4-.5.6v.2c.2.1.4.1.6.2.4.1.8.3 1.3.4.7.3 1.4.5 2.2.7.2.1.5.2.8.3.4.1.7.2 1 .3.7.1 1.3.3 1.9.5.4 0 .8.1 1.1.2.4.1.8.2 1.2.2 0 .1.2.1.2 0v-.1-.3-.3c0-.3-.1-.7-.1-1 0-1.1 0-2.2.1-3.2.1-1.4.2-2.8.4-4.1.1-.6.2-1.1.4-1.7 0-.3.1-.7.2-1 .2-.8.4-1.6.7-2.4.2-.5.4-1.1.6-1.6.4-.8.7-1.7 1.1-2.5.3-.6.6-1.2 1-1.7.2-.4.4-.8.7-1.2v-.1zm-45-24.4c-.2.2-.4.5-.7.7-.4.6-.8 1.1-1.2 1.6-.5.5-1 1-1.4 1.6l-.5.5c-.5.6-1 1.2-1.4 1.7-.4.4-.7.8-1 1.2-.7.7-1.4 1.5-2 2.3-.1.1-.2.3-.4.4 0 .1-.2.2-.2.3-.1.2.1.4.2.6.2.4.5.8.7 1.2.4.7.8 1.3 1.3 2 0 .1.7 1 .7 1 .2-.1.2-.7.2-1 0-.3.1-.6.1-.9.1-.7.3-1.4.5-2 .5-2 1-3.9 1.9-5.7.4-.8.9-1.7 1.3-2.5.4-.7.9-1.3 1.3-2 .2-.3.5-.6.7-.9v-.1h-.1zm74-9.6c-.3.3-.5.5-.7.8-.8.9-1.5 1.7-2.2 2.6-.5.6-1.1 1.2-1.6 1.9-1.1 1.2-2.1 2.4-3.2 3.6-.5.6-.9 1.2-1.4 1.8-.4.4-.8.9-1.2 1.3-.4.5-.7.9-1.1 1.3-.4.5-.9 1-1.3 1.6-.3.3-.6.6-.8.9-1.2 1.7-2.3 3.5-3.2 5.4-.4.8-.8 1.7-1.1 2.5l-.6 2.1c-.2.8-.4 1.7-.6 2.6-.2 1-.3 2-.4 3 0 .4-.1.7-.1 1.1V147.7c.1.8.1 1.6.2 2.4 0 .4.1.9.1 1.3.2 1.1.4 2.1.7 3.2.1.7.3 1.5.5 2.3.1.2.1.3.2.5.1.3.1.7.3 1 .2.8.5 1.6.7 2.4.5 1.4 1 2.8 1.5 4.3.2.7.5 1.5.7 2.3.1.1.2.6.4.7.1.1.4.1.6.1.1-.1.2-.1.3-.1h.8c0-.1.1-.1.2-.1h.7c.1-.1.2-.1.3-.1h.8c.1-.1.1-.1.2-.1H103.8c0-.1.1-.1.2-.1h.5c.1 0 .1-.1.2-.1h.5s.1 0 .2-.1h.4c.1-.1.2-.1.3-.1h.4c.1-.1.1-.1.2-.1h.3c.1-.1.1-.1.2-.1h.4c.1-.1.2-.1.3-.1.1 0 .3-.1.4-.1h.1c.1 0 .4-.1.6-.1.1-.1.3-.1.5-.1h.2c.1-.1.3-.1.4-.1.1-.1.3-.1.5-.1.1-.1.3-.1.4-.2.3 0 .7-.1 1-.2 1-.2 2-.5 3-.8.2 0 1.4-.4 1.5-.5 0-.1-.1-.5-.1-.7-.1-.6-.2-1.2-.4-1.7-.5-1.9-.9-3.8-1.5-5.7-.1-.4-.2-.9-.4-1.4-.1-.4-.3-.8-.4-1.2-.5-1.6-1.1-3.2-1.6-4.8-.3-.7-.5-1.5-.8-2.2-.3-1-.6-1.9-.9-2.9-.4-1.3-.8-2.6-1.1-3.9-.3-1.1-.6-2.2-.8-3.4-.5-2.3-.7-4.8-.7-7.3v-1.2c0-.6.1-1.1.2-1.7 0-.5 0-1 .1-1.5.1-1.5.5-3 .9-4.4.6-2 1.3-3.9 2.3-5.8.4-.7.9-1.5 1.4-2.2.1-.3.3-.6.5-.9.1-.2.2-.3.3-.4v-.1zm-79.3-10.1v.4c.1.3.2.6.3 1l.3 1.2c.1.4.2.7.3 1 0 .2.2.8.1 1-.1.3-.8.6-1.1.8-.5.3-1.1.6-1.6 1l-.6.3c-.2.1-.4.3-.6.4 0 .1-.2.2-.2.3 0 .2.6.2.8.2.1 0 .3 0 .4.1h.7c.3.1.6.2 1 .2h.8c.2.1.3.1.5.1s.5 0 .7.2c.2.1.3.9.3 1.1.2.7.3 1.3.5 1.9.1.3.2 1.3.5 1.4.3.2.6-.7.7-.9.2-.6.5-1.2.7-1.8.1-.3.4-1.4.8-1.6.2-.1.6 0 .8 0 .3 0 .5 0 .7.1.3 0 .6 0 .9.1h.9c.4 0 .7.1 1.1.1.2 0 .4 0 .5-.1.2-.2-.5-.8-.7-.9-.8-.6-1.5-1.3-2.2-2-.2-.2-.6-.4-.6-.6-.1-.3.3-1 .4-1.3.3-.7.7-1.5 1-2.2.1-.3.2-.5.3-.7v-.3c-.2-.3-1 .2-1.2.3l-1.5.9c-.3.2-.5.4-.8.6-.2.1-.7.4-1 .4-.2 0-.4-.3-.7-.4-.3-.3-.6-.7-1-1-.1-.1-.3-.2-.5-.4-.2-.1-.4-.3-.5-.4-.3-.3-.7-.7-1.1-.8-.1.1-.1.1-.1.3zm30.9-10.3l-.6.6c-.3.4-.6.8-.9 1.1l-1.2 1.5c-.5.6-1 1.2-1.5 1.7-.4.5-.7.9-1.1 1.3-.3.4-.7.8-1 1.2-.1.1-.3.3-.4.5-.3.3-.7.7-1 1.1-.2.3-.5.6-.7.9l-.6.6c-.4.5-.8 1-1.1 1.4-.6.7-1.2 1.3-1.7 2-.1.1-.2.2-.3.4-.2.2-.3.4-.5.7l-.6.9c-.5.6-.8 1.2-1.2 1.9-.2.3-.5.7-.7 1.1-1.7 3.3-2.8 7-3.2 11.1-.1.3-.1.6-.2 1 0 .7 0 1.5-.1 2.2 0 2 .1 3.9.4 5.8.1 1.1.4 2.2.6 3.2.1.3.2.6.2.9.3 1.3.7 2.7 1.1 4 .1.4.3.8.4 1.3.1.6.4 1.2.5 1.8.1.3.2.5.2.7.3.8.5 1.6.8 2.4.2.7.4 1.3.6 1.9.1.5.3.9.4 1.4.1.3.2.6.3 1 .3.9.5 1.8.7 2.7.2.8.3 1.5.5 2.3.1.4.2.7.2 1 .1.3.1.5.2.7 0 .2 0 .4.1.6.1.2.4.3.6.5.7.4 1.4.9 2.1 1.3 2.3 1.3 4.5 2.6 6.9 3.7.7.3 1.3.6 2 .9.2 0 .5.2.8.2.2-.3.3-.6.5-.9l.6-1.8c.9-2.5 1.2-5.3 1.3-8.3 0-.9 0-2-.1-2.9-.1-1.1-.1-2.1-.3-3v-.4c-.1-.4-.1-.8-.2-1.1-.1-.8-.3-1.6-.4-2.4-.1-.4-.2-.9-.3-1.3-.3-1.3-.6-2.5-.9-3.8-.1-.2-.1-.4-.2-.6l-.6-2.1c-.2-.8-.5-1.5-.7-2.3-.2-.7-.5-1.4-.7-2.1-.3-1.1-.7-2.3-1.1-3.4l-.3-1.2c-.2-.6-.4-1.3-.6-1.9-.4-1.2-.7-2.4-1-3.5-.3-1.6-.7-3.2-1-4.8v-.2c-.1-.9-.2-1.7-.3-2.6-.1-.7 0-1.5 0-2.3 0-.2-.1-.4-.1-.6 0-.3.1-.7.1-1 0-.6 0-1.1.1-1.6 0-.5.1-.9.1-1.4.1-.7.2-1.4.3-2 0-.3.1-.5.1-.7 0-.2.1-.3.1-.5s.1-.3.1-.5c.1-.2.1-.3.2-.5.2-.7.4-1.5.6-2.2.2-.8.6-1.6.9-2.4v-.2c.1-.1.1-.2.2-.2 0-.1.1-.2.1-.3.1-.3.3-.6.4-.9.1-.2.2-.4.4-.6 0-.1.1-.2.1-.4 0 0 .1 0 .1-.1.1-.1.1-.2.2-.3l.3-.6c.2-.3.5-.6.7-1 0-.1.1-.2.2-.4 0 0 .1-.1.1-.2zm-35.5-2.3zm15.9-.9v.3c.1.3.2.5.2.7.1.5.2.9.3 1.3.1.1.1.3.1.4.1.3.2.7.3 1 .1.2.3.7.2.9-.1.3-.9.6-1.1.8-.6.3-1.1.6-1.6.9l-.6.3c-.1.1-.3.2-.5.3-.1.1-.3.2-.3.3-.1.1-.1.1 0 .2 0 .1.1.1.1.1.4.1.7.1 1.1.2.9.1 1.9.2 2.8.3.3 0 .6-.1.8.1.2.2.2.4.3.7 0 .3.1.6.2.9.1.7.3 1.3.5 2 0 .2.1 1 .5.9 0 0 .1 0 .2-.1.2-.4.3-.9.5-1.4.2-.4.4-.9.6-1.3 0-.2 0-.3.1-.4.1-.2.2-.4.2-.6.1-.2.2-.4.3-.5.1 0 .2-.1.3-.1.6 0 1.1.2 1.6.2h.4c.2 0 .4.1.6.1.3 0 .6 0 .9.1h.5c.2 0 .7.2.8-.1.1-.3-.6-.8-.8-1-.3-.2-.7-.5-1-.8-.2-.1-.3-.3-.5-.5-.2-.1-.4-.3-.6-.5-.2-.2-.6-.4-.7-.7-.1-.2.2-.6.2-.8.2-.5.5-1.1.8-1.6.1-.3.2-.6.4-.9.1-.3.3-.7.4-1v-.3c-.2-.4-.7 0-.8.2-.1 0-.2.1-.3.1-.9.6-1.8 1.1-2.6 1.6-.2.1-.3.2-.5.3-.1.1-.2.1-.2.1-.4 0-.9-.6-1.2-.8-.3-.3-.5-.5-.8-.7l-.3-.3c-.3-.2-.5-.4-.8-.6-.2-.2-.5-.6-.9-.6 0 .1-.1.2-.1.3zm-15.1-1.1c0 .2 0 .4.1.6l.3 1.2c.2.4.2.7.3 1.1l.3.9c.1.2.2.4.1.7 0 .2-.6.5-.8.7-.3.1-.6.3-.8.5-.4.2-.7.4-1.1.6l-.3.3c-.2.1-1 .4-1 .7 0 .1.1.1.1.2h.6c.1.1.3.1.4.1.3.1.6.1.9.1.6.1 1.3.1 1.9.2.3 0 .8 0 1 .1.2.1.2.4.2.7.1.1.1.3.1.5.1.2.1.4.2.6.1.4.2.9.4 1.3.1.4.1.8.3 1.1 0 .1.1.2.2.3.3.1.5-.8.6-1 .2-.5.4-1 .5-1.4.2-.5.3-.9.5-1.3 0-.2.1-.5.4-.7h.5c.3 0 .7 0 1 .1.6 0 1.1 0 1.6.1.6 0 1.1.1 1.6.1.1 0 .2 0 .3-.1.2-.3-.6-.8-.8-1l-1.2-.9c-.3-.3-.6-.6-1-.9-.1-.1-.6-.5-.7-.7 0-.3.3-.8.4-1.1.2-.6.5-1.3.8-2 .1-.2.2-.3.2-.5.1 0 .1-.1.2-.2 0-.2.3-.7.2-.9-.2-.3-1 .3-1.1.4-.6.4-1.1.8-1.7 1.1l-.9.6c-.2.1-.6.4-.8.4-.3 0-.5-.3-.7-.5-.3-.2-.6-.5-.9-.7-.4-.3-.8-.6-1.1-.9-.3-.3-.8-.8-1.2-.8-.1.1-.1.2-.1.3zm109.2-6.1c-.1.1-.4.5-.5.7-.7.7-1.2 1.5-1.9 2.2-.3.5-.7 1-1.1 1.4-.3.4-.6.7-.9 1-1.1 1.3-2.1 2.6-3.2 3.8-.9 1-1.7 2-2.6 3l-1.5 1.8c-.1.1-.1.2-.2.4 0 .1-.1.2-.2.3l-.4.4c-.1.2-.2.3-.3.4-.2.4-.5.7-.7 1-1.5 2.3-3 4.5-3.9 7-.3.9-.6 1.9-.9 2.9-.1.4-.2.8-.3 1.3-.2.6-.3 1.2-.4 1.9-.1.7-.2 1.5-.2 2.3-.1.6-.2 1.3-.2 1.9-.1 2.9.1 5.6.6 8.2.2 1.1.5 2.1.8 3.1.2.9.4 1.9.7 2.8l2.1 6.6c.2.6.4 1.1.6 1.7.2.6.4 1.2.6 1.7.1.4.2.8.4 1.2.2.9.5 1.7.8 2.5.3 1.4.7 2.8 1 4.2.2.9.5 1.9.7 2.9.1.6.2 1.3.4 1.9.1 1 .3 2 .4 3 .1.6.1 1.2.1 1.8.1.6.1 1.4.1 2.1V159.3h.1c.1 0 .2-.1.3-.1.3-.2.6-.3.8-.5.6-.3 1.1-.6 1.6-.9.3-.2.5-.3.8-.5.4-.3.9-.6 1.4-.9.8-.5 1.6-1 2.4-1.6.7-.5 1.4-1 2-1.5.3-.2.6-.4.8-.6l1.5-1.2c.2-.1.5-.3.7-.5.1-.3.2-.7.3-1 .1-.3.1-.6.2-.9.1-.3.1-.6.2-.9.4-1.6.5-3.2.6-4.9v-.9c.1-1 0-2 0-2.9 0-.3 0-.7-.1-1 0-.6-.1-1.1-.1-1.6-.1-.6-.2-1.1-.3-1.7-.1-.7-.2-1.4-.4-2.1 0-.2-.1-.3-.1-.5 0-.1 0-.1-.1-.2v-.3c-.1-.4-.2-.8-.3-1.3-.2-.6-.3-1.3-.5-2-.3-1.3-.6-2.5-1-3.8-.5-1.6-1-3.2-1.6-4.7l-1.2-3.9c-.8-2.2-1.5-4.4-2.1-6.7-.6-2.6-1.2-5.2-1.4-8-.1-1.6 0-3.3 0-4.9.1-.3.1-.7.2-1.1 0-.6.1-1.2.2-1.8.1-.9.3-1.7.5-2.5.1-.3.1-.6.2-.8.2-.9.5-1.8.8-2.6.1-.4.3-.8.4-1.2l1.5-3c.3-.5.5-1 .8-1.4.3-.5.5-.9.8-1.3.1-.1.3-.3.3-.4h-.1zm-82.8-6c0 .2 0 .4.1.6 0 .2.1.5.2.8.2.7.3 1.4.5 2.1.1.1.1.3.2.5 0 .2.1.3.1.5-.1.3-.4.4-.6.5-.5.4-1 .7-1.5 1-.2 0-.3.1-.4.1-.2.2-.4.4-.7.5-.2.1-1 .5-1 .7.1.2.6.2.8.2.2 0 .3.1.4.1.9.1 1.9.2 2.8.3.3 0 .7 0 .9.1.2.2.2.7.3.9.2.9.4 1.9.7 2.7 0 .3.1.5.2.7 0 .1.1.2.1.2.4.2.6-.7.7-.9.2-.5.4-.9.6-1.4.1-.3.2-.7.4-1 .1-.3.2-.8.5-.9.2-.1.6-.1.8 0 .8 0 1.5.1 2.3.1.5.1 1 .2 1.5.2.2 0 .3 0 .3-.1.3-.3-.5-.9-.7-1l-.6-.6c-.5-.4-.9-.8-1.4-1.2-.2-.1-.8-.6-.8-.8 0-.2.2-.6.3-.8.2-.6.4-1.3.7-1.9.2-.4.5-.8.6-1.3.1-.1.2-.3.1-.4 0-.1-.1-.1-.2-.1s-.3.1-.4.2c-.2.1-.3.2-.5.3-.6.3-1.1.6-1.7 1-.1.1-.3.1-.4.2-.3.2-1 .6-1.2.6-.3 0-.4-.2-.6-.4l-.4-.4c-.5-.5-1.1-.9-1.7-1.4-.3-.2-.8-.8-1.2-.9-.1.1-.2.2-.1.4zm-15.3-1.3c0 .2.1.4.1.6.1.2.1.4.2.6.1.4.2.7.3 1.1.1.3.1.6.2.9.1.3.2.5.2.8.1.2.2.4.1.5-.1.3-.4.4-.6.6-.1.1-.2.2-.3.2-.3.2-.6.4-.9.5l-.9.6c-.2.1-.4.1-.5.2-.2.1-1 .6-.8.9.1.1 1.5.2 1.8.2.2.1.3.1.5.1h.4c.4 0 .9.1 1.4.2.2 0 .6-.1.8.1.2.2.2.6.2.8.3.9.4 1.9.7 2.7.1.3.2 1 .6 1 .1 0 .1-.1.2-.2.2-.4.3-.9.5-1.3.2-.6.5-1.2.7-1.8.1-.2.2-.8.5-1 .2-.2.8 0 1.2 0 .2 0 .5 0 .7.1.7 0 1.3 0 1.9.1.3 0 1.1.1 1.2-.1.2-.3-.6-.8-.8-1-.3-.2-.6-.5-.9-.7l-.5-.5c-.4-.3-.8-.6-1.1-1-.1-.1-.3-.2-.3-.3-.1-.3.2-.8.3-1 .1-.2.2-.4.2-.6.3-.6.6-1.2.8-1.8.2-.3.4-.6.5-1 0-.1 0-.2-.1-.2-.2-.4-.8.2-1 .3-.4.2-.7.4-1.1.6-.5.4-1.1.8-1.7 1.2-.1 0-.2.1-.4.2 0 0-.1 0-.1.1-.5 0-.9-.5-1.2-.8-.2-.2-.4-.4-.6-.5-.1-.1-.2-.1-.3-.2-.1-.1-.1-.2-.2-.2-.4-.3-.7-.6-1.1-.9-.1-.1-.3-.3-.5-.4h-.2c-.1.1-.1.2-.1.3zm26.6-12.3c-.1.5.1.9.2 1.4.3.7.4 1.4.6 2.1.1.3.4.9.3 1.2-.1.3-.7.5-.9.7-.2.1-.5.3-.7.4l-1.5.9-.6.3c-.1.1-.2.1-.3.3-.1 0-.1.1 0 .2 0 0 .1.1.2.1.4.1.9.1 1.3.2h.6c.2.1.3.1.5.1.3 0 .5 0 .8.1.3 0 1.2 0 1.4.2.1.1.1.3.2.5 0 .3.1.6.2.8.2.8.3 1.5.5 2.2.1.2.2 1 .6 1l.2-.2c.2-.4.3-.9.5-1.3l.6-1.5c.1-.3.2-.5.3-.8.1-.2.2-.4.3-.5.1-.1.2-.1.3-.1.2-.1.5 0 .7 0 .5.1 1 .1 1.5.1.2.1.4.1.6.1h.7c.2 0 1.2.2 1.3-.1 0-.2-.5-.5-.6-.6l-.3-.3c-.1-.1-.2-.2-.4-.3-.4-.4-.8-.7-1.3-1.1-.1-.1-.2-.2-.3-.4-.3-.2-.7-.4-.7-.7-.1-.3.1-.7.2-.9l.9-2.1c.2-.4.4-.8.6-1.3v-.4c-.2-.3-1 .3-1.2.4-.5.3-1 .8-1.5 1.1l-.6.3c-.2.1-.4.3-.6.4-.2.1-.4.1-.5.2-.4 0-.7-.3-.9-.5l-.9-.8c-.2-.1-.4-.3-.6-.4l-.5-.5c-.1-.1-.3-.2-.4-.3-.2-.2-.4-.4-.7-.4-.1 0-.1.1-.1.2zm23.8-1.6c-.2.3-.5.6-.7.9-.4.4-.7.8-1.1 1.3 0 0-.1.1-.1.2-.5.5-1 1-1.5 1.6-.3.4-.7.8-1 1.2-.4.5-.8 1-1.3 1.5-.7.8-1.4 1.7-2.1 2.5-.9 1.1-1.8 2.1-2.7 3.2-.4.5-.9 1-1.3 1.6-1.5 2-2.9 4.1-3.9 6.3-.9 1.7-1.5 3.5-1.9 5.4-.3 1-.5 2-.7 3.1 0 .6-.1 1.1-.1 1.7-.1.4-.2.9-.2 1.4v.6c-.1 2 0 4 .2 5.9.1.4.1.9.2 1.3.2 1.2.5 2.3.7 3.4.2.9.5 1.7.7 2.6 0 .2.1.4.2.7.1.2.1.5.2.7l.6 2.1.6 1.8c.4 1.3.7 2.5 1.1 3.8.2.4.3.9.4 1.3.3.7.5 1.4.7 2.1.1.3.1.5.2.8.2.7.4 1.3.6 2 .1.4.2.8.3 1.1.1.4.2.7.3 1 0 .4.1.8.2 1.2.1.5.2 1 .4 1.6 0 .4.1.9.2 1.3 0 .2.1.4.1.5 0 .1 0 .1.1.2v.2c.1.6.2 1.1.3 1.6.1.7.2 1.4.2 2.2.1.5.1 1 .1 1.5.1.6.1 1.3.2 1.9v.4c0 1.1-.1 2.2-.2 3.3 0 .5 0 1-.1 1.5 0 .1-.1.3-.1.4l-.3 1.8-.3 1.2c-.3.9-.6 1.9-1 2.8-.2.6-.5 1.2-.8 1.7-.3.5-.5 1-.8 1.4-.1.1-.2.4-.2.5.2-.3.5-.5.8-.8.9-1.2 1.9-2.4 2.9-3.5.3-.4.6-.7.9-1.1.5-.5 1-1.1 1.4-1.7.5-.6 1.1-1.2 1.6-1.9.4-.4.8-.8 1.2-1.3.8-.9 1.5-1.8 2.3-2.7.5-.7 1.2-1.3 1.7-2 .4-.6.7-1.3 1.1-1.9.4-.7.7-1.3 1-1.9.6-1.1 1.1-2.3 1.5-3.5.7-2.5 1.1-5.2 1.1-8.1v-1.9c-.1-2.1-.3-4.1-.7-6.1-.1-.5-.2-.9-.3-1.4-.1-.7-.3-1.5-.5-2.2-.4-1.5-.7-3-1.1-4.5-.2-.7-.5-1.4-.7-2.1-.4-1.3-.8-2.6-1.2-4-.1-.2-.2-.4-.3-.7-.2-.9-.6-1.8-.8-2.7-.2-.7-.4-1.4-.6-2-1-3.1-1.8-6.3-2.3-9.6-.2-1.1-.3-2.2-.3-3.3-.1-.4-.1-.9-.1-1.4V77c0-1 .1-2 .2-2.9 0-.3 0-.6.1-1 .1-1.4.4-2.7.7-4.1.1-.7.3-1.4.6-2.1.2-.5.3-1.1.5-1.6.6-1.5 1.2-2.9 2-4.2.2-.4.4-.7.6-1.1.1-.1.3-.3.3-.5zm-39.2.2c0 .3.1.6.1.8.1.3.2.5.2.7.1.2.1.3.1.5.1.3.2.7.3 1 .1.1.1.2.1.4.1.2.1.3.2.5 0 .2.2.5.1.7-.1.2-.6.5-.8.6l-1.5.9-.9.6c-.1.1-.3.2-.4.3-.2 0-.3.1-.5.2v.3c.1.1.3.1.4.1.5.1 1.1.1 1.6.2.3 0 .6 0 .9.1h.5c.1 0 .2 0 .3.1.3 0 1.1 0 1.2.1.3.2.3.6.3.9.2.6.3 1.2.4 1.8.1.3.2.5.3.8.1.2.2 1.1.6 1l.2-.2c.1-.2.1-.4.2-.6.4-.9.7-1.8 1-2.7.1-.2.2-.6.4-.8.3-.2 1-.1 1.3 0h.7c.3 0 .7.1 1 .1h.9c.2.1 1.1.2 1.2 0 .1-.3-.6-.8-.8-1-.7-.6-1.5-1.2-2.2-1.8-.2-.2-.6-.5-.7-.7 0-.3.4-1 .5-1.3.3-.6.5-1.2.8-1.8 0-.1.1-.2.2-.4s.2-.5.3-.8V60c-.2-.3-.9.3-1.1.4-.2.1-.4.3-.6.4-.6.4-1.3.8-1.9 1.2-.2.2-.6.2-.8.4-.3 0-.5-.3-.7-.4-.5-.4-1-.9-1.5-1.3-.2-.2-.4-.3-.7-.5-.2-.2-.7-.7-1-.8-.2.1-.2.2-.2.3zm106-1.1c-.2.1-.4.3-.5.5-.5.5-.9 1-1.4 1.6-.8.9-1.6 1.9-2.4 2.8-.4.5-.8.9-1.2 1.4-.3.4-.5.9-.9 1.4-.3.5-.7 1-1.1 1.5-.4.7-.7 1.4-1.1 2.2-.7 1.2-1.3 2.5-1.7 3.9-.5 1.6-1 3.2-1.3 5 0 .3-.1.6-.1 1 0 .3-.1.6-.1 1 0 .2 0 .4-.1.6v.7c-.2 2.3-.1 4.8.2 7 .1 1.3.4 2.6.7 3.9.4 1.6.8 3.1 1.2 4.6.1.2.2.4.3.7 0 .1.1.2.1.3 0 .1.1.2.1.3 0 .1.1.2.1.3 0 .2 0 .4.1.6.1.2.1.3.1.4.1.1.2.2.2.3 0 .1.1.2.1.3 0 .1.1.2.1.3v.3c.1.1.1.3.2.4.6 1.9 1.2 3.8 1.8 5.8.3.8.6 1.7.9 2.6.7 2.4 1.3 4.8 1.8 7.2.3 1.2.5 2.5.7 3.8.1 1 .3 1.9.3 2.9v.7c.1.7.1 1.4.1 2.1v.9c-.1 1.5-.2 2.9-.4 4.2-.1.4-.1.7-.2 1-.1.6-.3 1.2-.4 1.8-.2.8-.5 1.5-.7 2.1-.2.4-.3.8-.5 1.1v.2c.2-.2.3-.4.4-.5.2-.3.4-.6.6-.8.7-1 1.4-2.1 2-3.1.4-.7.9-1.4 1.3-2.1 1.7-2.9 3.1-5.9 4.5-9 .2-.4.3-.9.5-1.3.2-.6.4-1.3.7-1.9.1-.5.3-1 .5-1.4l.6-2.1c.4-1.1.7-2.3 1-3.4.1-.4.2-.8.3-1.3 0-.1.1-.2.1-.3l-.1-.1c.2-.3.3-.7.3-1.1.1-.4.2-.7.3-1.1l.3-1.8c.2-1.2.4-2.4.6-3.7.1-1.7.3-3.5.4-5.3v-1.1c.1-.2.1-.5.1-.8-.2-.4-.3-.9-.4-1.4-.1-.1-.1-.2-.2-.3V94c0-.1-.1-.2-.1-.3-.1-.1-.1-.3-.1-.4 0-.2-.1-.3-.2-.5v-.2c-.1-.3-.2-.5-.2-.8-.2-.5-.4-1.1-.6-1.7-.5-1.4-.9-2.7-1.4-4.1-.5-1.4-.9-2.9-1.4-4.4-.4-1.3-.8-2.6-1.1-3.9-.1-.4-.2-.7-.3-1-.2-1.1-.5-2.1-.7-3.3-.1-.2-.1-.5-.2-.7 0-.7-.1-1.4-.2-2.1-.2-1.5-.2-2.9-.1-4.5v-.6c0-.4 0-.7.1-1.1 0-.3 0-.7.1-1V63l-.3-.6c-.2-.5-.4-.9-.7-1.3l-.3-.6c-.3-.5-.5-.9-.7-1.3-.2-.2-.2-.5-.4-.6zm-121.3-.7c.1.3.2.7.3 1 .1.7.3 1.4.4 2.1.1.2.1.3.1.4.1.2.3 1 .2 1.2-.1.2-.4.3-.6.4-.6.4-1.2.8-1.8 1.1-.3.3-.7.5-1.1.7-.2.1-.3.3-.5.4-.1.1-.3.1-.4.2v.3l.1.1h.5c.3.1.6.1.9.1.6.1 1.2.1 1.8.2.4 0 .7 0 1 .1.3 0 .7-.1.9.1.2.2.2.5.3.8l.3 1.5c.1.2.1.5.2.8 0 .1 0 .2.1.3 0 .2 0 .4.1.5 0 .3.2 1.3.5 1.2.2 0 .5-1 .6-1.2l.3-.6c0-.1.1-.2.1-.3.1-.1.2-.3.2-.4.1-.2.2-.4.2-.6.1-.1.2-.3.2-.4.1-.1.1-.2.1-.3.1-.2.2-.3.3-.5 0-.2.1-.4.2-.5.2-.1.4-.1.6-.1.2 0 .3.1.4.1h.5c.5.1.9 0 1.4.1.4.1.8.1 1.3.1.2 0 1.1.2 1.3-.1.1-.2-.5-.7-.6-.8-.1 0-.2-.1-.3-.2-.8-.7-1.7-1.4-2.5-2.1-.2-.2-.5-.3-.6-.5-.1-.3.2-.7.3-1 0-.1.1-.2.1-.4.1-.1.2-.2.2-.4.1-.1.1-.2.2-.3.1-.2.2-.4.2-.6l.3-.6c.1-.2.1-.5.2-.7.1-.1.2-.3.3-.5v-.3c-.2-.3-1 .3-1.2.4-.5.3-.9.6-1.4.9-.5.2-.9.5-1.3.8-.2.1-.4.3-.7.3-.3-.1-.6-.4-.8-.6-.2-.2-.4-.4-.7-.6-.3-.2-.6-.4-.9-.7-.2-.2-.5-.5-.8-.7-.2-.2-.5-.5-.8-.5-.1.1-.2.2-.2.3zM79.2 48c0 .5.2.9.3 1.3.2.7.3 1.3.5 1.9.1.3.4 1 .2 1.3-.1.3-.7.6-1 .7l-.9.6c-.4.2-.8.4-1.1.7l-.6.3-.3.3c-.1 0-.1.1 0 .2 0 0 .1.1.2.1.2 0 .3 0 .5.1h.5c.7.1 1.4.2 2.1.2.2.1.4.1.7.1.2 0 .6 0 .8.2.2.2.2.9.3 1.3.2.4.2.9.4 1.4 0 .2.1.5.2.7.1.3.2 1.1.5 1.1.1 0 .2-.1.2-.2.2-.3.3-.6.4-.9.2-.4.3-.7.4-1.1.1-.1.2-.3.2-.5.2-.4.3-.8.5-1.2.1-.1.2-.3.3-.4.2-.2.6-.1.9-.1.3 0 .5 0 .8.1.4 0 .8.1 1.2.1H88.3c.2.1.5.1.8.1h.3l.1-.1c.1-.3-.4-.6-.5-.7l-.3-.3-2.1-1.8c-.2-.2-.6-.4-.7-.7 0-.3.1-.5.2-.7.1-.2.2-.5.3-.7.2-.5.4-.9.6-1.3.1-.3.3-.7.4-1 .1-.2.2-.4.3-.7v-.2c-.2-.3-.9.2-1.1.3-.2.1-.3.2-.5.3-.4.3-.8.6-1.3.9-.2.1-.3.2-.5.3-.2.1-.4.2-.5.3-.2.1-.3.2-.5.2H83c-.2-.1-.3-.2-.4-.3-.1-.2-.3-.3-.4-.4-.7-.5-1.3-1.1-2-1.6-.2-.2-.5-.6-.9-.6-.1.1-.1.2-.1.4zm-15.1-1.7c0 .2.1.4.1.6.1.2.1.4.2.6.2.7.3 1.4.5 2.1.1.2.4 1 .3 1.3-.1.2-.2.2-.4.3-.2.2-.5.4-.8.6-.2.1-.5.3-.7.4-.4.2-.8.5-1.3.8-.1.1-.3.2-.4.3-.2 0-.3.1-.4.2 0 .1-.1.2 0 .2 0 .1.1.1.2.1.4.2.9.1 1.4.2.2 0 .5.1.7.1.4 0 .9.1 1.3.1s1 0 1.3.2c.2.2.2.8.3 1.1 0 .2.1.5.1.7.1.3.2.7.3 1 0 .2.1.4.2.7 0 .2.2 1 .5 1 .1 0 .1-.1.2-.1 0-.1.1-.2.1-.3.1-.2.2-.3.2-.5.1-.1.1-.3.2-.5.2-.5.4-.9.6-1.4.1-.4.3-1.4.8-1.6.2-.1.9 0 1.2.1.5 0 1 0 1.5.1h.5c.5 0 1 .1 1.4.1.1 0 .2-.1.3-.1.2-.3-.6-.8-.7-.9-.8-.7-1.6-1.3-2.4-2-.2-.2-.5-.4-.5-.6-.1-.2.2-.7.2-.9.2-.4.4-.9.6-1.3 0-.1.1-.2.1-.3l.3-.6c.2-.4.4-.8.5-1.2.1-.1.1-.2.1-.3-.2-.5-1 .2-1.2.3-.6.4-1.3.8-1.9 1.2-.3.2-.5.4-.8.5-.1.1-.2.1-.3.2-.1.1-.2.1-.4.1-.3 0-.7-.4-.9-.6-.3-.2-.6-.5-.9-.7l-.5-.5c-.2-.1-.4-.3-.6-.4-.2-.2-.4-.5-.7-.6-.1-.1-.2-.1-.3-.1-.1.1-.1.2-.1.3zm-15.7-1.9c.1.6.3 1.2.4 1.8.2.7.3 1.4.4 2.1.1.2.2.5.1.8-.1.1-.4.3-.6.4-.2.2-.5.3-.8.5-.4.2-.9.5-1.3.8-.3.1-.5.3-.8.4-.1.1-1.1.6-.9.9.1.2 2.1.2 2.5.3.6.1 1.1.1 1.7.2.2 0 .8 0 1 .2.1.1.2.8.3 1 .2 1 .4 1.9.6 2.8 0 .2.2 1.2.5 1.2.2 0 .3-.6.4-.7.1-.2.2-.3.2-.4.2-.5.4-1 .6-1.4.1-.2.2-.3.2-.5.1-.1.2-.3.2-.5.1-.2.2-.3.3-.4.1-.3.2-.8.5-.9.2-.1.6 0 .8 0 .6 0 1.1.1 1.7.2h.8c.2 0 .5.1.8.1.3 0 .7.1 1.1 0 0 0 .1 0 .1-.1.2-.2-.6-.8-.8-1-.8-.7-1.6-1.3-2.4-2-.2-.2-.6-.5-.7-.7 0-.3.3-.9.4-1.1.1-.2.1-.3.2-.5s.2-.4.3-.7c.1-.1.1-.2.1-.3l.3-.4c0-.2.1-.4.2-.6l.3-.6c0-.1.1-.4.1-.5-.2-.3-1 .3-1.2.4-.5.3-1.1.6-1.7 1-.4.2-.8.5-1.2.7-.2.1-.3.3-.5.3-.3-.1-.7-.5-.9-.7-.5-.5-1.1-.9-1.6-1.3l-.6-.6c-.3-.2-.4-.4-.7-.5-.1-.1-.1-.1-.3-.1-.1.1-.1.2-.1.4zm43.3-10.8c0 .3.1.7.2 1 0 .3.1.6.1.9.1.2.1.4.2.6.1.4.1.7.2 1.1.1.3.3.9.2 1.2-.2.2-.8.5-1 .7-.8.5-1.6 1-2.5 1.5-.1.1-1 .6-.8.8.1.1.6.1.8.1.2.1.5.1.7.1.1 0 .2 0 .4.1h.5c.4 0 .7 0 1 .1.3 0 .6 0 .8.1.3 0 .6 0 .8.2.2.1.2.5.3.7.2.8.3 1.6.5 2.4 0 .2.1.5.1.7.1.3.2 1.3.5 1.3.2 0 .5-.9.6-1.1l.3-.6c.2-.4.3-.7.4-1 0-.1.1-.2.2-.3 0-.1 0-.2.1-.3.1-.2.1-.4.2-.6l.3-.6c0-.1.1-.2.2-.3 0 0 .1-.1.2-.1h.4c.6 0 1.1.1 1.7.2h.7c.4 0 .8.1 1.2.1.2 0 1.1.1 1.2-.1.1-.2-.7-.8-.8-1-.5-.4-1-.7-1.4-1.1-.2-.1-.3-.3-.5-.4-.1-.1-.1-.2-.2-.3-.3-.1-.5-.3-.7-.5l-.3-.3c0-.3.2-.7.3-.9.2-.4.3-.8.5-1.1.1-.4.4-.9.5-1.3.1-.1.1-.3.2-.4 0-.1.1-.2.1-.4.1-.1.2-.3.1-.4-.2-.3-.9.2-1.1.3-.5.3-1 .5-1.5.8-.4.3-.9.6-1.3.8-.1.1-.3.1-.4.2-.4 0-1.1-.7-1.4-1-.2-.2-.4-.3-.6-.5-.4-.3-.9-.7-1.3-1.1-.2-.2-.5-.5-.8-.6-.1.1-.1.2-.1.3zm-16-1.2c-.4 0-.1.9 0 1.1.2.8.4 1.7.6 2.5.1.2.2.5.2.7.1.2.2.3.1.5-.1.3-.6.6-.8.7-.4.3-3.1 1.8-3.2 2.1 0 .3.9.3 1.2.3.5 0 1 .1 1.5.1.4.1.9.1 1.3.2.3 0 .6-.1.8.1.2.2.2.5.3.8 0 .1 0 .3.1.5l.3 1.5.2.4c.1.4.1.7.2 1 .1.2.2.3.3.3.3 0 .5-.8.6-1 .2-.7.6-1.4.8-2.1l.3-.6c0-.2.1-.5.3-.6.3-.2 1.1 0 1.4 0h.4c.2 0 .3.1.5.1h.8c.4.1.8.1 1.1.1.2 0 .4.1.6.1.2 0 .3-.1.3-.2.2-.2-.7-.8-.8-.9-.4-.3-.8-.6-1.1-.9-.2-.1-.3-.3-.4-.4-.2-.1-.3-.3-.5-.4-.2-.2-.8-.6-.9-.9 0-.2.3-.8.4-1.1.1-.1.1-.3.2-.4.1-.2.2-.3.2-.5.1-.1.1-.2.1-.3.1-.1.1-.2.2-.3 0-.1 0-.2.1-.3 0-.1.1-.2.2-.3 0-.2.1-.3.2-.5 0-.1.1-.3.2-.5 0-.1.1-.2 0-.3-.2-.3-.9.2-1.1.4-.4.2-.7.4-1.1.6-.5.3-1 .7-1.5 1-.1.1-.3.1-.4.2-.1.1-.2.1-.3.1-.4 0-.6-.3-.8-.5-.4-.3-.7-.6-1.1-.9-.2-.2-.5-.4-.8-.6-.2-.2-.5-.4-.8-.7-.1-.1-.2-.2-.4-.2zm-16.3-1c.1.4.2.7.3 1.1.2.7.4 1.5.6 2.2.1.2.4.9.3 1.2-.1.2-.6.4-.8.5-.8.6-1.6 1-2.4 1.5-.2.2-.4.3-.6.4-.1.1-.2.1-.3.2-.1.1-.1.2 0 .2.1.2.6.2.8.2.2 0 .3.1.5.1.4 0 .8 0 1.3.1.2 0 .4 0 .6.1h1c.3.1.5 0 .7.2.2.1.2.6.3.8l.3 1.2c.1.5.2 1 .4 1.5.1.2.2 1 .5.9.1 0 .2-.1.2-.2.2-.3.3-.6.4-.9.2-.5.4-1 .6-1.6.1-.4.3-.8.5-1.3 0-.1.1-.2.2-.3.3-.2 1.5 0 1.9 0h.7c.4.1.8.1 1.2.1.3.1 1.2.2 1.3 0v-.3c-.1-.1-.2-.2-.4-.3l-.4-.4c-.7-.6-1.4-1.1-2.1-1.7-.3-.2-.7-.5-.8-.8-.1-.3.3-.9.4-1.2.3-.6.5-1.3.8-1.9.1-.1.1-.2.2-.4s.3-.6.3-.8c.1-.1.1-.2 0-.3-.1-.3-.9.2-1.1.3-.8.6-1.7 1.1-2.5 1.7l-.6.3s-.1.1-.2.1-.2 0-.3-.1c-.1-.1-.2-.1-.3-.2-.2-.2-.4-.4-.6-.5-.2-.2-.3-.3-.5-.4-.1-.1-.3-.3-.5-.4-.3-.3-.6-.5-.9-.8-.3-.2-.6-.5-.9-.5-.1.1-.2.2-.1.4zm69.5-2.1c-.1.3-.1 1 0 1.4V32.6c.1.3.1.5.1.7.1.9.3 1.7.4 2.5.1.7.3 1.4.4 2l.6 2.4c.5 2.2 1.2 4.3 1.8 6.5.8 2.5 1.6 5.1 2.4 7.6.3 1.1.5 2.2.8 3.3.1.3.1.5.2.7.2.9.4 1.7.5 2.6l.3 1.5c.1.6.2 1.1.3 1.7.3 1.5.5 3.1.5 4.7.1.8 0 1.6 0 2.4 0 .9-.1 1.8-.1 2.7-.1.3-.1.5-.1.8 0 .3-.1.7-.2 1 0 .3 0 .5-.1.7 0 .3-.1.5-.1.8-.1.5-.2.9-.4 1.4-.1.5-.2 1-.4 1.5-.1.4-.3.8-.4 1.2l-.6 1.2s0 .1-.1.2c0 .1-.1.2-.2.3 0 .2-.1.4-.2.5-.1.2-.3.5-.4.7-.1.2-.2.3-.3.5-.1.1-.1.2-.1.3-.1.1-.1.1 0 .1.2-.2.4-.5.5-.7.5-.5.9-.9 1.3-1.4.6-.8 1.3-1.6 2-2.4l.2-.2c0-.1 0-.1.1-.2s.2-.1.2-.2c.3-.3.5-.5.7-.8l1.2-1.5 2.1-2.4c.3-.4.7-.7 1-1.1.3-.4.6-.8.9-1.1.5-.6.9-1.1 1.4-1.6.2-.2.4-.4.5-.6.1-.1.1-.2.2-.3l.9-1.5c.2-.2.3-.4.4-.6.3-.5.5-1 .8-1.4.4-.7.7-1.4 1-2.2.9-2 1.3-4.2 1.6-6.5.1-.6.1-1.3.2-1.9V56v-1.9-1.4c-.1-1.8-.3-3.5-.7-5.2 0-.4-.1-.7-.1-1.1-.1-.2-.1-.4-.2-.6-.1-.2-.4-.5-.6-.8-.8-.9-1.6-1.7-2.5-2.6-1.2-1.2-2.4-2.3-3.7-3.4-.5-.5-1.1-1-1.7-1.4l-.6-.6-1.2-.9c-.4-.3-.8-.6-1.1-.9-.8-.7-1.7-1.2-2.5-1.8-1-.6-1.9-1.2-2.9-1.8-.4-.3-.9-.6-1.3-.8-.6-.3-1.1-.6-1.6-.9-.4-.2-.7-.5-1.1-.6zm-8.1-3.6c-.4.5-.9 1-1.3 1.5-.4.4-.7.9-1.1 1.3-.2.2-.3.4-.5.6-.5.6-1 1.2-1.5 1.7 0 .1-.1.2-.1.2 0 .1-.1.2-.1.2l-.3.3c-.2.2-.4.4-.6.7-.5.5-.9 1-1.4 1.5-.1.2-.3.4-.4.6-.4.4-.7.8-1 1.1-.5.6-1.1 1.3-1.6 1.9-.3.4-.7.8-1 1.2-.4.4-.8.9-1.2 1.4-1.3 1.6-2.5 3.4-3.7 5.1l-.3.6c-.2.5-.5 1-.8 1.5-.2.6-.5 1.2-.8 1.7-.4 1-.7 2-1 3.1 0 .1-.1.3-.1.4-.2.8-.4 1.7-.6 2.5-.1.4-.1.7-.2 1.1 0 .6-.1 1.1-.1 1.6-.1.3-.1.6-.2.9 0 1-.1 2-.1 3 .1.7 0 1.4.1 2.1.1.7.1 1.5.2 2.2.3 2.1.8 4.1 1.3 6.1.1.8.5 1.5.7 2.2.4 1.2.7 2.4 1.1 3.5 0 .2.1.3.1.5.3.8.5 1.6.8 2.4.1.5.3.9.4 1.3.2.6.4 1.1.5 1.7.1.3.3.7.4 1 .2.8.5 1.6.7 2.3.1.6.3 1.1.4 1.6l.3 1.2c.2.6.3 1.2.5 1.9.3 1.4.6 2.8.9 4.3.2 1 .3 2.1.4 3.1.1.2.1.3.1.5 0 .3 0 .7.1 1V103.9c0 .4 0 .8-.1 1.3 0 .2 0 .4-.1.6-.1 1.6-.4 3.1-.8 4.6-.1.5-.2 1.1-.4 1.6 0 .2-.2.3-.2.4l-.6 1.5-.3.6c0 .2 0 .3-.1.4-.1.3-.3.6-.5 1s-.4.8-.7 1.2c0 0 .1 0 0 0v.1h.1c.1-.2.4-.4.5-.6.3-.3.5-.6.8-.9l1.8-2.1 1.2-1.5c.4-.4.8-.9 1.2-1.3.4-.5.9-1 1.3-1.5.3-.4.6-.8 1-1.2.2-.3.5-.5.7-.8.5-.6 1-1.3 1.5-1.9.5-.5 1-1.1 1.5-1.8l.7-.7c.1-.2.2-.4.4-.6.2-.3.5-.7.7-1.1.1-.2.2-.3.3-.5 0-.1.1-.2.2-.3 0-.1 0-.2.1-.3.1-.2.2-.3.3-.5.6-1 1-2 1.5-3 .1-.4.3-.8.4-1.1.2-1 .5-1.9.7-2.9.1-.7.2-1.4.3-2 .1-.4.1-.8.1-1.1.1-.8.2-1.7.2-2.6v-1.2c0-.2 0-.5-.1-.7v-.7c0-.7-.1-1.3-.2-2-.1-1.1-.3-2.2-.5-3.3-.3-1.2-.4-2.4-.7-3.5-.3-1.6-.8-3.2-1.1-4.8-.3-1.1-.7-2.2-1-3.2-.7-2-1.3-3.9-1.9-5.9-.3-1.1-.7-2.3-1-3.4-.2-.6-.4-1.3-.5-1.9-.1-.2-.1-.4-.2-.6-.1-.6-.3-1.3-.4-1.9-.3-1.2-.6-2.5-.8-3.8 0-.6-.1-1.3-.2-1.9 0-1.2-.1-2.5-.1-3.8 0-.3.1-.5.1-.8v-1.2c.1-.5.1-.9.2-1.4.1-.5.1-1.1.2-1.6.3-1.6.7-3 1.1-4.5 0-.1.1-.2.1-.4v-.2c.1-.2.2-.4.3-.7.1-.1.1-.3.1-.4.1-.1.1-.2.1-.2.1-.1.1-.2.1-.3.1-.3.3-.5.4-.7.1-.3.1-.5.3-.8.1-.2.2-.4.4-.6.2-.5.4-.9.7-1.4.4-.7.9-1.4 1.4-2.2.1-.2.3-.5.5-.7 0-.1.1-.2.2-.3v-.2h-.2zm-13.6-4c0 .1.1.2.2.3.2.1.4.2.6.1l.1-.1c0-.1 0 0 0 0-.2-.2-.7-.2-.9-.3zm-11.4-1.1v.1c-.2.1-.2.3-.3.5-.1.2-.1.3-.2.5s-.2.5-.3.7c-.1.3-.4.7-.4 1 0 .3.4.5.5.7.2.1.4.3.6.4.1.2.3.3.5.5.2.1.4.3.5.4.5.5 1.2.9 1.6 1.5l.1.1c-.1.1-.1.2-.2.2h-.4c-.3 0-.5 0-.8-.1-.4 0-.7 0-1.1-.1-.5 0-1 0-1.6-.1h-1.1c-.3.1-.6.9-.7 1.1-.1.3-.2.6-.4.8 0 .1 0 .2-.1.3-.1.2-.2.4-.2.6-.1.1-.1.2-.2.3-.1.2-.1.4-.2.6-.1.2-.2.4-.3.5 0 .1-.1.1-.2.2-.3.1-.5-.9-.5-1.1-.1-.3-.2-.6-.3-1v-.3c-.1-.1-.1-.2-.1-.3-.1-.2-.1-.4-.2-.6-.1-.3-.2-1.2-.5-1.5-.2-.1-1.1-.1-1.5-.1-.7-.1-1.5-.2-2.2-.2-.3-.1-1.2-.1-1.3-.3 0-.1 0-.2.1-.2.1-.2.4-.3.6-.5.3-.1.5-.2.7-.4.7-.4 1.4-.8 2-1.2.3-.2.7-.3.8-.6 0-.2-.2-.9-.2-1.1-.1-.3-.1-.7-.3-.9 0-.1-.1-.1-.2-.1-.2 0-.4 0-.6.1-.3 0-.7 0-1 .1-1.5.1-3 .4-4.5.6-.4.1-.7.2-1.1.2-.3.1-.7.2-1.1.2-.3.1-.5.1-.8.2 0 0-.1 0-.1.1.1.2.3.3.5.5.3.3.6.5.9.8.4.3.8.7 1.2 1 .4.3.8.6 1.2 1 0 .1.1.2.1.3 0 .3-1.1.2-1.3.1-.3 0-.7 0-1.1-.1h-1c-.4-.1-.8-.1-1.2-.1-.3-.1-.7-.1-.9 0-.2.1-.3.5-.4.8-.2.5-.4 1-.7 1.5 0 .2-.1.3-.2.5 0 .1-.1.2-.1.3-.1.2-.2.4-.2.5-.1.3-.3.5-.4.8 0 .1-.1.3-.2.4 0 0-.1.1-.2.1-.2-.1-.3-1-.4-1.3-.1-.2-.1-.5-.2-.8-.1-.6-.2-1.2-.3-1.7l-.3-1.2c-.1-.1-.2-.2-.3-.2-.3-.1-.7-.1-1-.2-.6 0-1.2-.1-1.8-.1-.3 0-.6-.1-.9-.1h-.5c-.2.1-.4.2-.6.2-.8.3-1.6.7-2.3 1-1.8.7-3.4 1.5-5.1 2.3-.7.4-1.3.7-2 1-.2.2-.5.3-.7.5-.8.4-1.5.8-2.3 1.3-.2.2-.5.3-.8.5-.8.5-1.6 1-2.3 1.6-.3.1-.5.3-.7.4-.2.1-.3.2-.4.3-.1.2 0 .2.1.3.3.4.6.7 1 1 .3.2.5.5.8.7.1.2.3.3.4.4.2.2.5.3.6.6.1 0 .1.1 0 .2s-.3.1-.5.1c-.4 0-.8-.1-1.2-.1-.8-.1-1.5-.1-2.3-.2-.3 0-.8-.1-1.1 0-.2.1-.2.3-.3.5 0 .1-.1.2-.1.2 0 .1-.1.2-.1.3-.1.3-.2.5-.3.7-.1.4-.3.7-.4 1-.1.2-.2.5-.3.7 0 .1-.1.2-.1.3-.1.1-.2.3-.2.5-.1.1-.1.2-.2.3 0 .1-.1.1-.2.1s-.2-.1-.2-.2c-.2-.3-.2-.7-.3-1.1 0-.2-.1-.3-.1-.5-.1-.4-.2-.8-.3-1.3 0 0-.1-.3-.1-.2-.2.1-.3.2-.5.4-.2.1-.4.3-.6.5-.8.7-1.6 1.5-2.4 2.3-.5.5-1.1 1-1.5 1.5l-.5.5-.3.6c0 .1-.1.3-.1.4-.1.1-.2.3-.2.4-.2.5-.5 1-.7 1.5-.1.3-.2.5-.2.8.1.3.6.6.8.8.7.6 1.3 1.3 2.1 1.8.1.2.9.8.7 1-.1.2-1 0-1.2 0-.3 0-.6 0-1-.1-.6 0-1.3 0-1.9-.1-.3 0-.7-.1-.9 0-.3.2-.4.7-.5.9-.2.5-.4.9-.6 1.4 0 0-.1.1-.1.2 0 .2-.1.3-.1.4l-.3.6c-.1.2-.1.3-.2.4-.1.2-.2.8-.5.7-.1 0-.2-.2-.2-.3l-.6-2.4c-.1-.3-.1-.8-.3-1.1 0 0 0-.1-.1 0-.2.1-.3.4-.4.6-.2.2-.4.5-.6.7-.6 1-1.3 2.1-1.9 3.1-.1.2-.2.4-.3.5-.1.3-.3.5-.4.7-.3.6-.6 1.1-.9 1.6l-.9 1.8c-.1.2-.3.4-.3.6 0 .2.6.7.8.8.4.3.8.7 1.1 1 .4.3.7.6 1 .9.1.1.3.3.3.4-.1.1-.3.1-.4.1-.4 0-.9 0-1.3-.1-.6 0-1.2 0-1.8-.1h-.7c-.1 0-.3-.1-.3 0-.2.1-.7 1.3-.8 1.6-.1.3-.3.6-.4.9-.7 1.8-1.3 3.6-1.9 5.4-.3 1-.5 1.9-.8 2.9-.3 1.1-.5 2.2-.7 3.3-.1 0-.1.4-.1.4.3-.1.6-.4.8-.5.8-.4 1.4-.8 2.1-1.3.2 0 .3-.1.4-.1.3-.2.7-.5 1-.7.1-.1.1-.2.1-.3 0-.3-.1-.6-.2-.9l-.6-2.7c0-.2-.3-1.1-.1-1.2.3-.2.9.5 1.1.7.1.1.3.1.4.2.2.3.5.5.8.7.1.1.3.2.4.3.3.3.6.6.9.8.1.1.3.3.4.3.3.1.7-.3.9-.4.2-.1.3-.2.5-.2.1-.1.2-.2.4-.3l.9-.6c.3-.1.5-.3.8-.4.1-.1.2-.2.3-.2.1-.1.2-.1.3-.1.1.1.3.3.3.5.1.2-.1.4-.2.6-.2.6-.4 1.1-.7 1.7-.1.4-.4.9-.5 1.4-.1.1-.1.2-.1.4.1.2.4.3.5.5.4.4.9.7 1.4 1.1l.5.5c.1.1.2.1.3.2.4.3.8.6 1 .9.1.1.2.2.2.4 0 .3-1 .2-1.2.1h-.7c-.6-.1-1.3-.1-1.9-.2h-1.1c-.1 0-.3-.1-.4 0-.3.1-.4.6-.5.9-.3.7-.6 1.3-.9 2l-.3.9c-.1.1-.1.3-.2.5-.1.1-.3.3-.5.3-.1-.1-.4-.5-.5-.6v-.4-.2c0-.3-.1-.6-.2-.8l-.3-1.5c-.1-.4-.1-.8-.3-1.2 0-.1-.1-.1-.2-.2-.1 0-.2 0-.3-.1-.4 0-.8 0-1.2-.1-.6 0-1.2-.1-1.9-.1h-.7c-.1-.1-.9-.2-1-.1-.2.1-.3 1.1-.4 1.3-.1.6-.2 1.3-.3 1.9-.1.8-.2 1.5-.3 2.3 0 .2-.2 1.6-.1 1.7h.1c.2-.1.3-.2.5-.3.2-.1.5-.2.7-.4l.6-.3c.1 0 .2 0 .3.2 0 .3-.3.6-.4.9-.2.4-.3.8-.5 1.2-.1.1-.1.3-.2.4 0 .1-.1.3-.2.4-.1.5-.4.9-.5 1.3-.1.2-.1.3 0 .4.1.2.3.3.4.4.6.5 1.1 1 1.7 1.5.3.2.5.4.8.7.2.1.3.3.5.4.1.1.3.2.4.4v.1c0 .2-.2.3-.3.3-.5 0-.9-.1-1.3-.1-.6-.1-1.2-.1-1.8-.1-.3-.1-.5-.1-.8-.1-.1 0-.4-.1-.4.1-.1.1-.1.3-.1.5v.9c.1.2.1.4.1.6v1.8c.1.4.1.8.1 1.1 0 .3 0 .6.1.9 0 .5.1 1.1.1 1.6 0 .2 0 .3.1.5 0 .2.8.9 1.1 1 0 .1.1.1.2.1.2-.1.3-.1.4-.2.4-.2.7-.5 1.1-.7.2-.1.5-.3.7-.4.2-.2.4-.3.7-.4.1-.1.3-.2.4-.3.2-.2.9-.7 1.1-.4.1 0 .1.2 0 .3-.1.4-.3.7-.4 1.1-.1.3-.3.6-.4.9-.1.1-.2.3-.3.5l-.3.9c-.1.2-.4.7-.3.9.1.2.5.5.6.6.3.3.6.6 1 .9.4.4.8.7 1.2 1.1.1 0 .1.1.2.1.1.1.2.2.2.3.2.1.3.2.4.4v.1c0 .2-.9.1-1.1.1-.8-.1-1.5-.1-2.3-.2-.3 0-.7 0-1.1-.1h-.4c-.4.1-.5.8-.6 1.1-.1.1-.1.3-.2.4-.1.3-.2.5-.3.8-.1.3-.1.6 0 .9.1.4.2.7.3 1.1.1.3.2.7.3 1 .1.6.3 1.3.5 1.9.1.3.1.7.3.9l.3.3.9.9c.3.2.6.6.9.6.2-.1.3-.2.5-.2.2-.2.5-.4.7-.5.2-.1.4-.2.6-.4.6-.3 1.1-.7 1.6-.9l.6-.3c.1-.1.2-.1.3-.1.1-.1.2 0 .3 0 .1.3-.4 1.2-.5 1.4 0 .1-.1.3-.1.4l-.3.6c0 .1-.1.2-.1.3l-.3.6c0 .1-.1.2-.1.3-.1.3-.5.9-.4 1.2 0 .2.2.3.4.4.1.2.2.3.3.4.2.2.5.4.7.6.1.1.3.2.4.4.4.3.7.5 1.1.9.1.1.3.3.4.5.1.1.2.2.1.3-.1.3-.7.1-1 .1h-.2c-.3-.1-.6-.1-.9-.1-.7-.1-1.3-.1-1.9-.2h-1c-.1 0-.2.2-.3.3 0 .1-.1.2 0 .3 0 .2.1.4.2.5.1.3.3.6.4 1 .3.6.6 1.3.9 1.9.1.2.2.4.3.5.1.2.5 1.1.7 1.1.2-.1.3-.3.5-.5.1-.2.3-.4.4-.5l.3-.3c.5-.6.9-1.2 1.4-1.7.3-.3.5-.6.8-.9.1-.1.1-.2.2-.3.2-.2.4-.5.6-.7l.3-.3s.1-.1.1-.2l.5-.5c.3-.3.5-.6.7-.8.7-.9 1.4-1.7 2.1-2.6l.6-.6c.4-.4.7-.8 1-1.2l.5-.5c0-.1.1-.2.1-.2.2-.2.3-.4.5-.5 0-.1 0-.1.1-.2 0-.1.1-.1.2-.2s.1-.1.1-.2c.1-.1.2-.1.2-.2.2-.2.4-.4.6-.7 0-.1.1-.1.1-.2 1.4-1.4 2.6-3 3.9-4.4.2-.4.5-.6.8-1 .1-.1.2-.3.4-.4.5-.6.9-1.1 1.4-1.7.4-.4.7-.9 1.1-1.3.3-.3.5-.6.7-.9.3-.2.5-.5.7-.7.2-.3.4-.5.6-.8.8-.8 1.5-1.7 2.2-2.5.3-.4.6-.8.9-1.1l.3-.3c.2-.2.3-.5.5-.7l.4-.4c.3-.4.5-.7.8-1l.3-.3s.1-.1.1-.2c.1-.1.3-.2.4-.4.2-.2.4-.5.7-.8.4-.5.9-1.1 1.4-1.7l.1-.1c.5-.6 1.1-1.3 1.6-1.9.1 0 .1-.1.2-.2s.3-.3.4-.5c.2-.2.4-.4.6-.7 0-.1.1-.1.2-.2.4-.5.8-.9 1.2-1.4.2-.3.4-.6.6-.8.8-.9 1.6-1.9 2.4-2.8.1-.1.2-.2.2-.3.3-.3.6-.6.8-.9.2-.2.4-.4.5-.6.3-.4.6-.7.9-1 .4-.5.9-1.1 1.3-1.6.2-.3.5-.6.7-.8.1-.1.1-.2.1-.3.1 0 .1-.1.2-.1 0-.1.1-.2.1-.2.1-.1.2-.2.4-.3 0-.1.1-.2.2-.3.2-.3.4-.5.7-.7.1-.2.1-.3.2-.5.1-.1.3-.2.4-.3.3-.3.5-.6.7-.9l.3-.3c.1-.1.1-.2.2-.3.1-.1.2-.2.3-.2.2-.4.6-.7.9-1.1.3-.5.7-.9 1.1-1.4l.6-.6c0-.1.1-.2.2-.2.1-.2.2-.3.3-.4.1-.1.2-.2.2-.3l.4-.4c.1-.1.2-.4.4-.5.1-.1.2-.2.2-.3.3-.3.6-.7.9-1l.3-.3c.2-.3.4-.6.7-.9 1.3-1.5 2.5-3 3.8-4.5.1 0 .1-.1.2-.2s.2-.2.3-.4c0 0 .1-.1.1-.2.1-.1.2-.1.3-.2.1-.1.2-.3.3-.4.1-.2.2-.3.3-.4l.3-.3c.2-.2.3-.4.4-.6.1-.1.2-.1.2-.2.6-.6 1.1-1.2 1.6-1.8.1-.1.1-.2.2-.2.1-.2.2-.3.3-.4.3-.3.6-.7.9-1.1l.3-.3c.1-.1.1-.1.1-.2l.5-.5c.3-.3.5-.6.7-.9.4-.5.8-.9 1.2-1.3.4-.5.8-1.1 1.2-1.5.1-.1.2-.2.2-.3l.6-.6c.2-.3.5-.6.7-.8.5-.7 1.1-1.3 1.6-2l.8-.8s.1-.1.1-.2c.1 0 .1-.1.2-.2s.1-.2.2-.3c1-1.1 1.9-2.2 2.9-3.3.1-.2.3-.3.4-.5.1-.1.2-.3.4-.5.1-.1.3-.3.4-.5.1-.1.2-.2.3-.2.1-.2.3-.4.4-.6.1 0 .1-.1.2-.2l.3-.3c.3-.5.7-.8 1-1.2 0-.1.1-.1.1-.2.1 0 .1-.1.2-.2.1 0 .2-.1.2-.2.1-.1.1-.2.2-.2.1-.2.2-.3.3-.4.3-.3.5-.6.7-.9.1-.1.2-.1.3-.2.2-.3.4-.5.6-.8.1-.1.2-.1.3-.2.1-.1.1-.3.2-.4.2-.3.5-.5.7-.7.2-.3.4-.5.6-.8l.3-.3c.1-.2.3-.4.5-.6.2-.2.4-.5.5-.7.3-.2.5-.5.7-.7.6-.7 1.1-1.4 1.7-2 1.1-1.3 2.2-2.6 3.3-3.8.1-.2.2-.4.4-.6.2-.2.3-.4.5-.5.1-.1.1-.2.2-.3.3-.4.7-.8 1-1.2.2-.2.5-.4.5-.6-.1-.1-.3-.1-.4-.2-.3 0-.6-.1-.9-.2-.1-.1-.3-.1-.5-.2-.9-.3-1.7-.5-2.6-.8l-1.5-.3c-.1-.1-.3-.1-.4-.2-.3 0-.6-.1-.9-.2-.2 0-.4-.1-.6 0-.1 0-.1 0-.1.1-.1.2-.2.5-.3.8-.1.2-.3.4-.3.7-.1.1-.1.3 0 .4 0 .1.2.3.3.4.2.2.4.3.6.5.4.3.7.6 1.1.9.3.3.5.5.8.7.2.1.3.2.4.4.2.1.3.2.4.4.1 0 .1.1.1.2-.2.2-1.1.1-1.4.1-.6-.1-1.2-.1-1.8-.2h-.5c-.3-.1-.7-.1-1.1-.1-.2 0-.4 0-.5.1-.2.2-.5.8-.6 1.1 0 .1-.1.2-.1.3-.1.3-.2.6-.4.9 0 .1-.1.2-.1.3-.1.2-.2.4-.2.5-.1.1-.1.3-.2.4 0 .1-.1.2-.1.3-.1.2-.3.8-.5.7-.3 0-.4-.9-.4-1.1-.2-.5-.3-1-.4-1.5-.1-.1-.2-.3-.2-.5l-.3-1.2c-.1-.2-.1-.4-.2-.5-.2-.2-.8-.2-1.1-.2-.5 0-1.1-.1-1.6-.1-.7-.1-1.4-.1-2.1-.2-.1-.1-.2-.1-.2-.2-.1-.2.8-.7.9-.8.7-.4 1.3-.8 2-1.3.3-.1.7-.3.9-.6.1-.1.2-.2.2-.3.1-.4-.1-.7-.2-1-.1-.5-.2-.9-.3-1.3 0-.2-.1-.4-.2-.6h-.3c-.4-.1-.7-.1-1.1-.2h-.8c-1.9-.2-3.7-.4-5.7-.4zm-4.2 0s-.2 0-.2.1.1.2.2.2c.2.2.4.1.6-.1 0 0 .1-.1.2-.1v-.1h-.8zm1.3-2.3c1.1 0 2.2-.1 3.3 0 .8 0 1.6.1 2.4.1h.4c.6.1 1.1.1 1.6.1.7.1 1.3.2 2 .2 1 .1 1.9.3 2.9.4.2 0 .5.1.8.1.6.1 1.3.2 1.9.3 1.5.3 2.9.6 4.3 1 .3 0 .5.1.8.1.4.2.9.3 1.4.4.9.3 1.8.6 2.8.8 1.5.5 3.1 1.1 4.6 1.7.9.4 1.8.7 2.7 1.1 3.2 1.5 6.4 3.1 9.4 4.9 1.7 1.1 3.4 2.2 5.1 3.5.8.6 1.7 1.2 2.5 1.9.3.2.6.5.9.7 1.4 1.3 2.9 2.6 4.3 3.9.7.6 1.3 1.3 2 2 1.1 1.1 2.1 2.3 3.2 3.5.6.7 1.2 1.5 1.8 2.2.5.6 1 1.3 1.5 2 .3.4.7.9 1 1.3.5.9 1.1 1.7 1.7 2.5 0 .1.1.3.1.4.1 0 .1 0 .1.1l.3.3c.4.6.7 1.2 1 1.7.4.6.7 1.2 1 1.8 1.3 2.2 2.4 4.6 3.5 6.9.3.9.6 1.7 1 2.6l.6 1.5c.3.9.6 1.7.9 2.6.2.6.4 1.2.5 1.9.5 1.6 1 3.2 1.3 4.9.3 1.1.5 2.2.7 3.4.2.9.3 1.8.5 2.7 0 .3.1.6.1.9 0 .3.1.7.1 1 .2 1.2.3 2.4.4 3.6.1 1.5.2 2.9.2 4.5v.6c0 1.6-.1 3.2-.2 4.7 0 .7-.1 1.4-.1 2.1l-.3 2.1c0 .5-.1.9-.1 1.4-.1.5-.2 1.1-.3 1.7-.3 1.8-.6 3.6-1 5.3-.3 1.5-.8 3-1.2 4.4 0 .1 0 .3-.1.4 0 .1 0 .1-.1.2l-.3 1.2-.3.9c-.2.4-.3.8-.5 1.3s-.4 1-.6 1.6c-.6 1.6-1.3 3.3-2 4.9-.2.3-.3.6-.5 1l-1.2 2.4c-.1.2-.2.4-.3.5-.2.3-.3.7-.5 1-.7 1.3-1.4 2.5-2.2 3.8-1.2 1.9-2.6 3.8-4 5.7l-1.5 1.8c-.2.3-.4.5-.6.8-.4.4-.7.8-1.1 1.2-.1.2-.2.3-.3.5l-1.8 1.8c-.2.3-.5.6-.8.9-.5.5-1 1-1.6 1.5 0 .1-.1.2-.1.2-.7.7-1.4 1.3-2.1 1.9-1.5 1.4-3.1 2.6-4.7 3.8-.1.1-.3.2-.5.3 0 .1-.1.1-.1.2-.1.1-.2.1-.3.2-.7.5-1.5 1-2.2 1.5-.1.1-.3.2-.5.3-.2.2-.5.4-.8.5-1.1.8-2.2 1.4-3.3 2.1-1.7.9-3.3 1.9-5.1 2.7-1.1.5-2.3 1.1-3.4 1.6-.9.3-1.7.6-2.6 1-.5.2-1 .3-1.5.5-.4.2-.8.3-1.2.5-.7.1-1.3.4-1.9.6-.3 0-.5.1-.8.2l-.9.3c-.6.1-1.2.3-1.8.4-.5.2-1.1.3-1.6.4-1.4.3-2.9.7-4.4.9-.9.2-1.8.3-2.7.4-.2.1-.4.1-.6.1-.5.1-1 .1-1.4.2-1.3.1-2.5.2-3.8.3h-1c-4 .2-8.1.1-11.9-.4-.9-.1-1.9-.2-2.8-.3-.5-.1-1-.2-1.6-.3-1.6-.3-3.3-.6-4.9-1-.5-.2-.9-.3-1.4-.4-1.5-.4-3-.8-4.4-1.3-1.9-.6-3.7-1.3-5.5-2-.7-.3-1.3-.6-1.9-.9-1.8-.7-3.5-1.6-5.1-2.5-.9-.5-1.8-.9-2.6-1.5-.9-.5-1.7-1.1-2.6-1.6-.4-.2-.8-.5-1.2-.8l-.9-.6c-.8-.5-1.6-1.1-2.3-1.7-.7-.5-1.4-1.1-2.1-1.6-.8-.6-1.5-1.2-2.2-1.8l-1.5-1.5c-1.5-1.3-2.9-2.8-4.3-4.2-.2-.2-.4-.5-.6-.7-.4-.5-.9-.9-1.2-1.4-.3-.4-.6-.7-.9-1-.5-.8-1.2-1.5-1.7-2.3-.4-.5-.9-1-1.3-1.6-.7-1.1-1.5-2.2-2.2-3.3-.4-.5-.7-1.1-1.1-1.7-.4-.7-.8-1.3-1.1-2-.2-.3-.4-.7-.6-1-.4-.8-.8-1.6-1.3-2.4-.7-1.5-1.4-3-2-4.5-.4-1-.8-2-1.1-3-.1-.2-.2-.4-.2-.6-.2-.4-.3-.7-.4-1.1-.2-.5-.3-.9-.5-1.3-.1-.4-.2-.7-.3-1.1-.3-1-.6-2.1-.9-3.1-.1-.4-.2-.9-.3-1.3-.2-.6-.3-1.3-.5-1.9 0-.4-.1-.8-.2-1.2-.1-.4-.2-.8-.2-1.2-.2-.9-.3-1.8-.5-2.7 0-.3 0-.5-.1-.8-.1-.8-.2-1.6-.3-2.5-.1-.8-.2-1.6-.2-2.4-.2-2.4-.3-4.8-.3-7.2 0-1.4.1-2.8.2-4.2l.3-3c0-.3.1-.5.1-.8 0-.1 0-.2.1-.4 0-1 .2-2 .4-3.1.1-.7.2-1.4.4-2.1 0-.3.1-.6.2-1 .1-.5.2-1.1.3-1.7.2-.6.4-1.3.6-2 .1-.4.2-.7.3-1.1 0-.1.1-.2.1-.3 0-.1.1-.3.1-.5l.3-.9c.1-.7.3-1.3.5-1.8.3-.9.6-1.7.9-2.5 0-.1.1-.2.1-.3.2-.4.3-.8.5-1.2.4-1.3 1-2.5 1.5-3.6l.3-.6c.6-1.2 1.2-2.5 1.8-3.6.2-.4.4-.7.6-1.1 1-1.7 1.9-3.4 3.1-5.1.3-.5.7-1 1-1.5l2.7-3.6c1.1-1.4 2.3-2.8 3.6-4.1.3-.4.7-.9 1.1-1.2.2-.3.4-.5.6-.7l1.5-1.5c.7-.6 1.4-1.3 2.1-1.9 1.9-1.6 3.8-3.2 5.7-4.6.9-.6 1.8-1.2 2.6-1.8.7-.5 1.5-.9 2.2-1.4.6-.4 1.3-.8 1.9-1.2.2-.1.5-.2.7-.3l1.5-.9c.8-.4 1.7-.8 2.5-1.3.2-.1.5-.2.7-.3.7-.3 1.3-.6 1.9-.9.6-.3 1.2-.5 1.9-.8 1.6-.7 3.2-1.3 4.9-1.8 1.6-.5 3.2-1.1 4.8-1.5.3-.1.7-.1 1.1-.2.1-.1.3-.2.5-.2.1 0 .3 0 .4-.1.2 0 .5-.1.7-.1.1 0 .2-.1.3-.1.2 0 .4-.1.7-.1.1-.1.3-.1.4-.1h.3c.1-.1.3-.1.4-.1.1-.1.2-.1.2-.1h.3c.1-.1.3-.1.4-.1.1 0 .2-.1.3-.1h.4s.1 0 .1-.1h.5c.1-.1.3-.1.4-.1h.1c.1-.1.3-.1.4-.1h.3c.1-.1.2-.1.3-.1h.5c.1-.1.2-.1.3-.1H85c.1-.1.2-.1.2-.1h.7c0-.1.1-.1.2-.1H86.7c.1-.1.2-.1.3-.1h.7c.1-.1.2-.1.3-.1h.8c.1-.1.3-.1.4-.1h.8c.1-.1.3 0 .5 0 .1-.1.3 0 .4 0 .1-.1.4-.1.5-.1h.7c.2-.1.6 0 .8 0zM86.5 5.6c.1 0 .2 0 .2.1.1.2.1.6.1.8 0 .8.1 1.6.2 2.3v.7c.1.5.1 1 .2 1.5 0 .2 0 .4.1.6.1.7.1 1.4.2 2.1.1.2.3 1.5.2 1.7h-.4c-.3.1-.7.1-1 .1-.2 0-.5.1-.7.1-.1 0-.2 0-.3-.1v-.9c-.1-.4-.1-.9-.1-1.3-.1-.4-.1-.8-.1-1.2-.1-.4-.1-.7-.1-1.1l-.3-2.4c0-.3-.1-.7-.1-1-.1-.2-.3-1.6-.2-1.7.1-.1.5-.1.6-.1H85.6c.1 0 .2 0 .2-.1h.5c.1-.1.1-.1.2-.1M94.3 5.7h-.4c-.1.1-.2.1-.3.1-.7.2-1.2.8-1.5 1.4-.5.9-.6 2.2-.5 3.4.2 1.3.5 2.5 1.6 3.2.3.3.8.5 1.2.5.1-.1.3-.1.4-.1h.4s.1-.1.2-.1.2-.1.3-.1c.4-.2.8-.6 1-1 1.3-1.8 1-6-1-7.1-.4-.2-.9-.2-1.4-.2zm.1-.9h.8c1 .1 1.8.3 2.6.9.2.1.5.3.7.5.8.8 1.2 1.8 1.3 3 .5 3.1-1.5 5.5-4.4 5.9-3 .5-5.4-.9-6.1-3.7 0-.4-.1-.7-.1-1.1-.1-2.2.7-4 2.7-5 .2-.1.5-.2.7-.3.2 0 .4-.1.6-.1.1-.1.3-.1.4-.1h.8zM102.2 5.7c.2 0 .4 0 .7.1.2 0 .4 0 .6.1.2.1.2.3.3.4.1.2.3.5.4.7.9 1.3 1.7 2.6 2.6 3.9.3.4.6.8.8 1.2.2.2.3.4.4.6.1 0 .2.1.3.1.1-.2.1-.4.2-.7 0-.3.1-.7.1-1 .1-.4.1-.9.2-1.4 0-.4.1-.7.1-1.1 0-.1 0-.2.1-.4v-.1c0-.3 0-.5.1-.8 0-.2 0-.4.1-.6h.1c.1-.1 1 .1 1.1.1V7c0 .2-.1.3-.1.5-.1.4-.1.8-.2 1.2l-.3 1.5c0 .4-.1.9-.2 1.4 0 .1 0 .3-.1.5-.1.8-.2 1.6-.3 2.3-.1.7-.2 1.3-.2 2-.1 0-.1.1-.2.1-.2 0-1.1-.1-1.2-.2-.1-.1-.2-.3-.3-.5-.1-.2-.2-.4-.4-.6-.4-.7-.8-1.3-1.2-1.9-.3-.5-.6-1-1-1.5-.2-.3-.4-.7-.6-1-.2-.2-.9-1.6-1.1-1.6-.1 0-.2.1-.2.1-.1.2-.1.4-.1.6-.1.3-.2.7-.2 1.1-.1.5-.1 1-.2 1.5 0 .6-.1 1.2-.2 1.8v.5c0 .2 0 .5-.1.7h-.1-.5c-.2-.1-.4-.1-.6-.1l-.1-.1c-.1-.3.1-.6.1-.8.1-.4.2-.9.3-1.3 0-.3.1-.6.1-.9.3-1.4.5-2.9.7-4.4 0-.5.1-.9.1-1.4.1-.3.1-.6.2-.8M82.1 6c.2.1.2.3.2.5 0 0 .1.1.1.2 0 .2.1.4.1.6-.1.2-2.1.1-2.4.3-.1.1-.1.2-.1.3v.2c.1.5.1 1 .2 1.5s.2.9.3 1.4c.1 1 .3 2 .5 3 .2.6.3 1 .4 1.6 0 .1.1.2.1.4 0 .1 0 .1-.1.2s-.5.1-.7.1c-.2 0-.3 0-.5.1-.3 0-.6.1-.9.1h-.2c-.1-.2 0-.5-.1-.7 0-.4-.1-.8-.1-1.2-.1-.4-.2-.7-.2-1.1-.2-1.2-.4-2.4-.6-3.5-.1-.4-.2-.7-.2-1-.1-.3-.1-.6-.2-.8 0-.1-.1-.1-.1-.1-.2-.1-.4 0-.6 0l-1.2.3c-.2.1-.5.2-.7.1 0 0-.1 0-.1-.1V8c0-.1-.2-.5-.1-.6 0-.1.1-.1.2-.1.1-.1.2-.1.3-.1h.2c.1-.1.2-.1.3-.1h.2c.1-.1.2 0 .3 0 .1-.1.1-.1.2-.1H76.9c.1-.1.2-.1.3-.1h.5c.1-.1.2-.1.3-.1H78.3c.1-.1.4-.1.5-.1.1-.1.2-.1.4-.1h.1c.1-.1.2-.1.4-.1h.4c.1-.1.2-.1.4-.1h.1c.1-.1.3-.1.5-.1.3-.1.7-.2 1-.3M72 7.7h.5c.1 0 .2.1.2.1.2 0 .5 0 .6.1.1 0 .1.1.1.1.1.2.1.4.1.7 0 .2.1.5.1.7 0 .1 0 .1-.1.2 0 0-.1 0-.2-.1s-.2-.2-.4-.3l-.9-.3c-.4-.1-.8 0-1.2.1-.8.2-1.3.6-1.8 1.3-.8 1.2-.6 3.1 0 4.3 0 .2.1.3.2.5.2.5.6 1 1 1.3.5.4 1 .7 1.7.7h.8c.2 0 .3-.1.5-.1.3-.1.7-.3 1-.5l.8-.8c.1-.1.2-.4.3-.6.1 0 .2 0 .3.1.1.2.1.4.1.6v.3c0 .2.1.3.1.5-.1.3-1.1.9-1.4 1-.4.2-.8.3-1.2.4l-.9.3c-.2.1-.5.1-.8.1H71c-.9 0-1.9-.3-2.6-.8-1.1-.8-1.8-1.9-2.1-3.2-.1-.7-.2-1.3-.1-2.1 0-.2 0-.3.1-.5.3-1.4 1.3-2.5 2.6-3.1.5-.3.9-.4 1.4-.6.2 0 .3-.1.5-.1.2-.1.6-.2.8-.2h.2c.1 0 .2-.1.2-.1M121.6 9.9h.6c1 .1 1.8.3 2.6.7.3.1.5.1.7.3l.6.3c.1.1.5.4.5.6.1.2-.2.6-.3.8-.1.1-.2.3-.2.4-.1.1-.2.2-.3.1-.1-.1-.2-.4-.3-.5-.2-.5-.6-.9-1-1.2-1.2-.6-2.4-.5-3.5.3-.7.5-1.2 1.3-1.5 2.1-.7 1.9-.6 4.1 1.3 5.2.5.2 1.1.3 1.7.3h.5c.2-.1.4-.1.6-.1 0-.1.1-.1.2-.1.1-.1.5-.4.6-.1v.2c0 .1-.2.3-.2.4-.2.2-.3.6-.5.7-.2.1-.7.1-.9.1-.9 0-1.7-.2-2.5-.5-1-.4-1.9-.9-2.6-1.8-.2-.3-.4-.6-.5-1-.1-.1-.2-.3-.2-.5-.4-1.3-.1-2.9.4-4 .2-.3.3-.6.6-.9.2-.3.4-.5.6-.7.2-.1.3-.2.5-.3.3-.3.8-.5 1.3-.6.1-.1.2-.1.3-.1h.2c.1-.1.2-.1.3-.1h.4M63.2 10.9c.1 0 .1 0 .1.1.1.1.1.3.2.4.1.2.1.3.2.5 0 0 .1.1 0 .1-.1.2-.4.2-.6.3-.4.1-2.2.7-2.3.9 0 .3.4 1.3.5 1.5.2.3.3.6.4.8 0 .1.1.2.1.3.1.1.2.1.3.1.6-.3 1.3-.6 1.9-.9.2-.1.5-.3.7-.3.2.1.2.4.3.6.1.1.2.3.2.5 0 .1-.1.1-.1.1-.2.1-.4.1-.6.2-.4.2-.9.3-1.3.5-.3.1-.5.1-.7.3-.1 0-.1.1-.1.2s0 .2.1.3c.1.2.1.4.2.6.2.4.4.9.6 1.3.1.3.1.5.3.7 0 .1.1.1.2.1.2 0 .4-.1.6-.2.5-.3 1.1-.5 1.6-.8.1-.1.4-.3.5-.2.2 0 .2.4.3.5.1.2.2.3.2.5v.2c-.2.1-.5.2-.7.2-.1.1-.3.1-.4.2-.4.1-.8.3-1.3.5-.4.2-.9.3-1.4.5-.1.1-.3.2-.5.3-.2.1-.5.3-.7.3l-.2-.2c-.1-.1-.1-.4-.2-.6-.1-.4-.3-.8-.4-1.2-.3-.8-.6-1.6-1-2.3-.2-.6-.4-1.1-.6-1.7l-.6-1.2c-.1-.2-.8-1.7-.7-1.8 0-.2 1-.5 1.2-.5l2.7-1.2c.3-.2.7-.3 1-.5M132.3 14.7c-.1 0-.3.1-.5.1-.2.1-.5.2-.7.3-1.4.7-2.2 2.7-2.6 4.1-.5 1.8.4 3.4 2.2 3.7h.6c.1 0 .3-.1.4-.1.3-.1.6-.2.9-.4 1.2-.8 2-2.6 2.4-4 .2-.8.1-1.7-.2-2.4-.5-.8-1.5-1.3-2.5-1.3zm-.9-1.2c2.2.1 4.7 1.5 5.5 3.6.8 2.1-.1 4.4-1.5 5.8-.6.5-1.5 1-2.3 1.1-1.9.3-3.5-.3-4.8-1.2-.2-.1-.3-.2-.5-.3-.1-.1-.2-.3-.3-.4-.6-.7-1-1.4-1.1-2.3-.4-1.8.6-4 1.8-5.1.4-.4.9-.6 1.3-.8.3-.1.6-.3 1-.3h.2c.2-.1.5 0 .7-.1zM53.3 15.5c.1 0 .2 0 .2.1.2.1.2.4.3.6l.6 1.2c.3.7.7 1.5 1.1 2.2.2.5.4.9.7 1.4.2.4.4.9.7 1.3.1.3.2.5.3.7.1.1.2.1.3.1.3-.1.6-.3.8-.4.4-.2.7-.4 1.1-.6.2-.1.5-.4.7-.5.1 0 .1 0 .2.1s.1.2.1.3l.3.6c.1.1 0 .2 0 .2-.1.1-.2.2-.3.2-.4.2-.7.3-1.1.5-.3.1-.6.3-.9.4-.5.3-1 .5-1.5.8l-.6.3c-.2.1-.3.2-.4.2h-.2c-.1-.2-.2-.4-.2-.5l-.3-.6c-.4-.9-.8-1.8-1.3-2.7 0-.1-.5-.9-.5-1 .1 0 .1-.1 0-.1 0-.1-.1-.2-.2-.2-.4-.9-.8-1.7-1.2-2.5-.1-.2-.6-.9-.5-1.1v-.1s.2-.1.3-.1c.2-.1.4-.2.7-.3.3-.2.5-.3.8-.5M48.9 17.9c.1 0 .1 0 .2.1s.1.2.2.3c.1.2.2.4.3.5 0 .1 0 .1-.1.2s-.5.3-.6.3c-.5.2-.9.5-1.3.8-.2.1-.5.2-.6.3 0 .1-.1.1-.1.2s.1.2.2.3c.1.4.4.7.6 1.1.1.1.2.3.3.4.1.2.2.4.4.6h.2c.2-.1.5-.3.7-.5.4-.3.8-.6 1.3-.9.1 0 .3-.3.5-.3.1.2.1.4.3.5.1.2.2.3.2.4l.1.1c-.1.2-.5.4-.6.4-.3.2-.7.4-1 .5-.1.2-.3.3-.5.4-.2.1-.4.2-.5.3v.3c.1.1.1.2.2.3.1.2.3.4.4.6.2.4.4.7.6 1 .1.2.2.4.3.5.1.1.2.2.3.2.2 0 .3-.1.5-.2.4-.2.9-.6 1.3-.9.2-.2.4-.4.7-.5h.1c.1 0 .1 0 .1.1.1.1.1.2.2.3.1.2.3.3.3.5.1 0 .1.1 0 .2s-.2.1-.3.2l-.6.3c-.6.4-1.1.7-1.7 1l-.9.6c-.3.2-.6.4-.9.7h-.2l-.2-.2c-.1-.2-.2-.5-.4-.8-.2-.3-.3-.6-.5-.9-.2-.3-.4-.6-.6-1-.7-1.3-1.6-2.5-2.4-3.7-.1-.2-1.1-1.5-1-1.7 0-.1 1-.6 1.2-.7.1-.1.2-.1.3-.2.4-.2.7-.5 1.1-.7.1-.1.2-.2.3-.2.6-.4 1.1-.8 1.6-1.1M141.3 18.8c.1 0 .9.6 1 .7 0 .2-.1.4-.1.5 0 .3-.1.6-.1.9-.2 1.3-.4 2.7-.6 4 0 .2-.3 1.7-.1 1.8.2.2 1.6-.7 1.8-.8 1.2-.6 2.3-1.3 3.4-1.9.3-.2.5-.3.8-.5.1-.1.3-.2.5-.2.1 0 .7.4.9.5v.2c0 .2-.2.5-.3.6l-.6 1.2c-.5 1.1-1.1 2.2-1.6 3.3-.3.6-.7 1.2-1 1.9-.1.2-.7 1.6-.9 1.7-.1 0-.8-.6-1-.7-.1-.1-.8-.5-.9-.6v-.1c.1-.3.3-.6.5-.8.1-.2.2-.4.4-.6.4-.8.8-1.6 1.3-2.4.1-.3.3-.6.4-.9.1-.1.2-.3.3-.5 0-.1 0-.1-.1-.2-.1 0-1 .5-1.2.6-.9.5-1.7 1-2.6 1.5-.2.1-.5.3-.8.5-.3.1-.6.3-.9.5-.1.1-.2.2-.4.2-.1 0-.2 0-.2-.1-.2 0-.3-.1-.3-.3-.1-.2 0-.4 0-.6.1-.4.2-.8.2-1.2.2-1.1.3-2.2.5-3.2 0-.3.1-.7.1-1 0-.2.1-.4.1-.5-.1-.1-.1-.2-.1-.2-.2 0-.9.9-1.1 1-.2.3-.4.5-.6.8-.1 0-.1.1-.2.2-.4.5-.8.9-1.1 1.4-.2.3-.4.5-.6.7-.1.2-.2.4-.4.5h-.2l-.3-.3c-.2-.1-.5-.2-.5-.4-.1 0-.1-.1 0-.1.1-.3.4-.5.6-.8.3-.2.6-.5.9-.8.6-.7 1.3-1.4 1.9-2.1.6-.6 1.2-1.2 1.8-1.9.3-.3.6-.6.9-1l.5-.5M153.7 28c.2.1.4.3.5.5.1.1.2.2.3.2 0 .1.1.1.1.2s-.1.2-.1.4c-.2.3-.3.6-.4.9-.3 1-.6 2.1-1 3.1-.1.2-.1.4-.2.6-.1.4-.3.8-.4 1.2 0 .2-.2.5-.1.7 0 .1.1.1.2.1.9-.3 1.7-.6 2.6-.8.9-.4 1.9-.7 2.8-1 .4-.2.8-.3 1.3-.5 0 0 .1 0 .1.1.1 0 .7.6.8.7 0 .1 0 .1-.1.2-.1.3-.3.5-.5.8-.2.2-.4.5-.6.7l-.9 1.2c-.9 1.1-1.8 2.3-2.6 3.5-.2.2-.4.4-.6.7-.2.2-.3.5-.5.6 0 .1-.1.1-.1.1-.2 0-.7-.6-.8-.8-.2-.1-.8-.6-.8-.8v-.1c.1-.2.2-.3.3-.4.2-.2.4-.4.5-.6.4-.4.8-.9 1.1-1.3.3-.4.6-.7.9-1.1.2-.2.4-.5.7-.8 0-.1.1-.2.2-.4v-.1c-.1-.1-1.3.3-1.5.4l-1.8.6c-.4.1-.8.2-1.2.4l-.9.3c-.2.1-.3.2-.5.2-.2.1-.3.2-.5.2-.1 0-.1 0-.2-.1-.1 0-.3-.2-.3-.4s.1-.4.2-.6c.1-.2.2-.5.3-.7l1.2-3.6c.1-.2.5-1.4.4-1.5-.1-.1-.1-.1-.2 0-.1 0-.3.2-.4.3-.3.2-.5.4-.8.5l-.9.9c-.2.1-.3.2-.4.3-.4.3-.8.6-1.2 1-.1 0-.1.1-.2.2-.2.1-.5.5-.7.5h-.1c-.1-.1-.3-.2-.4-.3-.1-.2-.3-.3-.4-.4v-.2l.3-.3c.2-.1.4-.2.5-.3.4-.3.7-.5 1-.7.5-.4 1.1-.8 1.7-1.2.8-.6 1.6-1.2 2.3-1.8.7-.5 1.3-1 2-1.5M34.5 28.9c.2 0 .4.4.6.6.2.3.5.6.7.9.1 0 .1.1.2.1.2.3.4.5.6.7.3.3.5.6.7.9.5.6 1 1.1 1.5 1.7.3.2.5.5.8.7.2.2.3.5.5.6.1.1.2.1.2.1.3-.2.6-.5.8-.7.4-.4.8-.7 1.1-1.1.1-.1.3-.3.4-.3h.1c.1.2.2.3.3.4l.4.4v.2c-.1.1-.3.2-.4.3-.1.1-.3.3-.5.4-.7.6-1.5 1.2-2.1 1.9-.3.2-.5.5-.8.7l-.3.3h-.1l-.1-.1c-.1-.2-.2-.3-.3-.5-.3-.3-.6-.7-.9-1.1-1-1-1.9-2.1-2.8-3.1l-.3-.3c-.2-.3-.5-.5-.7-.8l-.6-.6c-.2-.2-.3-.3-.4-.5l-.3-.3c0-.1.1-.1.1-.2.2-.2.5-.3.7-.5.3-.3.5-.6.9-.8M29.4 37.6v.3c.1.2.2.4.3.5 0 .1.1.2.2.3.1.4.4.8.6 1.2.1.2.2.5.4.7 0 .1.1.1.2.1.4-.4.9-.9 1.2-1.3.1-.2.3-.3.3-.4 0-.2-.2-.2-.3-.3-.3-.1-.6-.2-.9-.4-.7-.2-1.3-.5-2-.7zm-1.1-2.9c.3 0 .5.2.7.3.4.2.9.3 1.3.5.1.1.2.1.3.2l2.4.9c.9.4 1.9.8 2.8 1.1.5.2 1 .4 1.5.5.2.1.5.2.7.3.1 0 .1.1.1.2l-.7.7c-.2.2-.3.4-.5.6-.1.1-.2.4-.4.5-.2 0-.4-.2-.5-.2-.5-.2-1-.4-1.5-.7-.2 0-.6-.3-.8-.2-.2 0-.7.7-.9.9-.3.3-.5.6-.8.9-.1.1-.4.4-.4.6 0 .2.2.4.3.6.2.3.4.7.6 1.1.1.2.6.8.6 1l-.4.4c-.2.2-.3.4-.5.5h-.1c-.1-.1-.2-.3-.2-.4-.1-.3-.3-.5-.4-.8-.3-.5-.5-1-.8-1.6-.6-1.2-1.2-2.4-1.9-3.6-.2-.3-.3-.7-.5-1-.2-.3-.3-.7-.5-1-.1-.2-.2-.3-.3-.5-.1-.1-.3-.3-.2-.5v-.1l.5-.5c.2-.2.3-.5.5-.7zM162.8 37.7c.1 0 .2 0 .2.1.2.2.4.5.6.7.2.3.5.6.7.8v.2c-.1.2-.3.3-.5.4l-1.2.9c-.1.2-.3.3-.5.5-.4.3-.9.6-1.3 1-.1.1-.3.2-.5.4l-.3.3c-.4.3-.9.7-1.3 1-.4.4-.8.7-1.2 1.1-.2.1-.3.3-.5.4-.1.1-.2.1-.2 0-.1 0-.1-.1-.2-.2-.1-.2-.2-.4-.4-.5-.2-.3-.5-.6-.7-.9-.1-.1-.1-.1-.1-.2s1.3-1 1.5-1.1c.2-.2.4-.3.6-.4.8-.7 1.6-1.3 2.4-2 1-.8 2-1.6 2.9-2.5M165.1 42.3c.3 0 .6 0 .9.1 1.1.3 2 1.4 2.5 2.4.1.3.5 1.4.2 1.6-.1.1-1.2.5-1.4.5-.1 0-.2-.1-.2-.2s.2-.6.2-.7c.1-.4.1-.8 0-1.2-.4-.9-1.5-1.4-2.2-.5-.6.6-.2 1.9-.1 2.6.1.5.1.9.1 1.4-.1 1.1-.8 1.8-1.6 2.2-.2.1-.4.2-.6.2-1.9.6-3.3-.8-4.1-2.2-.2-.3-.8-1.6-.6-1.9 0-.1.1-.1.1-.2.4-.1.7-.3 1-.4.2-.1.4-.2.6-.2.1 0 .2 0 .2.1.1.2-.1.4-.2.6-.1.1-.1.3-.1.5-.2.8.3 1.8 1 2.2.2.1.4.1.7.1.1 0 .2-.1.3-.1.2-.1.4-.2.5-.4.6-.6.2-1.7.1-2.5 0-.5-.1-1 0-1.5.1-1.2 1.1-2 2.1-2.4.2 0 .4 0 .6-.1M22.4 44.8c-.2.1-.5 0-.7.1-.2.1-.9.9-.7 1.1.1.2.3.3.4.4.4.2.8.5 1.1.7.2.1 1.3.9 1.5.8.1-.1.3-.4.3-.6.1-.2.2-.5.2-.7-.1-1-1.2-1.7-2.1-1.8zm.6-2.2c.3 0 .5 0 .7.1.7.1 1.6.8 1.9 1.5.1.2.1.4.1.6v.5c0 .2-.2.8 0 1 .1.1.5 0 .6 0h1c.2-.1.5 0 .7 0h.8c.2-.1.3 0 .5 0H30.9c.1 0 .3 0 .3.1v.1c0 .1-.2.3-.2.4-.2.2-.3.4-.5.6l-.3.6c-.1.1-.2.3-.3.4v.1h-.1c-.2.1-.9 0-1.1-.1-1 0-1.9-.1-2.8-.1-.1 0-1.1-.1-1.2 0 0 .1 0 .1.1.1.3.3.6.5 1 .7.6.4 1.2.7 1.8 1.1.2.1.4.2.5.3.1 0 .2.1.2.2.1.2-.4.7-.5.9-.1.1-.1.2-.2.4-.1.1-.3.6-.5.6s-.7-.4-.9-.6c-.8-.5-1.6-1.1-2.4-1.6-.7-.4-1.3-.8-2-1.2-.2-.2-.5-.4-.8-.6-.2-.1-.4-.2-.7-.4-.2-.1-.5-.3-.7-.4-.2-.1-.5-.2-.7-.4v-.2c.1-.2.3-.4.4-.5.2-.3.4-.6.5-.8l.3-.6c.5-.9 1.1-2 2.1-2.5.2-.1.5-.2.8-.3zM169.3 49.4c1 0 1.7.2 2.4.9.1.1.1.2.2.3.1.1.3.2.4.3 0 .2.1.3.1.4 0 .1.1.2.2.2.1.2.1.3.2.4 0 .2.1.3.1.5.1.2.3 1.2 0 1.4-.1.1-.3.1-.5.1s-.4.1-.6.1c-.1 0-.2.1-.3.1-.1 0-.1-.1-.1-.1-.1-.2.1-.6.2-.7.3-.8.1-1.6-.6-2.2-.2-.2-.7-.2-1-.1-1.1.4-.9 1.6-.8 2.6v1.3c0 .2 0 .4-.1.5-.3 1.6-2.1 2.4-3.7 2-1.4-.3-2.5-2-2.8-3.4-.1-.2-.3-.8-.2-1l.2-.2c.1 0 .2 0 .4-.1.1 0 .2-.1.3-.1.1 0 .3-.1.4-.1.2-.1.4-.2.6-.2.1.1.1.2.1.3 0 .2-.2.3-.2.4-.2.3-.3.5-.3.8-.1.8.4 1.8 1.1 2.1.2 0 .4.1.7.1.1-.1.2-.1.2-.1.2-.1.4-.3.5-.4.5-.6.4-1.5.3-2.2 0-.6 0-1.2.1-1.7.2-1 1-1.7 1.9-2.1.2 0 .4-.1.6-.1M17.7 49.6c.2.1.3.2.5.3.1 0 .4.1.5.2v.2c-.1.1-.1.2-.2.3l-.3.6c-.3.4-.5.8-.7 1.2-.1.2-.3.3-.2.5 0 .1.1.2.1.2.3.2.6.3.9.5.3.2.6.3.9.5.2 0 .3.1.4.2.1 0 .2 0 .3-.1.1-.1.2-.4.3-.6.3-.6.5-1.2.8-1.8.1-.1.1-.3.3-.2.1 0 .2.1.3.2.1.1.5.1.6.3.1.2-.1.4-.2.5-.3.4-.5.9-.8 1.3l-.4.8c0 .1.1.2.2.3l.6.3.6.3c.1.1.2.1.3.2.2.1.3.2.5.2l.6.3c.1.1.2.1.3 0 .1-.1.2-.4.3-.5.2-.5.4-.9.6-1.3.1-.3.2-.5.3-.8l.1-.1c.2-.1.4.1.5.2.2.1.3.1.5.2 0 .1.1.1.1.2 0 .2-.2.4-.3.5-.1.2-.1.3-.2.5-.2.2-.3.5-.4.8-.2.2-.3.4-.4.6l-.6 1.2c-.1.3-.2.6-.4.8 0 .1-.1.3-.2.4-.1 0-.2 0-.3-.1-.6-.3-1.1-.6-1.7-.9-.7-.4-1.3-.7-1.9-1.1-1.2-.6-2.4-1.2-3.6-1.7-.3-.2-.5-.3-.8-.5-.1 0-.2 0-.3-.1v-.2c0-.1.1-.2.2-.3.1-.2.3-.5.4-.7.4-.9.9-1.8 1.3-2.7.1-.3.3-.9.6-1.1M174.3 55.9c.1 0 .2 0 .2.1.1.1.2.3.2.4.1.3.2.5.3.8.1.2.3.4.4.7v.2c-.2.1-.5.1-.7.2-.5.2-1.1.5-1.6.7-1.5.6-3 1.4-4.5 2-.3.1-.5.3-.8.4-.1.1-.3.1-.5.2s-.4.3-.6.3c-.1 0-.2 0-.2-.1-.1-.1-.1-.2-.2-.4s-.2-.5-.3-.7c-.1-.3-.2-.5-.3-.8-.1 0-.1-.1 0-.1.1-.2 1.2-.6 1.4-.7.3-.1.7-.2 1-.4.2-.1.5-.2.8-.3.9-.4 1.9-.8 2.8-1.2.2-.1.3-.2.5-.2.2-.1.3-.2.5-.3.1 0 .2-.1.3-.1l.6-.3c.2-.2.5-.3.7-.4M15.5 59.8h-.3c-.1.1-.3.1-.5.2-1 .3-1.4 1.1-1.8 2.1-.1.2-.3.7-.2.9.1.2 1.4.7 1.7.8.6.2 1.2.5 1.8.7.6.2 1.2.5 1.7.7.2 0 .4.1.6.1.3.2.7.3 1 .4.1 0 .3.1.4.1.2-.2.3-.5.4-.7.1-.3.2-.6.2-.8.7-2.5-1.9-4.1-3.8-4.4-.4-.1-.8-.1-1.2-.1zm1-2.3h.6c.5.1.9.2 1.4.4.1 0 .3.1.5.2l.6.3c1.4 1.1 2.3 2.7 2.2 4.6-.1.2-.1.3-.1.4-.2.9-.4 1.6-.8 2.4-.2.4-.4.9-.5 1.4-.1.2-.2.4-.3.7v.2c0 .1-.1.1-.1.1-.2.1-1.7-.6-2-.7-1.7-.6-3.4-1.3-5.2-2-.3-.1-1.7-.4-1.8-.6 0-.1 0-.2.1-.2 0-.2.1-.4.2-.6.2-.4.3-.8.5-1.3.3-.8.5-1.7.9-2.5.3-.5.5-1 .9-1.4.4-.5.8-.8 1.3-1 .3-.1.5-.2.7-.3.2 0 .3-.1.5-.1h.4zM174.7 62.9h-.4c-.2.1-.4.1-.6.1l-1.5.6c-.8.3-1.6.8-2.2 1.6-.8 1.1-.6 2.9.6 3.6.6.5 1.3.6 2.2.6h.1c.1 0 .2 0 .2-.1H173.7c.2-.2.4-.1.6-.2.6-.3 1.2-.5 1.8-.8.1-.2.3-.3.5-.4.2-.2.5-.4.6-.6.3-.4.6-.9.7-1.4.1-1-.6-2.2-1.4-2.7-.5-.2-1.1-.3-1.8-.3zm-1.1-2.2c.8 0 1.5.2 2.2.5 1.6.8 2.6 2.4 3 4.1.1.7.2 1.4.1 2.1 0 .1-.1.2-.1.3 0 .2-.1.4-.2.7-.7 1.9-2.9 3.1-5 3.1-.5.1-1-.1-1.4-.2-2.2-.7-3.5-2.8-3.8-5-.1-.6 0-1.3.1-1.9.3-1.3 1.4-2.3 2.5-2.9.5-.3 1-.4 1.6-.6.2 0 .3-.1.5-.1h.3s.1 0 .2-.1zM10.2 67c.2 0 .4.1.5.2.2 0 .5 0 .6.2v.1c0 .1-.1.2-.1.3-.1.4-.3.8-.4 1.3-.1.3-.3.7-.4 1.1v.1c0 .1.1.1.2.2s.3.1.5.2l.9.3c.3 0 .7.2 1 .2.1 0 .2 0 .2-.1.1-.1.2-.4.2-.6.1-.3.2-.7.3-1 .1-.4.1-.8.2-1.1.1-.1.2-.2.3-.1.1 0 .2 0 .3.1.1 0 .5.1.6.2.1.1 0 .2 0 .2-.1.2-.1.4-.2.6-.1.4-.3.8-.4 1.2-.1.3-.3.6-.2.9 0 .1.1.1.2.2.1 0 .3.1.4.1l.9.3c.2 0 .4.1.7.2.2 0 .3.1.5.1.2.1.3.1.4.1.1 0 .1 0 .2-.1s.1-.5.2-.7c0-.1.1-.2.1-.3.1-.6.2-1.1.4-1.7 0-.1 0-.2.1-.2.2 0 .3.1.4.1.2 0 .4.1.6.1.1.1.1.1.1.2.1.1-.2.8-.3.9-.2.7-.3 1.3-.6 1.9v.3l-.3.9c0 .2-.1 1.1-.3 1.2h-.1c-.2 0-.5-.1-.6-.2-.2 0-.4-.1-.5-.1-1.1-.4-2.1-.7-3.2-1.1-1.2-.4-2.6-.7-3.9-1.1h-.2c-.2-.1-.6-.1-.7-.3-.2-.1.2-1 .3-1.2.1-.2.1-.5.2-.7.1-.5.3-.9.4-1.4 0-.1.1-.2.1-.3v-.4c.1-.3.2-.5.2-.7.1-.2.1-.4.2-.6M180.1 71.7h.3c.1.2.3 1 .3 1.2-.1.1-.1.2-.2.3-1 1.4-2 2.8-3.1 4.3-.1.2-.3.5-.5.8-.2.2-1 1.3-.9 1.5 0 .1.1.1.2.1H176.5c.1-.1.2-.1.3-.1.1 0 .2 0 .3-.1.2 0 .4-.1.6-.1.2-.1.5-.1.8-.2.3-.1.5-.1.8-.2.2-.1.4-.2.7-.2.1 0 .2 0 .3-.1.2 0 .5-.1.7-.1.2-.1.4-.2.6-.2.1 0 .3 0 .3.1.1.1.3.7.3.8 0 .1 0 .2-.1.3-.2.1-.4.1-.6.1l-1.5.3c-1 .2-1.9.4-2.8.6-.7.1-1.5.3-2.2.5-.2.1-.5.1-.8.2-.2 0-1.2.3-1.4.2-.1-.1-.1-.3-.1-.5-.1-.2-.2-.5-.2-.6.1-.2.2-.3.4-.5.1-.2.3-.4.5-.7.2-.3.5-.6.7-1l.9-1.2c.4-.6.9-1.3 1.4-2 .1-.1.2-.3.3-.4.2-.2.8-1 .7-1.2 0-.1 0-.1-.1-.1-.1-.1-.3 0-.4 0-.3.1-.6.1-.9.2-1.1.3-2.2.6-3.3.8-.3.1-.7.2-1 .3-.1 0-.2.1-.3.1-.1 0-.1 0-.2-.1s-.3-1-.2-1.1c.1-.1.4-.2.5-.2h.5s.1 0 .1-.1c.2 0 .5-.1.6-.1h.2c.1 0 .2-.1.3-.1.1 0 .4-.1.5-.1h.3c.1 0 .2-.1.4-.1.1 0 .3-.1.5-.1.1-.1.4-.1.6-.1.2-.1.4-.2.7-.2.1 0 .4-.1.5-.1.1-.1.6-.2.8-.2.1-.1.3-.1.5-.1.3-.1.5-.1.8-.2.1 0 .3-.1.5-.1.2-.1.6-.1.8-.2M8.2 74.5c.2 0 .3.1.5.1.1.1.5 0 .6.2.1 0 .1.1.1.2-.1.2-.2.4-.2.6-.2.4-.2.8-.3 1.1 0 .3-.1.5-.1.7-.1.1-.1.3-.1.4.1 0 .1.1.2.1l1.2.3c.1 0 .2.1.3.1.3 0 .6.1.8.1h.3c.2-.2.2-.5.2-.7.1-.4.1-.9.2-1.4.1-.2 0-.5.1-.7 0-.1 0-.1.1-.2.1 0 .4.1.5.1.1.1.5.1.6.1v.2c0 .2-.1.6-.2.8-.1.4-.1.7-.2 1.1-.1.3-.2.6-.1.9 0 0 0 .1.1.1.2.2.6.2.9.2.4.1.9.2 1.3.3.3 0 2 .2 2.1.3.1.2-.2 1.1-.2 1.3-.1.2-.1.8-.2 1-.1.1-.2.1-.3.1-.4-.2-.9-.3-1.4-.4-.6-.1-1.3-.3-2-.4l-3-.6c-.4-.1-.8-.2-1.3-.3-.2 0-1.4-.2-1.5-.3-.1-.2.1-.8.2-1 0-.3.1-.7.2-1 0-.4.1-.7.2-1 0-.5.1-.9.2-1.3 0-.3 0-.7.1-1 .1 0 .1-.1.1-.1M11.1 102.1c.2 0 .3.3.5.5.3.2.6.5.9.8.1.1.2.3.4.3.2.1 1-.4 1.2-.5.1 0 .3-.1.5-.2.1 0 .2-.1.4-.1h.1c0 .2-.2.4-.3.6-.1.2-.2.4-.3.7-.2.2-.4.5-.4.8.1.4 1.5 1.5 1.4 1.7 0 .1-.1.1-.2.1s-.3-.1-.4-.1c-.4-.1-.8-.2-1.2-.2-.1 0-.3-.1-.4 0-.2.1-.3.3-.3.4-.1.2-.2.3-.3.5-.1.1-.1.2-.2.2-.1.3-.2.5-.4.7l-.1.1c-.1-.1-.1-.3-.1-.5s-.1-.4-.1-.6c-.1-.2-.1-.9-.3-1.1-.1-.2-.6-.2-.8-.3-.4 0-.8-.1-1.1-.2-.1 0-.2 0-.2-.1l.9-.6c.3-.1.9-.2 1-.6 0-.2-.1-.5-.1-.7v-.3c0-.1-.1-.2-.1-.3v-.4c0-.2-.1-.4 0-.6M177.8 102.6h.2v.2c.1.2 0 .4 0 .6v.4c0 .2-.1.6 0 .8.1.1.3.2.4.2.1.1.3.2.4.3.2 0 .9.3.9.5-.3.2-.8.3-1.2.3-.2.1-.6.1-.7.3-.1.2-.1.5-.1.8-.1.1-.1.2-.1.4-.1.2-.1.8-.2.8-.1.1-.2 0-.2 0-.1-.1-.2-.3-.2-.4-.1-.1-.2-.3-.3-.4-.1-.3-.3-.7-.6-.9-.2-.1-.6 0-.8.1-.3 0-.6.1-.9.1-.1.1-.3.1-.5 0v-.2c.2-.1.3-.3.4-.4.2-.2.3-.3.4-.5.2-.2.5-.3.5-.6.1-.3-.2-.7-.4-.9-.1-.2-.2-.5-.3-.7 0-.1-.1-.2-.1-.3v-.1c.2 0 .4.1.6.2.1.1.3.2.4.2.3.1.7.4 1 .4.3 0 .6-.4.8-.7.1 0 .2-.1.3-.2l.3-.3M21.9 126.7s.1 0 .2.1c.1.3.2.5.3.8.1.2.2.4.4.6 0 .1.2.3.2.5v.2c-.2.1-.6.2-.8.3-.2.1-.5.3-.7.4-.3.1-.6.3-.9.4-.1.1-.3.2-.4.2-.1.1-.3.2-.4.2-.6.4-1.2.7-1.8 1.1-.5.2-.9.5-1.3.9-.1 0-.1.1-.2.1-.2.4-.4.8-.5 1.2 0 .9.5 1.9 1.2 2.3.4.2.8.3 1.4.3.1 0 .1-.1.2-.1h.2c.2 0 .3-.1.4-.1.2-.1.5-.2.7-.3l.6-.3c.9-.4 1.8-.9 2.6-1.4.4-.3.9-.5 1.4-.8.1-.1.3-.3.5-.3l.1.1c.1.2.1.3.2.5.1.1.4.4.4.6 0 .1 0 .2-.1.2-.1.2-.3.2-.5.3-.6.3-1.1.5-1.6.8l-.6.3-1.2.6c-1.1.6-2.2 1.2-3.6 1.2-.6-.1-1.2-.3-1.7-.6-.7-.5-1.2-1.1-1.5-1.8-.3-.7-.6-1.4-.6-2.2-.1-1.3.6-2.4 1.6-3.1.6-.4 1.4-.7 2-1.1l1.8-.9c.2-.2.5-.4.7-.5.4-.3.9-.5 1.3-.7M166.1 133.4v.2c0 .2.4.5.5.6.4.4.7.9 1.1 1.3.2.1.3.2.5.4 0 0 .1.1.2.1 0-.1.1-.2.1-.2.2-.3 1-1.7.9-1.9l-.1-.1h-.3c-.4-.1-.7-.2-1.1-.2-.2 0-.4-.1-.6-.1-.4-.1-.8-.1-1.2-.1zm-1.8-2.6c.5 0 .9.2 1.3.2l1.5.3h.5c.7.2 1.3.2 2 .3.8.1 1.7.2 2.5.3.5.1.9.1 1.4.1.3.1.7.1 1 .2.1 0 .1 0 .1.1 0 .2-.3.7-.4.9-.2.3-.4 1-.7 1.2-.1.1-.6-.1-.7-.1-.6-.1-1.1-.2-1.6-.2-.2-.1-.3-.1-.5-.1-.3.1-.6.8-.7 1.1-.1.1-.2.3-.3.5-.1.2-.6 1.2-.5 1.4.1.2.3.4.4.5l1.1 1.1c.1.1.5.3.5.6 0 .1-.2.4-.3.5 0 .1-.1.5-.2.5-.1.1-.2 0-.3 0-.1-.2-.3-.4-.4-.6-.4-.5-.9-1-1.3-1.5-1.2-1.3-2.3-2.6-3.5-3.9-.2-.2-.4-.4-.5-.6l-.6-.6c-.2-.2-.5-.4-.5-.6-.1-.2.3-.8.4-1 .1-.1.1-.3.2-.4 0-.1.1-.1.1-.2zM26.6 135.5s.1.1.2.1l.3.6c.1.1.2.3.3.4v.1c0 .2 0 .3-.1.4-.1.2-.1.5-.2.7-.4 1.3-.7 2.7-1.1 4-.1.4-.2.7-.3 1.1 0 .2-.5 1.7-.4 1.9h.2c.2-.1.3-.2.5-.3l.9-.6c.4-.3.7-.5 1.1-.7.4-.3.9-.7 1.3-1 .3-.1.5-.3.7-.5.2-.1.3-.2.5-.2h.1c.1.2.2.3.3.5.1.1.2.3.3.4v.2c-.1.2-.4.3-.6.4-.4.2-.7.4-1.1.6-.7.4-1.2.8-1.8 1.2-1 .6-2 1.3-3.1 1.9-.4.4-.9.7-1.4 1 0 0-.1.1-.2 0-.1 0-.7-.9-.7-1.1 0-.2.2-.4.2-.6.2-.4.3-.9.4-1.3.3-.9.5-1.9.8-2.8.1-.6.3-1.1.4-1.6.1-.3.5-1.7.4-1.9h-.2c-.2.1-.4.3-.6.4-.2.2-.5.3-.8.5-.5.4-1 .7-1.4 1-.5.4-1 .8-1.6 1.1-.1.1-.3.2-.4.3-.1 0-.1.1-.2.2h-.1c0-.1-.1-.1-.1-.1-.1-.2-.2-.3-.3-.5-.1-.1-.2-.3-.3-.4 0-.1 0-.2.1-.2.1-.2.4-.3.6-.4.4-.2.8-.5 1.2-.7 2.1-1.3 4.1-2.7 6.2-4.1M161.8 136.3c.1 0 .2.1.3.1l.6.6c.1.1.3.2.4.4v.2c-.1.1-.3 0-.4 0-.2.1-.3.1-.4.1-.8.2-1.4.7-1.8 1.4-.2.4-.3.8-.4 1.2-.1 1 .5 2.1 1.1 2.8.4.5 1.1.9 1.6 1.2.2 0 .3.1.4.2.6.2 1.2.4 1.9.4.1-.1.2 0 .3 0 .2-.1.3-.1.4-.1.2-.1.3-.1.4-.2.7-.2 1.3-.9 1.6-1.5.3-.5.4-1.1.4-1.8 0-.2-.2-.6-.1-.7 0-.2.2-.2.3-.1.2.1.3.3.5.5.1.1.3.2.4.5v.4c-.2.7-.4 1.2-.7 1.7-.6 1.2-1.5 2.4-2.7 3-.4.2-.8.3-1.3.4-.4 0-.9.1-1.4 0-1.2-.3-2.2-.8-3.1-1.7-.6-.5-1-1.1-1.3-1.9-.6-1.8.2-3.9 1.2-5.2.2-.3.3-.5.5-.8.4-.4.9-.7 1.3-1.1M32 143.7h.2c.1.1.1.2.2.3.1.2.2.3.4.5.2.3.5.6.7.9.1.1.1.2 0 .2 0 .2-.4.4-.6.5-.1.1-.3.2-.5.4-.1.1-.3.1-.4.2-.7.6-1.5 1.1-2.2 1.7-.7.5-1.3 1.1-1.9 1.6-.4.3-.9.7-1.3 1-.1.2-.3.4-.5.5h-.2c-.1-.1-.1-.2-.2-.3-.1-.1-.3-.3-.4-.5-.1-.2-.3-.4-.4-.6-.1-.1-.3-.2-.4-.3v-.2c0-.1.5-.4.6-.5.2-.1.3-.2.5-.3.1-.1.2-.1.3-.2.2-.2.4-.3.6-.5.2-.1.4-.2.5-.4.2-.1.3-.2.5-.3.2-.2.4-.3.5-.4 1.4-1.1 2.7-2.2 4-3.3M155.9 143.8c.3 0 .5.3.7.5.2.1.4.3.5.4l.4.4c.4.3.7.7 1.1 1 .2.1.4.3.5.4.9.7 1.8 1.4 2.6 2.1.4.3.7.6 1 .8.2.1.7.4.7.6v.2c-.3.3-.5.6-.8.8-.1.2-.2.3-.3.5-.1.1-.2.3-.3.3-.1.1-.1 0-.2 0-.3-.3-.6-.5-.8-.8-.2-.2-.5-.4-.7-.6-.2-.2-.5-.4-.8-.7-1.2-1-2.5-2-3.7-3-.3-.2-.5-.4-.8-.6-.1-.1-.3-.2-.4-.3 0-.1-.1-.1-.1-.2 0 0 0-.1.1-.1.1-.1.2-.2.2-.3l.6-.6c.1-.2.2-.4.3-.5.1-.1.1-.2.2-.3M34.4 146.5c.2.1.3.3.5.5s.4.5.6.7c.4.4.7.8 1.1 1.2.1.1.2.2.3.4.5.5.9 1 1.4 1.5.3.3.6.5.9.8.1.1.2.3.3.4v.2c-.1.2-.3.3-.4.4-.2.1-.3.3-.5.3-.1 0-.1 0-.2-.1-.1-.2-.2-.4-.4-.6-.2-.2-.4-.5-.7-.8 0-.1-.2-.3-.3-.3-.1 0-.2 0-.2.1-.4.2-.7.6-1 .9-.2.2-.4.4-.7.5-.2.3-.5.5-.7.8-.6.5-1.2 1.1-1.8 1.6-.1.2-.3.3-.5.5-.2.3-.5.6-.8.9-.2.2-.3.3-.4.5h-.2-.1l-.3-.3c-.1-.2-.3-.4-.4-.6-.2-.3-.6-.5-.7-.8-.1 0-.1-.1 0-.1 0-.2.3-.3.4-.4l.3-.3c.2-.2.5-.4.8-.7.1-.1.3-.2.4-.4.5-.4.9-.8 1.4-1.3.5-.4.9-.8 1.4-1.2.3-.3.6-.7.9-.9.2-.2.4-.3.5-.5v-.2c-.1-.2-.3-.3-.4-.4l-.9-.9c-.1-.1-.4-.3-.5-.5 0 0 0-.1.1-.1 0-.1.1-.1.2-.2l.4-.4c.1-.1.1 0 .2-.2M152.5 149.8c-.2 0-.3 0-.4.1-.2.1-.8.5-.8.8 0 0 .1.1.1.2.1.1.3.2.4.4.3.3.6.6.9.8.2.3.9 1.1 1.2 1.1.4-.3.7-.8.7-1.4 0-.2-.1-.7-.3-.9 0-.1-.1-.1-.1-.2-.5-.6-.9-.9-1.7-.9zm1-2c.3 0 .6 0 .9.1.9.3 1.8 1.2 1.8 2.2 0 .5-.1.9-.2 1.3 0 .1-.1.3-.2.4 0 .1.1.2.1.2.3.1.6.1.8.2 1.1.2 2.2.5 3.3.7.2 0 .4.1.6.1.2.1.4.1.6.2 0 0 .1.1 0 .2-.1.2-.4.4-.6.5-.1.1-.2.2-.2.3-.2.1-.4.3-.5.5-.2.1-.3.3-.5.4-.2.1-.8-.2-1-.3-.6-.1-1.2-.3-1.8-.5-.4-.1-.9-.2-1.3-.3-.3-.1-.5-.2-.7-.2-.1 0-.2 0-.2.1s.8.8.9.9l1.5 1.5c.2.1.4.3.6.5.1.1.1.1.1.2-.1.2-.7.7-.9.8-.1.1-.5.6-.7.7-.1 0-.2-.1-.2-.2l-2.4-2.4c-.8-.8-1.5-1.5-2.2-2.3-.3-.2-.6-.5-.9-.8-.3-.2-.5-.4-.7-.6-.1-.1-.5-.4-.5-.5v-.2c.1-.1.3-.2.4-.3l.6-.6c.8-.9 1.7-2.1 2.8-2.6.2 0 .3-.1.5-.1.1 0 .2 0 .2-.1zM148 152.6c.1 0 .1.1.2.1.1.1.2.3.3.4.1.1.3.2.3.4v.2c-.2.2-.5.3-.7.4l-1.2.9c-.2.2-.4.3-.5.4v.3c.1.2.3.3.4.5.2.3.4.5.7.8.1.2.3.5.5.6.1.1.2.1.3.1.2-.1.3-.3.5-.4.4-.3.8-.7 1.2-1.1.2-.1.3-.3.4-.4.1 0 .2 0 .3.1 0 .1.1.2.2.3.1.2.4.3.4.5s-.4.4-.5.4c-.4.3-.8.6-1.3 1-.1.1-.4.3-.5.5-.1.1-.1.2 0 .2.2.3.4.6.7.9.2.3.4.5.6.8l.6.6c0 .1.1.1.2.1.2 0 .6-.3.7-.5.4-.3.7-.6 1.1-1 .1-.1.3-.2.4-.4h.2c.1 0 .6.7.7.8v.2c-.1.1-.2.1-.3.2-.2.1-.4.3-.6.5-.3.2-.7.5-1.1.8-.4.3-.8.7-1.3 1.1-.2.1-.3.3-.5.4-.1.1-.2.3-.4.3h-.1c-.2-.2-.3-.3-.4-.5-.1-.1-.2-.3-.3-.5-.2-.2-.4-.4-.5-.6-.3-.4-.7-.8-1-1.2-.5-.7-1.1-1.4-1.6-2-.4-.4-.7-.8-1-1.2-.2-.2-1.3-1.3-1.3-1.5 0 0 .1 0 .1-.1.1-.1.3-.2.4-.3.2-.1.4-.3.6-.4.5-.4 1-.8 1.5-1.3.5-.4 1.1-.9 1.6-1.4M40.5 152.8s.1 0 .2.1c.3.4.7.7 1.1 1.1.7.6 1.4 1.1 2.1 1.7.1.1.2.2.4.3.1.1.3.2.4.4 0 .1 0 .2-.1.2 0 .1-.1.2-.2.3-.1.1-.3.4-.5.4-.1 0-.1 0-.2-.1-.2-.1-.4-.3-.5-.5-.4-.3-.7-.7-1.1-1-.1-.1-.4-.4-.5-.4-.2 0-.4.2-.5.4-.3.3-.6.6-.9 1-.1.2-.4.3-.5.6v.1c0 .2.4.4.5.5.3.2.7.5 1 .8.2.2.4.3.7.5 0 .1.1.2.1.2 0 .2-.3.3-.4.5-.1.1-.2.3-.3.4h-.2l-.3-.3-.5-.5-.8-.8c-.2-.1-.3-.3-.5-.4h-.2c-.3.2-.4.4-.6.6-.1.1-.1.2-.2.3-.3.3-.5.6-.8.9-.2.2-.3.4-.4.6-.1.1-.1.1-.1.2.1.2.4.3.5.4.5.4.9.8 1.4 1.1.1.1.4.3.5.4 0 .1 0 .1-.1.2s-.2.2-.3.4c-.1.1-.2.3-.3.3-.1.1-.1.1-.2.1-.2-.1-.5-.5-.7-.7-.8-.7-1.6-1.6-2.5-2.2-.2-.2-.4-.3-.6-.5 0-.1-.1-.1-.2-.2v-.2c0-.1.3-.3.4-.4.3-.4.7-.8 1-1.2.1-.1.2-.1.3-.2.1-.2.2-.3.3-.4.6-.7 1.3-1.4 1.8-2.1.3-.3.6-.7.9-1 .2-.3.4-.5.6-.7.2-.2.3-.4.4-.6l.6-.6M142.4 157.3h.2c.2.1.4.4.5.6.3.3.6.7.8 1 .5.5 1 1.1 1.5 1.7.4.5.9 1.1 1.4 1.6.2.3.4.6.7.8.2.2.3.4.5.6 0 .1.1.1.1.2.2.2.8.7.8.9v.2c-.3.1-.5.2-.7.3-.1.1-.3.2-.5.4-.2.1-.4.2-.6.4h-.2c-.1-.1-.2-.3-.3-.4-.1-.2-.2-.3-.3-.4-.7-1-1.5-1.9-2.3-2.9l-.6-.6c0-.1-.1-.3-.2-.3s-.1-.1-.2 0v.1c0 .5.1 1 .1 1.5.1.5.1 1 .2 1.6.1.6.2 1.2.2 1.8.1.5.2 1.1.3 1.6v.2c-.1 0-.2.1-.2.1-.1.1-.2.2-.3.2-.1-.1-.2-.1-.3-.2l-.6-.3c-.9-.6-1.9-1.2-2.9-1.7-.3-.2-.5-.3-.8-.5-.2-.1-1.2-.8-1.4-.7v.2l.3.6c.2.3.3.6.4.8.4.9 1 1.8 1.4 2.6.1.3.3.5.4.7.1.2.2.3.3.5v.1c-.1.2-.4.3-.5.4-.2.1-.3.2-.5.3 0 0-.1 0-.1-.1-.2-.2-.3-.5-.4-.7-.2-.4-.3-.7-.5-1.1-.8-1.8-1.6-3.5-2.4-5.3-.3-.5-.6-1-.8-1.5v-.2c.1-.2.3-.3.5-.4.1-.1.3-.3.5-.3.1 0 .4.2.6.3.2.2.5.3.7.5 1.2.6 2.4 1.3 3.5 2 .4.2.8.4 1.1.6.1.1.3.3.5.3v-.2c.1-.2 0-.4 0-.6 0-.5-.1-.9-.1-1.3-.1-.6-.2-1.1-.2-1.7-.1-.7-.3-1.4-.3-2.2-.1-.3-.1-.7-.2-1 0-.1-.1-.3 0-.4 0-.1.5-.4.6-.5.1-.1.2-.1.3-.2M47.3 159.6c-.1 0-.2.1-.3.2-.2.3-.4.5-.6.8-.9 1.2-1.8 2.4-2.7 3.7l-.6.9c-.1.2-.4.4-.4.6.1.3 1.5 1.1 1.7 1.2.3.1.7.2 1 .2h.5c.1-.1.3-.1.4-.1.2-.1.5-.2.7-.3 1.2-.7 2.2-2 2.5-3.3.5-1.6-.2-2.7-1.4-3.5-.3-.2-.5-.4-.8-.4zm-1.4-2.3l.3.3c.2.1.4.2.5.3.2.1.3.2.4.3.9.7 1.8 1.3 2.7 2 .7.6 1.3 1.2 1.6 2.1.2.3.3.7.3 1.1 0 1.4-.3 2.3-1.1 3.2-.2.4-.5.7-.8 1-.8.6-1.7 1-2.6 1.1h-.6c-.6 0-1.1-.1-1.6-.3-.2 0-.5-.2-.7-.3-.7-.4-1.4-.9-2-1.5-.2-.1-.4-.2-.6-.4-.2-.2-.5-.4-.8-.6-.2-.1-.4-.2-.5-.3-.1-.1-.1-.1-.1-.2 0-.2.4-.6.6-.8l.9-1.2c.4-.5.7-1 1.1-1.5.2-.2.3-.5.5-.7.5-.7 1-1.4 1.5-2 .2-.4.4-.7.6-1.1.1-.1.2-.3.4-.5zM59.8 166.3c1.3 0 2.4.5 3.3 1.3l.4.4c.1.2.3.4.2.5l-.3.3-.6.6c0 .1-.1.2-.2.2-.1.1-.1.1-.2 0-.2-.1-.1-.3-.2-.5 0-.2 0-.3-.1-.5s-.2-.4-.4-.6c-.7-.7-2-.7-2.2.3-.2.7.2 1.2.5 1.7.9 1.1 2.1 2.1 1.6 3.7-.1.6-.5 1.2-.9 1.6-1.5 1.2-3.4.8-4.9-.2-.2-.2-1.2-.9-1.2-1.2 0-.1.9-1.5 1.1-1.6h.2c.2.2.2.6.2.8.3 1 1.1 1.7 2.2 1.7h.1c.1-.1.2-.1.3-.1.5-.3.7-.8.6-1.3-.2-.7-.7-1.3-1.1-1.8-.4-.4-.7-.9-.9-1.4-.2-.5-.3-1.3-.1-1.9.1-.2.2-.5.4-.7.1-.2.2-.3.3-.5.3-.2.5-.4.9-.6.2-.1.5-.2.7-.2h.3M129.7 168.2s-.1.1 0 .2c0 .6.1 1.1.2 1.6v.8c.1.2.1.5.2.7.1.1.2.1.3.1.1 0 .2-.1.3-.1.4-.2.7-.4 1.1-.6.1-.1.4-.2.4-.4.1-.1 0-.1 0-.2-.1-.1-.3-.2-.4-.3l-.8-.8c-.3-.3-.8-.9-1.3-1zm0-3.1c.3 0 .7.6 1 .8.2.3.5.5.7.7 1 1 2 1.8 3 2.8.2.1.4.3.6.4 0 .1.1.2.2.2.2.2.3.4.5.5.6.5 1.2 1 1.7 1.5.1 0 .2.1.1.2s-.7.3-.8.4c-.3.2-.5.3-.7.4-.2.1-.4.3-.6.3h-.1l-.6-.6c-.3-.3-.6-.6-1-.9-.1-.2-.3-.5-.6-.5-.1 0-.2.1-.3.1-.5.2-1 .5-1.5.8-.3.2-.6.3-.8.5-.1 0-.2.1-.2.2-.1.3.1.6.1.9.1.4.2.9.2 1.3.1.2.2.6.1.7 0 .2-.4.3-.5.3-.2.1-.4.3-.6.3-.1 0-.1-.1-.1-.2 0-.2 0-.5-.1-.7 0-.7-.1-1.5-.2-2.2-.1-1.2-.2-2.4-.4-3.5-.1-.6-.1-1.2-.2-1.8-.1-.5-.2-1-.2-1.5-.1-.2-.1-.4-.1-.6 0 0 .1-.1.2-.1.1-.1.2-.1.3-.2.3-.1.6-.3.9-.5zM65.1 168.3c.3 0 .4.1.6.2.4.1.7.2 1 .4.9.3 1.7.6 2.5.9.5.1 1 .3 1.4.4l.9.3c.2.1.5.1.7.2 0 .1.1.2.1.3-.1.3-.2.6-.4.9v.1c-.2.1-1.1-.4-1.4-.5-.1-.1-.3-.2-.5-.2-.1-.1-.4-.3-.6 0-.1.1-.1.3-.2.5-.1.4-.3.8-.4 1.1 0 .2-.1.3-.1.4-.3.6-.5 1.2-.7 1.9-.2.6-.4 1.3-.6 2-.1.3-.2.7-.3 1-.1.2-.1.4-.2.6 0 .1 0 .2-.1.3 0 .1-.1.1-.1.1-.3 0-.6-.1-.8-.2-.1-.1-.3-.2-.5-.2-.2-.1-.6-.1-.8-.3-.1 0-.1-.1-.1-.2s.1-.2.1-.3c.2-.4.3-.9.5-1.3.1-.2.2-.5.3-.7.1-.4.2-.7.3-1.1.4-1 .8-2 1.1-3 .1-.3.2-.6.3-1 0-.1.1-.3.1-.5 0 0 0-.1-.1-.1-.1-.1-.4-.2-.5-.2l-.9-.3c-.2 0-.9-.1-1-.3 0-.1.2-.4.2-.6.1-.2.1-.4.2-.6M121.4 168.9c.1 0 .1.1.2.1.1.1.1.3.1.5.1.2.2.3.2.5 0 .1 0 .1-.1.2s-.7.1-.9.2c-.3 0-1.9.4-2 .6-.1.2.6 2.3.7 2.6.1.1.2.1.3.1h.1c.2-.1.4-.2.6-.2.6-.3 1.2-.5 1.8-.7h.1c.1 0 .1.1.2.1v.4c.1.2.2.4.2.6 0 .1-.1.1-.2.1-.2.2-.5.2-.8.2-.4.2-.8.3-1.3.4-.1 0-.5.1-.6.3v.1c.1.5.3 1 .4 1.5.2.5.4 1.1.6 1.6l.3.9v.2c-.1.1-1 .3-1.2.3-.1.1-.3.1-.4.2-.2 0-.4.2-.6.1-.1 0-.1 0-.2-.1-.1-.4-.2-.9-.3-1.4-.1-.4-.3-.7-.3-1.2-.2-.4-.3-.9-.5-1.4-.2-.7-.3-1.3-.5-2-.1-.3-.2-.7-.3-1-.1-.1-.2-.3-.2-.5l-.3-.9c-.1-.2-.3-.6-.2-.8l.1-.1h.3c.3-.1.6-.2.8-.2.2-.1.7-.3.8-.3.1 0 .2 0 .3-.1.2 0 .4-.1.6-.1.3-.1.5-.3.8-.3.2-.1.6-.2.8-.2.2-.1.3-.2.6-.2v-.1M78.1 172.2c.5 0 .9.2 1.3.3 1.2.2 2.3.4 3.4.6.3.1.6.2.9.2.4.1.8.1 1.2.2.1 0 .3 0 .5.1 0 0 .1.1.1.2s-.1.3-.1.4c-.1.2 0 .4-.1.5 0 .1 0 .1-.1.1-.1.1-.5-.1-.6-.1-.1 0-.3-.1-.4-.1-.3-.1-.6-.2-.9-.2-.2-.1-.3-.1-.4-.1-.1 0-.1.1-.2.2-.1.2-.1.4-.1.6-.1.4-.2.8-.2 1.2-.3 1.4-.6 2.9-.8 4.4-.1.5-.2 1-.2 1.4-.1.2 0 .4-.1.6l-.1.1c-.2 0-.5-.1-.7-.2-.2 0-.4-.1-.6-.1-.3 0-.7 0-.9-.1l-.1-.1c0-.2.1-.4.1-.5.2-.5.3-1.1.4-1.6l.3-1.5c0-.4.1-.8.2-1.2.1-.4.1-.8.2-1.2.1-.5.2-1.1.3-1.6 0-.2.1-.5 0-.7 0-.1 0-.1-.1-.2-.1 0-.3 0-.4-.1-.2 0-.5 0-.8-.1-.2 0-.4 0-.6-.1-.2 0-.5.1-.6-.1-.1-.1 0-.4.1-.5 0-.3 0-.5.1-.7M110.9 172.7c-.2.1-.4 0-.6.1-.8.2-1.4.5-1.8 1.2-.7 1.2-.5 2.9-.1 4.3.1.3.2.5.3.8.3.9 1.1 1.8 2 2.1h1.2c0-.1.1-.1.2-.1s.2-.1.3-.1c.4-.2.7-.4 1-.8.3-.4.5-.9.6-1.5.3-1.9-.4-4.7-1.9-5.6-.4-.3-.8-.4-1.2-.4zm.6-1c1.1 0 2.2.4 3.1 1l.6.6c.2.3.5.6.6.9.1.2.2.4.2.6.3.5.5 1.2.5 1.9v.6c0 .4-.1 1-.3 1.4-.8 2.3-3 3.5-5.5 3.5-.7.1-1.3-.1-1.9-.3-1.8-.7-2.7-2.2-3-4.1-.4-2.3.4-4.3 2.4-5.3.2-.1.4-.1.5-.2.2-.1.4-.2.6-.2.2-.1.3-.1.5-.1 0-.1.1-.1.2-.1h.2c.1-.1.2-.1.4-.1H110.9c.2-.1.4 0 .6-.1zM97.4 173.5c.7 0 1.4.1 2 .4.2 0 .4.1.4.3 0 .1-.1.5-.2.6 0 .2-.1.8-.2.9-.1.2-.3 0-.4-.1-.3-.4-.6-.7-1.1-.9-.7-.2-1.6-.1-1.9.6 0 .2-.1.5 0 .7.2 1.1 1.9 1.4 2.7 1.8.7.4 1.3.9 1.6 1.6.2.5.3 1.2.2 1.7-.1.4-.3.9-.5 1.2-.1.1-.2.3-.4.4-1 1-2.6 1.2-4.2 1-.2-.1-.9-.2-1-.4-.1 0-.1-.3-.1-.4 0-.3.1-.6.2-.8 0-.3 0-.6.1-.8.1-.1.3 0 .4.1.1.1.2.3.3.4.4.6 1 .8 1.7.8h.3c.1 0 .1 0 .2-.1.2 0 .4-.1.6-.3.4-.3.5-1 .2-1.5-.1-.2-.3-.3-.4-.4-.2-.2-.5-.3-.8-.5-1-.5-2.3-.9-2.8-2-.7-1.5-.2-3 1.2-3.8.3-.2.9-.4 1.3-.4.2-.1.4-.1.6-.1M87.3 173.6c.3 0 .6.1.9.1.4 0 .8.1 1.2.1H90.8c.4 0 .8.1 1.2.1.1 0 .6-.1.7 0 .1.1.1.1.1.2s0 .3-.1.5c0 .1.1.3 0 .5h-.2c-.3 0-.7-.1-1-.1h-.3c-.4-.1-.7-.1-1.1-.1-.2 0-.4-.1-.5 0-.2.2-.2 1.6-.2 2 0 .2-.1.4-.1.7 0 .1.1.1.1.2.2.1 1 .1 1.3.1h.6c.1-.1.4 0 .5 0h.3c.2 0 .3 0 .4.1v.1c0 .1 0 .3-.1.4v.5c0 .1 0 .1-.1.1-.1.1-.2 0-.4 0-.4 0-2.3-.4-2.6-.1-.1.1 0 .3-.1.5-.1.6 0 1.3-.1 1.9v.7c0 .1 0 .2.1.2.1.1.8.2 1 .2.1-.1.4 0 .6 0h.9c.1-.1.2-.1.2-.1.1 0 .3 0 .4.1v1.1c-.1 0-.1.1-.1.1h-.1c-.3.1-.7 0-1-.1-.9 0-1.7-.1-2.6-.2H86.8c-.1-.1-.1-.1-.1-.2 0-.2.1-.4.1-.6 0-.5 0-1 .1-1.4.1-1 .1-2.1.2-3.1 0-.7.1-1.5.1-2.2v-.7c0-.4-.1-1.4.1-1.6M73.8 174c-.2.1-.3.4-.4.6-.4.5-.7 1-1 1.5-.1.2-.2.3-.4.5v.2c0 .1.1.1.2.1.4.2.9.3 1.3.4.2 0 .4.1.6.1.2 0 .2-.1.2-.2v-.4c0-.6-.2-1.2-.2-1.8 0-.3-.1-.7-.1-.9-.1-.1-.1-.1-.2-.1zm.5-2.8l.9.3c.2 0 .4 0 .7.1 0 0 .1 0 .1.1.1.1.1.3.1.5v.9c.1.3.1.5.1.9.1.5.1 1 .2 1.5.1 1.1.2 2.3.4 3.4l.3 2.1c0 .3.1.6.1.9 0 .1 0 .2-.1.2-.3 0-.5-.2-.7-.2-.1 0-.2-.1-.3-.1-.3 0-.5-.1-.8-.1-.1-.1-.3-.1-.5-.2-.1 0-.1 0-.1-.1v-.6c-.1-.5-.1-1-.2-1.6v-.6c-.1-.1-.2-.2-.3-.2-.6-.2-1.1-.3-1.7-.4-.3-.1-1-.3-1.2-.2-.2.1-.3.3-.4.5-.2.4-.5.8-.7 1.3-.2.2-.3.5-.4.7-.1 0-.1 0-.2.1-.1 0-.4-.1-.6-.2-.1 0-.5 0-.6-.1-.1-.1-.1-.2 0-.2 0-.1.1-.2.2-.4.2-.2.4-.5.6-.7.2-.3.3-.5.5-.8.4-.4.7-1 1-1.4.6-.9 1.3-1.8 1.8-2.7l.6-.9c.3-.4.6-.8.8-1.2.2-.2.2-.4.4-.6z"/><path d="M92.4 2.6h-1.1c-.6 0-1.1.1-1.6.1-2.3.1-4.6.3-6.8.6-2.9.4-5.6.9-8.4 1.4-1.1.3-2.3.6-3.4.9-1.6.3-3.1.9-4.7 1.3l-.9.3-2.7.9c-3.2 1.2-6.3 2.6-9.3 4.1-1.5.7-3 1.6-4.6 2.4-.2.2-.4.3-.7.4-.3.2-.6.4-1 .6-.2.2-.5.3-.8.5-.3.2-.7.4-1 .7-.1 0-.3.1-.4.2l-.2.2c-.1 0-.3.1-.4.2-.7.4-1.4.9-2.1 1.4-.6.4-1.2.8-1.8 1.3l-.3.3c-.1 0-.3.1-.4.2-.1.1-.3.2-.4.3-.7.5-1.4 1-2 1.5-.4.3-.7.6-1.1.9-.8.6-1.5 1.2-2.3 1.9-.1.2-.3.3-.5.5-.4.4-.9.7-1.3 1.1-1.3 1.3-2.7 2.6-4 3.9 0 .1-.1.2-.2.3-.5.6-1 1.1-1.5 1.7l-.8.8c0 .1-.1.1-.1.2l-.6.6c-.3.3-.6.7-.9 1-.4.6-.8 1.1-1.2 1.6-.9 1.1-1.7 2.1-2.5 3.2-.9 1.3-1.9 2.6-2.7 4-2.5 3.9-4.7 7.8-6.6 12-.4 1-.8 1.9-1.2 2.9-.3.6-.5 1.1-.7 1.7-.2.4-.3.7-.4 1.1L7.3 66c-.2.6-.3 1.2-.5 1.8l-.3.9c-.1.5-.3 1.1-.4 1.6-.2.6-.3 1.2-.5 1.8-.1.5-.2.9-.3 1.4L5 75c-.2.8-.3 1.6-.5 2.4-.1.4-.2.9-.2 1.4-.1.2-.1.4-.1.6-.2.7-.3 1.3-.3 2-.1.4-.2.8-.2 1.2-.1.5-.1.9-.2 1.4v.9c-.1.1-.1.3-.1.4v.8c-.1.2-.1.5-.1.7-.1 2-.3 4.1-.3 6.2 0 .8 0 1.7.1 2.6v2c0 .2 0 .5.1.7v1c0 .7.1 1.5.2 2.2.1 1.3.2 2.6.3 3.8.1.3.1.6.2.8v.3c.1.5.1 1 .2 1.4 0 .4.1.7.1 1.1.3 1.9.7 3.8 1.1 5.6.4 2.1.9 4 1.5 6 .1.3.2.7.3 1 0 .2.1.3.2.5v.3l.3.9.9 2.7c0 .1.1.2.2.4 0 .1.1.2.1.2v.2c0 .1.1.2.1.3.1.3.3.7.4 1 0 .1.1.2.1.4.2.4.4.9.6 1.4.6 1.7 1.4 3.3 2.2 4.9.7 1.7 1.6 3.4 2.6 5.1.1.1.1.3.2.4.3.6.6 1.1.9 1.6 1 1.7 2.1 3.3 3.2 4.9.4.7.9 1.3 1.4 2 .7.9 1.3 1.9 2.1 2.8 1.3 1.7 2.7 3.3 4.2 4.9.9 1.1 1.9 2.1 2.9 3.1.4.4.7.8 1.1 1.1.4.4.8.8 1.3 1.2 1.7 1.6 3.4 3.2 5.2 4.5.2.2.4.3.6.5.4.3.8.6 1.3.9.1.1.2.3.3.4.6.3 1.1.7 1.6 1.1 1.6 1.2 3.2 2.2 4.8 3.3l2.1 1.2c2 1.2 4.1 2.3 6.2 3.3.4.2.9.5 1.3.7 1.1.5 2.3 1 3.4 1.5.6.2 1.1.5 1.6.7.6.2 1.2.4 1.8.7.4.1.8.2 1.1.4.6.2 1.2.4 1.7.6.3.1.6.2.9.2.2.1.3.2.5.3.9.2 1.7.5 2.6.7.6.2 1.3.4 1.9.5.7.2 1.3.4 2 .6.3.1.7.1 1 .2l4.2.9c1.7.3 3.4.5 5.1.7 2.5.4 5.1.6 7.8.6.5.1 1.1.1 1.6.1.2-.1.6 0 .7 0h3.3c.1-.1.7 0 .9 0 .1-.1.2 0 .3 0 .2-.1.6-.1.8-.1h.3c.2-.1.4 0 .6 0 .1-.1.4 0 .5 0 .1 0 .2-.1.2-.1h1c.1-.1.3 0 .5 0 .1-.1.2-.1.3-.1h.6c.1-.1.2 0 .2 0 .1-.1.2-.1.3-.1h.5c.1-.1.3 0 .4 0 .1-.1.2-.1.3-.1H104.7c.1 0 .2-.1.3-.1H105.6c.1-.1.2-.1.3-.1h.4c.1-.1.2-.1.2-.1H107.1c0-.1.1 0 .2 0 0-.1.1-.1.1-.1h.5c.1-.1.2-.1.3-.1h.2c.1-.1.2-.1.3-.1H109c.1-.1.2-.1.4-.1h.2c.1 0 .1 0 .2-.1h.4c.2-.1.4-.1.5-.1.1-.1.3-.1.4-.1h.3c0-.1.1-.1.2-.1.1-.1.4-.1.6-.1h.2c.1-.1.3-.1.4-.1.2-.1.4-.1.6-.1.2-.1.3-.2.5-.2s.5-.1.6-.1c.2 0 .3-.1.4-.1.3-.1.5-.1.7-.1.2-.2.5-.2.8-.2.3-.1.6-.3.9-.3.7-.2 1.5-.4 2.2-.6 1.7-.5 3.3-1 5-1.6.9-.3 1.7-.6 2.6-.9.4-.2.8-.4 1.1-.5 3.3-1.2 6.4-2.7 9.4-4.3 1.5-.8 2.9-1.7 4.4-2.6.3-.1.5-.3.8-.5 1-.6 2-1.2 2.9-1.9.2-.1.3-.2.5-.3.4-.2.7-.5 1.1-.8.2-.1.3-.2.5-.3.1 0 .1-.1.2-.1l.3-.3c.7-.5 1.4-1.1 2.2-1.6.6-.5 1.2-1 1.9-1.5l.5-.5c.5-.4.9-.8 1.4-1.2.2-.2.3-.3.5-.4l3.3-3c1-1 1.9-2 2.8-2.9.6-.6 1.2-1.2 1.7-1.8l1.5-1.8 1.8-2.1c.9-1.1 1.7-2.2 2.5-3.4.2-.2.4-.4.6-.7.3-.5.6-.9.9-1.4.5-.6.9-1.3 1.3-2 .5-.7.9-1.4 1.3-2.1.8-1.2 1.5-2.3 2.1-3.5.1-.2.2-.3.3-.5.1-.2.2-.4.3-.7l.2-.2c.1-.2.2-.4.2-.6.4-.7.7-1.3 1.1-2 .1-.2.2-.4.3-.7.2-.5.4-.9.7-1.4.3-.7.5-1.3.8-1.9.1-.2.1-.3.2-.4.4-.9.7-1.8 1.1-2.7 0-.1.1-.2.1-.4 0-.1.1-.2.1-.3.1-.1.1-.2.1-.3.1 0 .1-.1.1-.1.2-.6.4-1.1.6-1.7 0-.1.1-.2.1-.4.1-.1.1-.2.1-.3.1-.3.3-.7.4-1.1 0-.1.1-.3.1-.5l.3-.6c.4-1.5.8-2.9 1.2-4.3 0-.2.1-.3.1-.4 0-.1 0-.1.1-.2 0-.3.1-.6.2-.9l.3-1.2.3-1.2c0-.3.1-.7.2-1 0-.3.1-.6.1-.9.2-.6.3-1.2.4-1.8.1-.6.2-1.1.3-1.6.1-.6.2-1.3.3-1.9 0-.3.1-.7.1-1.1.1-.5.1-1 .2-1.5v-.3c0-.2.1-.4.1-.6 0-.3.1-.7.1-1v-.6c0-.1.1-.3.1-.5v-.2c0-.3 0-.5.1-.8v-.7c0-1 .1-2.1.1-3.1.1-2.9 0-5.7-.2-8.4-.1-.8-.1-1.5-.2-2.2v-.4c0-.3-.1-.6-.2-.8v-.4c0-.4-.1-.7-.1-1-.2-1.8-.5-3.5-.8-5.2-.9-5.1-2.2-10-3.9-14.7-.5-1.4-1.1-2.8-1.7-4.2-.2-.6-.4-1-.6-1.6-.3-.6-.6-1.2-.9-1.9-.4-.9-.9-1.8-1.3-2.7-.5-.9-1-1.9-1.5-2.8-.3-.6-.7-1.2-1-1.8-.3-.5-.7-1.1-1-1.6-.8-1.4-1.7-2.7-2.7-4.1-.6-1-1.3-2-2-2.9-.4-.5-.7-1-1.1-1.4-.1-.2-.2-.4-.4-.5l-.8-1.1c-.2-.3-.5-.5-.7-.8-1.1-1.4-2.4-2.8-3.7-4.2l-.3-.3c-.4-.5-.8-.9-1.3-1.4-1.1-1.1-2.2-2.2-3.4-3.2l-.8-.8-.3-.3-.2-.2c-.6-.4-1.1-1-1.7-1.4-.2-.2-.4-.4-.6-.5-.7-.6-1.5-1.2-2.2-1.8-.8-.6-1.5-1.2-2.3-1.7-.7-.5-1.4-1-2.2-1.5-.2-.2-.4-.3-.6-.4-.6-.5-1.2-.8-1.8-1.2-1.1-.7-2.3-1.5-3.5-2.2-.2 0-.3-.1-.5-.2-.3-.2-.7-.4-1-.6-1.5-.8-3-1.6-4.6-2.4-.3-.1-.7-.3-1-.4-.3-.2-.5-.3-.7-.4-.8-.3-1.6-.7-2.4-1-.9-.4-1.9-.8-2.9-1.2-.3-.1-.6-.2-.8-.3-.9-.3-1.7-.6-2.5-.8-.4-.2-.8-.3-1.2-.5-1.6-.5-3.1-.9-4.7-1.3l-1.2-.3c-.4-.1-.7-.2-1.1-.3-1.1-.3-2.3-.5-3.4-.7-.3-.1-.5-.1-.8-.2-.9-.2-1.8-.3-2.8-.4-.4-.1-.9-.2-1.3-.2-1.3-.2-2.7-.4-4-.5-1-.1-2-.2-3-.2-.8-.1-1.7-.2-2.5-.2h-5.3zm.5-2.5h4.4c1.9.1 3.7.2 5.6.4.3 0 .6 0 .9.1 2 .1 4 .5 6 .7 1 .2 1.9.4 2.9.6 1.1.2 2.1.4 3.2.7.9.2 1.8.4 2.6.7 1.3.3 2.5.7 3.7 1 2.6.8 5.1 1.7 7.5 2.7 1.2.5 2.4 1 3.7 1.6.7.3 1.5.7 2.2 1.1 2.4 1.1 4.6 2.3 6.8 3.6.7.5 1.4.9 2.1 1.4.2 0 .3.1.5.2.5.3.9.6 1.4 1 1.5.9 2.9 1.9 4.3 3 4.8 3.6 9.4 7.8 13.5 12.3.8.9 1.5 1.7 2.2 2.6 1 1.1 2 2.3 2.8 3.5.2.2.3.3.4.5.3.4.6.8 1 1.3.1.1.2.3.3.5.1.1.2.3.3.4.5.8 1.1 1.5 1.5 2.2.2.2.3.4.4.6.5.7.9 1.4 1.4 2.2.3.5.7 1.1 1 1.7 1 1.5 1.8 3.1 2.6 4.8 1.6 2.9 3 6 4.1 9.1.5 1.3 1 2.6 1.4 3.9.1.2.2.5.2.7.2.5.3.9.4 1.3.1.2.2.4.2.6.7 2.3 1.3 4.7 1.9 7.1.1.7.2 1.4.4 2.2.2 1.1.4 2.3.6 3.5.1.6.2 1.1.3 1.7.1.9.2 1.8.3 2.8.1.4.1.8.1 1.2.1.6.2 1.2.2 1.8.1 1.3.2 2.5.2 3.8v.5c.1.1.1.1.1.2V96c0 .3 0 .8-.1 1.2v.7c0 .1.1.2.1.4-.1.1-.1.2-.1.3-.1.8-.1 1.6-.1 2.4-.1.4-.1.8-.2 1.1-.1 2.3-.4 4.6-.7 6.8-.2.8-.3 1.6-.4 2.4-.1.1-.1.3-.1.4-.2.8-.3 1.6-.5 2.3 0 .3-.1.5-.1.7-.5 2.1-1 4.1-1.5 6.1-.2.7-.5 1.5-.7 2.2-.1.2-.2.5-.3.8-.1.4-.3.9-.4 1.4l-.6 1.5c-.1.3-.2.5-.3.8-.3 1.1-.8 2.1-1.2 3.2-.5 1.2-1 2.4-1.6 3.6-.1.3-.3.6-.4.9-.2.4-.4.7-.5 1-.4.7-.7 1.4-1.1 2.1l-.6 1.2s-.1.1-.1.2c-.2.3-.3.6-.5.9-1.1 2-2.2 3.9-3.5 5.8-1.6 2.4-3.3 4.8-5.1 7.1-.7.8-1.4 1.7-2.1 2.5-.9 1.1-1.9 2.1-2.9 3.2-.3.3-.7.8-1 1.1-1.1 1.2-2.3 2.3-3.4 3.3-.9.8-1.7 1.6-2.5 2.3-.8.7-1.7 1.4-2.5 2.1-.1.1-.3.2-.4.3-1.9 1.5-3.8 3-5.8 4.3-.1 0-.2.1-.3.2-1.3.8-2.5 1.7-3.8 2.5-.7.4-1.4.7-2 1.1-.8.4-1.5.9-2.3 1.3-.4.2-.9.5-1.3.7-.7.4-1.5.7-2.2 1.1-.5.2-.9.4-1.4.6-.8.4-1.7.8-2.5 1.2-.7.3-1.5.6-2.2.9-.8.3-1.6.6-2.3.9-.7.2-1.3.5-2 .7-1.2.4-2.4.8-3.6 1.1-.9.3-1.9.6-2.8.9-.3 0-.7.1-1 .2l-2.4.6c-.9.1-1.7.4-2.6.6-1.1.2-2.2.3-3.2.5-.8.1-1.6.2-2.3.4-.2 0-.3-.1-.5 0-.2 0-.3 0-.5.1-.2 0-.4 0-.6.1-.4 0-.8.1-1.2.1-.6.1-1.1.1-1.7.1-2 .2-4 .3-6.1.4h-4.4c-.5 0-1 0-1.5-.1-.8 0-1.6-.1-2.4-.1-.4 0-.8 0-1.2-.1-.4 0-.7 0-1-.1h-.8c-.3 0-.6-.1-.9-.1-.4-.1-.8-.1-1.3-.2-.4 0-.8-.1-1.3-.2-1.9-.2-3.9-.6-5.7-.9-.3-.1-.6-.2-.9-.2-.6-.1-1.1-.3-1.7-.4-.5-.1-.9-.2-1.4-.3-.5-.1-1-.2-1.5-.4-.2 0-.4-.1-.6-.1-.2-.1-.5-.2-.8-.3-1.1-.3-2.2-.6-3.2-.9-.3-.1-.6-.2-.8-.3-.5-.1-.9-.3-1.3-.4-.4-.2-.8-.3-1.2-.4-.5-.2-.9-.4-1.4-.6-.9-.3-1.8-.7-2.6-1-2.7-1.1-5.4-2.4-8-3.8-.8-.4-1.6-.8-2.4-1.3-1.2-.7-2.3-1.3-3.5-2.1-.3-.1-.6-.3-.9-.5l-.3-.3c-.1-.1-.3-.1-.4-.2l-1.8-1.2c-.2-.1-.3-.3-.5-.4-1.5-1-3-2.1-4.4-3.2-8.3-6.5-15.8-14.8-21.2-23.4-1.7-2.7-3.2-5.4-4.7-8.2-.9-1.9-1.7-3.8-2.5-5.6-.7-1.6-1.3-3.3-1.9-4.9-.2-.5-.3-.9-.5-1.4-.2-.8-.5-1.5-.7-2.3-.1-.3-.2-.7-.3-1.1-.1-.3-.2-.7-.3-1-.1-.3-.2-.6-.3-.8-.1-.6-.3-1.2-.4-1.8-1-3.7-1.6-7.5-2.2-11.4-.1-.8-.2-1.6-.3-2.5-.1-1.2-.2-2.5-.3-3.8 0-.6-.1-1.2-.1-1.8-.1-.4-.1-.8-.1-1.2v-1.4c-.1-1-.1-2.1-.1-3.2v-.9-.3c0-.4 0-.8.1-1.2v-.4c0-.4 0-.8.1-1.3v-.8c.1-.6.1-1.2.1-1.8 0-.4.1-.8.2-1.1v-1c.2-1.1.3-2.1.4-3.2.1-.5.2-1 .3-1.4v-.3c.1-.8.3-1.6.4-2.4.2-1.3.5-2.5.8-3.7 0-.3.1-.6.1-.8.2-.8.4-1.5.6-2.2.8-2.9 1.6-5.9 2.7-8.7.3-.8.6-1.6.9-2.5.7-1.6 1.4-3.3 2.2-5 .2-.5.5-1 .7-1.5.2-.3.3-.7.5-1 .1-.1.2-.3.3-.5.2-.5.5-.9.7-1.4.2-.3.4-.7.6-1 .4-.8.9-1.7 1.4-2.5 2.5-4.2 5.3-8.3 8.5-12.1.9-1.1 1.8-2.1 2.7-3.2.1 0 .2-.1.2-.2.3-.2.5-.5.8-.8 1.2-1.3 2.5-2.7 3.9-4 3.7-3.5 7.7-6.6 11.8-9.4 4.6-3.1 9.4-5.9 14.5-8.1 1.7-.7 3.3-1.5 5-2.1.5-.2.9-.3 1.3-.5 1.3-.5 2.7-.9 4-1.3.4-.2.8-.3 1.1-.4.2 0 .3-.1.4-.1.1 0 .3-.1.4-.1.2-.1.5-.1.8-.2.8-.2 1.7-.5 2.6-.7.3-.1.5-.2.8-.2.2-.1.3-.1.5-.1.2-.1.4-.1.5-.1.2-.1.5-.2.7-.2.1-.1.3-.1.4-.1.1-.1.7-.2.9-.2H75.7c.1-.1.2-.1.4-.1 0-.1.1-.1.2-.1h.4c.1 0 .1 0 .2-.1h.3c.1 0 .1 0 .2-.1h.5c.1-.1.2-.1.3-.1h.3c0-.1.1-.1.1-.1h.5l.1-.1h.4c.1 0 .2 0 .2-.1h.4c.1-.1.2-.1.3-.1h.5c.1-.1.2-.1.2-.1h.5c.1-.1.2-.1.3-.1h.4c.1 0 .1 0 .2-.1H83.2s.1 0 .2-.1h.7c.1-.1.2-.1.3-.1h.7c0-.1.1-.1.2-.1h.8c0-.1.1-.1.2-.1h1c0-.1.2-.1.3-.1h.8c.1-.1.4-.1.6-.1h1.4c.2-.1.5 0 .7 0 .1-.1.3-.1.5-.1h.3c.3 0 .7.1 1 0z"/></g></svg>