<?xml version="1.0" encoding="UTF-8" standalone="no"?>
<svg width="415px" height="53px" viewBox="0 0 415 53" version="1.1" xmlns="http://www.w3.org/2000/svg" xmlns:xlink="http://www.w3.org/1999/xlink" xmlns:sketch="http://www.bohemiancoding.com/sketch/ns">
    <!-- Generator: Sketch 3.3.3 (12081) - http://www.bohemiancoding.com/sketch -->
    <title>wordmark</title>
    <desc>Created with Sketch.</desc>
    <defs></defs>
    <g id="Page-1" stroke="none" stroke-width="1" fill="none" fill-rule="evenodd" sketch:type="MSPage">
        <g id="wordmark" sketch:type="MSLayerGroup" fill="#022C53">
            <g id="Federal-Election-Com-Copy-6-+-UNITED-STATES-—of—-A-Copy" transform="translate(0.000000, 0.381944)" sketch:type="MSShapeGroup">
                <path d="M7.30336407,21.0093217 L7.30336407,12.450087 L10.647186,12.450087 L11.7515676,15.4872348 L12.5491765,15.4872348 L12.5491765,8.12445217 L11.7515676,8.12445217 L10.6778633,11.1616 L7.30336407,11.1616 L7.30336407,3.30796522 L13.530849,3.30796522 L15.2180986,7.51088696 L16.077062,7.51088696 L16.077062,2.01947826 L0.677074722,2.01947826 L0.677074722,2.90914783 L3.1005787,3.58406957 L3.1005787,21.0093217 L0.677074722,21.6842435 L0.677074722,22.573913 L9.84957711,22.573913 L9.84957711,21.7149217 L7.30336407,21.0093217 Z M25.6790461,23.0034087 C28.2559364,23.0034087 30.403345,21.868313 32.0292401,20.3650783 L31.5077266,19.5674435 C30.0352178,20.6718609 28.7467727,21.162713 27.1515548,21.162713 C24.1451828,21.162713 22.427256,19.045913 22.427256,14.5362087 L22.427256,14.1987478 L32.0292401,14.1987478 C32.0599173,14.0146783 32.0905946,13.4317913 32.0905946,13.0329739 C32.0905946,9.5970087 29.7284452,7.60292174 26.2005596,7.60292174 C22.1511606,7.60292174 18.6846296,10.7321043 18.6846296,16.0087652 C18.6846296,20.7332174 21.2921971,23.0034087 25.6790461,23.0034087 L25.6790461,23.0034087 Z M26.0471733,8.58462609 C27.7344229,8.58462609 28.1639046,9.93446957 28.1639046,11.8978783 C28.1639046,12.3580522 28.1025501,12.7568696 28.0718728,13.0943304 L22.4886105,13.0943304 C22.8567377,9.93446957 24.3599237,8.58462609 26.0471733,8.58462609 L26.0471733,8.58462609 Z M42.2447695,20.8866087 C39.4838156,20.8866087 38.5941749,18.1562435 38.5941749,14.6896 C38.5941749,10.9161739 39.8212655,8.55394783 42.2754467,8.55394783 C43.4411828,8.55394783 44.6682734,9.1981913 45.189787,9.81175652 L45.189787,19.3526957 C44.3001463,20.3650783 43.226442,20.8866087 42.2447695,20.8866087 L42.2447695,20.8866087 Z M48.9937679,20.7025391 L48.9937679,0.24013913 L43.1344102,1.34455652 L43.1344102,2.20354783 L45.189787,2.47965217 L45.189787,7.90970435 C44.3921781,7.72563478 43.4718601,7.60292174 42.5208649,7.60292174 C38.8089157,7.60292174 34.8515485,10.0265043 34.8515485,16.1314783 C34.8515485,19.9049043 36.5387981,23.0034087 40.6802289,23.0034087 C42.6435739,23.0034087 44.3001463,21.7456 45.189787,20.5184696 L45.189787,23.0034087 L50.9264356,21.8069565 L50.9264356,21.0093217 L48.9937679,20.7025391 Z M60.0682607,23.0034087 C62.645151,23.0034087 64.7925596,21.868313 66.4184547,20.3650783 L65.8969412,19.5674435 C64.4244324,20.6718609 63.1359873,21.162713 61.5407695,21.162713 C58.5343975,21.162713 56.8164706,19.045913 56.8164706,14.5362087 L56.8164706,14.1987478 L66.4184547,14.1987478 C66.449132,14.0146783 66.4798092,13.4317913 66.4798092,13.0329739 C66.4798092,9.5970087 64.1176598,7.60292174 60.5897742,7.60292174 C56.5403752,7.60292174 53.0738442,10.7321043 53.0738442,16.0087652 C53.0738442,20.7332174 55.6814118,23.0034087 60.0682607,23.0034087 L60.0682607,23.0034087 Z M60.4363879,8.58462609 C62.1236375,8.58462609 62.5531192,9.93446957 62.5531192,11.8978783 C62.5531192,12.3580522 62.4917647,12.7568696 62.4610874,13.0943304 L56.8778251,13.0943304 C57.2459523,9.93446957 58.7491383,8.58462609 60.4363879,8.58462609 L60.4363879,8.58462609 Z M76.7260159,22.573913 L76.7260159,21.8376348 L74.5786073,21.2240696 L74.5786073,12.2353391 C75.6216343,11.0695652 76.511275,10.8548174 77.3088839,10.8548174 C78.2905564,10.8548174 79.2415517,11.284313 79.9471288,11.7138087 C80.315256,11.3149913 80.898124,10.333287 80.898124,9.16751304 C80.898124,7.87902609 79.977806,7.60292174 79.2415517,7.60292174 C77.891752,7.60292174 76.4192432,8.4925913 74.5786073,10.9468522 L74.5786073,7.60292174 L68.8419587,8.92208696 L68.8419587,9.7504 L70.7746264,10.0571826 L70.7746264,21.2240696 L68.8419587,21.8376348 L68.8419587,22.573913 L76.7260159,22.573913 Z M92.9849666,23.0034087 C94.0279936,23.0034087 95.6232114,22.8193391 96.7582703,22.5125565 L96.7889475,21.7762783 L96.144725,21.7762783 C95.2857615,21.7762783 94.8869571,21.5922087 94.8869571,20.4264348 L94.8869571,11.8058435 C94.8869571,9.41293913 93.7825755,7.60292174 89.9785946,7.60292174 C87.0335771,7.60292174 82.9841781,8.76869565 82.9841781,11.2536348 C82.9841781,11.8365217 83.1989189,12.6341565 85.4690366,12.6341565 L86.6040954,12.6341565 C86.6654499,10.0878609 87.5550906,8.58462609 89.211663,8.58462609 C90.5307854,8.58462609 90.9909444,9.44361739 90.9909444,11.5910957 L90.9909444,14.9963826 C85.7758092,15.6713043 82.5853736,17.389287 82.5853736,20.1810087 C82.5853736,22.3898435 84.3339777,23.0034087 86.1132591,23.0034087 C87.9538951,23.0034087 89.7024992,22.2364522 90.9909444,20.7332174 L90.9909444,21.162713 C90.9909444,22.3591652 91.5738124,23.0034087 92.9849666,23.0034087 L92.9849666,23.0034087 Z M88.1993132,21.1320348 C87.248318,21.1320348 86.6040954,20.5184696 86.6040954,19.4140522 C86.6040954,17.2052174 89.334372,16.2848696 90.9909444,15.9167304 L90.9909444,19.4447304 C90.25469,20.5184696 89.1196312,21.1320348 88.1993132,21.1320348 L88.1993132,21.1320348 Z M106.053482,22.573913 L106.053482,21.8376348 L104.120814,21.2547478 L104.120814,0.301495652 L98.3841653,1.52862609 L98.3841653,2.35693913 L100.316833,2.66372174 L100.316833,21.2547478 L98.3841653,21.8376348 L98.3841653,22.573913 L106.053482,22.573913 Z M115.870207,22.573913 L131.42358,22.573913 L131.699676,16.4075826 L130.840712,16.4075826 L128.877367,21.2854261 L122.496496,21.2854261 L122.496496,12.450087 L126.024382,12.450087 L127.098086,15.4872348 L127.895695,15.4872348 L127.895695,8.12445217 L127.098086,8.12445217 L126.024382,11.1616 L122.496496,11.1616 L122.496496,3.30796522 L128.631949,3.30796522 L130.349876,7.51088696 L131.208839,7.51088696 L131.208839,2.01947826 L115.870207,2.01947826 L115.870207,2.90914783 L118.293711,3.58406957 L118.293711,21.0093217 L115.870207,21.6842435 L115.870207,22.573913 Z M141.97656,22.573913 L141.97656,21.8376348 L140.043892,21.2547478 L140.043892,0.301495652 L134.307243,1.52862609 L134.307243,2.35693913 L136.239911,2.66372174 L136.239911,21.2547478 L134.307243,21.8376348 L134.307243,22.573913 L141.97656,22.573913 Z M151.271771,23.0034087 C153.848661,23.0034087 155.99607,21.868313 157.621965,20.3650783 L157.100452,19.5674435 C155.627943,20.6718609 154.339498,21.162713 152.74428,21.162713 C149.737908,21.162713 148.019981,19.045913 148.019981,14.5362087 L148.019981,14.1987478 L157.621965,14.1987478 C157.652642,14.0146783 157.68332,13.4317913 157.68332,13.0329739 C157.68332,9.5970087 155.32117,7.60292174 151.793285,7.60292174 C147.743886,7.60292174 144.277355,10.7321043 144.277355,16.0087652 C144.277355,20.7332174 146.884922,23.0034087 151.271771,23.0034087 L151.271771,23.0034087 Z M151.639898,8.58462609 C153.327148,8.58462609 153.75663,9.93446957 153.75663,11.8978783 C153.75663,12.3580522 153.695275,12.7568696 153.664598,13.0943304 L148.081335,13.0943304 C148.449463,9.93446957 149.952649,8.58462609 151.639898,8.58462609 L151.639898,8.58462609 Z M160.444273,16.3155478 C160.444273,21.162713 163.389291,23.0034087 167.009208,23.0034087 C169.67813,23.0034087 171.917571,21.7456 173.482111,20.2423652 L172.960598,19.4447304 C171.549444,20.5184696 170.168967,21.162713 168.78849,21.162713 C165.812795,21.162713 164.1869,18.7698087 164.1869,15.1190957 C164.1869,11.038887 165.659409,8.55394783 167.837494,8.55394783 C169.647453,8.55394783 169.954226,10.3639652 169.984903,12.4807652 C172.684502,12.4807652 173.298048,11.6831304 173.298048,10.6707478 C173.298048,8.83005217 170.874544,7.60292174 168.389685,7.60292174 C163.481323,7.60292174 160.444273,11.3149913 160.444273,16.3155478 L160.444273,16.3155478 Z M180.476528,23.0034087 C182.010391,23.0034087 183.82035,22.3591652 185.016763,21.5922087 L184.70999,20.6105043 C184.065768,20.9786435 183.053418,21.3467826 182.47055,21.3467826 C181.427523,21.3467826 181.090073,20.7638957 181.090073,19.3526957 L181.090073,9.41293913 L184.587281,9.41293913 L184.587281,8.03241739 L181.090073,8.03241739 L181.090073,4.47373913 L179.955014,4.47373913 L177.316769,8.03241739 L175.322747,8.03241739 L175.322747,9.41293913 L177.286092,9.41293913 L177.286092,19.5981217 C177.286092,21.9296696 178.359797,23.0034087 180.476528,23.0034087 L180.476528,23.0034087 Z M190.600025,5.08730435 C191.888471,5.08730435 192.90082,4.04424348 192.90082,2.8477913 C192.90082,1.52862609 191.888471,0.5776 190.600025,0.5776 C189.31158,0.5776 188.299231,1.62066087 188.299231,2.81711304 C188.299231,4.13627826 189.31158,5.08730435 190.600025,5.08730435 L190.600025,5.08730435 Z M194.465361,22.573913 L194.465361,21.8376348 L192.532693,21.2547478 L192.532693,7.60292174 L186.796045,8.92208696 L186.796045,9.7504 L188.728712,10.0571826 L188.728712,21.2547478 L186.796045,21.8376348 L186.796045,22.573913 L194.465361,22.573913 Z M203.852604,22.0523826 C201.490455,22.0523826 200.447428,19.4754087 200.447428,15.3031652 C200.447428,11.1922783 201.521132,8.55394783 203.79125,8.55394783 C206.153399,8.55394783 207.196426,11.1309217 207.196426,15.3031652 C207.196426,19.4140522 206.122722,22.0523826 203.852604,22.0523826 L203.852604,22.0523826 Z M203.79125,23.0034087 C208.392839,23.0034087 211.184471,19.8742261 211.184471,14.8429913 C211.184471,10.3946435 208.208776,7.60292174 203.852604,7.60292174 C199.343046,7.60292174 196.459383,10.7321043 196.459383,15.7633391 C196.459383,20.211687 199.435078,23.0034087 203.79125,23.0034087 L203.79125,23.0034087 Z M219.283269,7.60292174 L213.54662,8.92208696 L213.54662,9.7504 L215.479288,10.0571826 L215.479288,21.2240696 L213.54662,21.8376348 L213.54662,22.573913 L221.093227,22.573913 L221.093227,21.8376348 L219.283269,21.2240696 L219.283269,11.1616 C220.172909,10.3026087 221.338645,9.71972174 222.381672,9.71972174 C224.038245,9.71972174 224.774499,10.7014261 224.774499,12.6648348 L224.774499,21.2240696 L222.811154,21.8376348 L222.811154,22.573913 L230.541825,22.573913 L230.541825,21.8376348 L228.547803,21.2240696 L228.547803,12.2660174 C228.547803,9.38226087 227.290035,7.60292174 224.467727,7.60292174 C222.811154,7.60292174 220.847809,8.36987826 219.283269,9.93446957 L219.283269,7.60292174 Z M258.519491,16.6530087 L257.261723,16.6530087 C256.678855,19.9049043 254.592801,21.8376348 251.739816,21.8376348 C246.923485,21.8376348 244.806754,17.9108174 244.806754,12.0819478 C244.806754,6.59053913 247.138226,2.6944 251.402366,2.6944 C254.255351,2.6944 256.310728,4.38170435 257.292401,7.81766957 L258.427459,7.81766957 L258.243396,2.90914783 C256.985628,2.38761739 253.795192,1.58998261 251.310334,1.58998261 C245.389622,1.58998261 240.511936,4.71916522 240.511936,12.450087 C240.511936,19.9049043 245.082849,23.0034087 251.555752,23.0034087 C254.132642,23.0034087 256.433437,22.2978087 258.120687,21.5615304 L258.519491,16.6530087 Z M269.133825,22.0523826 C266.771676,22.0523826 265.728649,19.4754087 265.728649,15.3031652 C265.728649,11.1922783 266.802353,8.55394783 269.072471,8.55394783 C271.43462,8.55394783 272.477647,11.1309217 272.477647,15.3031652 C272.477647,19.4140522 271.403943,22.0523826 269.133825,22.0523826 L269.133825,22.0523826 Z M269.072471,23.0034087 C273.67406,23.0034087 276.465692,19.8742261 276.465692,14.8429913 C276.465692,10.3946435 273.489997,7.60292174 269.133825,7.60292174 C264.624267,7.60292174 261.740604,10.7321043 261.740604,15.7633391 C261.740604,20.211687 264.716299,23.0034087 269.072471,23.0034087 L269.072471,23.0034087 Z M293.706315,21.2240696 L293.706315,10.8548174 C294.534601,10.1798957 295.731014,9.71972174 296.651332,9.71972174 C298.461291,9.71972174 299.074836,10.6400696 299.074836,12.6341565 L299.074836,21.2240696 L297.111491,21.8376348 L297.111491,22.573913 L304.842162,22.573913 L304.842162,21.8376348 L302.84814,21.2240696 L302.84814,12.2353391 C302.84814,9.38226087 301.559695,7.60292174 298.737386,7.60292174 C297.203523,7.60292174 295.056114,8.30852174 293.430219,9.93446957 C292.878029,8.76869565 291.804324,7.60292174 289.595561,7.60292174 C288.031021,7.60292174 286.221062,8.24716522 284.56449,9.99582609 L284.56449,7.60292174 L278.827841,8.92208696 L278.827841,9.7504 L280.760509,10.0571826 L280.760509,21.2240696 L278.827841,21.8376348 L278.827841,22.573913 L286.374448,22.573913 L286.374448,21.8376348 L284.56449,21.2240696 L284.56449,11.1616 C285.362099,10.2719304 286.558512,9.71972174 287.632216,9.71972174 C289.319466,9.71972174 289.933011,10.7014261 289.933011,12.6341565 L289.933011,21.2240696 L287.969666,21.8376348 L287.969666,22.573913 L295.700337,22.573913 L295.700337,21.8376348 L293.706315,21.2240696 Z M321.315854,21.2240696 L321.315854,10.8548174 C322.14414,10.1798957 323.340553,9.71972174 324.260871,9.71972174 C326.07083,9.71972174 326.684375,10.6400696 326.684375,12.6341565 L326.684375,21.2240696 L324.72103,21.8376348 L324.72103,22.573913 L332.451701,22.573913 L332.451701,21.8376348 L330.457679,21.2240696 L330.457679,12.2353391 C330.457679,9.38226087 329.169234,7.60292174 326.346925,7.60292174 C324.813062,7.60292174 322.665653,8.30852174 321.039758,9.93446957 C320.487568,8.76869565 319.413863,7.60292174 317.2051,7.60292174 C315.64056,7.60292174 313.830601,8.24716522 312.174029,9.99582609 L312.174029,7.60292174 L306.43738,8.92208696 L306.43738,9.7504 L308.370048,10.0571826 L308.370048,21.2240696 L306.43738,21.8376348 L306.43738,22.573913 L313.983987,22.573913 L313.983987,21.8376348 L312.174029,21.2240696 L312.174029,11.1616 C312.971638,10.2719304 314.168051,9.71972174 315.241755,9.71972174 C316.929005,9.71972174 317.54255,10.7014261 317.54255,12.6341565 L317.54255,21.2240696 L315.579205,21.8376348 L315.579205,22.573913 L323.309876,22.573913 L323.309876,21.8376348 L321.315854,21.2240696 Z M337.8509,5.08730435 C339.139345,5.08730435 340.151695,4.04424348 340.151695,2.8477913 C340.151695,1.52862609 339.139345,0.5776 337.8509,0.5776 C336.562455,0.5776 335.550105,1.62066087 335.550105,2.81711304 C335.550105,4.13627826 336.562455,5.08730435 337.8509,5.08730435 L337.8509,5.08730435 Z M341.716235,22.573913 L341.716235,21.8376348 L339.783568,21.2547478 L339.783568,7.60292174 L334.046919,8.92208696 L334.046919,9.7504 L335.979587,10.0571826 L335.979587,21.2547478 L334.046919,21.8376348 L334.046919,22.573913 L341.716235,22.573913 Z M354.754073,18.2789565 C354.754073,13.5851826 346.71663,14.1987478 346.71663,10.7934609 C346.71663,9.35158261 347.636948,8.55394783 348.986747,8.55394783 C350.919415,8.55394783 351.19551,10.5480348 351.256865,12.450087 C352.453278,12.450087 354.324591,12.2966957 354.324591,10.6707478 C354.324591,8.95276522 352.361246,7.60292174 349.446906,7.60292174 C346.532566,7.60292174 343.955676,9.01412174 343.955676,12.2966957 C343.955676,17.2052174 352.054474,16.683687 352.054474,20.0276174 C352.054474,21.3161043 350.888738,22.0217043 349.385552,22.0217043 C347.084757,22.0217043 346.103084,20.4264348 345.980375,18.0028522 C344.477189,18.094887 343.250099,18.8618435 343.250099,20.211687 C343.250099,21.9910261 346.195116,23.0034087 348.894715,23.0034087 C352.115828,23.0034087 354.754073,21.5308522 354.754073,18.2789565 L354.754073,18.2789565 Z M368.313424,18.2789565 C368.313424,13.5851826 360.275981,14.1987478 360.275981,10.7934609 C360.275981,9.35158261 361.196299,8.55394783 362.546099,8.55394783 C364.478766,8.55394783 364.754862,10.5480348 364.816216,12.450087 C366.01263,12.450087 367.883943,12.2966957 367.883943,10.6707478 C367.883943,8.95276522 365.920598,7.60292174 363.006258,7.60292174 C360.091917,7.60292174 357.515027,9.01412174 357.515027,12.2966957 C357.515027,17.2052174 365.613825,16.683687 365.613825,20.0276174 C365.613825,21.3161043 364.448089,22.0217043 362.944903,22.0217043 C360.644108,22.0217043 359.662436,20.4264348 359.539727,18.0028522 C358.036541,18.094887 356.80945,18.8618435 356.80945,20.211687 C356.80945,21.9910261 359.754467,23.0034087 362.454067,23.0034087 C365.67518,23.0034087 368.313424,21.5308522 368.313424,18.2789565 L368.313424,18.2789565 Z M374.234137,5.08730435 C375.522582,5.08730435 376.534932,4.04424348 376.534932,2.8477913 C376.534932,1.52862609 375.522582,0.5776 374.234137,0.5776 C372.945692,0.5776 371.933342,1.62066087 371.933342,2.81711304 C371.933342,4.13627826 372.945692,5.08730435 374.234137,5.08730435 L374.234137,5.08730435 Z M378.099472,22.573913 L378.099472,21.8376348 L376.166804,21.2547478 L376.166804,7.60292174 L370.430156,8.92208696 L370.430156,9.7504 L372.362824,10.0571826 L372.362824,21.2547478 L370.430156,21.8376348 L370.430156,22.573913 L378.099472,22.573913 Z M387.486715,22.0523826 C385.124566,22.0523826 384.081539,19.4754087 384.081539,15.3031652 C384.081539,11.1922783 385.155243,8.55394783 387.425361,8.55394783 C389.78751,8.55394783 390.830537,11.1309217 390.830537,15.3031652 C390.830537,19.4140522 389.756833,22.0523826 387.486715,22.0523826 L387.486715,22.0523826 Z M387.425361,23.0034087 C392.026951,23.0034087 394.818582,19.8742261 394.818582,14.8429913 C394.818582,10.3946435 391.842887,7.60292174 387.486715,7.60292174 C382.977157,7.60292174 380.093494,10.7321043 380.093494,15.7633391 C380.093494,20.211687 383.069189,23.0034087 387.425361,23.0034087 L387.425361,23.0034087 Z M402.91738,7.60292174 L397.180731,8.92208696 L397.180731,9.7504 L399.113399,10.0571826 L399.113399,21.2240696 L397.180731,21.8376348 L397.180731,22.573913 L404.727339,22.573913 L404.727339,21.8376348 L402.91738,21.2240696 L402.91738,11.1616 C403.807021,10.3026087 404.972757,9.71972174 406.015784,9.71972174 C407.672356,9.71972174 408.40861,10.7014261 408.40861,12.6648348 L408.40861,21.2240696 L406.445266,21.8376348 L406.445266,22.573913 L414.175936,22.573913 L414.175936,21.8376348 L412.181914,21.2240696 L412.181914,12.2660174 C412.181914,9.38226087 410.924146,7.60292174 408.101838,7.60292174 C406.445266,7.60292174 404.481921,8.36987826 402.91738,9.93446957 L402.91738,7.60292174 Z" id="Federal-Election-Com-Copy-6"></path>
                <path d="M3.41416852,35.4945739 L3.41416852,43.0312 C3.41416852,44.131078 3.68912497,44.924728 4.2390461,45.4121739 C4.78896724,45.8996198 5.51385242,46.1433391 6.41372337,46.1433391 C7.31359432,46.1433391 8.0384795,45.8996198 8.58840064,45.4121739 C9.13832177,44.924728 9.41327822,44.131078 9.41327822,43.0312 L9.41327822,35.4945739 L10.8943084,35.4945739 L10.8943084,43.0312 C10.8943084,44.5060364 10.4881228,45.6183963 9.67573927,46.368313 C8.86335577,47.1182298 7.7729035,47.4931826 6.40434976,47.4931826 C5.03579602,47.4931826 3.94846826,47.1182298 3.14233386,46.368313 C2.33619947,45.6183963 1.93313831,44.5060364 1.93313831,43.0312 L1.93313831,35.4945739 L3.41416852,35.4945739 Z M22.5721208,35.4945739 L28.4212528,44.9622261 L28.4212528,35.4945739 L29.902283,35.4945739 L29.902283,47.2869565 L28.2525278,47.2869565 L22.3096598,37.6880696 L22.3096598,47.2869565 L20.8098824,47.2869565 L20.8098824,35.4945739 L22.5721208,35.4945739 Z M40.080318,35.4945739 L41.5613482,35.4945739 L41.5613482,47.2869565 L40.080318,47.2869565 L40.080318,35.4945739 Z M49.9396502,35.4945739 L59.1070397,35.4945739 L59.1070397,36.7694261 L55.2638601,36.7694261 L55.2638601,47.2869565 L53.7828299,47.2869565 L53.7828299,36.7694261 L49.9396502,36.7694261 L49.9396502,35.4945739 Z M67.4853418,35.4945739 L74.7405151,35.4945739 L74.7405151,36.7694261 L68.966372,36.7694261 L68.966372,40.7252174 L74.4030652,40.7252174 L74.4030652,41.9813217 L68.966372,41.9813217 L68.966372,45.9933565 L74.7405151,45.9933565 L74.7405151,47.2869565 L67.4853418,47.2869565 L67.4853418,35.4945739 Z M87.8806105,35.4945739 C89.655356,35.4945739 91.0770058,36.0288816 92.1456025,37.097513 C93.2141993,38.1661445 93.7484897,39.5972142 93.7484897,41.3907652 C93.7484897,43.1843162 93.2141993,44.615386 92.1456025,45.6840174 C91.0770058,46.7526488 89.655356,47.2869565 87.8806105,47.2869565 L84.4123752,47.2869565 L84.4123752,35.4945739 L87.8806105,35.4945739 Z M85.8934054,45.9933565 L87.8806105,45.9933565 C89.1929223,45.9933565 90.236507,45.5590362 91.0113959,44.6903826 C91.7862847,43.821729 92.1737234,42.7187429 92.1737234,41.3813913 C92.1737234,40.0440397 91.7831602,38.9473028 91.0020223,38.0911478 C90.2208843,37.2349928 89.1804241,36.8069217 87.8806105,36.8069217 L85.8934054,36.8069217 L85.8934054,45.9933565 Z M120.347383,38.3629913 C120.134914,37.2131189 119.291297,36.6381913 117.816509,36.6381913 C117.029122,36.6381913 116.422968,36.8100447 115.998029,37.1537565 C115.57309,37.4974684 115.360623,37.9099164 115.360623,38.391113 C115.360623,38.8723097 115.491852,39.2378886 115.754315,39.4878609 C116.016777,39.7378331 116.44171,39.9565556 117.029126,40.1440348 L119.485011,40.987687 C120.322391,41.2751551 120.987911,41.6688555 121.48159,42.1688 C121.975269,42.6687445 122.222105,43.371781 122.222105,44.2779304 C122.222105,45.1840799 121.834666,45.9464839 121.059777,46.5651652 C120.284889,47.1838466 119.247553,47.4931826 117.947739,47.4931826 C116.647926,47.4931826 115.582469,47.1650989 114.751339,46.5089217 C113.920208,45.8527445 113.492151,44.9309856 113.467154,43.7436174 L114.91069,43.7436174 C114.91069,44.5185314 115.182522,45.1122066 115.726194,45.5246609 C116.269866,45.9371151 116.969755,46.1433391 117.825882,46.1433391 C118.68201,46.1433391 119.360027,45.9527381 119.859955,45.5715304 C120.359884,45.1903227 120.609844,44.7403794 120.609844,44.221687 C120.609844,43.7029945 120.456743,43.2936711 120.150537,42.9937043 C119.844331,42.6937376 119.391278,42.4437691 118.791364,42.2437913 L116.710423,41.4751304 C115.735563,41.1501665 114.99818,40.7627153 114.498251,40.3127652 C113.998323,39.8628151 113.748362,39.2035232 113.748362,38.3348696 C113.748362,37.4662159 114.098307,36.7413073 114.798207,36.1601217 C115.498106,35.5789362 116.479201,35.2883478 117.74152,35.2883478 C119.003839,35.2883478 119.969311,35.5664378 120.637965,36.1226261 C121.306619,36.6788144 121.690933,37.4255953 121.790919,38.3629913 L120.347383,38.3629913 Z M130.019243,35.4945739 L139.186633,35.4945739 L139.186633,36.7694261 L135.343453,36.7694261 L135.343453,47.2869565 L133.862423,47.2869565 L133.862423,36.7694261 L130.019243,36.7694261 L130.019243,35.4945739 Z M149.477151,35.4945739 L151.276884,35.4945739 L155.232547,47.2869565 L153.695275,47.2869565 L152.682925,44.2873043 L147.996121,44.2873043 L146.983771,47.2869565 L145.427752,47.2869565 L149.477151,35.4945739 Z M148.389812,43.1249391 L152.307981,43.1249391 L150.35827,37.313113 L148.389812,43.1249391 Z M161.473666,35.4945739 L170.641056,35.4945739 L170.641056,36.7694261 L166.797876,36.7694261 L166.797876,47.2869565 L165.316846,47.2869565 L165.316846,36.7694261 L161.473666,36.7694261 L161.473666,35.4945739 Z M179.019358,35.4945739 L186.274531,35.4945739 L186.274531,36.7694261 L180.500388,36.7694261 L180.500388,40.7252174 L185.937081,40.7252174 L185.937081,41.9813217 L180.500388,41.9813217 L180.500388,45.9933565 L186.274531,45.9933565 L186.274531,47.2869565 L179.019358,47.2869565 L179.019358,35.4945739 Z M202.245456,38.3629913 C202.032987,37.2131189 201.18937,36.6381913 199.714582,36.6381913 C198.927195,36.6381913 198.321041,36.8100447 197.896102,37.1537565 C197.471163,37.4974684 197.258696,37.9099164 197.258696,38.391113 C197.258696,38.8723097 197.389926,39.2378886 197.652388,39.4878609 C197.91485,39.7378331 198.339783,39.9565556 198.927199,40.1440348 L201.383084,40.987687 C202.220464,41.2751551 202.885984,41.6688555 203.379663,42.1688 C203.873342,42.6687445 204.120178,43.371781 204.120178,44.2779304 C204.120178,45.1840799 203.732739,45.9464839 202.957851,46.5651652 C202.182962,47.1838466 201.145626,47.4931826 199.845812,47.4931826 C198.545999,47.4931826 197.480543,47.1650989 196.649412,46.5089217 C195.818281,45.8527445 195.390224,44.9309856 195.365227,43.7436174 L196.808763,43.7436174 C196.808763,44.5185314 197.080595,45.1122066 197.624267,45.5246609 C198.167939,45.9371151 198.867828,46.1433391 199.723955,46.1433391 C200.580083,46.1433391 201.2581,45.9527381 201.758029,45.5715304 C202.257957,45.1903227 202.507917,44.7403794 202.507917,44.221687 C202.507917,43.7029945 202.354817,43.2936711 202.04861,42.9937043 C201.742404,42.6937376 201.289351,42.4437691 200.689437,42.2437913 L198.608496,41.4751304 C197.633636,41.1501665 196.896253,40.7627153 196.396324,40.3127652 C195.896396,39.8628151 195.646436,39.2035232 195.646436,38.3348696 C195.646436,37.4662159 195.99638,36.7413073 196.69628,36.1601217 C197.396179,35.5789362 198.377274,35.2883478 199.639593,35.2883478 C200.901912,35.2883478 201.867384,35.5664378 202.536038,36.1226261 C203.204692,36.6788144 203.589006,37.4255953 203.688992,38.3629913 L202.245456,38.3629913 Z M223.688865,41.193913 L235.237151,41.193913 L235.237151,42.4687652 L223.688865,42.4687652 L223.688865,41.193913 Z M251.339307,41.4001391 C251.339307,39.1504 250.120738,38.1380174 248.208521,38.1380174 C245.396439,38.1380174 243.446728,41.0251826 243.446728,44.2873043 C243.446728,46.5370435 244.665297,47.5494261 246.577514,47.5494261 C249.389596,47.5494261 251.339307,44.6622609 251.339307,41.4001391 L251.339307,41.4001391 Z M249.820782,41.5501217 C249.820782,44.3435478 248.602213,47.024487 246.746238,47.024487 C245.621405,47.024487 244.965253,45.8808696 244.965253,44.1373217 C244.965253,41.3438957 246.183822,38.6629565 248.039797,38.6629565 C249.16463,38.6629565 249.820782,39.8065739 249.820782,41.5501217 L249.820782,41.5501217 Z M262.510944,39.1316522 L264.610633,39.1316522 L264.741863,38.400487 L262.60468,38.400487 C262.885889,35.6633043 263.317075,34.8009043 263.991975,34.8009043 C264.535644,34.8009043 265.154302,35.1196174 265.510499,35.3633391 C265.847949,35.1196174 266.185399,34.6134261 266.185399,34.1822261 C266.185399,33.863513 265.941685,33.6760348 265.529246,33.6760348 C263.767008,33.6760348 261.648572,35.1946087 261.273628,37.6693217 L261.161145,38.400487 L259.867587,38.400487 L259.736356,39.1316522 L261.048661,39.1316522 L259.323917,49.2929739 C259.17394,50.1553739 258.948973,50.7553043 258.442798,50.7553043 C258.011612,50.7553043 257.411701,50.3053565 257.130493,50.0053913 C256.830537,50.2866087 256.455593,50.7740522 256.455593,51.1865043 C256.455593,51.5239652 256.868032,51.6926957 257.317965,51.6926957 C259.548884,51.6926957 260.7862,49.180487 261.086156,47.4369391 L262.510944,39.1316522 Z M272.763968,41.193913 L283.149927,41.193913 L283.037444,42.4687652 L272.651485,42.4687652 L272.763968,41.193913 Z M305.286983,35.4945739 L307.086715,35.4945739 L311.042378,47.2869565 L309.505107,47.2869565 L308.492757,44.2873043 L303.805952,44.2873043 L302.793603,47.2869565 L301.237583,47.2869565 L305.286983,35.4945739 Z M304.199644,43.1249391 L308.117812,43.1249391 L306.168102,37.313113 L304.199644,43.1249391 Z M321.932808,35.4945739 L325.907218,43.4811478 L329.844134,35.4945739 L331.925075,35.4945739 L331.925075,47.2869565 L330.444045,47.2869565 L330.444045,37.5943304 L326.394645,45.8058783 L325.401043,45.8058783 L321.295402,37.4630957 L321.295402,47.2869565 L319.814372,47.2869565 L319.814372,35.4945739 L321.932808,35.4945739 Z M342.084362,35.4945739 L349.339536,35.4945739 L349.339536,36.7694261 L343.565393,36.7694261 L343.565393,40.7252174 L349.002086,40.7252174 L349.002086,41.9813217 L343.565393,41.9813217 L343.565393,45.9933565 L349.339536,45.9933565 L349.339536,47.2869565 L342.084362,47.2869565 L342.084362,35.4945739 Z M366.463415,41.2314087 C365.944739,41.8313421 365.179236,42.2187933 364.166881,42.3937739 L367.54138,47.2869565 L365.629164,47.2869565 L362.573367,42.4687652 L360.511173,42.4687652 L360.511173,47.2869565 L359.030143,47.2869565 L359.030143,35.4945739 L363.135784,35.4945739 C364.460594,35.4945739 365.476058,35.8132838 366.182207,36.450713 C366.888355,37.0881423 367.241424,37.8942908 367.241424,38.8691826 C367.241424,39.8440744 366.982091,40.6314753 366.463415,41.2314087 L366.463415,41.2314087 Z M363.0233,41.4376348 C363.910673,41.4376348 364.582442,41.2220369 365.038626,40.7908348 C365.494811,40.3596326 365.7229,39.7909543 365.7229,39.0847826 C365.7229,38.378611 365.50106,37.8161818 365.057374,37.3974783 C364.613687,36.9787747 363.973164,36.7694261 363.135784,36.7694261 L360.511173,36.7694261 L360.511173,41.4376348 L363.0233,41.4376348 Z M376.913285,35.4945739 L378.394315,35.4945739 L378.394315,47.2869565 L376.913285,47.2869565 L376.913285,35.4945739 Z M392.640496,35.2883478 C393.902815,35.2883478 394.918279,35.6039331 395.686919,36.235113 C396.455559,36.866293 396.9836,37.6880645 397.271059,38.7004522 L395.677545,39.0191652 C395.427581,38.281747 395.037018,37.6974456 394.505844,37.2662435 C393.97467,36.8350413 393.352894,36.6194435 392.640496,36.6194435 C391.653138,36.6194435 390.834517,37.0318915 390.18461,37.8568 C389.534704,38.6817085 389.209755,39.828439 389.209755,41.2970261 C389.209755,42.7656131 389.500334,43.9435898 390.081501,44.8309913 C390.662667,45.7183928 391.515657,46.162087 392.640496,46.162087 C393.577862,46.162087 394.318369,45.915243 394.862041,45.4215478 C395.405713,44.9278526 395.677545,44.2748099 395.677545,43.4624 L397.271059,43.4624 C397.271059,44.6997627 396.849251,45.6808891 396.005622,46.4058087 C395.161993,47.1307283 394.005926,47.4931826 392.537386,47.4931826 C391.068847,47.4931826 389.881535,46.9307535 388.975415,45.8058783 C388.069295,44.6810031 387.616242,43.1749428 387.616242,41.2876522 C387.616242,39.4003616 388.084917,37.9286719 389.022283,36.8725391 C389.959649,35.8164063 391.165708,35.2883478 392.640496,35.2883478 L392.640496,35.2883478 Z M409.080102,35.4945739 L410.879835,35.4945739 L414.835498,47.2869565 L413.298226,47.2869565 L412.285876,44.2873043 L407.599072,44.2873043 L406.586722,47.2869565 L405.030703,47.2869565 L409.080102,35.4945739 Z M407.992763,43.1249391 L411.910932,43.1249391 L409.961221,37.313113 L407.992763,43.1249391 Z" id="UNITED-STATES-—of—-A-Copy"></path>
            </g>
        </g>
    </g>
</svg>